<?xml version="1.0" encoding="utf-8" standalone="no"?>
<!DOCTYPE svg PUBLIC "-//W3C//DTD SVG 1.1//EN"
  "http://www.w3.org/Graphics/SVG/1.1/DTD/svg11.dtd">
<svg xmlns:xlink="http://www.w3.org/1999/xlink" width="1044pt" height="345.6pt" viewBox="0 0 1044 345.6" xmlns="http://www.w3.org/2000/svg" version="1.1">
 <metadata>
  <rdf:RDF xmlns:dc="http://purl.org/dc/elements/1.1/" xmlns:cc="http://creativecommons.org/ns#" xmlns:rdf="http://www.w3.org/1999/02/22-rdf-syntax-ns#">
   <cc:Work>
    <dc:type rdf:resource="http://purl.org/dc/dcmitype/StillImage"/>
    <dc:date>2026-03-09T22:44:05.702506</dc:date>
    <dc:format>image/svg+xml</dc:format>
    <dc:creator>
     <cc:Agent>
      <dc:title>Matplotlib v3.10.8, https://matplotlib.org/</dc:title>
     </cc:Agent>
    </dc:creator>
   </cc:Work>
  </rdf:RDF>
 </metadata>
 <defs>
  <style type="text/css">*{stroke-linejoin: round; stroke-linecap: butt}</style>
 </defs>
 <g id="figure_1">
  <g id="patch_1">
   <path d="M 0 345.6 
L 1044 345.6 
L 1044 0 
L 0 0 
z
" style="fill: #ffffff"/>
  </g>
  <g id="axes_1">
   <g id="patch_2">
    <path d="M 33.55 246.440066 
L 344.34 246.440066 
L 344.34 143.655934 
L 33.55 143.655934 
z
" style="fill: #ffffff"/>
   </g>
   <g id="PathCollection_1">
    <defs>
     <path id="m4c5d76878c" d="M 0 2.44949 
C 0.649612 2.44949 1.272706 2.191396 1.732051 1.732051 
C 2.191396 1.272706 2.44949 0.649612 2.44949 0 
C 2.44949 -0.649612 2.191396 -1.272706 1.732051 -1.732051 
C 1.272706 -2.191396 0.649612 -2.44949 0 -2.44949 
C -0.649612 -2.44949 -1.272706 -2.191396 -1.732051 -1.732051 
C -2.191396 -1.272706 -2.44949 -0.649612 -2.44949 0 
C -2.44949 0.649612 -2.191396 1.272706 -1.732051 1.732051 
C -1.272706 2.191396 -0.649612 2.44949 0 2.44949 
z
" style="stroke: #000000"/>
    </defs>
    <g clip-path="url(#p1997f78c36)">
     <use xlink:href="#m4c5d76878c" x="47.676818" y="241.76806" style="stroke: #000000"/>
     <use xlink:href="#m4c5d76878c" x="330.213182" y="241.76806" style="stroke: #000000"/>
     <use xlink:href="#m4c5d76878c" x="153.627955" y="148.32794" style="stroke: #000000"/>
    </g>
   </g>
   <g id="matplotlib.axis_1">
    <g id="xtick_1">
     <g id="line2d_1">
      <path d="M 47.676818 246.440066 
L 47.676818 143.655934 
" clip-path="url(#p1997f78c36)" style="fill: none; stroke: #b0b0b0; stroke-opacity: 0.2; stroke-width: 0.8; stroke-linecap: square"/>
     </g>
     <g id="line2d_2">
      <defs>
       <path id="m6af5f97c7a" d="M 0 0 
L 0 3.5 
" style="stroke: #000000; stroke-width: 0.8"/>
      </defs>
      <g>
       <use xlink:href="#m6af5f97c7a" x="47.676818" y="246.440066" style="stroke: #000000; stroke-width: 0.8"/>
      </g>
     </g>
     <g id="text_1">
      <!-- 0.0 -->
      <g transform="translate(39.725256 261.038503) scale(0.1 -0.1)">
       <defs>
        <path id="DejaVuSans-30" d="M 2034 4250 
Q 1547 4250 1301 3770 
Q 1056 3291 1056 2328 
Q 1056 1369 1301 889 
Q 1547 409 2034 409 
Q 2525 409 2770 889 
Q 3016 1369 3016 2328 
Q 3016 3291 2770 3770 
Q 2525 4250 2034 4250 
z
M 2034 4750 
Q 2819 4750 3233 4129 
Q 3647 3509 3647 2328 
Q 3647 1150 3233 529 
Q 2819 -91 2034 -91 
Q 1250 -91 836 529 
Q 422 1150 422 2328 
Q 422 3509 836 4129 
Q 1250 4750 2034 4750 
z
" transform="scale(0.015625)"/>
        <path id="DejaVuSans-2e" d="M 684 794 
L 1344 794 
L 1344 0 
L 684 0 
L 684 794 
z
" transform="scale(0.015625)"/>
       </defs>
       <use xlink:href="#DejaVuSans-30"/>
       <use xlink:href="#DejaVuSans-2e" transform="translate(63.623047 0)"/>
       <use xlink:href="#DejaVuSans-30" transform="translate(95.410156 0)"/>
      </g>
     </g>
    </g>
    <g id="xtick_2">
     <g id="line2d_3">
      <path d="M 104.184091 246.440066 
L 104.184091 143.655934 
" clip-path="url(#p1997f78c36)" style="fill: none; stroke: #b0b0b0; stroke-opacity: 0.2; stroke-width: 0.8; stroke-linecap: square"/>
     </g>
     <g id="line2d_4">
      <g>
       <use xlink:href="#m6af5f97c7a" x="104.184091" y="246.440066" style="stroke: #000000; stroke-width: 0.8"/>
      </g>
     </g>
     <g id="text_2">
      <!-- 0.2 -->
      <g transform="translate(96.232528 261.038503) scale(0.1 -0.1)">
       <defs>
        <path id="DejaVuSans-32" d="M 1228 531 
L 3431 531 
L 3431 0 
L 469 0 
L 469 531 
Q 828 903 1448 1529 
Q 2069 2156 2228 2338 
Q 2531 2678 2651 2914 
Q 2772 3150 2772 3378 
Q 2772 3750 2511 3984 
Q 2250 4219 1831 4219 
Q 1534 4219 1204 4116 
Q 875 4013 500 3803 
L 500 4441 
Q 881 4594 1212 4672 
Q 1544 4750 1819 4750 
Q 2544 4750 2975 4387 
Q 3406 4025 3406 3419 
Q 3406 3131 3298 2873 
Q 3191 2616 2906 2266 
Q 2828 2175 2409 1742 
Q 1991 1309 1228 531 
z
" transform="scale(0.015625)"/>
       </defs>
       <use xlink:href="#DejaVuSans-30"/>
       <use xlink:href="#DejaVuSans-2e" transform="translate(63.623047 0)"/>
       <use xlink:href="#DejaVuSans-32" transform="translate(95.410156 0)"/>
      </g>
     </g>
    </g>
    <g id="xtick_3">
     <g id="line2d_5">
      <path d="M 160.691364 246.440066 
L 160.691364 143.655934 
" clip-path="url(#p1997f78c36)" style="fill: none; stroke: #b0b0b0; stroke-opacity: 0.2; stroke-width: 0.8; stroke-linecap: square"/>
     </g>
     <g id="line2d_6">
      <g>
       <use xlink:href="#m6af5f97c7a" x="160.691364" y="246.440066" style="stroke: #000000; stroke-width: 0.8"/>
      </g>
     </g>
     <g id="text_3">
      <!-- 0.4 -->
      <g transform="translate(152.739801 261.038503) scale(0.1 -0.1)">
       <defs>
        <path id="DejaVuSans-34" d="M 2419 4116 
L 825 1625 
L 2419 1625 
L 2419 4116 
z
M 2253 4666 
L 3047 4666 
L 3047 1625 
L 3713 1625 
L 3713 1100 
L 3047 1100 
L 3047 0 
L 2419 0 
L 2419 1100 
L 313 1100 
L 313 1709 
L 2253 4666 
z
" transform="scale(0.015625)"/>
       </defs>
       <use xlink:href="#DejaVuSans-30"/>
       <use xlink:href="#DejaVuSans-2e" transform="translate(63.623047 0)"/>
       <use xlink:href="#DejaVuSans-34" transform="translate(95.410156 0)"/>
      </g>
     </g>
    </g>
    <g id="xtick_4">
     <g id="line2d_7">
      <path d="M 217.198636 246.440066 
L 217.198636 143.655934 
" clip-path="url(#p1997f78c36)" style="fill: none; stroke: #b0b0b0; stroke-opacity: 0.2; stroke-width: 0.8; stroke-linecap: square"/>
     </g>
     <g id="line2d_8">
      <g>
       <use xlink:href="#m6af5f97c7a" x="217.198636" y="246.440066" style="stroke: #000000; stroke-width: 0.8"/>
      </g>
     </g>
     <g id="text_4">
      <!-- 0.6 -->
      <g transform="translate(209.247074 261.038503) scale(0.1 -0.1)">
       <defs>
        <path id="DejaVuSans-36" d="M 2113 2584 
Q 1688 2584 1439 2293 
Q 1191 2003 1191 1497 
Q 1191 994 1439 701 
Q 1688 409 2113 409 
Q 2538 409 2786 701 
Q 3034 994 3034 1497 
Q 3034 2003 2786 2293 
Q 2538 2584 2113 2584 
z
M 3366 4563 
L 3366 3988 
Q 3128 4100 2886 4159 
Q 2644 4219 2406 4219 
Q 1781 4219 1451 3797 
Q 1122 3375 1075 2522 
Q 1259 2794 1537 2939 
Q 1816 3084 2150 3084 
Q 2853 3084 3261 2657 
Q 3669 2231 3669 1497 
Q 3669 778 3244 343 
Q 2819 -91 2113 -91 
Q 1303 -91 875 529 
Q 447 1150 447 2328 
Q 447 3434 972 4092 
Q 1497 4750 2381 4750 
Q 2619 4750 2861 4703 
Q 3103 4656 3366 4563 
z
" transform="scale(0.015625)"/>
       </defs>
       <use xlink:href="#DejaVuSans-30"/>
       <use xlink:href="#DejaVuSans-2e" transform="translate(63.623047 0)"/>
       <use xlink:href="#DejaVuSans-36" transform="translate(95.410156 0)"/>
      </g>
     </g>
    </g>
    <g id="xtick_5">
     <g id="line2d_9">
      <path d="M 273.705909 246.440066 
L 273.705909 143.655934 
" clip-path="url(#p1997f78c36)" style="fill: none; stroke: #b0b0b0; stroke-opacity: 0.2; stroke-width: 0.8; stroke-linecap: square"/>
     </g>
     <g id="line2d_10">
      <g>
       <use xlink:href="#m6af5f97c7a" x="273.705909" y="246.440066" style="stroke: #000000; stroke-width: 0.8"/>
      </g>
     </g>
     <g id="text_5">
      <!-- 0.8 -->
      <g transform="translate(265.754347 261.038503) scale(0.1 -0.1)">
       <defs>
        <path id="DejaVuSans-38" d="M 2034 2216 
Q 1584 2216 1326 1975 
Q 1069 1734 1069 1313 
Q 1069 891 1326 650 
Q 1584 409 2034 409 
Q 2484 409 2743 651 
Q 3003 894 3003 1313 
Q 3003 1734 2745 1975 
Q 2488 2216 2034 2216 
z
M 1403 2484 
Q 997 2584 770 2862 
Q 544 3141 544 3541 
Q 544 4100 942 4425 
Q 1341 4750 2034 4750 
Q 2731 4750 3128 4425 
Q 3525 4100 3525 3541 
Q 3525 3141 3298 2862 
Q 3072 2584 2669 2484 
Q 3125 2378 3379 2068 
Q 3634 1759 3634 1313 
Q 3634 634 3220 271 
Q 2806 -91 2034 -91 
Q 1263 -91 848 271 
Q 434 634 434 1313 
Q 434 1759 690 2068 
Q 947 2378 1403 2484 
z
M 1172 3481 
Q 1172 3119 1398 2916 
Q 1625 2713 2034 2713 
Q 2441 2713 2670 2916 
Q 2900 3119 2900 3481 
Q 2900 3844 2670 4047 
Q 2441 4250 2034 4250 
Q 1625 4250 1398 4047 
Q 1172 3844 1172 3481 
z
" transform="scale(0.015625)"/>
       </defs>
       <use xlink:href="#DejaVuSans-30"/>
       <use xlink:href="#DejaVuSans-2e" transform="translate(63.623047 0)"/>
       <use xlink:href="#DejaVuSans-38" transform="translate(95.410156 0)"/>
      </g>
     </g>
    </g>
    <g id="xtick_6">
     <g id="line2d_11">
      <path d="M 330.213182 246.440066 
L 330.213182 143.655934 
" clip-path="url(#p1997f78c36)" style="fill: none; stroke: #b0b0b0; stroke-opacity: 0.2; stroke-width: 0.8; stroke-linecap: square"/>
     </g>
     <g id="line2d_12">
      <g>
       <use xlink:href="#m6af5f97c7a" x="330.213182" y="246.440066" style="stroke: #000000; stroke-width: 0.8"/>
      </g>
     </g>
     <g id="text_6">
      <!-- 1.0 -->
      <g transform="translate(322.261619 261.038503) scale(0.1 -0.1)">
       <defs>
        <path id="DejaVuSans-31" d="M 794 531 
L 1825 531 
L 1825 4091 
L 703 3866 
L 703 4441 
L 1819 4666 
L 2450 4666 
L 2450 531 
L 3481 531 
L 3481 0 
L 794 0 
L 794 531 
z
" transform="scale(0.015625)"/>
       </defs>
       <use xlink:href="#DejaVuSans-31"/>
       <use xlink:href="#DejaVuSans-2e" transform="translate(63.623047 0)"/>
       <use xlink:href="#DejaVuSans-30" transform="translate(95.410156 0)"/>
      </g>
     </g>
    </g>
   </g>
   <g id="matplotlib.axis_2">
    <g id="ytick_1">
     <g id="line2d_13">
      <path d="M 33.55 241.76806 
L 344.34 241.76806 
" clip-path="url(#p1997f78c36)" style="fill: none; stroke: #b0b0b0; stroke-opacity: 0.2; stroke-width: 0.8; stroke-linecap: square"/>
     </g>
     <g id="line2d_14">
      <defs>
       <path id="maaba47e6d7" d="M 0 0 
L -3.5 0 
" style="stroke: #000000; stroke-width: 0.8"/>
      </defs>
      <g>
       <use xlink:href="#maaba47e6d7" x="33.55" y="241.76806" style="stroke: #000000; stroke-width: 0.8"/>
      </g>
     </g>
     <g id="text_7">
      <!-- 0.0 -->
      <g transform="translate(10.646875 245.567278) scale(0.1 -0.1)">
       <use xlink:href="#DejaVuSans-30"/>
       <use xlink:href="#DejaVuSans-2e" transform="translate(63.623047 0)"/>
       <use xlink:href="#DejaVuSans-30" transform="translate(95.410156 0)"/>
      </g>
     </g>
    </g>
    <g id="ytick_2">
     <g id="line2d_15">
      <path d="M 33.55 213.514423 
L 344.34 213.514423 
" clip-path="url(#p1997f78c36)" style="fill: none; stroke: #b0b0b0; stroke-opacity: 0.2; stroke-width: 0.8; stroke-linecap: square"/>
     </g>
     <g id="line2d_16">
      <g>
       <use xlink:href="#maaba47e6d7" x="33.55" y="213.514423" style="stroke: #000000; stroke-width: 0.8"/>
      </g>
     </g>
     <g id="text_8">
      <!-- 0.1 -->
      <g transform="translate(10.646875 217.313642) scale(0.1 -0.1)">
       <use xlink:href="#DejaVuSans-30"/>
       <use xlink:href="#DejaVuSans-2e" transform="translate(63.623047 0)"/>
       <use xlink:href="#DejaVuSans-31" transform="translate(95.410156 0)"/>
      </g>
     </g>
    </g>
    <g id="ytick_3">
     <g id="line2d_17">
      <path d="M 33.55 185.260787 
L 344.34 185.260787 
" clip-path="url(#p1997f78c36)" style="fill: none; stroke: #b0b0b0; stroke-opacity: 0.2; stroke-width: 0.8; stroke-linecap: square"/>
     </g>
     <g id="line2d_18">
      <g>
       <use xlink:href="#maaba47e6d7" x="33.55" y="185.260787" style="stroke: #000000; stroke-width: 0.8"/>
      </g>
     </g>
     <g id="text_9">
      <!-- 0.2 -->
      <g transform="translate(10.646875 189.060006) scale(0.1 -0.1)">
       <use xlink:href="#DejaVuSans-30"/>
       <use xlink:href="#DejaVuSans-2e" transform="translate(63.623047 0)"/>
       <use xlink:href="#DejaVuSans-32" transform="translate(95.410156 0)"/>
      </g>
     </g>
    </g>
    <g id="ytick_4">
     <g id="line2d_19">
      <path d="M 33.55 157.007151 
L 344.34 157.007151 
" clip-path="url(#p1997f78c36)" style="fill: none; stroke: #b0b0b0; stroke-opacity: 0.2; stroke-width: 0.8; stroke-linecap: square"/>
     </g>
     <g id="line2d_20">
      <g>
       <use xlink:href="#maaba47e6d7" x="33.55" y="157.007151" style="stroke: #000000; stroke-width: 0.8"/>
      </g>
     </g>
     <g id="text_10">
      <!-- 0.3 -->
      <g transform="translate(10.646875 160.806369) scale(0.1 -0.1)">
       <defs>
        <path id="DejaVuSans-33" d="M 2597 2516 
Q 3050 2419 3304 2112 
Q 3559 1806 3559 1356 
Q 3559 666 3084 287 
Q 2609 -91 1734 -91 
Q 1441 -91 1130 -33 
Q 819 25 488 141 
L 488 750 
Q 750 597 1062 519 
Q 1375 441 1716 441 
Q 2309 441 2620 675 
Q 2931 909 2931 1356 
Q 2931 1769 2642 2001 
Q 2353 2234 1838 2234 
L 1294 2234 
L 1294 2753 
L 1863 2753 
Q 2328 2753 2575 2939 
Q 2822 3125 2822 3475 
Q 2822 3834 2567 4026 
Q 2313 4219 1838 4219 
Q 1578 4219 1281 4162 
Q 984 4106 628 3988 
L 628 4550 
Q 988 4650 1302 4700 
Q 1616 4750 1894 4750 
Q 2613 4750 3031 4423 
Q 3450 4097 3450 3541 
Q 3450 3153 3228 2886 
Q 3006 2619 2597 2516 
z
" transform="scale(0.015625)"/>
       </defs>
       <use xlink:href="#DejaVuSans-30"/>
       <use xlink:href="#DejaVuSans-2e" transform="translate(63.623047 0)"/>
       <use xlink:href="#DejaVuSans-33" transform="translate(95.410156 0)"/>
      </g>
     </g>
    </g>
   </g>
   <g id="line2d_21">
    <path d="M 47.676818 241.76806 
L 330.213182 241.76806 
" clip-path="url(#p1997f78c36)" style="fill: none; stroke: #1f77b4; stroke-width: 3; stroke-linecap: square"/>
   </g>
   <g id="line2d_22">
    <path d="M 47.676818 241.76806 
L 153.627955 148.32794 
" clip-path="url(#p1997f78c36)" style="fill: none; stroke: #d62728; stroke-width: 3; stroke-linecap: square"/>
   </g>
   <g id="line2d_23">
    <path d="M 330.213182 241.76806 
L 153.627955 148.32794 
" clip-path="url(#p1997f78c36)" style="fill: none; stroke: #2ca02c; stroke-width: 3; stroke-linecap: square"/>
   </g>
   <g id="patch_3">
    <path d="M 33.55 246.440066 
L 33.55 143.655934 
" style="fill: none; stroke: #000000; stroke-width: 0.8; stroke-linejoin: miter; stroke-linecap: square"/>
   </g>
   <g id="patch_4">
    <path d="M 344.34 246.440066 
L 344.34 143.655934 
" style="fill: none; stroke: #000000; stroke-width: 0.8; stroke-linejoin: miter; stroke-linecap: square"/>
   </g>
   <g id="patch_5">
    <path d="M 33.55 246.440066 
L 344.34 246.440066 
" style="fill: none; stroke: #000000; stroke-width: 0.8; stroke-linejoin: miter; stroke-linecap: square"/>
   </g>
   <g id="patch_6">
    <path d="M 33.55 143.655934 
L 344.34 143.655934 
" style="fill: none; stroke: #000000; stroke-width: 0.8; stroke-linejoin: miter; stroke-linecap: square"/>
   </g>
   <g id="text_11">
    <g id="patch_7">
     <path d="M 42.8737 188.818677 
L 119.819481 188.818677 
Q 122.069481 188.818677 122.069481 186.568677 
L 122.069481 146.489146 
Q 122.069481 144.239146 119.819481 144.239146 
L 42.8737 144.239146 
Q 40.6237 144.239146 40.6237 146.489146 
L 40.6237 186.568677 
Q 40.6237 188.818677 42.8737 188.818677 
z
" style="fill: #f7f7f7; stroke: #cccccc; stroke-linejoin: miter"/>
    </g>
    <!-- |x|=1.0000 -->
    <g transform="translate(42.8737 153.617427) scale(0.09 -0.09)">
     <defs>
      <path id="DejaVuSans-7c" d="M 1344 4891 
L 1344 -1509 
L 813 -1509 
L 813 4891 
L 1344 4891 
z
" transform="scale(0.015625)"/>
      <path id="DejaVuSans-78" d="M 3513 3500 
L 2247 1797 
L 3578 0 
L 2900 0 
L 1881 1375 
L 863 0 
L 184 0 
L 1544 1831 
L 300 3500 
L 978 3500 
L 1906 2253 
L 2834 3500 
L 3513 3500 
z
" transform="scale(0.015625)"/>
      <path id="DejaVuSans-3d" d="M 678 2906 
L 4684 2906 
L 4684 2381 
L 678 2381 
L 678 2906 
z
M 678 1631 
L 4684 1631 
L 4684 1100 
L 678 1100 
L 678 1631 
z
" transform="scale(0.015625)"/>
     </defs>
     <use xlink:href="#DejaVuSans-7c"/>
     <use xlink:href="#DejaVuSans-78" transform="translate(33.691406 0)"/>
     <use xlink:href="#DejaVuSans-7c" transform="translate(92.871094 0)"/>
     <use xlink:href="#DejaVuSans-3d" transform="translate(126.5625 0)"/>
     <use xlink:href="#DejaVuSans-31" transform="translate(210.351562 0)"/>
     <use xlink:href="#DejaVuSans-2e" transform="translate(273.974609 0)"/>
     <use xlink:href="#DejaVuSans-30" transform="translate(305.761719 0)"/>
     <use xlink:href="#DejaVuSans-30" transform="translate(369.384766 0)"/>
     <use xlink:href="#DejaVuSans-30" transform="translate(433.007812 0)"/>
     <use xlink:href="#DejaVuSans-30" transform="translate(496.630859 0)"/>
    </g>
    <!-- |y|=0.5000 -->
    <g transform="translate(42.8737 163.993021) scale(0.09 -0.09)">
     <defs>
      <path id="DejaVuSans-79" d="M 2059 -325 
Q 1816 -950 1584 -1140 
Q 1353 -1331 966 -1331 
L 506 -1331 
L 506 -850 
L 844 -850 
Q 1081 -850 1212 -737 
Q 1344 -625 1503 -206 
L 1606 56 
L 191 3500 
L 800 3500 
L 1894 763 
L 2988 3500 
L 3597 3500 
L 2059 -325 
z
" transform="scale(0.015625)"/>
      <path id="DejaVuSans-35" d="M 691 4666 
L 3169 4666 
L 3169 4134 
L 1269 4134 
L 1269 2991 
Q 1406 3038 1543 3061 
Q 1681 3084 1819 3084 
Q 2600 3084 3056 2656 
Q 3513 2228 3513 1497 
Q 3513 744 3044 326 
Q 2575 -91 1722 -91 
Q 1428 -91 1123 -41 
Q 819 9 494 109 
L 494 744 
Q 775 591 1075 516 
Q 1375 441 1709 441 
Q 2250 441 2565 725 
Q 2881 1009 2881 1497 
Q 2881 1984 2565 2268 
Q 2250 2553 1709 2553 
Q 1456 2553 1204 2497 
Q 953 2441 691 2322 
L 691 4666 
z
" transform="scale(0.015625)"/>
     </defs>
     <use xlink:href="#DejaVuSans-7c"/>
     <use xlink:href="#DejaVuSans-79" transform="translate(33.691406 0)"/>
     <use xlink:href="#DejaVuSans-7c" transform="translate(92.871094 0)"/>
     <use xlink:href="#DejaVuSans-3d" transform="translate(126.5625 0)"/>
     <use xlink:href="#DejaVuSans-30" transform="translate(210.351562 0)"/>
     <use xlink:href="#DejaVuSans-2e" transform="translate(273.974609 0)"/>
     <use xlink:href="#DejaVuSans-35" transform="translate(305.761719 0)"/>
     <use xlink:href="#DejaVuSans-30" transform="translate(369.384766 0)"/>
     <use xlink:href="#DejaVuSans-30" transform="translate(433.007812 0)"/>
     <use xlink:href="#DejaVuSans-30" transform="translate(496.630859 0)"/>
    </g>
    <!-- |y-x|=0.7071 -->
    <g transform="translate(42.8737 174.368615) scale(0.09 -0.09)">
     <defs>
      <path id="DejaVuSans-2d" d="M 313 2009 
L 1997 2009 
L 1997 1497 
L 313 1497 
L 313 2009 
z
" transform="scale(0.015625)"/>
      <path id="DejaVuSans-37" d="M 525 4666 
L 3525 4666 
L 3525 4397 
L 1831 0 
L 1172 0 
L 2766 4134 
L 525 4134 
L 525 4666 
z
" transform="scale(0.015625)"/>
     </defs>
     <use xlink:href="#DejaVuSans-7c"/>
     <use xlink:href="#DejaVuSans-79" transform="translate(33.691406 0)"/>
     <use xlink:href="#DejaVuSans-2d" transform="translate(91.121094 0)"/>
     <use xlink:href="#DejaVuSans-78" transform="translate(127.205078 0)"/>
     <use xlink:href="#DejaVuSans-7c" transform="translate(186.384766 0)"/>
     <use xlink:href="#DejaVuSans-3d" transform="translate(220.076172 0)"/>
     <use xlink:href="#DejaVuSans-30" transform="translate(303.865234 0)"/>
     <use xlink:href="#DejaVuSans-2e" transform="translate(367.488281 0)"/>
     <use xlink:href="#DejaVuSans-37" transform="translate(399.275391 0)"/>
     <use xlink:href="#DejaVuSans-30" transform="translate(462.898438 0)"/>
     <use xlink:href="#DejaVuSans-37" transform="translate(526.521484 0)"/>
     <use xlink:href="#DejaVuSans-31" transform="translate(590.144531 0)"/>
    </g>
    <!-- theta=41.41 deg -->
    <g transform="translate(42.8737 184.696958) scale(0.09 -0.09)">
     <defs>
      <path id="DejaVuSans-74" d="M 1172 4494 
L 1172 3500 
L 2356 3500 
L 2356 3053 
L 1172 3053 
L 1172 1153 
Q 1172 725 1289 603 
Q 1406 481 1766 481 
L 2356 481 
L 2356 0 
L 1766 0 
Q 1100 0 847 248 
Q 594 497 594 1153 
L 594 3053 
L 172 3053 
L 172 3500 
L 594 3500 
L 594 4494 
L 1172 4494 
z
" transform="scale(0.015625)"/>
      <path id="DejaVuSans-68" d="M 3513 2113 
L 3513 0 
L 2938 0 
L 2938 2094 
Q 2938 2591 2744 2837 
Q 2550 3084 2163 3084 
Q 1697 3084 1428 2787 
Q 1159 2491 1159 1978 
L 1159 0 
L 581 0 
L 581 4863 
L 1159 4863 
L 1159 2956 
Q 1366 3272 1645 3428 
Q 1925 3584 2291 3584 
Q 2894 3584 3203 3211 
Q 3513 2838 3513 2113 
z
" transform="scale(0.015625)"/>
      <path id="DejaVuSans-65" d="M 3597 1894 
L 3597 1613 
L 953 1613 
Q 991 1019 1311 708 
Q 1631 397 2203 397 
Q 2534 397 2845 478 
Q 3156 559 3463 722 
L 3463 178 
Q 3153 47 2828 -22 
Q 2503 -91 2169 -91 
Q 1331 -91 842 396 
Q 353 884 353 1716 
Q 353 2575 817 3079 
Q 1281 3584 2069 3584 
Q 2775 3584 3186 3129 
Q 3597 2675 3597 1894 
z
M 3022 2063 
Q 3016 2534 2758 2815 
Q 2500 3097 2075 3097 
Q 1594 3097 1305 2825 
Q 1016 2553 972 2059 
L 3022 2063 
z
" transform="scale(0.015625)"/>
      <path id="DejaVuSans-61" d="M 2194 1759 
Q 1497 1759 1228 1600 
Q 959 1441 959 1056 
Q 959 750 1161 570 
Q 1363 391 1709 391 
Q 2188 391 2477 730 
Q 2766 1069 2766 1631 
L 2766 1759 
L 2194 1759 
z
M 3341 1997 
L 3341 0 
L 2766 0 
L 2766 531 
Q 2569 213 2275 61 
Q 1981 -91 1556 -91 
Q 1019 -91 701 211 
Q 384 513 384 1019 
Q 384 1609 779 1909 
Q 1175 2209 1959 2209 
L 2766 2209 
L 2766 2266 
Q 2766 2663 2505 2880 
Q 2244 3097 1772 3097 
Q 1472 3097 1187 3025 
Q 903 2953 641 2809 
L 641 3341 
Q 956 3463 1253 3523 
Q 1550 3584 1831 3584 
Q 2591 3584 2966 3190 
Q 3341 2797 3341 1997 
z
" transform="scale(0.015625)"/>
      <path id="DejaVuSans-20" transform="scale(0.015625)"/>
      <path id="DejaVuSans-64" d="M 2906 2969 
L 2906 4863 
L 3481 4863 
L 3481 0 
L 2906 0 
L 2906 525 
Q 2725 213 2448 61 
Q 2172 -91 1784 -91 
Q 1150 -91 751 415 
Q 353 922 353 1747 
Q 353 2572 751 3078 
Q 1150 3584 1784 3584 
Q 2172 3584 2448 3432 
Q 2725 3281 2906 2969 
z
M 947 1747 
Q 947 1113 1208 752 
Q 1469 391 1925 391 
Q 2381 391 2643 752 
Q 2906 1113 2906 1747 
Q 2906 2381 2643 2742 
Q 2381 3103 1925 3103 
Q 1469 3103 1208 2742 
Q 947 2381 947 1747 
z
" transform="scale(0.015625)"/>
      <path id="DejaVuSans-67" d="M 2906 1791 
Q 2906 2416 2648 2759 
Q 2391 3103 1925 3103 
Q 1463 3103 1205 2759 
Q 947 2416 947 1791 
Q 947 1169 1205 825 
Q 1463 481 1925 481 
Q 2391 481 2648 825 
Q 2906 1169 2906 1791 
z
M 3481 434 
Q 3481 -459 3084 -895 
Q 2688 -1331 1869 -1331 
Q 1566 -1331 1297 -1286 
Q 1028 -1241 775 -1147 
L 775 -588 
Q 1028 -725 1275 -790 
Q 1522 -856 1778 -856 
Q 2344 -856 2625 -561 
Q 2906 -266 2906 331 
L 2906 616 
Q 2728 306 2450 153 
Q 2172 0 1784 0 
Q 1141 0 747 490 
Q 353 981 353 1791 
Q 353 2603 747 3093 
Q 1141 3584 1784 3584 
Q 2172 3584 2450 3431 
Q 2728 3278 2906 2969 
L 2906 3500 
L 3481 3500 
L 3481 434 
z
" transform="scale(0.015625)"/>
     </defs>
     <use xlink:href="#DejaVuSans-74"/>
     <use xlink:href="#DejaVuSans-68" transform="translate(39.208984 0)"/>
     <use xlink:href="#DejaVuSans-65" transform="translate(102.587891 0)"/>
     <use xlink:href="#DejaVuSans-74" transform="translate(164.111328 0)"/>
     <use xlink:href="#DejaVuSans-61" transform="translate(203.320312 0)"/>
     <use xlink:href="#DejaVuSans-3d" transform="translate(264.599609 0)"/>
     <use xlink:href="#DejaVuSans-34" transform="translate(348.388672 0)"/>
     <use xlink:href="#DejaVuSans-31" transform="translate(412.011719 0)"/>
     <use xlink:href="#DejaVuSans-2e" transform="translate(475.634766 0)"/>
     <use xlink:href="#DejaVuSans-34" transform="translate(507.421875 0)"/>
     <use xlink:href="#DejaVuSans-31" transform="translate(571.044922 0)"/>
     <use xlink:href="#DejaVuSans-20" transform="translate(634.667969 0)"/>
     <use xlink:href="#DejaVuSans-64" transform="translate(666.455078 0)"/>
     <use xlink:href="#DejaVuSans-65" transform="translate(729.931641 0)"/>
     <use xlink:href="#DejaVuSans-67" transform="translate(791.455078 0)"/>
    </g>
   </g>
   <g id="text_12">
    <!-- Local Compensating Triangle -->
    <g transform="translate(102.576875 137.655934) scale(0.12 -0.12)">
     <defs>
      <path id="DejaVuSans-4c" d="M 628 4666 
L 1259 4666 
L 1259 531 
L 3531 531 
L 3531 0 
L 628 0 
L 628 4666 
z
" transform="scale(0.015625)"/>
      <path id="DejaVuSans-6f" d="M 1959 3097 
Q 1497 3097 1228 2736 
Q 959 2375 959 1747 
Q 959 1119 1226 758 
Q 1494 397 1959 397 
Q 2419 397 2687 759 
Q 2956 1122 2956 1747 
Q 2956 2369 2687 2733 
Q 2419 3097 1959 3097 
z
M 1959 3584 
Q 2709 3584 3137 3096 
Q 3566 2609 3566 1747 
Q 3566 888 3137 398 
Q 2709 -91 1959 -91 
Q 1206 -91 779 398 
Q 353 888 353 1747 
Q 353 2609 779 3096 
Q 1206 3584 1959 3584 
z
" transform="scale(0.015625)"/>
      <path id="DejaVuSans-63" d="M 3122 3366 
L 3122 2828 
Q 2878 2963 2633 3030 
Q 2388 3097 2138 3097 
Q 1578 3097 1268 2742 
Q 959 2388 959 1747 
Q 959 1106 1268 751 
Q 1578 397 2138 397 
Q 2388 397 2633 464 
Q 2878 531 3122 666 
L 3122 134 
Q 2881 22 2623 -34 
Q 2366 -91 2075 -91 
Q 1284 -91 818 406 
Q 353 903 353 1747 
Q 353 2603 823 3093 
Q 1294 3584 2113 3584 
Q 2378 3584 2631 3529 
Q 2884 3475 3122 3366 
z
" transform="scale(0.015625)"/>
      <path id="DejaVuSans-6c" d="M 603 4863 
L 1178 4863 
L 1178 0 
L 603 0 
L 603 4863 
z
" transform="scale(0.015625)"/>
      <path id="DejaVuSans-43" d="M 4122 4306 
L 4122 3641 
Q 3803 3938 3442 4084 
Q 3081 4231 2675 4231 
Q 1875 4231 1450 3742 
Q 1025 3253 1025 2328 
Q 1025 1406 1450 917 
Q 1875 428 2675 428 
Q 3081 428 3442 575 
Q 3803 722 4122 1019 
L 4122 359 
Q 3791 134 3420 21 
Q 3050 -91 2638 -91 
Q 1578 -91 968 557 
Q 359 1206 359 2328 
Q 359 3453 968 4101 
Q 1578 4750 2638 4750 
Q 3056 4750 3426 4639 
Q 3797 4528 4122 4306 
z
" transform="scale(0.015625)"/>
      <path id="DejaVuSans-6d" d="M 3328 2828 
Q 3544 3216 3844 3400 
Q 4144 3584 4550 3584 
Q 5097 3584 5394 3201 
Q 5691 2819 5691 2113 
L 5691 0 
L 5113 0 
L 5113 2094 
Q 5113 2597 4934 2840 
Q 4756 3084 4391 3084 
Q 3944 3084 3684 2787 
Q 3425 2491 3425 1978 
L 3425 0 
L 2847 0 
L 2847 2094 
Q 2847 2600 2669 2842 
Q 2491 3084 2119 3084 
Q 1678 3084 1418 2786 
Q 1159 2488 1159 1978 
L 1159 0 
L 581 0 
L 581 3500 
L 1159 3500 
L 1159 2956 
Q 1356 3278 1631 3431 
Q 1906 3584 2284 3584 
Q 2666 3584 2933 3390 
Q 3200 3197 3328 2828 
z
" transform="scale(0.015625)"/>
      <path id="DejaVuSans-70" d="M 1159 525 
L 1159 -1331 
L 581 -1331 
L 581 3500 
L 1159 3500 
L 1159 2969 
Q 1341 3281 1617 3432 
Q 1894 3584 2278 3584 
Q 2916 3584 3314 3078 
Q 3713 2572 3713 1747 
Q 3713 922 3314 415 
Q 2916 -91 2278 -91 
Q 1894 -91 1617 61 
Q 1341 213 1159 525 
z
M 3116 1747 
Q 3116 2381 2855 2742 
Q 2594 3103 2138 3103 
Q 1681 3103 1420 2742 
Q 1159 2381 1159 1747 
Q 1159 1113 1420 752 
Q 1681 391 2138 391 
Q 2594 391 2855 752 
Q 3116 1113 3116 1747 
z
" transform="scale(0.015625)"/>
      <path id="DejaVuSans-6e" d="M 3513 2113 
L 3513 0 
L 2938 0 
L 2938 2094 
Q 2938 2591 2744 2837 
Q 2550 3084 2163 3084 
Q 1697 3084 1428 2787 
Q 1159 2491 1159 1978 
L 1159 0 
L 581 0 
L 581 3500 
L 1159 3500 
L 1159 2956 
Q 1366 3272 1645 3428 
Q 1925 3584 2291 3584 
Q 2894 3584 3203 3211 
Q 3513 2838 3513 2113 
z
" transform="scale(0.015625)"/>
      <path id="DejaVuSans-73" d="M 2834 3397 
L 2834 2853 
Q 2591 2978 2328 3040 
Q 2066 3103 1784 3103 
Q 1356 3103 1142 2972 
Q 928 2841 928 2578 
Q 928 2378 1081 2264 
Q 1234 2150 1697 2047 
L 1894 2003 
Q 2506 1872 2764 1633 
Q 3022 1394 3022 966 
Q 3022 478 2636 193 
Q 2250 -91 1575 -91 
Q 1294 -91 989 -36 
Q 684 19 347 128 
L 347 722 
Q 666 556 975 473 
Q 1284 391 1588 391 
Q 1994 391 2212 530 
Q 2431 669 2431 922 
Q 2431 1156 2273 1281 
Q 2116 1406 1581 1522 
L 1381 1569 
Q 847 1681 609 1914 
Q 372 2147 372 2553 
Q 372 3047 722 3315 
Q 1072 3584 1716 3584 
Q 2034 3584 2315 3537 
Q 2597 3491 2834 3397 
z
" transform="scale(0.015625)"/>
      <path id="DejaVuSans-69" d="M 603 3500 
L 1178 3500 
L 1178 0 
L 603 0 
L 603 3500 
z
M 603 4863 
L 1178 4863 
L 1178 4134 
L 603 4134 
L 603 4863 
z
" transform="scale(0.015625)"/>
      <path id="DejaVuSans-54" d="M -19 4666 
L 3928 4666 
L 3928 4134 
L 2272 4134 
L 2272 0 
L 1638 0 
L 1638 4134 
L -19 4134 
L -19 4666 
z
" transform="scale(0.015625)"/>
      <path id="DejaVuSans-72" d="M 2631 2963 
Q 2534 3019 2420 3045 
Q 2306 3072 2169 3072 
Q 1681 3072 1420 2755 
Q 1159 2438 1159 1844 
L 1159 0 
L 581 0 
L 581 3500 
L 1159 3500 
L 1159 2956 
Q 1341 3275 1631 3429 
Q 1922 3584 2338 3584 
Q 2397 3584 2469 3576 
Q 2541 3569 2628 3553 
L 2631 2963 
z
" transform="scale(0.015625)"/>
     </defs>
     <use xlink:href="#DejaVuSans-4c"/>
     <use xlink:href="#DejaVuSans-6f" transform="translate(53.962891 0)"/>
     <use xlink:href="#DejaVuSans-63" transform="translate(115.144531 0)"/>
     <use xlink:href="#DejaVuSans-61" transform="translate(170.125 0)"/>
     <use xlink:href="#DejaVuSans-6c" transform="translate(231.404297 0)"/>
     <use xlink:href="#DejaVuSans-20" transform="translate(259.1875 0)"/>
     <use xlink:href="#DejaVuSans-43" transform="translate(290.974609 0)"/>
     <use xlink:href="#DejaVuSans-6f" transform="translate(360.798828 0)"/>
     <use xlink:href="#DejaVuSans-6d" transform="translate(421.980469 0)"/>
     <use xlink:href="#DejaVuSans-70" transform="translate(519.392578 0)"/>
     <use xlink:href="#DejaVuSans-65" transform="translate(582.869141 0)"/>
     <use xlink:href="#DejaVuSans-6e" transform="translate(644.392578 0)"/>
     <use xlink:href="#DejaVuSans-73" transform="translate(707.771484 0)"/>
     <use xlink:href="#DejaVuSans-61" transform="translate(759.871094 0)"/>
     <use xlink:href="#DejaVuSans-74" transform="translate(821.150391 0)"/>
     <use xlink:href="#DejaVuSans-69" transform="translate(860.359375 0)"/>
     <use xlink:href="#DejaVuSans-6e" transform="translate(888.142578 0)"/>
     <use xlink:href="#DejaVuSans-67" transform="translate(951.521484 0)"/>
     <use xlink:href="#DejaVuSans-20" transform="translate(1014.998047 0)"/>
     <use xlink:href="#DejaVuSans-54" transform="translate(1046.785156 0)"/>
     <use xlink:href="#DejaVuSans-72" transform="translate(1093.119141 0)"/>
     <use xlink:href="#DejaVuSans-69" transform="translate(1134.232422 0)"/>
     <use xlink:href="#DejaVuSans-61" transform="translate(1162.015625 0)"/>
     <use xlink:href="#DejaVuSans-6e" transform="translate(1223.294922 0)"/>
     <use xlink:href="#DejaVuSans-67" transform="translate(1286.673828 0)"/>
     <use xlink:href="#DejaVuSans-6c" transform="translate(1350.150391 0)"/>
     <use xlink:href="#DejaVuSans-65" transform="translate(1377.933594 0)"/>
    </g>
   </g>
   <g id="legend_1">
    <g id="patch_8">
     <path d="M 300.92375 185.283434 
L 338.74 185.283434 
Q 340.34 185.283434 340.34 183.683434 
L 340.34 149.255934 
Q 340.34 147.655934 338.74 147.655934 
L 300.92375 147.655934 
Q 299.32375 147.655934 299.32375 149.255934 
L 299.32375 183.683434 
Q 299.32375 185.283434 300.92375 185.283434 
z
" style="fill: #ffffff; opacity: 0.8; stroke: #cccccc; stroke-linejoin: miter"/>
    </g>
    <g id="line2d_24">
     <path d="M 302.52375 154.134684 
L 310.52375 154.134684 
L 318.52375 154.134684 
" style="fill: none; stroke: #1f77b4; stroke-width: 3; stroke-linecap: square"/>
    </g>
    <g id="text_13">
     <!-- x -->
     <g transform="translate(324.92375 156.934684) scale(0.08 -0.08)">
      <use xlink:href="#DejaVuSans-78"/>
     </g>
    </g>
    <g id="line2d_25">
     <path d="M 302.52375 165.877184 
L 310.52375 165.877184 
L 318.52375 165.877184 
" style="fill: none; stroke: #d62728; stroke-width: 3; stroke-linecap: square"/>
    </g>
    <g id="text_14">
     <!-- y -->
     <g transform="translate(324.92375 168.677184) scale(0.08 -0.08)">
      <use xlink:href="#DejaVuSans-79"/>
     </g>
    </g>
    <g id="line2d_26">
     <path d="M 302.52375 177.619684 
L 310.52375 177.619684 
L 318.52375 177.619684 
" style="fill: none; stroke: #2ca02c; stroke-width: 3; stroke-linecap: square"/>
    </g>
    <g id="text_15">
     <!-- y-x -->
     <g transform="translate(324.92375 180.419684) scale(0.08 -0.08)">
      <use xlink:href="#DejaVuSans-79"/>
      <use xlink:href="#DejaVuSans-2d" transform="translate(57.429688 0)"/>
      <use xlink:href="#DejaVuSans-78" transform="translate(93.513672 0)"/>
     </g>
    </g>
   </g>
  </g>
  <g id="axes_2">
   <g id="patch_9">
    <path d="M 377.98 298.804153 
L 688.77 298.804153 
L 688.77 91.291847 
L 377.98 91.291847 
z
" style="fill: #ffffff"/>
   </g>
   <g id="patch_10">
    <path d="M 464.634832 287.302727 
L 461.53126 288.337251 
L 461.53126 287.647569 
L 392.563 287.647569 
L 392.563 286.957886 
L 461.53126 286.957886 
L 461.53126 286.268203 
z
" clip-path="url(#p7fe2249932)" style="fill: #1f77b4; opacity: 0.8; stroke: #1f77b4; stroke-linejoin: miter"/>
   </g>
   <g id="patch_11">
    <path d="M 420.753776 262.4408 
L 419.110371 265.269512 
L 418.654189 264.75225 
L 392.791091 287.561358 
L 392.334909 287.044096 
L 418.198007 264.234988 
L 417.741824 263.717727 
z
" clip-path="url(#p7fe2249932)" style="fill: #d62728; opacity: 0.8; stroke: #d62728; stroke-linejoin: miter"/>
   </g>
   <g id="patch_12">
    <path d="M 674.643182 287.302727 
L 668.436038 289.371775 
L 668.436038 287.99241 
L 392.563 287.99241 
L 392.563 286.613045 
L 668.436038 286.613045 
L 668.436038 285.23368 
z
" clip-path="url(#p7fe2249932)" style="fill: #1f77b4; stroke: #1f77b4; stroke-linejoin: miter"/>
   </g>
   <g id="patch_13">
    <path d="M 604.123136 100.724225 
L 600.836325 106.38165 
L 599.923961 105.347126 
L 393.019182 287.819989 
L 392.106818 286.785465 
L 599.011597 104.312602 
L 598.099232 103.278078 
z
" clip-path="url(#p7fe2249932)" style="fill: #d62728; stroke: #d62728; stroke-linejoin: miter"/>
   </g>
   <g id="matplotlib.axis_3">
    <g id="xtick_7">
     <g id="line2d_27">
      <path d="M 392.563 298.804153 
L 392.563 91.291847 
" clip-path="url(#p7fe2249932)" style="fill: none; stroke: #b0b0b0; stroke-opacity: 0.2; stroke-width: 0.8; stroke-linecap: square"/>
     </g>
     <g id="line2d_28">
      <g>
       <use xlink:href="#m6af5f97c7a" x="392.563" y="298.804153" style="stroke: #000000; stroke-width: 0.8"/>
      </g>
     </g>
     <g id="text_16">
      <!-- 0 -->
      <g transform="translate(389.38175 313.40259) scale(0.1 -0.1)">
       <use xlink:href="#DejaVuSans-30"/>
      </g>
     </g>
    </g>
    <g id="xtick_8">
     <g id="line2d_29">
      <path d="M 461.53126 298.804153 
L 461.53126 91.291847 
" clip-path="url(#p7fe2249932)" style="fill: none; stroke: #b0b0b0; stroke-opacity: 0.2; stroke-width: 0.8; stroke-linecap: square"/>
     </g>
     <g id="line2d_30">
      <g>
       <use xlink:href="#m6af5f97c7a" x="461.53126" y="298.804153" style="stroke: #000000; stroke-width: 0.8"/>
      </g>
     </g>
     <g id="text_17">
      <!-- 1 -->
      <g transform="translate(458.35001 313.40259) scale(0.1 -0.1)">
       <use xlink:href="#DejaVuSans-31"/>
      </g>
     </g>
    </g>
    <g id="xtick_9">
     <g id="line2d_31">
      <path d="M 530.499519 298.804153 
L 530.499519 91.291847 
" clip-path="url(#p7fe2249932)" style="fill: none; stroke: #b0b0b0; stroke-opacity: 0.2; stroke-width: 0.8; stroke-linecap: square"/>
     </g>
     <g id="line2d_32">
      <g>
       <use xlink:href="#m6af5f97c7a" x="530.499519" y="298.804153" style="stroke: #000000; stroke-width: 0.8"/>
      </g>
     </g>
     <g id="text_18">
      <!-- 2 -->
      <g transform="translate(527.318269 313.40259) scale(0.1 -0.1)">
       <use xlink:href="#DejaVuSans-32"/>
      </g>
     </g>
    </g>
    <g id="xtick_10">
     <g id="line2d_33">
      <path d="M 599.467779 298.804153 
L 599.467779 91.291847 
" clip-path="url(#p7fe2249932)" style="fill: none; stroke: #b0b0b0; stroke-opacity: 0.2; stroke-width: 0.8; stroke-linecap: square"/>
     </g>
     <g id="line2d_34">
      <g>
       <use xlink:href="#m6af5f97c7a" x="599.467779" y="298.804153" style="stroke: #000000; stroke-width: 0.8"/>
      </g>
     </g>
     <g id="text_19">
      <!-- 3 -->
      <g transform="translate(596.286529 313.40259) scale(0.1 -0.1)">
       <use xlink:href="#DejaVuSans-33"/>
      </g>
     </g>
    </g>
    <g id="xtick_11">
     <g id="line2d_35">
      <path d="M 668.436038 298.804153 
L 668.436038 91.291847 
" clip-path="url(#p7fe2249932)" style="fill: none; stroke: #b0b0b0; stroke-opacity: 0.2; stroke-width: 0.8; stroke-linecap: square"/>
     </g>
     <g id="line2d_36">
      <g>
       <use xlink:href="#m6af5f97c7a" x="668.436038" y="298.804153" style="stroke: #000000; stroke-width: 0.8"/>
      </g>
     </g>
     <g id="text_20">
      <!-- 4 -->
      <g transform="translate(665.254788 313.40259) scale(0.1 -0.1)">
       <use xlink:href="#DejaVuSans-34"/>
      </g>
     </g>
    </g>
   </g>
   <g id="matplotlib.axis_4">
    <g id="ytick_5">
     <g id="line2d_37">
      <path d="M 377.98 287.302727 
L 688.77 287.302727 
" clip-path="url(#p7fe2249932)" style="fill: none; stroke: #b0b0b0; stroke-opacity: 0.2; stroke-width: 0.8; stroke-linecap: square"/>
     </g>
     <g id="line2d_38">
      <g>
       <use xlink:href="#maaba47e6d7" x="377.98" y="287.302727" style="stroke: #000000; stroke-width: 0.8"/>
      </g>
     </g>
     <g id="text_21">
      <!-- 0.0 -->
      <g transform="translate(355.076875 291.101946) scale(0.1 -0.1)">
       <use xlink:href="#DejaVuSans-30"/>
       <use xlink:href="#DejaVuSans-2e" transform="translate(63.623047 0)"/>
       <use xlink:href="#DejaVuSans-30" transform="translate(95.410156 0)"/>
      </g>
     </g>
    </g>
    <g id="ytick_6">
     <g id="line2d_39">
      <path d="M 377.98 252.818598 
L 688.77 252.818598 
" clip-path="url(#p7fe2249932)" style="fill: none; stroke: #b0b0b0; stroke-opacity: 0.2; stroke-width: 0.8; stroke-linecap: square"/>
     </g>
     <g id="line2d_40">
      <g>
       <use xlink:href="#maaba47e6d7" x="377.98" y="252.818598" style="stroke: #000000; stroke-width: 0.8"/>
      </g>
     </g>
     <g id="text_22">
      <!-- 0.5 -->
      <g transform="translate(355.076875 256.617816) scale(0.1 -0.1)">
       <use xlink:href="#DejaVuSans-30"/>
       <use xlink:href="#DejaVuSans-2e" transform="translate(63.623047 0)"/>
       <use xlink:href="#DejaVuSans-35" transform="translate(95.410156 0)"/>
      </g>
     </g>
    </g>
    <g id="ytick_7">
     <g id="line2d_41">
      <path d="M 377.98 218.334468 
L 688.77 218.334468 
" clip-path="url(#p7fe2249932)" style="fill: none; stroke: #b0b0b0; stroke-opacity: 0.2; stroke-width: 0.8; stroke-linecap: square"/>
     </g>
     <g id="line2d_42">
      <g>
       <use xlink:href="#maaba47e6d7" x="377.98" y="218.334468" style="stroke: #000000; stroke-width: 0.8"/>
      </g>
     </g>
     <g id="text_23">
      <!-- 1.0 -->
      <g transform="translate(355.076875 222.133687) scale(0.1 -0.1)">
       <use xlink:href="#DejaVuSans-31"/>
       <use xlink:href="#DejaVuSans-2e" transform="translate(63.623047 0)"/>
       <use xlink:href="#DejaVuSans-30" transform="translate(95.410156 0)"/>
      </g>
     </g>
    </g>
    <g id="ytick_8">
     <g id="line2d_43">
      <path d="M 377.98 183.850338 
L 688.77 183.850338 
" clip-path="url(#p7fe2249932)" style="fill: none; stroke: #b0b0b0; stroke-opacity: 0.2; stroke-width: 0.8; stroke-linecap: square"/>
     </g>
     <g id="line2d_44">
      <g>
       <use xlink:href="#maaba47e6d7" x="377.98" y="183.850338" style="stroke: #000000; stroke-width: 0.8"/>
      </g>
     </g>
     <g id="text_24">
      <!-- 1.5 -->
      <g transform="translate(355.076875 187.649557) scale(0.1 -0.1)">
       <use xlink:href="#DejaVuSans-31"/>
       <use xlink:href="#DejaVuSans-2e" transform="translate(63.623047 0)"/>
       <use xlink:href="#DejaVuSans-35" transform="translate(95.410156 0)"/>
      </g>
     </g>
    </g>
    <g id="ytick_9">
     <g id="line2d_45">
      <path d="M 377.98 149.366208 
L 688.77 149.366208 
" clip-path="url(#p7fe2249932)" style="fill: none; stroke: #b0b0b0; stroke-opacity: 0.2; stroke-width: 0.8; stroke-linecap: square"/>
     </g>
     <g id="line2d_46">
      <g>
       <use xlink:href="#maaba47e6d7" x="377.98" y="149.366208" style="stroke: #000000; stroke-width: 0.8"/>
      </g>
     </g>
     <g id="text_25">
      <!-- 2.0 -->
      <g transform="translate(355.076875 153.165427) scale(0.1 -0.1)">
       <use xlink:href="#DejaVuSans-32"/>
       <use xlink:href="#DejaVuSans-2e" transform="translate(63.623047 0)"/>
       <use xlink:href="#DejaVuSans-30" transform="translate(95.410156 0)"/>
      </g>
     </g>
    </g>
    <g id="ytick_10">
     <g id="line2d_47">
      <path d="M 377.98 114.882079 
L 688.77 114.882079 
" clip-path="url(#p7fe2249932)" style="fill: none; stroke: #b0b0b0; stroke-opacity: 0.2; stroke-width: 0.8; stroke-linecap: square"/>
     </g>
     <g id="line2d_48">
      <g>
       <use xlink:href="#maaba47e6d7" x="377.98" y="114.882079" style="stroke: #000000; stroke-width: 0.8"/>
      </g>
     </g>
     <g id="text_26">
      <!-- 2.5 -->
      <g transform="translate(355.076875 118.681297) scale(0.1 -0.1)">
       <use xlink:href="#DejaVuSans-32"/>
       <use xlink:href="#DejaVuSans-2e" transform="translate(63.623047 0)"/>
       <use xlink:href="#DejaVuSans-35" transform="translate(95.410156 0)"/>
      </g>
     </g>
    </g>
   </g>
   <g id="patch_14">
    <path d="M 377.98 298.804153 
L 377.98 91.291847 
" style="fill: none; stroke: #000000; stroke-width: 0.8; stroke-linejoin: miter; stroke-linecap: square"/>
   </g>
   <g id="patch_15">
    <path d="M 688.77 298.804153 
L 688.77 91.291847 
" style="fill: none; stroke: #000000; stroke-width: 0.8; stroke-linejoin: miter; stroke-linecap: square"/>
   </g>
   <g id="patch_16">
    <path d="M 377.98 298.804153 
L 688.77 298.804153 
" style="fill: none; stroke: #000000; stroke-width: 0.8; stroke-linejoin: miter; stroke-linecap: square"/>
   </g>
   <g id="patch_17">
    <path d="M 377.98 91.291847 
L 688.77 91.291847 
" style="fill: none; stroke: #000000; stroke-width: 0.8; stroke-linejoin: miter; stroke-linecap: square"/>
   </g>
   <g id="text_27">
    <g id="patch_18">
     <path d="M 387.3037 129.225623 
L 505.039169 129.225623 
Q 507.289169 129.225623 507.289169 126.975623 
L 507.289169 97.517217 
Q 507.289169 95.267217 505.039169 95.267217 
L 387.3037 95.267217 
Q 385.0537 95.267217 385.0537 97.517217 
L 385.0537 126.975623 
Q 385.0537 129.225623 387.3037 129.225623 
z
" style="fill: #f7f7f7; stroke: #cccccc; stroke-linejoin: miter"/>
    </g>
    <!-- p_x=8, p_y=16, p_y-x=16 -->
    <g transform="translate(387.3037 104.196904) scale(0.09 -0.09)">
     <defs>
      <path id="DejaVuSans-5f" d="M 3263 -1063 
L 3263 -1509 
L -63 -1509 
L -63 -1063 
L 3263 -1063 
z
" transform="scale(0.015625)"/>
      <path id="DejaVuSans-2c" d="M 750 794 
L 1409 794 
L 1409 256 
L 897 -744 
L 494 -744 
L 750 256 
L 750 794 
z
" transform="scale(0.015625)"/>
     </defs>
     <use xlink:href="#DejaVuSans-70"/>
     <use xlink:href="#DejaVuSans-5f" transform="translate(63.476562 0)"/>
     <use xlink:href="#DejaVuSans-78" transform="translate(113.476562 0)"/>
     <use xlink:href="#DejaVuSans-3d" transform="translate(172.65625 0)"/>
     <use xlink:href="#DejaVuSans-38" transform="translate(256.445312 0)"/>
     <use xlink:href="#DejaVuSans-2c" transform="translate(320.068359 0)"/>
     <use xlink:href="#DejaVuSans-20" transform="translate(351.855469 0)"/>
     <use xlink:href="#DejaVuSans-70" transform="translate(383.642578 0)"/>
     <use xlink:href="#DejaVuSans-5f" transform="translate(447.119141 0)"/>
     <use xlink:href="#DejaVuSans-79" transform="translate(497.119141 0)"/>
     <use xlink:href="#DejaVuSans-3d" transform="translate(556.298828 0)"/>
     <use xlink:href="#DejaVuSans-31" transform="translate(640.087891 0)"/>
     <use xlink:href="#DejaVuSans-36" transform="translate(703.710938 0)"/>
     <use xlink:href="#DejaVuSans-2c" transform="translate(767.333984 0)"/>
     <use xlink:href="#DejaVuSans-20" transform="translate(799.121094 0)"/>
     <use xlink:href="#DejaVuSans-70" transform="translate(830.908203 0)"/>
     <use xlink:href="#DejaVuSans-5f" transform="translate(894.384766 0)"/>
     <use xlink:href="#DejaVuSans-79" transform="translate(944.384766 0)"/>
     <use xlink:href="#DejaVuSans-2d" transform="translate(1001.814453 0)"/>
     <use xlink:href="#DejaVuSans-78" transform="translate(1037.898438 0)"/>
     <use xlink:href="#DejaVuSans-3d" transform="translate(1097.078125 0)"/>
     <use xlink:href="#DejaVuSans-31" transform="translate(1180.867188 0)"/>
     <use xlink:href="#DejaVuSans-36" transform="translate(1244.490234 0)"/>
    </g>
    <!-- X_eff=(p_x/2)x -->
    <g transform="translate(387.3037 114.525248) scale(0.09 -0.09)">
     <defs>
      <path id="DejaVuSans-58" d="M 403 4666 
L 1081 4666 
L 2241 2931 
L 3406 4666 
L 4084 4666 
L 2584 2425 
L 4184 0 
L 3506 0 
L 2194 1984 
L 872 0 
L 191 0 
L 1856 2491 
L 403 4666 
z
" transform="scale(0.015625)"/>
      <path id="DejaVuSans-66" d="M 2375 4863 
L 2375 4384 
L 1825 4384 
Q 1516 4384 1395 4259 
Q 1275 4134 1275 3809 
L 1275 3500 
L 2222 3500 
L 2222 3053 
L 1275 3053 
L 1275 0 
L 697 0 
L 697 3053 
L 147 3053 
L 147 3500 
L 697 3500 
L 697 3744 
Q 697 4328 969 4595 
Q 1241 4863 1831 4863 
L 2375 4863 
z
" transform="scale(0.015625)"/>
      <path id="DejaVuSans-28" d="M 1984 4856 
Q 1566 4138 1362 3434 
Q 1159 2731 1159 2009 
Q 1159 1288 1364 580 
Q 1569 -128 1984 -844 
L 1484 -844 
Q 1016 -109 783 600 
Q 550 1309 550 2009 
Q 550 2706 781 3412 
Q 1013 4119 1484 4856 
L 1984 4856 
z
" transform="scale(0.015625)"/>
      <path id="DejaVuSans-2f" d="M 1625 4666 
L 2156 4666 
L 531 -594 
L 0 -594 
L 1625 4666 
z
" transform="scale(0.015625)"/>
      <path id="DejaVuSans-29" d="M 513 4856 
L 1013 4856 
Q 1481 4119 1714 3412 
Q 1947 2706 1947 2009 
Q 1947 1309 1714 600 
Q 1481 -109 1013 -844 
L 513 -844 
Q 928 -128 1133 580 
Q 1338 1288 1338 2009 
Q 1338 2731 1133 3434 
Q 928 4138 513 4856 
z
" transform="scale(0.015625)"/>
     </defs>
     <use xlink:href="#DejaVuSans-58"/>
     <use xlink:href="#DejaVuSans-5f" transform="translate(68.505859 0)"/>
     <use xlink:href="#DejaVuSans-65" transform="translate(118.505859 0)"/>
     <use xlink:href="#DejaVuSans-66" transform="translate(180.029297 0)"/>
     <use xlink:href="#DejaVuSans-66" transform="translate(215.234375 0)"/>
     <use xlink:href="#DejaVuSans-3d" transform="translate(250.439453 0)"/>
     <use xlink:href="#DejaVuSans-28" transform="translate(334.228516 0)"/>
     <use xlink:href="#DejaVuSans-70" transform="translate(373.242188 0)"/>
     <use xlink:href="#DejaVuSans-5f" transform="translate(436.71875 0)"/>
     <use xlink:href="#DejaVuSans-78" transform="translate(486.71875 0)"/>
     <use xlink:href="#DejaVuSans-2f" transform="translate(545.898438 0)"/>
     <use xlink:href="#DejaVuSans-32" transform="translate(579.589844 0)"/>
     <use xlink:href="#DejaVuSans-29" transform="translate(643.212891 0)"/>
     <use xlink:href="#DejaVuSans-78" transform="translate(682.226562 0)"/>
    </g>
    <!-- Y_eff=(p_y/2)y -->
    <g transform="translate(387.3037 124.853592) scale(0.09 -0.09)">
     <defs>
      <path id="DejaVuSans-59" d="M -13 4666 
L 666 4666 
L 1959 2747 
L 3244 4666 
L 3922 4666 
L 2272 2222 
L 2272 0 
L 1638 0 
L 1638 2222 
L -13 4666 
z
" transform="scale(0.015625)"/>
     </defs>
     <use xlink:href="#DejaVuSans-59"/>
     <use xlink:href="#DejaVuSans-5f" transform="translate(61.083984 0)"/>
     <use xlink:href="#DejaVuSans-65" transform="translate(111.083984 0)"/>
     <use xlink:href="#DejaVuSans-66" transform="translate(172.607422 0)"/>
     <use xlink:href="#DejaVuSans-66" transform="translate(207.8125 0)"/>
     <use xlink:href="#DejaVuSans-3d" transform="translate(243.017578 0)"/>
     <use xlink:href="#DejaVuSans-28" transform="translate(326.806641 0)"/>
     <use xlink:href="#DejaVuSans-70" transform="translate(365.820312 0)"/>
     <use xlink:href="#DejaVuSans-5f" transform="translate(429.296875 0)"/>
     <use xlink:href="#DejaVuSans-79" transform="translate(479.296875 0)"/>
     <use xlink:href="#DejaVuSans-2f" transform="translate(538.476562 0)"/>
     <use xlink:href="#DejaVuSans-32" transform="translate(572.167969 0)"/>
     <use xlink:href="#DejaVuSans-29" transform="translate(635.791016 0)"/>
     <use xlink:href="#DejaVuSans-79" transform="translate(674.804688 0)"/>
    </g>
   </g>
   <g id="text_28">
    <!-- Period Weighting -->
    <g transform="translate(482.58125 85.291847) scale(0.12 -0.12)">
     <defs>
      <path id="DejaVuSans-50" d="M 1259 4147 
L 1259 2394 
L 2053 2394 
Q 2494 2394 2734 2622 
Q 2975 2850 2975 3272 
Q 2975 3691 2734 3919 
Q 2494 4147 2053 4147 
L 1259 4147 
z
M 628 4666 
L 2053 4666 
Q 2838 4666 3239 4311 
Q 3641 3956 3641 3272 
Q 3641 2581 3239 2228 
Q 2838 1875 2053 1875 
L 1259 1875 
L 1259 0 
L 628 0 
L 628 4666 
z
" transform="scale(0.015625)"/>
      <path id="DejaVuSans-57" d="M 213 4666 
L 850 4666 
L 1831 722 
L 2809 4666 
L 3519 4666 
L 4500 722 
L 5478 4666 
L 6119 4666 
L 4947 0 
L 4153 0 
L 3169 4050 
L 2175 0 
L 1381 0 
L 213 4666 
z
" transform="scale(0.015625)"/>
     </defs>
     <use xlink:href="#DejaVuSans-50"/>
     <use xlink:href="#DejaVuSans-65" transform="translate(56.677734 0)"/>
     <use xlink:href="#DejaVuSans-72" transform="translate(118.201172 0)"/>
     <use xlink:href="#DejaVuSans-69" transform="translate(159.314453 0)"/>
     <use xlink:href="#DejaVuSans-6f" transform="translate(187.097656 0)"/>
     <use xlink:href="#DejaVuSans-64" transform="translate(248.279297 0)"/>
     <use xlink:href="#DejaVuSans-20" transform="translate(311.755859 0)"/>
     <use xlink:href="#DejaVuSans-57" transform="translate(343.542969 0)"/>
     <use xlink:href="#DejaVuSans-65" transform="translate(436.544922 0)"/>
     <use xlink:href="#DejaVuSans-69" transform="translate(498.068359 0)"/>
     <use xlink:href="#DejaVuSans-67" transform="translate(525.851562 0)"/>
     <use xlink:href="#DejaVuSans-68" transform="translate(589.328125 0)"/>
     <use xlink:href="#DejaVuSans-74" transform="translate(652.707031 0)"/>
     <use xlink:href="#DejaVuSans-69" transform="translate(691.916016 0)"/>
     <use xlink:href="#DejaVuSans-6e" transform="translate(719.699219 0)"/>
     <use xlink:href="#DejaVuSans-67" transform="translate(783.078125 0)"/>
    </g>
   </g>
  </g>
  <g id="axes_3">
   <g id="patch_19">
    <path d="M 722.41 297.832131 
L 1033.2 297.832131 
L 1033.2 92.263869 
L 722.41 92.263869 
z
" style="fill: #ffffff"/>
   </g>
   <g id="PathCollection_2">
    <g clip-path="url(#p0892803f76)">
     <use xlink:href="#m4c5d76878c" x="736.536818" y="288.488119" style="stroke: #000000"/>
     <use xlink:href="#m4c5d76878c" x="1019.073182" y="288.488119" style="stroke: #000000"/>
     <use xlink:href="#m4c5d76878c" x="948.439091" y="101.607881" style="stroke: #000000"/>
    </g>
   </g>
   <g id="matplotlib.axis_5">
    <g id="xtick_12">
     <g id="line2d_49">
      <path d="M 736.536818 297.832131 
L 736.536818 92.263869 
" clip-path="url(#p0892803f76)" style="fill: none; stroke: #b0b0b0; stroke-opacity: 0.2; stroke-width: 0.8; stroke-linecap: square"/>
     </g>
     <g id="line2d_50">
      <g>
       <use xlink:href="#m6af5f97c7a" x="736.536818" y="297.832131" style="stroke: #000000; stroke-width: 0.8"/>
      </g>
     </g>
     <g id="text_29">
      <!-- 0.0 -->
      <g transform="translate(728.585256 312.430569) scale(0.1 -0.1)">
       <use xlink:href="#DejaVuSans-30"/>
       <use xlink:href="#DejaVuSans-2e" transform="translate(63.623047 0)"/>
       <use xlink:href="#DejaVuSans-30" transform="translate(95.410156 0)"/>
      </g>
     </g>
    </g>
    <g id="xtick_13">
     <g id="line2d_51">
      <path d="M 771.853864 297.832131 
L 771.853864 92.263869 
" clip-path="url(#p0892803f76)" style="fill: none; stroke: #b0b0b0; stroke-opacity: 0.2; stroke-width: 0.8; stroke-linecap: square"/>
     </g>
     <g id="line2d_52">
      <g>
       <use xlink:href="#m6af5f97c7a" x="771.853864" y="297.832131" style="stroke: #000000; stroke-width: 0.8"/>
      </g>
     </g>
     <g id="text_30">
      <!-- 0.5 -->
      <g transform="translate(763.902301 312.430569) scale(0.1 -0.1)">
       <use xlink:href="#DejaVuSans-30"/>
       <use xlink:href="#DejaVuSans-2e" transform="translate(63.623047 0)"/>
       <use xlink:href="#DejaVuSans-35" transform="translate(95.410156 0)"/>
      </g>
     </g>
    </g>
    <g id="xtick_14">
     <g id="line2d_53">
      <path d="M 807.170909 297.832131 
L 807.170909 92.263869 
" clip-path="url(#p0892803f76)" style="fill: none; stroke: #b0b0b0; stroke-opacity: 0.2; stroke-width: 0.8; stroke-linecap: square"/>
     </g>
     <g id="line2d_54">
      <g>
       <use xlink:href="#m6af5f97c7a" x="807.170909" y="297.832131" style="stroke: #000000; stroke-width: 0.8"/>
      </g>
     </g>
     <g id="text_31">
      <!-- 1.0 -->
      <g transform="translate(799.219347 312.430569) scale(0.1 -0.1)">
       <use xlink:href="#DejaVuSans-31"/>
       <use xlink:href="#DejaVuSans-2e" transform="translate(63.623047 0)"/>
       <use xlink:href="#DejaVuSans-30" transform="translate(95.410156 0)"/>
      </g>
     </g>
    </g>
    <g id="xtick_15">
     <g id="line2d_55">
      <path d="M 842.487955 297.832131 
L 842.487955 92.263869 
" clip-path="url(#p0892803f76)" style="fill: none; stroke: #b0b0b0; stroke-opacity: 0.2; stroke-width: 0.8; stroke-linecap: square"/>
     </g>
     <g id="line2d_56">
      <g>
       <use xlink:href="#m6af5f97c7a" x="842.487955" y="297.832131" style="stroke: #000000; stroke-width: 0.8"/>
      </g>
     </g>
     <g id="text_32">
      <!-- 1.5 -->
      <g transform="translate(834.536392 312.430569) scale(0.1 -0.1)">
       <use xlink:href="#DejaVuSans-31"/>
       <use xlink:href="#DejaVuSans-2e" transform="translate(63.623047 0)"/>
       <use xlink:href="#DejaVuSans-35" transform="translate(95.410156 0)"/>
      </g>
     </g>
    </g>
    <g id="xtick_16">
     <g id="line2d_57">
      <path d="M 877.805 297.832131 
L 877.805 92.263869 
" clip-path="url(#p0892803f76)" style="fill: none; stroke: #b0b0b0; stroke-opacity: 0.2; stroke-width: 0.8; stroke-linecap: square"/>
     </g>
     <g id="line2d_58">
      <g>
       <use xlink:href="#m6af5f97c7a" x="877.805" y="297.832131" style="stroke: #000000; stroke-width: 0.8"/>
      </g>
     </g>
     <g id="text_33">
      <!-- 2.0 -->
      <g transform="translate(869.853438 312.430569) scale(0.1 -0.1)">
       <use xlink:href="#DejaVuSans-32"/>
       <use xlink:href="#DejaVuSans-2e" transform="translate(63.623047 0)"/>
       <use xlink:href="#DejaVuSans-30" transform="translate(95.410156 0)"/>
      </g>
     </g>
    </g>
    <g id="xtick_17">
     <g id="line2d_59">
      <path d="M 913.122045 297.832131 
L 913.122045 92.263869 
" clip-path="url(#p0892803f76)" style="fill: none; stroke: #b0b0b0; stroke-opacity: 0.2; stroke-width: 0.8; stroke-linecap: square"/>
     </g>
     <g id="line2d_60">
      <g>
       <use xlink:href="#m6af5f97c7a" x="913.122045" y="297.832131" style="stroke: #000000; stroke-width: 0.8"/>
      </g>
     </g>
     <g id="text_34">
      <!-- 2.5 -->
      <g transform="translate(905.170483 312.430569) scale(0.1 -0.1)">
       <use xlink:href="#DejaVuSans-32"/>
       <use xlink:href="#DejaVuSans-2e" transform="translate(63.623047 0)"/>
       <use xlink:href="#DejaVuSans-35" transform="translate(95.410156 0)"/>
      </g>
     </g>
    </g>
    <g id="xtick_18">
     <g id="line2d_61">
      <path d="M 948.439091 297.832131 
L 948.439091 92.263869 
" clip-path="url(#p0892803f76)" style="fill: none; stroke: #b0b0b0; stroke-opacity: 0.2; stroke-width: 0.8; stroke-linecap: square"/>
     </g>
     <g id="line2d_62">
      <g>
       <use xlink:href="#m6af5f97c7a" x="948.439091" y="297.832131" style="stroke: #000000; stroke-width: 0.8"/>
      </g>
     </g>
     <g id="text_35">
      <!-- 3.0 -->
      <g transform="translate(940.487528 312.430569) scale(0.1 -0.1)">
       <use xlink:href="#DejaVuSans-33"/>
       <use xlink:href="#DejaVuSans-2e" transform="translate(63.623047 0)"/>
       <use xlink:href="#DejaVuSans-30" transform="translate(95.410156 0)"/>
      </g>
     </g>
    </g>
    <g id="xtick_19">
     <g id="line2d_63">
      <path d="M 983.756136 297.832131 
L 983.756136 92.263869 
" clip-path="url(#p0892803f76)" style="fill: none; stroke: #b0b0b0; stroke-opacity: 0.2; stroke-width: 0.8; stroke-linecap: square"/>
     </g>
     <g id="line2d_64">
      <g>
       <use xlink:href="#m6af5f97c7a" x="983.756136" y="297.832131" style="stroke: #000000; stroke-width: 0.8"/>
      </g>
     </g>
     <g id="text_36">
      <!-- 3.5 -->
      <g transform="translate(975.804574 312.430569) scale(0.1 -0.1)">
       <use xlink:href="#DejaVuSans-33"/>
       <use xlink:href="#DejaVuSans-2e" transform="translate(63.623047 0)"/>
       <use xlink:href="#DejaVuSans-35" transform="translate(95.410156 0)"/>
      </g>
     </g>
    </g>
    <g id="xtick_20">
     <g id="line2d_65">
      <path d="M 1019.073182 297.832131 
L 1019.073182 92.263869 
" clip-path="url(#p0892803f76)" style="fill: none; stroke: #b0b0b0; stroke-opacity: 0.2; stroke-width: 0.8; stroke-linecap: square"/>
     </g>
     <g id="line2d_66">
      <g>
       <use xlink:href="#m6af5f97c7a" x="1019.073182" y="297.832131" style="stroke: #000000; stroke-width: 0.8"/>
      </g>
     </g>
     <g id="text_37">
      <!-- 4.0 -->
      <g transform="translate(1011.121619 312.430569) scale(0.1 -0.1)">
       <use xlink:href="#DejaVuSans-34"/>
       <use xlink:href="#DejaVuSans-2e" transform="translate(63.623047 0)"/>
       <use xlink:href="#DejaVuSans-30" transform="translate(95.410156 0)"/>
      </g>
     </g>
    </g>
   </g>
   <g id="matplotlib.axis_6">
    <g id="ytick_11">
     <g id="line2d_67">
      <path d="M 722.41 288.488119 
L 1033.2 288.488119 
" clip-path="url(#p0892803f76)" style="fill: none; stroke: #b0b0b0; stroke-opacity: 0.2; stroke-width: 0.8; stroke-linecap: square"/>
     </g>
     <g id="line2d_68">
      <g>
       <use xlink:href="#maaba47e6d7" x="722.41" y="288.488119" style="stroke: #000000; stroke-width: 0.8"/>
      </g>
     </g>
     <g id="text_38">
      <!-- 0.0 -->
      <g transform="translate(699.506875 292.287338) scale(0.1 -0.1)">
       <use xlink:href="#DejaVuSans-30"/>
       <use xlink:href="#DejaVuSans-2e" transform="translate(63.623047 0)"/>
       <use xlink:href="#DejaVuSans-30" transform="translate(95.410156 0)"/>
      </g>
     </g>
    </g>
    <g id="ytick_12">
     <g id="line2d_69">
      <path d="M 722.41 253.171074 
L 1033.2 253.171074 
" clip-path="url(#p0892803f76)" style="fill: none; stroke: #b0b0b0; stroke-opacity: 0.2; stroke-width: 0.8; stroke-linecap: square"/>
     </g>
     <g id="line2d_70">
      <g>
       <use xlink:href="#maaba47e6d7" x="722.41" y="253.171074" style="stroke: #000000; stroke-width: 0.8"/>
      </g>
     </g>
     <g id="text_39">
      <!-- 0.5 -->
      <g transform="translate(699.506875 256.970293) scale(0.1 -0.1)">
       <use xlink:href="#DejaVuSans-30"/>
       <use xlink:href="#DejaVuSans-2e" transform="translate(63.623047 0)"/>
       <use xlink:href="#DejaVuSans-35" transform="translate(95.410156 0)"/>
      </g>
     </g>
    </g>
    <g id="ytick_13">
     <g id="line2d_71">
      <path d="M 722.41 217.854028 
L 1033.2 217.854028 
" clip-path="url(#p0892803f76)" style="fill: none; stroke: #b0b0b0; stroke-opacity: 0.2; stroke-width: 0.8; stroke-linecap: square"/>
     </g>
     <g id="line2d_72">
      <g>
       <use xlink:href="#maaba47e6d7" x="722.41" y="217.854028" style="stroke: #000000; stroke-width: 0.8"/>
      </g>
     </g>
     <g id="text_40">
      <!-- 1.0 -->
      <g transform="translate(699.506875 221.653247) scale(0.1 -0.1)">
       <use xlink:href="#DejaVuSans-31"/>
       <use xlink:href="#DejaVuSans-2e" transform="translate(63.623047 0)"/>
       <use xlink:href="#DejaVuSans-30" transform="translate(95.410156 0)"/>
      </g>
     </g>
    </g>
    <g id="ytick_14">
     <g id="line2d_73">
      <path d="M 722.41 182.536983 
L 1033.2 182.536983 
" clip-path="url(#p0892803f76)" style="fill: none; stroke: #b0b0b0; stroke-opacity: 0.2; stroke-width: 0.8; stroke-linecap: square"/>
     </g>
     <g id="line2d_74">
      <g>
       <use xlink:href="#maaba47e6d7" x="722.41" y="182.536983" style="stroke: #000000; stroke-width: 0.8"/>
      </g>
     </g>
     <g id="text_41">
      <!-- 1.5 -->
      <g transform="translate(699.506875 186.336202) scale(0.1 -0.1)">
       <use xlink:href="#DejaVuSans-31"/>
       <use xlink:href="#DejaVuSans-2e" transform="translate(63.623047 0)"/>
       <use xlink:href="#DejaVuSans-35" transform="translate(95.410156 0)"/>
      </g>
     </g>
    </g>
    <g id="ytick_15">
     <g id="line2d_75">
      <path d="M 722.41 147.219937 
L 1033.2 147.219937 
" clip-path="url(#p0892803f76)" style="fill: none; stroke: #b0b0b0; stroke-opacity: 0.2; stroke-width: 0.8; stroke-linecap: square"/>
     </g>
     <g id="line2d_76">
      <g>
       <use xlink:href="#maaba47e6d7" x="722.41" y="147.219937" style="stroke: #000000; stroke-width: 0.8"/>
      </g>
     </g>
     <g id="text_42">
      <!-- 2.0 -->
      <g transform="translate(699.506875 151.019156) scale(0.1 -0.1)">
       <use xlink:href="#DejaVuSans-32"/>
       <use xlink:href="#DejaVuSans-2e" transform="translate(63.623047 0)"/>
       <use xlink:href="#DejaVuSans-30" transform="translate(95.410156 0)"/>
      </g>
     </g>
    </g>
    <g id="ytick_16">
     <g id="line2d_77">
      <path d="M 722.41 111.902892 
L 1033.2 111.902892 
" clip-path="url(#p0892803f76)" style="fill: none; stroke: #b0b0b0; stroke-opacity: 0.2; stroke-width: 0.8; stroke-linecap: square"/>
     </g>
     <g id="line2d_78">
      <g>
       <use xlink:href="#maaba47e6d7" x="722.41" y="111.902892" style="stroke: #000000; stroke-width: 0.8"/>
      </g>
     </g>
     <g id="text_43">
      <!-- 2.5 -->
      <g transform="translate(699.506875 115.702111) scale(0.1 -0.1)">
       <use xlink:href="#DejaVuSans-32"/>
       <use xlink:href="#DejaVuSans-2e" transform="translate(63.623047 0)"/>
       <use xlink:href="#DejaVuSans-35" transform="translate(95.410156 0)"/>
      </g>
     </g>
    </g>
   </g>
   <g id="line2d_79">
    <path d="M 736.536818 288.488119 
L 1019.073182 288.488119 
" clip-path="url(#p0892803f76)" style="fill: none; stroke: #1f77b4; stroke-width: 3; stroke-linecap: square"/>
   </g>
   <g id="line2d_80">
    <path d="M 736.536818 288.488119 
L 948.439091 101.607881 
" clip-path="url(#p0892803f76)" style="fill: none; stroke: #d62728; stroke-width: 3; stroke-linecap: square"/>
   </g>
   <g id="line2d_81">
    <path d="M 1019.073182 288.488119 
L 948.439091 101.607881 
" clip-path="url(#p0892803f76)" style="fill: none; stroke: #2ca02c; stroke-width: 3; stroke-linecap: square"/>
   </g>
   <g id="patch_20">
    <path d="M 722.41 297.832131 
L 722.41 92.263869 
" style="fill: none; stroke: #000000; stroke-width: 0.8; stroke-linejoin: miter; stroke-linecap: square"/>
   </g>
   <g id="patch_21">
    <path d="M 1033.2 297.832131 
L 1033.2 92.263869 
" style="fill: none; stroke: #000000; stroke-width: 0.8; stroke-linejoin: miter; stroke-linecap: square"/>
   </g>
   <g id="patch_22">
    <path d="M 722.41 297.832131 
L 1033.2 297.832131 
" style="fill: none; stroke: #000000; stroke-width: 0.8; stroke-linejoin: miter; stroke-linecap: square"/>
   </g>
   <g id="patch_23">
    <path d="M 722.41 92.263869 
L 1033.2 92.263869 
" style="fill: none; stroke: #000000; stroke-width: 0.8; stroke-linejoin: miter; stroke-linecap: square"/>
   </g>
   <g id="text_44">
    <g id="patch_24">
     <path d="M 731.7337 140.510135 
L 866.631044 140.510135 
Q 868.881044 140.510135 868.881044 138.260135 
L 868.881044 98.430917 
Q 868.881044 96.180917 866.631044 96.180917 
L 731.7337 96.180917 
Q 729.4837 96.180917 729.4837 98.430917 
L 729.4837 138.260135 
Q 729.4837 140.510135 731.7337 140.510135 
z
" style="fill: #f7f7f7; stroke: #cccccc; stroke-linejoin: miter"/>
    </g>
    <!-- |X_eff|=4.0000 -->
    <g transform="translate(731.7337 105.308885) scale(0.09 -0.09)">
     <use xlink:href="#DejaVuSans-7c"/>
     <use xlink:href="#DejaVuSans-58" transform="translate(33.691406 0)"/>
     <use xlink:href="#DejaVuSans-5f" transform="translate(102.197266 0)"/>
     <use xlink:href="#DejaVuSans-65" transform="translate(152.197266 0)"/>
     <use xlink:href="#DejaVuSans-66" transform="translate(213.720703 0)"/>
     <use xlink:href="#DejaVuSans-66" transform="translate(248.925781 0)"/>
     <use xlink:href="#DejaVuSans-7c" transform="translate(284.130859 0)"/>
     <use xlink:href="#DejaVuSans-3d" transform="translate(317.822266 0)"/>
     <use xlink:href="#DejaVuSans-34" transform="translate(401.611328 0)"/>
     <use xlink:href="#DejaVuSans-2e" transform="translate(465.234375 0)"/>
     <use xlink:href="#DejaVuSans-30" transform="translate(497.021484 0)"/>
     <use xlink:href="#DejaVuSans-30" transform="translate(560.644531 0)"/>
     <use xlink:href="#DejaVuSans-30" transform="translate(624.267578 0)"/>
     <use xlink:href="#DejaVuSans-30" transform="translate(687.890625 0)"/>
    </g>
    <!-- |Y_eff|=4.0000 -->
    <g transform="translate(731.7337 115.684479) scale(0.09 -0.09)">
     <use xlink:href="#DejaVuSans-7c"/>
     <use xlink:href="#DejaVuSans-59" transform="translate(33.691406 0)"/>
     <use xlink:href="#DejaVuSans-5f" transform="translate(94.775391 0)"/>
     <use xlink:href="#DejaVuSans-65" transform="translate(144.775391 0)"/>
     <use xlink:href="#DejaVuSans-66" transform="translate(206.298828 0)"/>
     <use xlink:href="#DejaVuSans-66" transform="translate(241.503906 0)"/>
     <use xlink:href="#DejaVuSans-7c" transform="translate(276.708984 0)"/>
     <use xlink:href="#DejaVuSans-3d" transform="translate(310.400391 0)"/>
     <use xlink:href="#DejaVuSans-34" transform="translate(394.189453 0)"/>
     <use xlink:href="#DejaVuSans-2e" transform="translate(457.8125 0)"/>
     <use xlink:href="#DejaVuSans-30" transform="translate(489.599609 0)"/>
     <use xlink:href="#DejaVuSans-30" transform="translate(553.222656 0)"/>
     <use xlink:href="#DejaVuSans-30" transform="translate(616.845703 0)"/>
     <use xlink:href="#DejaVuSans-30" transform="translate(680.46875 0)"/>
    </g>
    <!-- angle=41.4096 deg -->
    <g transform="translate(731.7337 126.012823) scale(0.09 -0.09)">
     <defs>
      <path id="DejaVuSans-39" d="M 703 97 
L 703 672 
Q 941 559 1184 500 
Q 1428 441 1663 441 
Q 2288 441 2617 861 
Q 2947 1281 2994 2138 
Q 2813 1869 2534 1725 
Q 2256 1581 1919 1581 
Q 1219 1581 811 2004 
Q 403 2428 403 3163 
Q 403 3881 828 4315 
Q 1253 4750 1959 4750 
Q 2769 4750 3195 4129 
Q 3622 3509 3622 2328 
Q 3622 1225 3098 567 
Q 2575 -91 1691 -91 
Q 1453 -91 1209 -44 
Q 966 3 703 97 
z
M 1959 2075 
Q 2384 2075 2632 2365 
Q 2881 2656 2881 3163 
Q 2881 3666 2632 3958 
Q 2384 4250 1959 4250 
Q 1534 4250 1286 3958 
Q 1038 3666 1038 3163 
Q 1038 2656 1286 2365 
Q 1534 2075 1959 2075 
z
" transform="scale(0.015625)"/>
     </defs>
     <use xlink:href="#DejaVuSans-61"/>
     <use xlink:href="#DejaVuSans-6e" transform="translate(61.279297 0)"/>
     <use xlink:href="#DejaVuSans-67" transform="translate(124.658203 0)"/>
     <use xlink:href="#DejaVuSans-6c" transform="translate(188.134766 0)"/>
     <use xlink:href="#DejaVuSans-65" transform="translate(215.917969 0)"/>
     <use xlink:href="#DejaVuSans-3d" transform="translate(277.441406 0)"/>
     <use xlink:href="#DejaVuSans-34" transform="translate(361.230469 0)"/>
     <use xlink:href="#DejaVuSans-31" transform="translate(424.853516 0)"/>
     <use xlink:href="#DejaVuSans-2e" transform="translate(488.476562 0)"/>
     <use xlink:href="#DejaVuSans-34" transform="translate(520.263672 0)"/>
     <use xlink:href="#DejaVuSans-30" transform="translate(583.886719 0)"/>
     <use xlink:href="#DejaVuSans-39" transform="translate(647.509766 0)"/>
     <use xlink:href="#DejaVuSans-36" transform="translate(711.132812 0)"/>
     <use xlink:href="#DejaVuSans-20" transform="translate(774.755859 0)"/>
     <use xlink:href="#DejaVuSans-64" transform="translate(806.542969 0)"/>
     <use xlink:href="#DejaVuSans-65" transform="translate(870.019531 0)"/>
     <use xlink:href="#DejaVuSans-67" transform="translate(931.542969 0)"/>
    </g>
    <!-- |Y_eff-X_eff|/|X_eff|=0.707107 -->
    <g transform="translate(731.7337 136.138104) scale(0.09 -0.09)">
     <use xlink:href="#DejaVuSans-7c"/>
     <use xlink:href="#DejaVuSans-59" transform="translate(33.691406 0)"/>
     <use xlink:href="#DejaVuSans-5f" transform="translate(94.775391 0)"/>
     <use xlink:href="#DejaVuSans-65" transform="translate(144.775391 0)"/>
     <use xlink:href="#DejaVuSans-66" transform="translate(206.298828 0)"/>
     <use xlink:href="#DejaVuSans-66" transform="translate(241.503906 0)"/>
     <use xlink:href="#DejaVuSans-2d" transform="translate(271.208984 0)"/>
     <use xlink:href="#DejaVuSans-58" transform="translate(302.292969 0)"/>
     <use xlink:href="#DejaVuSans-5f" transform="translate(370.798828 0)"/>
     <use xlink:href="#DejaVuSans-65" transform="translate(420.798828 0)"/>
     <use xlink:href="#DejaVuSans-66" transform="translate(482.322266 0)"/>
     <use xlink:href="#DejaVuSans-66" transform="translate(517.527344 0)"/>
     <use xlink:href="#DejaVuSans-7c" transform="translate(552.732422 0)"/>
     <use xlink:href="#DejaVuSans-2f" transform="translate(586.423828 0)"/>
     <use xlink:href="#DejaVuSans-7c" transform="translate(620.115234 0)"/>
     <use xlink:href="#DejaVuSans-58" transform="translate(653.806641 0)"/>
     <use xlink:href="#DejaVuSans-5f" transform="translate(722.3125 0)"/>
     <use xlink:href="#DejaVuSans-65" transform="translate(772.3125 0)"/>
     <use xlink:href="#DejaVuSans-66" transform="translate(833.835938 0)"/>
     <use xlink:href="#DejaVuSans-66" transform="translate(869.041016 0)"/>
     <use xlink:href="#DejaVuSans-7c" transform="translate(904.246094 0)"/>
     <use xlink:href="#DejaVuSans-3d" transform="translate(937.9375 0)"/>
     <use xlink:href="#DejaVuSans-30" transform="translate(1021.726562 0)"/>
     <use xlink:href="#DejaVuSans-2e" transform="translate(1085.349609 0)"/>
     <use xlink:href="#DejaVuSans-37" transform="translate(1117.136719 0)"/>
     <use xlink:href="#DejaVuSans-30" transform="translate(1180.759766 0)"/>
     <use xlink:href="#DejaVuSans-37" transform="translate(1244.382812 0)"/>
     <use xlink:href="#DejaVuSans-31" transform="translate(1308.005859 0)"/>
     <use xlink:href="#DejaVuSans-30" transform="translate(1371.628906 0)"/>
     <use xlink:href="#DejaVuSans-37" transform="translate(1435.251953 0)"/>
    </g>
   </g>
   <g id="text_45">
    <!-- Effective Square-Theory Geometry -->
    <g transform="translate(774.217813 86.263869) scale(0.12 -0.12)">
     <defs>
      <path id="DejaVuSans-45" d="M 628 4666 
L 3578 4666 
L 3578 4134 
L 1259 4134 
L 1259 2753 
L 3481 2753 
L 3481 2222 
L 1259 2222 
L 1259 531 
L 3634 531 
L 3634 0 
L 628 0 
L 628 4666 
z
" transform="scale(0.015625)"/>
      <path id="DejaVuSans-76" d="M 191 3500 
L 800 3500 
L 1894 563 
L 2988 3500 
L 3597 3500 
L 2284 0 
L 1503 0 
L 191 3500 
z
" transform="scale(0.015625)"/>
      <path id="DejaVuSans-53" d="M 3425 4513 
L 3425 3897 
Q 3066 4069 2747 4153 
Q 2428 4238 2131 4238 
Q 1616 4238 1336 4038 
Q 1056 3838 1056 3469 
Q 1056 3159 1242 3001 
Q 1428 2844 1947 2747 
L 2328 2669 
Q 3034 2534 3370 2195 
Q 3706 1856 3706 1288 
Q 3706 609 3251 259 
Q 2797 -91 1919 -91 
Q 1588 -91 1214 -16 
Q 841 59 441 206 
L 441 856 
Q 825 641 1194 531 
Q 1563 422 1919 422 
Q 2459 422 2753 634 
Q 3047 847 3047 1241 
Q 3047 1584 2836 1778 
Q 2625 1972 2144 2069 
L 1759 2144 
Q 1053 2284 737 2584 
Q 422 2884 422 3419 
Q 422 4038 858 4394 
Q 1294 4750 2059 4750 
Q 2388 4750 2728 4690 
Q 3069 4631 3425 4513 
z
" transform="scale(0.015625)"/>
      <path id="DejaVuSans-71" d="M 947 1747 
Q 947 1113 1208 752 
Q 1469 391 1925 391 
Q 2381 391 2643 752 
Q 2906 1113 2906 1747 
Q 2906 2381 2643 2742 
Q 2381 3103 1925 3103 
Q 1469 3103 1208 2742 
Q 947 2381 947 1747 
z
M 2906 525 
Q 2725 213 2448 61 
Q 2172 -91 1784 -91 
Q 1150 -91 751 415 
Q 353 922 353 1747 
Q 353 2572 751 3078 
Q 1150 3584 1784 3584 
Q 2172 3584 2448 3432 
Q 2725 3281 2906 2969 
L 2906 3500 
L 3481 3500 
L 3481 -1331 
L 2906 -1331 
L 2906 525 
z
" transform="scale(0.015625)"/>
      <path id="DejaVuSans-75" d="M 544 1381 
L 544 3500 
L 1119 3500 
L 1119 1403 
Q 1119 906 1312 657 
Q 1506 409 1894 409 
Q 2359 409 2629 706 
Q 2900 1003 2900 1516 
L 2900 3500 
L 3475 3500 
L 3475 0 
L 2900 0 
L 2900 538 
Q 2691 219 2414 64 
Q 2138 -91 1772 -91 
Q 1169 -91 856 284 
Q 544 659 544 1381 
z
M 1991 3584 
L 1991 3584 
z
" transform="scale(0.015625)"/>
      <path id="DejaVuSans-47" d="M 3809 666 
L 3809 1919 
L 2778 1919 
L 2778 2438 
L 4434 2438 
L 4434 434 
Q 4069 175 3628 42 
Q 3188 -91 2688 -91 
Q 1594 -91 976 548 
Q 359 1188 359 2328 
Q 359 3472 976 4111 
Q 1594 4750 2688 4750 
Q 3144 4750 3555 4637 
Q 3966 4525 4313 4306 
L 4313 3634 
Q 3963 3931 3569 4081 
Q 3175 4231 2741 4231 
Q 1884 4231 1454 3753 
Q 1025 3275 1025 2328 
Q 1025 1384 1454 906 
Q 1884 428 2741 428 
Q 3075 428 3337 486 
Q 3600 544 3809 666 
z
" transform="scale(0.015625)"/>
     </defs>
     <use xlink:href="#DejaVuSans-45"/>
     <use xlink:href="#DejaVuSans-66" transform="translate(63.183594 0)"/>
     <use xlink:href="#DejaVuSans-66" transform="translate(98.388672 0)"/>
     <use xlink:href="#DejaVuSans-65" transform="translate(133.59375 0)"/>
     <use xlink:href="#DejaVuSans-63" transform="translate(195.117188 0)"/>
     <use xlink:href="#DejaVuSans-74" transform="translate(250.097656 0)"/>
     <use xlink:href="#DejaVuSans-69" transform="translate(289.306641 0)"/>
     <use xlink:href="#DejaVuSans-76" transform="translate(317.089844 0)"/>
     <use xlink:href="#DejaVuSans-65" transform="translate(376.269531 0)"/>
     <use xlink:href="#DejaVuSans-20" transform="translate(437.792969 0)"/>
     <use xlink:href="#DejaVuSans-53" transform="translate(469.580078 0)"/>
     <use xlink:href="#DejaVuSans-71" transform="translate(533.056641 0)"/>
     <use xlink:href="#DejaVuSans-75" transform="translate(596.533203 0)"/>
     <use xlink:href="#DejaVuSans-61" transform="translate(659.912109 0)"/>
     <use xlink:href="#DejaVuSans-72" transform="translate(721.191406 0)"/>
     <use xlink:href="#DejaVuSans-65" transform="translate(760.054688 0)"/>
     <use xlink:href="#DejaVuSans-2d" transform="translate(821.578125 0)"/>
     <use xlink:href="#DejaVuSans-54" transform="translate(848.537109 0)"/>
     <use xlink:href="#DejaVuSans-68" transform="translate(909.621094 0)"/>
     <use xlink:href="#DejaVuSans-65" transform="translate(973 0)"/>
     <use xlink:href="#DejaVuSans-6f" transform="translate(1034.523438 0)"/>
     <use xlink:href="#DejaVuSans-72" transform="translate(1095.705078 0)"/>
     <use xlink:href="#DejaVuSans-79" transform="translate(1136.818359 0)"/>
     <use xlink:href="#DejaVuSans-20" transform="translate(1195.998047 0)"/>
     <use xlink:href="#DejaVuSans-47" transform="translate(1227.785156 0)"/>
     <use xlink:href="#DejaVuSans-65" transform="translate(1305.275391 0)"/>
     <use xlink:href="#DejaVuSans-6f" transform="translate(1366.798828 0)"/>
     <use xlink:href="#DejaVuSans-6d" transform="translate(1427.980469 0)"/>
     <use xlink:href="#DejaVuSans-65" transform="translate(1525.392578 0)"/>
     <use xlink:href="#DejaVuSans-74" transform="translate(1586.916016 0)"/>
     <use xlink:href="#DejaVuSans-72" transform="translate(1626.125 0)"/>
     <use xlink:href="#DejaVuSans-79" transform="translate(1667.238281 0)"/>
    </g>
   </g>
   <g id="legend_2">
    <g id="patch_25">
     <path d="M 960.4775 134.558869 
L 1027.6 134.558869 
Q 1029.2 134.558869 1029.2 132.958869 
L 1029.2 97.863869 
Q 1029.2 96.263869 1027.6 96.263869 
L 960.4775 96.263869 
Q 958.8775 96.263869 958.8775 97.863869 
L 958.8775 132.958869 
Q 958.8775 134.558869 960.4775 134.558869 
z
" style="fill: #ffffff; opacity: 0.8; stroke: #cccccc; stroke-linejoin: miter"/>
    </g>
    <g id="line2d_82">
     <path d="M 962.0775 102.742619 
L 970.0775 102.742619 
L 978.0775 102.742619 
" style="fill: none; stroke: #1f77b4; stroke-width: 3; stroke-linecap: square"/>
    </g>
    <g id="text_46">
     <!-- X_eff -->
     <g transform="translate(984.4775 105.542619) scale(0.08 -0.08)">
      <use xlink:href="#DejaVuSans-58"/>
      <use xlink:href="#DejaVuSans-5f" transform="translate(68.505859 0)"/>
      <use xlink:href="#DejaVuSans-65" transform="translate(118.505859 0)"/>
      <use xlink:href="#DejaVuSans-66" transform="translate(180.029297 0)"/>
      <use xlink:href="#DejaVuSans-66" transform="translate(215.234375 0)"/>
     </g>
    </g>
    <g id="line2d_83">
     <path d="M 962.0775 114.707619 
L 970.0775 114.707619 
L 978.0775 114.707619 
" style="fill: none; stroke: #d62728; stroke-width: 3; stroke-linecap: square"/>
    </g>
    <g id="text_47">
     <!-- Y_eff -->
     <g transform="translate(984.4775 117.507619) scale(0.08 -0.08)">
      <use xlink:href="#DejaVuSans-59"/>
      <use xlink:href="#DejaVuSans-5f" transform="translate(61.083984 0)"/>
      <use xlink:href="#DejaVuSans-65" transform="translate(111.083984 0)"/>
      <use xlink:href="#DejaVuSans-66" transform="translate(172.607422 0)"/>
      <use xlink:href="#DejaVuSans-66" transform="translate(207.8125 0)"/>
     </g>
    </g>
    <g id="line2d_84">
     <path d="M 962.0775 126.672619 
L 970.0775 126.672619 
L 978.0775 126.672619 
" style="fill: none; stroke: #2ca02c; stroke-width: 3; stroke-linecap: square"/>
    </g>
    <g id="text_48">
     <!-- Y_eff-X_eff -->
     <g transform="translate(984.4775 129.472619) scale(0.08 -0.08)">
      <use xlink:href="#DejaVuSans-59"/>
      <use xlink:href="#DejaVuSans-5f" transform="translate(61.083984 0)"/>
      <use xlink:href="#DejaVuSans-65" transform="translate(111.083984 0)"/>
      <use xlink:href="#DejaVuSans-66" transform="translate(172.607422 0)"/>
      <use xlink:href="#DejaVuSans-66" transform="translate(207.8125 0)"/>
      <use xlink:href="#DejaVuSans-2d" transform="translate(237.517578 0)"/>
      <use xlink:href="#DejaVuSans-58" transform="translate(268.601562 0)"/>
      <use xlink:href="#DejaVuSans-5f" transform="translate(337.107422 0)"/>
      <use xlink:href="#DejaVuSans-65" transform="translate(387.107422 0)"/>
      <use xlink:href="#DejaVuSans-66" transform="translate(448.630859 0)"/>
      <use xlink:href="#DejaVuSans-66" transform="translate(483.835938 0)"/>
     </g>
    </g>
   </g>
  </g>
  <g id="text_49">
   <!-- Case Nx=8, Ny=8, Ns=4: compensating triangle -&gt; square-theory effective vectors -->
   <g transform="translate(270.747187 16.030125) scale(0.12 -0.12)">
    <defs>
     <path id="DejaVuSans-4e" d="M 628 4666 
L 1478 4666 
L 3547 763 
L 3547 4666 
L 4159 4666 
L 4159 0 
L 3309 0 
L 1241 3903 
L 1241 0 
L 628 0 
L 628 4666 
z
" transform="scale(0.015625)"/>
     <path id="DejaVuSans-3a" d="M 750 794 
L 1409 794 
L 1409 0 
L 750 0 
L 750 794 
z
M 750 3309 
L 1409 3309 
L 1409 2516 
L 750 2516 
L 750 3309 
z
" transform="scale(0.015625)"/>
     <path id="DejaVuSans-3e" d="M 678 3150 
L 678 3719 
L 4684 2266 
L 4684 1747 
L 678 294 
L 678 863 
L 3897 2003 
L 678 3150 
z
" transform="scale(0.015625)"/>
    </defs>
    <use xlink:href="#DejaVuSans-43"/>
    <use xlink:href="#DejaVuSans-61" transform="translate(69.824219 0)"/>
    <use xlink:href="#DejaVuSans-73" transform="translate(131.103516 0)"/>
    <use xlink:href="#DejaVuSans-65" transform="translate(183.203125 0)"/>
    <use xlink:href="#DejaVuSans-20" transform="translate(244.726562 0)"/>
    <use xlink:href="#DejaVuSans-4e" transform="translate(276.513672 0)"/>
    <use xlink:href="#DejaVuSans-78" transform="translate(351.318359 0)"/>
    <use xlink:href="#DejaVuSans-3d" transform="translate(410.498047 0)"/>
    <use xlink:href="#DejaVuSans-38" transform="translate(494.287109 0)"/>
    <use xlink:href="#DejaVuSans-2c" transform="translate(557.910156 0)"/>
    <use xlink:href="#DejaVuSans-20" transform="translate(589.697266 0)"/>
    <use xlink:href="#DejaVuSans-4e" transform="translate(621.484375 0)"/>
    <use xlink:href="#DejaVuSans-79" transform="translate(696.289062 0)"/>
    <use xlink:href="#DejaVuSans-3d" transform="translate(755.46875 0)"/>
    <use xlink:href="#DejaVuSans-38" transform="translate(839.257812 0)"/>
    <use xlink:href="#DejaVuSans-2c" transform="translate(902.880859 0)"/>
    <use xlink:href="#DejaVuSans-20" transform="translate(934.667969 0)"/>
    <use xlink:href="#DejaVuSans-4e" transform="translate(966.455078 0)"/>
    <use xlink:href="#DejaVuSans-73" transform="translate(1041.259766 0)"/>
    <use xlink:href="#DejaVuSans-3d" transform="translate(1093.359375 0)"/>
    <use xlink:href="#DejaVuSans-34" transform="translate(1177.148438 0)"/>
    <use xlink:href="#DejaVuSans-3a" transform="translate(1240.771484 0)"/>
    <use xlink:href="#DejaVuSans-20" transform="translate(1274.462891 0)"/>
    <use xlink:href="#DejaVuSans-63" transform="translate(1306.25 0)"/>
    <use xlink:href="#DejaVuSans-6f" transform="translate(1361.230469 0)"/>
    <use xlink:href="#DejaVuSans-6d" transform="translate(1422.412109 0)"/>
    <use xlink:href="#DejaVuSans-70" transform="translate(1519.824219 0)"/>
    <use xlink:href="#DejaVuSans-65" transform="translate(1583.300781 0)"/>
    <use xlink:href="#DejaVuSans-6e" transform="translate(1644.824219 0)"/>
    <use xlink:href="#DejaVuSans-73" transform="translate(1708.203125 0)"/>
    <use xlink:href="#DejaVuSans-61" transform="translate(1760.302734 0)"/>
    <use xlink:href="#DejaVuSans-74" transform="translate(1821.582031 0)"/>
    <use xlink:href="#DejaVuSans-69" transform="translate(1860.791016 0)"/>
    <use xlink:href="#DejaVuSans-6e" transform="translate(1888.574219 0)"/>
    <use xlink:href="#DejaVuSans-67" transform="translate(1951.953125 0)"/>
    <use xlink:href="#DejaVuSans-20" transform="translate(2015.429688 0)"/>
    <use xlink:href="#DejaVuSans-74" transform="translate(2047.216797 0)"/>
    <use xlink:href="#DejaVuSans-72" transform="translate(2086.425781 0)"/>
    <use xlink:href="#DejaVuSans-69" transform="translate(2127.539062 0)"/>
    <use xlink:href="#DejaVuSans-61" transform="translate(2155.322266 0)"/>
    <use xlink:href="#DejaVuSans-6e" transform="translate(2216.601562 0)"/>
    <use xlink:href="#DejaVuSans-67" transform="translate(2279.980469 0)"/>
    <use xlink:href="#DejaVuSans-6c" transform="translate(2343.457031 0)"/>
    <use xlink:href="#DejaVuSans-65" transform="translate(2371.240234 0)"/>
    <use xlink:href="#DejaVuSans-20" transform="translate(2432.763672 0)"/>
    <use xlink:href="#DejaVuSans-2d" transform="translate(2464.550781 0)"/>
    <use xlink:href="#DejaVuSans-3e" transform="translate(2500.634766 0)"/>
    <use xlink:href="#DejaVuSans-20" transform="translate(2584.423828 0)"/>
    <use xlink:href="#DejaVuSans-73" transform="translate(2616.210938 0)"/>
    <use xlink:href="#DejaVuSans-71" transform="translate(2668.310547 0)"/>
    <use xlink:href="#DejaVuSans-75" transform="translate(2731.787109 0)"/>
    <use xlink:href="#DejaVuSans-61" transform="translate(2795.166016 0)"/>
    <use xlink:href="#DejaVuSans-72" transform="translate(2856.445312 0)"/>
    <use xlink:href="#DejaVuSans-65" transform="translate(2895.308594 0)"/>
    <use xlink:href="#DejaVuSans-2d" transform="translate(2956.832031 0)"/>
    <use xlink:href="#DejaVuSans-74" transform="translate(2992.916016 0)"/>
    <use xlink:href="#DejaVuSans-68" transform="translate(3032.125 0)"/>
    <use xlink:href="#DejaVuSans-65" transform="translate(3095.503906 0)"/>
    <use xlink:href="#DejaVuSans-6f" transform="translate(3157.027344 0)"/>
    <use xlink:href="#DejaVuSans-72" transform="translate(3218.208984 0)"/>
    <use xlink:href="#DejaVuSans-79" transform="translate(3259.322266 0)"/>
    <use xlink:href="#DejaVuSans-20" transform="translate(3318.501953 0)"/>
    <use xlink:href="#DejaVuSans-65" transform="translate(3350.289062 0)"/>
    <use xlink:href="#DejaVuSans-66" transform="translate(3411.8125 0)"/>
    <use xlink:href="#DejaVuSans-66" transform="translate(3447.017578 0)"/>
    <use xlink:href="#DejaVuSans-65" transform="translate(3482.222656 0)"/>
    <use xlink:href="#DejaVuSans-63" transform="translate(3543.746094 0)"/>
    <use xlink:href="#DejaVuSans-74" transform="translate(3598.726562 0)"/>
    <use xlink:href="#DejaVuSans-69" transform="translate(3637.935547 0)"/>
    <use xlink:href="#DejaVuSans-76" transform="translate(3665.71875 0)"/>
    <use xlink:href="#DejaVuSans-65" transform="translate(3724.898438 0)"/>
    <use xlink:href="#DejaVuSans-20" transform="translate(3786.421875 0)"/>
    <use xlink:href="#DejaVuSans-76" transform="translate(3818.208984 0)"/>
    <use xlink:href="#DejaVuSans-65" transform="translate(3877.388672 0)"/>
    <use xlink:href="#DejaVuSans-63" transform="translate(3938.912109 0)"/>
    <use xlink:href="#DejaVuSans-74" transform="translate(3993.892578 0)"/>
    <use xlink:href="#DejaVuSans-6f" transform="translate(4033.101562 0)"/>
    <use xlink:href="#DejaVuSans-72" transform="translate(4094.283203 0)"/>
    <use xlink:href="#DejaVuSans-73" transform="translate(4135.396484 0)"/>
   </g>
  </g>
 </g>
 <defs>
  <clipPath id="p1997f78c36">
   <rect x="33.55" y="143.655934" width="310.79" height="102.784131"/>
  </clipPath>
  <clipPath id="p7fe2249932">
   <rect x="377.98" y="91.291847" width="310.79" height="207.512305"/>
  </clipPath>
  <clipPath id="p0892803f76">
   <rect x="722.41" y="92.263869" width="310.79" height="205.568262"/>
  </clipPath>
 </defs>
</svg>
