<svg xmlns="http://www.w3.org/2000/svg" width="900" height="560">
<rect x="0" y="0" width="100%" height="100%" fill="white"/>
<text x="450.0" y="30" text-anchor="middle" font-size="20" font-family="Arial">Connected all-to-all (jackknife), 24x32, k1=0.202732554054082, k2=k3=0.312572558625208</text>
<line x1="80" y1="495" x2="870" y2="495" stroke="black"/>
<line x1="80" y1="55" x2="80" y2="495" stroke="black"/>
<line x1="80" y1="495.00" x2="870" y2="495.00" stroke="#dddddd"/>
<text x="70" y="499.00" text-anchor="end" font-size="12" font-family="Arial">0.401</text>
<line x1="80" y1="407.00" x2="870" y2="407.00" stroke="#dddddd"/>
<text x="70" y="411.00" text-anchor="end" font-size="12" font-family="Arial">0.526</text>
<line x1="80" y1="319.00" x2="870" y2="319.00" stroke="#dddddd"/>
<text x="70" y="323.00" text-anchor="end" font-size="12" font-family="Arial">0.652</text>
<line x1="80" y1="231.00" x2="870" y2="231.00" stroke="#dddddd"/>
<text x="70" y="235.00" text-anchor="end" font-size="12" font-family="Arial">0.777</text>
<line x1="80" y1="143.00" x2="870" y2="143.00" stroke="#dddddd"/>
<text x="70" y="147.00" text-anchor="end" font-size="12" font-family="Arial">0.903</text>
<line x1="80" y1="55.00" x2="870" y2="55.00" stroke="#dddddd"/>
<text x="70" y="59.00" text-anchor="end" font-size="12" font-family="Arial">1.029</text>
<line x1="80.00" y1="55" x2="80.00" y2="495" stroke="#f0f0f0"/>
<text x="80.00" y="515" text-anchor="middle" font-size="12" font-family="Arial">0.0</text>
<line x1="238.00" y1="55" x2="238.00" y2="495" stroke="#f0f0f0"/>
<text x="238.00" y="515" text-anchor="middle" font-size="12" font-family="Arial">6.2</text>
<line x1="396.00" y1="55" x2="396.00" y2="495" stroke="#f0f0f0"/>
<text x="396.00" y="515" text-anchor="middle" font-size="12" font-family="Arial">12.4</text>
<line x1="554.00" y1="55" x2="554.00" y2="495" stroke="#f0f0f0"/>
<text x="554.00" y="515" text-anchor="middle" font-size="12" font-family="Arial">18.6</text>
<line x1="712.00" y1="55" x2="712.00" y2="495" stroke="#f0f0f0"/>
<text x="712.00" y="515" text-anchor="middle" font-size="12" font-family="Arial">24.8</text>
<line x1="870.00" y1="55" x2="870.00" y2="495" stroke="#f0f0f0"/>
<text x="870.00" y="515" text-anchor="middle" font-size="12" font-family="Arial">31.0</text>
<text x="475.0" y="540" text-anchor="middle" font-size="14" font-family="Arial">lattice separation bin</text>
<text x="20" y="275.0" transform="rotate(-90 20,275.0)" text-anchor="middle" font-size="14" font-family="Arial">C(r)</text>
<line x1="80.00" y1="75.06" x2="80.00" y2="75.00" stroke="#1f77b4" stroke-width="1.2" opacity="0.85"/>
<line x1="76.00" y1="75.06" x2="84.00" y2="75.06" stroke="#1f77b4" stroke-width="1.2" opacity="0.85"/>
<line x1="76.00" y1="75.00" x2="84.00" y2="75.00" stroke="#1f77b4" stroke-width="1.2" opacity="0.85"/>
<line x1="105.48" y1="309.77" x2="105.48" y2="308.60" stroke="#1f77b4" stroke-width="1.2" opacity="0.85"/>
<line x1="101.48" y1="309.77" x2="109.48" y2="309.77" stroke="#1f77b4" stroke-width="1.2" opacity="0.85"/>
<line x1="101.48" y1="308.60" x2="109.48" y2="308.60" stroke="#1f77b4" stroke-width="1.2" opacity="0.85"/>
<line x1="130.97" y1="374.78" x2="130.97" y2="372.98" stroke="#1f77b4" stroke-width="1.2" opacity="0.85"/>
<line x1="126.97" y1="374.78" x2="134.97" y2="374.78" stroke="#1f77b4" stroke-width="1.2" opacity="0.85"/>
<line x1="126.97" y1="372.98" x2="134.97" y2="372.98" stroke="#1f77b4" stroke-width="1.2" opacity="0.85"/>
<line x1="156.45" y1="406.53" x2="156.45" y2="404.28" stroke="#1f77b4" stroke-width="1.2" opacity="0.85"/>
<line x1="152.45" y1="406.53" x2="160.45" y2="406.53" stroke="#1f77b4" stroke-width="1.2" opacity="0.85"/>
<line x1="152.45" y1="404.28" x2="160.45" y2="404.28" stroke="#1f77b4" stroke-width="1.2" opacity="0.85"/>
<line x1="181.94" y1="425.83" x2="181.94" y2="423.21" stroke="#1f77b4" stroke-width="1.2" opacity="0.85"/>
<line x1="177.94" y1="425.83" x2="185.94" y2="425.83" stroke="#1f77b4" stroke-width="1.2" opacity="0.85"/>
<line x1="177.94" y1="423.21" x2="185.94" y2="423.21" stroke="#1f77b4" stroke-width="1.2" opacity="0.85"/>
<line x1="207.42" y1="438.99" x2="207.42" y2="436.07" stroke="#1f77b4" stroke-width="1.2" opacity="0.85"/>
<line x1="203.42" y1="438.99" x2="211.42" y2="438.99" stroke="#1f77b4" stroke-width="1.2" opacity="0.85"/>
<line x1="203.42" y1="436.07" x2="211.42" y2="436.07" stroke="#1f77b4" stroke-width="1.2" opacity="0.85"/>
<line x1="232.90" y1="448.19" x2="232.90" y2="445.02" stroke="#1f77b4" stroke-width="1.2" opacity="0.85"/>
<line x1="228.90" y1="448.19" x2="236.90" y2="448.19" stroke="#1f77b4" stroke-width="1.2" opacity="0.85"/>
<line x1="228.90" y1="445.02" x2="236.90" y2="445.02" stroke="#1f77b4" stroke-width="1.2" opacity="0.85"/>
<line x1="258.39" y1="454.78" x2="258.39" y2="451.41" stroke="#1f77b4" stroke-width="1.2" opacity="0.85"/>
<line x1="254.39" y1="454.78" x2="262.39" y2="454.78" stroke="#1f77b4" stroke-width="1.2" opacity="0.85"/>
<line x1="254.39" y1="451.41" x2="262.39" y2="451.41" stroke="#1f77b4" stroke-width="1.2" opacity="0.85"/>
<line x1="283.87" y1="459.59" x2="283.87" y2="456.03" stroke="#1f77b4" stroke-width="1.2" opacity="0.85"/>
<line x1="279.87" y1="459.59" x2="287.87" y2="459.59" stroke="#1f77b4" stroke-width="1.2" opacity="0.85"/>
<line x1="279.87" y1="456.03" x2="287.87" y2="456.03" stroke="#1f77b4" stroke-width="1.2" opacity="0.85"/>
<line x1="309.35" y1="462.97" x2="309.35" y2="459.27" stroke="#1f77b4" stroke-width="1.2" opacity="0.85"/>
<line x1="305.35" y1="462.97" x2="313.35" y2="462.97" stroke="#1f77b4" stroke-width="1.2" opacity="0.85"/>
<line x1="305.35" y1="459.27" x2="313.35" y2="459.27" stroke="#1f77b4" stroke-width="1.2" opacity="0.85"/>
<line x1="334.84" y1="465.17" x2="334.84" y2="461.36" stroke="#1f77b4" stroke-width="1.2" opacity="0.85"/>
<line x1="330.84" y1="465.17" x2="338.84" y2="465.17" stroke="#1f77b4" stroke-width="1.2" opacity="0.85"/>
<line x1="330.84" y1="461.36" x2="338.84" y2="461.36" stroke="#1f77b4" stroke-width="1.2" opacity="0.85"/>
<line x1="360.32" y1="466.56" x2="360.32" y2="462.68" stroke="#1f77b4" stroke-width="1.2" opacity="0.85"/>
<line x1="356.32" y1="466.56" x2="364.32" y2="466.56" stroke="#1f77b4" stroke-width="1.2" opacity="0.85"/>
<line x1="356.32" y1="462.68" x2="364.32" y2="462.68" stroke="#1f77b4" stroke-width="1.2" opacity="0.85"/>
<line x1="385.81" y1="467.13" x2="385.81" y2="463.21" stroke="#1f77b4" stroke-width="1.2" opacity="0.85"/>
<line x1="381.81" y1="467.13" x2="389.81" y2="467.13" stroke="#1f77b4" stroke-width="1.2" opacity="0.85"/>
<line x1="381.81" y1="463.21" x2="389.81" y2="463.21" stroke="#1f77b4" stroke-width="1.2" opacity="0.85"/>
<line x1="411.29" y1="466.56" x2="411.29" y2="462.68" stroke="#1f77b4" stroke-width="1.2" opacity="0.85"/>
<line x1="407.29" y1="466.56" x2="415.29" y2="466.56" stroke="#1f77b4" stroke-width="1.2" opacity="0.85"/>
<line x1="407.29" y1="462.68" x2="415.29" y2="462.68" stroke="#1f77b4" stroke-width="1.2" opacity="0.85"/>
<line x1="436.77" y1="465.17" x2="436.77" y2="461.36" stroke="#1f77b4" stroke-width="1.2" opacity="0.85"/>
<line x1="432.77" y1="465.17" x2="440.77" y2="465.17" stroke="#1f77b4" stroke-width="1.2" opacity="0.85"/>
<line x1="432.77" y1="461.36" x2="440.77" y2="461.36" stroke="#1f77b4" stroke-width="1.2" opacity="0.85"/>
<line x1="462.26" y1="462.97" x2="462.26" y2="459.27" stroke="#1f77b4" stroke-width="1.2" opacity="0.85"/>
<line x1="458.26" y1="462.97" x2="466.26" y2="462.97" stroke="#1f77b4" stroke-width="1.2" opacity="0.85"/>
<line x1="458.26" y1="459.27" x2="466.26" y2="459.27" stroke="#1f77b4" stroke-width="1.2" opacity="0.85"/>
<line x1="487.74" y1="459.59" x2="487.74" y2="456.03" stroke="#1f77b4" stroke-width="1.2" opacity="0.85"/>
<line x1="483.74" y1="459.59" x2="491.74" y2="459.59" stroke="#1f77b4" stroke-width="1.2" opacity="0.85"/>
<line x1="483.74" y1="456.03" x2="491.74" y2="456.03" stroke="#1f77b4" stroke-width="1.2" opacity="0.85"/>
<line x1="513.23" y1="454.78" x2="513.23" y2="451.41" stroke="#1f77b4" stroke-width="1.2" opacity="0.85"/>
<line x1="509.23" y1="454.78" x2="517.23" y2="454.78" stroke="#1f77b4" stroke-width="1.2" opacity="0.85"/>
<line x1="509.23" y1="451.41" x2="517.23" y2="451.41" stroke="#1f77b4" stroke-width="1.2" opacity="0.85"/>
<line x1="538.71" y1="448.19" x2="538.71" y2="445.02" stroke="#1f77b4" stroke-width="1.2" opacity="0.85"/>
<line x1="534.71" y1="448.19" x2="542.71" y2="448.19" stroke="#1f77b4" stroke-width="1.2" opacity="0.85"/>
<line x1="534.71" y1="445.02" x2="542.71" y2="445.02" stroke="#1f77b4" stroke-width="1.2" opacity="0.85"/>
<line x1="564.19" y1="438.99" x2="564.19" y2="436.07" stroke="#1f77b4" stroke-width="1.2" opacity="0.85"/>
<line x1="560.19" y1="438.99" x2="568.19" y2="438.99" stroke="#1f77b4" stroke-width="1.2" opacity="0.85"/>
<line x1="560.19" y1="436.07" x2="568.19" y2="436.07" stroke="#1f77b4" stroke-width="1.2" opacity="0.85"/>
<line x1="589.68" y1="425.83" x2="589.68" y2="423.21" stroke="#1f77b4" stroke-width="1.2" opacity="0.85"/>
<line x1="585.68" y1="425.83" x2="593.68" y2="425.83" stroke="#1f77b4" stroke-width="1.2" opacity="0.85"/>
<line x1="585.68" y1="423.21" x2="593.68" y2="423.21" stroke="#1f77b4" stroke-width="1.2" opacity="0.85"/>
<line x1="615.16" y1="406.53" x2="615.16" y2="404.28" stroke="#1f77b4" stroke-width="1.2" opacity="0.85"/>
<line x1="611.16" y1="406.53" x2="619.16" y2="406.53" stroke="#1f77b4" stroke-width="1.2" opacity="0.85"/>
<line x1="611.16" y1="404.28" x2="619.16" y2="404.28" stroke="#1f77b4" stroke-width="1.2" opacity="0.85"/>
<line x1="640.65" y1="374.78" x2="640.65" y2="372.98" stroke="#1f77b4" stroke-width="1.2" opacity="0.85"/>
<line x1="636.65" y1="374.78" x2="644.65" y2="374.78" stroke="#1f77b4" stroke-width="1.2" opacity="0.85"/>
<line x1="636.65" y1="372.98" x2="644.65" y2="372.98" stroke="#1f77b4" stroke-width="1.2" opacity="0.85"/>
<line x1="666.13" y1="309.77" x2="666.13" y2="308.60" stroke="#1f77b4" stroke-width="1.2" opacity="0.85"/>
<line x1="662.13" y1="309.77" x2="670.13" y2="309.77" stroke="#1f77b4" stroke-width="1.2" opacity="0.85"/>
<line x1="662.13" y1="308.60" x2="670.13" y2="308.60" stroke="#1f77b4" stroke-width="1.2" opacity="0.85"/>
<polyline points="80.00,75.03 105.48,309.19 130.97,373.88 156.45,405.41 181.94,424.52 207.42,437.53 232.90,446.61 258.39,453.10 283.87,457.81 309.35,461.12 334.84,463.27 360.32,464.62 385.81,465.17 411.29,464.62 436.77,463.27 462.26,461.12 487.74,457.81 513.23,453.10 538.71,446.61 564.19,437.53 589.68,424.52 615.16,405.41 640.65,373.88 666.13,309.19" fill="none" stroke="#1f77b4" stroke-width="2"/>
<circle cx="80.00" cy="75.03" r="2.5" fill="#1f77b4"/>
<circle cx="105.48" cy="309.19" r="2.5" fill="#1f77b4"/>
<circle cx="130.97" cy="373.88" r="2.5" fill="#1f77b4"/>
<circle cx="156.45" cy="405.41" r="2.5" fill="#1f77b4"/>
<circle cx="181.94" cy="424.52" r="2.5" fill="#1f77b4"/>
<circle cx="207.42" cy="437.53" r="2.5" fill="#1f77b4"/>
<circle cx="232.90" cy="446.61" r="2.5" fill="#1f77b4"/>
<circle cx="258.39" cy="453.10" r="2.5" fill="#1f77b4"/>
<circle cx="283.87" cy="457.81" r="2.5" fill="#1f77b4"/>
<circle cx="309.35" cy="461.12" r="2.5" fill="#1f77b4"/>
<circle cx="334.84" cy="463.27" r="2.5" fill="#1f77b4"/>
<circle cx="360.32" cy="464.62" r="2.5" fill="#1f77b4"/>
<circle cx="385.81" cy="465.17" r="2.5" fill="#1f77b4"/>
<circle cx="411.29" cy="464.62" r="2.5" fill="#1f77b4"/>
<circle cx="436.77" cy="463.27" r="2.5" fill="#1f77b4"/>
<circle cx="462.26" cy="461.12" r="2.5" fill="#1f77b4"/>
<circle cx="487.74" cy="457.81" r="2.5" fill="#1f77b4"/>
<circle cx="513.23" cy="453.10" r="2.5" fill="#1f77b4"/>
<circle cx="538.71" cy="446.61" r="2.5" fill="#1f77b4"/>
<circle cx="564.19" cy="437.53" r="2.5" fill="#1f77b4"/>
<circle cx="589.68" cy="424.52" r="2.5" fill="#1f77b4"/>
<circle cx="615.16" cy="405.41" r="2.5" fill="#1f77b4"/>
<circle cx="640.65" cy="373.88" r="2.5" fill="#1f77b4"/>
<circle cx="666.13" cy="309.19" r="2.5" fill="#1f77b4"/>
<line x1="80.00" y1="75.06" x2="80.00" y2="75.00" stroke="#ff7f0e" stroke-width="1.2" opacity="0.85"/>
<line x1="76.00" y1="75.06" x2="84.00" y2="75.06" stroke="#ff7f0e" stroke-width="1.2" opacity="0.85"/>
<line x1="76.00" y1="75.00" x2="84.00" y2="75.00" stroke="#ff7f0e" stroke-width="1.2" opacity="0.85"/>
<line x1="105.48" y1="295.69" x2="105.48" y2="294.62" stroke="#ff7f0e" stroke-width="1.2" opacity="0.85"/>
<line x1="101.48" y1="295.69" x2="109.48" y2="295.69" stroke="#ff7f0e" stroke-width="1.2" opacity="0.85"/>
<line x1="101.48" y1="294.62" x2="109.48" y2="294.62" stroke="#ff7f0e" stroke-width="1.2" opacity="0.85"/>
<line x1="130.97" y1="365.00" x2="130.97" y2="363.32" stroke="#ff7f0e" stroke-width="1.2" opacity="0.85"/>
<line x1="126.97" y1="365.00" x2="134.97" y2="365.00" stroke="#ff7f0e" stroke-width="1.2" opacity="0.85"/>
<line x1="126.97" y1="363.32" x2="134.97" y2="363.32" stroke="#ff7f0e" stroke-width="1.2" opacity="0.85"/>
<line x1="156.45" y1="398.53" x2="156.45" y2="396.41" stroke="#ff7f0e" stroke-width="1.2" opacity="0.85"/>
<line x1="152.45" y1="398.53" x2="160.45" y2="398.53" stroke="#ff7f0e" stroke-width="1.2" opacity="0.85"/>
<line x1="152.45" y1="396.41" x2="160.45" y2="396.41" stroke="#ff7f0e" stroke-width="1.2" opacity="0.85"/>
<line x1="181.94" y1="419.59" x2="181.94" y2="417.10" stroke="#ff7f0e" stroke-width="1.2" opacity="0.85"/>
<line x1="177.94" y1="419.59" x2="185.94" y2="419.59" stroke="#ff7f0e" stroke-width="1.2" opacity="0.85"/>
<line x1="177.94" y1="417.10" x2="185.94" y2="417.10" stroke="#ff7f0e" stroke-width="1.2" opacity="0.85"/>
<line x1="207.42" y1="433.76" x2="207.42" y2="430.96" stroke="#ff7f0e" stroke-width="1.2" opacity="0.85"/>
<line x1="203.42" y1="433.76" x2="211.42" y2="433.76" stroke="#ff7f0e" stroke-width="1.2" opacity="0.85"/>
<line x1="203.42" y1="430.96" x2="211.42" y2="430.96" stroke="#ff7f0e" stroke-width="1.2" opacity="0.85"/>
<line x1="232.90" y1="444.53" x2="232.90" y2="441.46" stroke="#ff7f0e" stroke-width="1.2" opacity="0.85"/>
<line x1="228.90" y1="444.53" x2="236.90" y2="444.53" stroke="#ff7f0e" stroke-width="1.2" opacity="0.85"/>
<line x1="228.90" y1="441.46" x2="236.90" y2="441.46" stroke="#ff7f0e" stroke-width="1.2" opacity="0.85"/>
<line x1="258.39" y1="452.24" x2="258.39" y2="448.95" stroke="#ff7f0e" stroke-width="1.2" opacity="0.85"/>
<line x1="254.39" y1="452.24" x2="262.39" y2="452.24" stroke="#ff7f0e" stroke-width="1.2" opacity="0.85"/>
<line x1="254.39" y1="448.95" x2="262.39" y2="448.95" stroke="#ff7f0e" stroke-width="1.2" opacity="0.85"/>
<line x1="283.87" y1="458.22" x2="283.87" y2="454.74" stroke="#ff7f0e" stroke-width="1.2" opacity="0.85"/>
<line x1="279.87" y1="458.22" x2="287.87" y2="458.22" stroke="#ff7f0e" stroke-width="1.2" opacity="0.85"/>
<line x1="279.87" y1="454.74" x2="287.87" y2="454.74" stroke="#ff7f0e" stroke-width="1.2" opacity="0.85"/>
<line x1="309.35" y1="462.73" x2="309.35" y2="459.07" stroke="#ff7f0e" stroke-width="1.2" opacity="0.85"/>
<line x1="305.35" y1="462.73" x2="313.35" y2="462.73" stroke="#ff7f0e" stroke-width="1.2" opacity="0.85"/>
<line x1="305.35" y1="459.07" x2="313.35" y2="459.07" stroke="#ff7f0e" stroke-width="1.2" opacity="0.85"/>
<line x1="334.84" y1="466.43" x2="334.84" y2="462.63" stroke="#ff7f0e" stroke-width="1.2" opacity="0.85"/>
<line x1="330.84" y1="466.43" x2="338.84" y2="466.43" stroke="#ff7f0e" stroke-width="1.2" opacity="0.85"/>
<line x1="330.84" y1="462.63" x2="338.84" y2="462.63" stroke="#ff7f0e" stroke-width="1.2" opacity="0.85"/>
<line x1="360.32" y1="469.04" x2="360.32" y2="465.11" stroke="#ff7f0e" stroke-width="1.2" opacity="0.85"/>
<line x1="356.32" y1="469.04" x2="364.32" y2="469.04" stroke="#ff7f0e" stroke-width="1.2" opacity="0.85"/>
<line x1="356.32" y1="465.11" x2="364.32" y2="465.11" stroke="#ff7f0e" stroke-width="1.2" opacity="0.85"/>
<line x1="385.81" y1="471.03" x2="385.81" y2="467.00" stroke="#ff7f0e" stroke-width="1.2" opacity="0.85"/>
<line x1="381.81" y1="471.03" x2="389.81" y2="471.03" stroke="#ff7f0e" stroke-width="1.2" opacity="0.85"/>
<line x1="381.81" y1="467.00" x2="389.81" y2="467.00" stroke="#ff7f0e" stroke-width="1.2" opacity="0.85"/>
<line x1="411.29" y1="472.85" x2="411.29" y2="468.74" stroke="#ff7f0e" stroke-width="1.2" opacity="0.85"/>
<line x1="407.29" y1="472.85" x2="415.29" y2="472.85" stroke="#ff7f0e" stroke-width="1.2" opacity="0.85"/>
<line x1="407.29" y1="468.74" x2="415.29" y2="468.74" stroke="#ff7f0e" stroke-width="1.2" opacity="0.85"/>
<line x1="436.77" y1="474.10" x2="436.77" y2="469.92" stroke="#ff7f0e" stroke-width="1.2" opacity="0.85"/>
<line x1="432.77" y1="474.10" x2="440.77" y2="474.10" stroke="#ff7f0e" stroke-width="1.2" opacity="0.85"/>
<line x1="432.77" y1="469.92" x2="440.77" y2="469.92" stroke="#ff7f0e" stroke-width="1.2" opacity="0.85"/>
<line x1="462.26" y1="474.80" x2="462.26" y2="470.58" stroke="#ff7f0e" stroke-width="1.2" opacity="0.85"/>
<line x1="458.26" y1="474.80" x2="466.26" y2="474.80" stroke="#ff7f0e" stroke-width="1.2" opacity="0.85"/>
<line x1="458.26" y1="470.58" x2="466.26" y2="470.58" stroke="#ff7f0e" stroke-width="1.2" opacity="0.85"/>
<line x1="487.74" y1="475.00" x2="487.74" y2="470.75" stroke="#ff7f0e" stroke-width="1.2" opacity="0.85"/>
<line x1="483.74" y1="475.00" x2="491.74" y2="475.00" stroke="#ff7f0e" stroke-width="1.2" opacity="0.85"/>
<line x1="483.74" y1="470.75" x2="491.74" y2="470.75" stroke="#ff7f0e" stroke-width="1.2" opacity="0.85"/>
<line x1="513.23" y1="474.80" x2="513.23" y2="470.58" stroke="#ff7f0e" stroke-width="1.2" opacity="0.85"/>
<line x1="509.23" y1="474.80" x2="517.23" y2="474.80" stroke="#ff7f0e" stroke-width="1.2" opacity="0.85"/>
<line x1="509.23" y1="470.58" x2="517.23" y2="470.58" stroke="#ff7f0e" stroke-width="1.2" opacity="0.85"/>
<line x1="538.71" y1="474.10" x2="538.71" y2="469.92" stroke="#ff7f0e" stroke-width="1.2" opacity="0.85"/>
<line x1="534.71" y1="474.10" x2="542.71" y2="474.10" stroke="#ff7f0e" stroke-width="1.2" opacity="0.85"/>
<line x1="534.71" y1="469.92" x2="542.71" y2="469.92" stroke="#ff7f0e" stroke-width="1.2" opacity="0.85"/>
<line x1="564.19" y1="472.85" x2="564.19" y2="468.74" stroke="#ff7f0e" stroke-width="1.2" opacity="0.85"/>
<line x1="560.19" y1="472.85" x2="568.19" y2="472.85" stroke="#ff7f0e" stroke-width="1.2" opacity="0.85"/>
<line x1="560.19" y1="468.74" x2="568.19" y2="468.74" stroke="#ff7f0e" stroke-width="1.2" opacity="0.85"/>
<line x1="589.68" y1="471.03" x2="589.68" y2="467.00" stroke="#ff7f0e" stroke-width="1.2" opacity="0.85"/>
<line x1="585.68" y1="471.03" x2="593.68" y2="471.03" stroke="#ff7f0e" stroke-width="1.2" opacity="0.85"/>
<line x1="585.68" y1="467.00" x2="593.68" y2="467.00" stroke="#ff7f0e" stroke-width="1.2" opacity="0.85"/>
<line x1="615.16" y1="469.04" x2="615.16" y2="465.11" stroke="#ff7f0e" stroke-width="1.2" opacity="0.85"/>
<line x1="611.16" y1="469.04" x2="619.16" y2="469.04" stroke="#ff7f0e" stroke-width="1.2" opacity="0.85"/>
<line x1="611.16" y1="465.11" x2="619.16" y2="465.11" stroke="#ff7f0e" stroke-width="1.2" opacity="0.85"/>
<line x1="640.65" y1="466.43" x2="640.65" y2="462.63" stroke="#ff7f0e" stroke-width="1.2" opacity="0.85"/>
<line x1="636.65" y1="466.43" x2="644.65" y2="466.43" stroke="#ff7f0e" stroke-width="1.2" opacity="0.85"/>
<line x1="636.65" y1="462.63" x2="644.65" y2="462.63" stroke="#ff7f0e" stroke-width="1.2" opacity="0.85"/>
<line x1="666.13" y1="462.73" x2="666.13" y2="459.07" stroke="#ff7f0e" stroke-width="1.2" opacity="0.85"/>
<line x1="662.13" y1="462.73" x2="670.13" y2="462.73" stroke="#ff7f0e" stroke-width="1.2" opacity="0.85"/>
<line x1="662.13" y1="459.07" x2="670.13" y2="459.07" stroke="#ff7f0e" stroke-width="1.2" opacity="0.85"/>
<line x1="691.61" y1="458.22" x2="691.61" y2="454.74" stroke="#ff7f0e" stroke-width="1.2" opacity="0.85"/>
<line x1="687.61" y1="458.22" x2="695.61" y2="458.22" stroke="#ff7f0e" stroke-width="1.2" opacity="0.85"/>
<line x1="687.61" y1="454.74" x2="695.61" y2="454.74" stroke="#ff7f0e" stroke-width="1.2" opacity="0.85"/>
<line x1="717.10" y1="452.24" x2="717.10" y2="448.95" stroke="#ff7f0e" stroke-width="1.2" opacity="0.85"/>
<line x1="713.10" y1="452.24" x2="721.10" y2="452.24" stroke="#ff7f0e" stroke-width="1.2" opacity="0.85"/>
<line x1="713.10" y1="448.95" x2="721.10" y2="448.95" stroke="#ff7f0e" stroke-width="1.2" opacity="0.85"/>
<line x1="742.58" y1="444.53" x2="742.58" y2="441.46" stroke="#ff7f0e" stroke-width="1.2" opacity="0.85"/>
<line x1="738.58" y1="444.53" x2="746.58" y2="444.53" stroke="#ff7f0e" stroke-width="1.2" opacity="0.85"/>
<line x1="738.58" y1="441.46" x2="746.58" y2="441.46" stroke="#ff7f0e" stroke-width="1.2" opacity="0.85"/>
<line x1="768.06" y1="433.76" x2="768.06" y2="430.96" stroke="#ff7f0e" stroke-width="1.2" opacity="0.85"/>
<line x1="764.06" y1="433.76" x2="772.06" y2="433.76" stroke="#ff7f0e" stroke-width="1.2" opacity="0.85"/>
<line x1="764.06" y1="430.96" x2="772.06" y2="430.96" stroke="#ff7f0e" stroke-width="1.2" opacity="0.85"/>
<line x1="793.55" y1="419.59" x2="793.55" y2="417.10" stroke="#ff7f0e" stroke-width="1.2" opacity="0.85"/>
<line x1="789.55" y1="419.59" x2="797.55" y2="419.59" stroke="#ff7f0e" stroke-width="1.2" opacity="0.85"/>
<line x1="789.55" y1="417.10" x2="797.55" y2="417.10" stroke="#ff7f0e" stroke-width="1.2" opacity="0.85"/>
<line x1="819.03" y1="398.53" x2="819.03" y2="396.41" stroke="#ff7f0e" stroke-width="1.2" opacity="0.85"/>
<line x1="815.03" y1="398.53" x2="823.03" y2="398.53" stroke="#ff7f0e" stroke-width="1.2" opacity="0.85"/>
<line x1="815.03" y1="396.41" x2="823.03" y2="396.41" stroke="#ff7f0e" stroke-width="1.2" opacity="0.85"/>
<line x1="844.52" y1="365.00" x2="844.52" y2="363.32" stroke="#ff7f0e" stroke-width="1.2" opacity="0.85"/>
<line x1="840.52" y1="365.00" x2="848.52" y2="365.00" stroke="#ff7f0e" stroke-width="1.2" opacity="0.85"/>
<line x1="840.52" y1="363.32" x2="848.52" y2="363.32" stroke="#ff7f0e" stroke-width="1.2" opacity="0.85"/>
<line x1="870.00" y1="295.69" x2="870.00" y2="294.62" stroke="#ff7f0e" stroke-width="1.2" opacity="0.85"/>
<line x1="866.00" y1="295.69" x2="874.00" y2="295.69" stroke="#ff7f0e" stroke-width="1.2" opacity="0.85"/>
<line x1="866.00" y1="294.62" x2="874.00" y2="294.62" stroke="#ff7f0e" stroke-width="1.2" opacity="0.85"/>
<polyline points="80.00,75.03 105.48,295.15 130.97,364.16 156.45,397.47 181.94,418.35 207.42,432.36 232.90,442.99 258.39,450.59 283.87,456.48 309.35,460.90 334.84,464.53 360.32,467.07 385.81,469.02 411.29,470.79 436.77,472.01 462.26,472.69 487.74,472.88 513.23,472.69 538.71,472.01 564.19,470.79 589.68,469.02 615.16,467.07 640.65,464.53 666.13,460.90 691.61,456.48 717.10,450.59 742.58,442.99 768.06,432.36 793.55,418.35 819.03,397.47 844.52,364.16 870.00,295.15" fill="none" stroke="#ff7f0e" stroke-width="2"/>
<circle cx="80.00" cy="75.03" r="2.5" fill="#ff7f0e"/>
<circle cx="105.48" cy="295.15" r="2.5" fill="#ff7f0e"/>
<circle cx="130.97" cy="364.16" r="2.5" fill="#ff7f0e"/>
<circle cx="156.45" cy="397.47" r="2.5" fill="#ff7f0e"/>
<circle cx="181.94" cy="418.35" r="2.5" fill="#ff7f0e"/>
<circle cx="207.42" cy="432.36" r="2.5" fill="#ff7f0e"/>
<circle cx="232.90" cy="442.99" r="2.5" fill="#ff7f0e"/>
<circle cx="258.39" cy="450.59" r="2.5" fill="#ff7f0e"/>
<circle cx="283.87" cy="456.48" r="2.5" fill="#ff7f0e"/>
<circle cx="309.35" cy="460.90" r="2.5" fill="#ff7f0e"/>
<circle cx="334.84" cy="464.53" r="2.5" fill="#ff7f0e"/>
<circle cx="360.32" cy="467.07" r="2.5" fill="#ff7f0e"/>
<circle cx="385.81" cy="469.02" r="2.5" fill="#ff7f0e"/>
<circle cx="411.29" cy="470.79" r="2.5" fill="#ff7f0e"/>
<circle cx="436.77" cy="472.01" r="2.5" fill="#ff7f0e"/>
<circle cx="462.26" cy="472.69" r="2.5" fill="#ff7f0e"/>
<circle cx="487.74" cy="472.88" r="2.5" fill="#ff7f0e"/>
<circle cx="513.23" cy="472.69" r="2.5" fill="#ff7f0e"/>
<circle cx="538.71" cy="472.01" r="2.5" fill="#ff7f0e"/>
<circle cx="564.19" cy="470.79" r="2.5" fill="#ff7f0e"/>
<circle cx="589.68" cy="469.02" r="2.5" fill="#ff7f0e"/>
<circle cx="615.16" cy="467.07" r="2.5" fill="#ff7f0e"/>
<circle cx="640.65" cy="464.53" r="2.5" fill="#ff7f0e"/>
<circle cx="666.13" cy="460.90" r="2.5" fill="#ff7f0e"/>
<circle cx="691.61" cy="456.48" r="2.5" fill="#ff7f0e"/>
<circle cx="717.10" cy="450.59" r="2.5" fill="#ff7f0e"/>
<circle cx="742.58" cy="442.99" r="2.5" fill="#ff7f0e"/>
<circle cx="768.06" cy="432.36" r="2.5" fill="#ff7f0e"/>
<circle cx="793.55" cy="418.35" r="2.5" fill="#ff7f0e"/>
<circle cx="819.03" cy="397.47" r="2.5" fill="#ff7f0e"/>
<circle cx="844.52" cy="364.16" r="2.5" fill="#ff7f0e"/>
<circle cx="870.00" cy="295.15" r="2.5" fill="#ff7f0e"/>
<rect x="660" y="70" width="190" height="64" fill="white" stroke="#cccccc"/>
<line x1="670" y1="90" x2="700" y2="90" stroke="#1f77b4" stroke-width="3"/>
<text x="708" y="94" font-size="12" font-family="Arial">connected x (jackknife)</text>
<line x1="670" y1="112" x2="700" y2="112" stroke="#ff7f0e" stroke-width="3"/>
<text x="708" y="116" font-size="12" font-family="Arial">connected y (jackknife)</text>
</svg>