<svg xmlns="http://www.w3.org/2000/svg" width="900" height="560">
<rect x="0" y="0" width="100%" height="100%" fill="white"/>
<text x="450.0" y="30" text-anchor="middle" font-size="20" font-family="Arial">Connected all-to-all (jackknife), h/b=3/4 geometry rule</text>
<line x1="80" y1="495" x2="870" y2="495" stroke="black"/>
<line x1="80" y1="55" x2="80" y2="495" stroke="black"/>
<line x1="80" y1="495.00" x2="870" y2="495.00" stroke="#dddddd"/>
<text x="70" y="499.00" text-anchor="end" font-size="12" font-family="Arial">0.393</text>
<line x1="80" y1="407.00" x2="870" y2="407.00" stroke="#dddddd"/>
<text x="70" y="411.00" text-anchor="end" font-size="12" font-family="Arial">0.520</text>
<line x1="80" y1="319.00" x2="870" y2="319.00" stroke="#dddddd"/>
<text x="70" y="323.00" text-anchor="end" font-size="12" font-family="Arial">0.648</text>
<line x1="80" y1="231.00" x2="870" y2="231.00" stroke="#dddddd"/>
<text x="70" y="235.00" text-anchor="end" font-size="12" font-family="Arial">0.775</text>
<line x1="80" y1="143.00" x2="870" y2="143.00" stroke="#dddddd"/>
<text x="70" y="147.00" text-anchor="end" font-size="12" font-family="Arial">0.902</text>
<line x1="80" y1="55.00" x2="870" y2="55.00" stroke="#dddddd"/>
<text x="70" y="59.00" text-anchor="end" font-size="12" font-family="Arial">1.029</text>
<line x1="80.00" y1="55" x2="80.00" y2="495" stroke="#f0f0f0"/>
<text x="80.00" y="515" text-anchor="middle" font-size="12" font-family="Arial">0.0</text>
<line x1="238.00" y1="55" x2="238.00" y2="495" stroke="#f0f0f0"/>
<text x="238.00" y="515" text-anchor="middle" font-size="12" font-family="Arial">6.2</text>
<line x1="396.00" y1="55" x2="396.00" y2="495" stroke="#f0f0f0"/>
<text x="396.00" y="515" text-anchor="middle" font-size="12" font-family="Arial">12.4</text>
<line x1="554.00" y1="55" x2="554.00" y2="495" stroke="#f0f0f0"/>
<text x="554.00" y="515" text-anchor="middle" font-size="12" font-family="Arial">18.6</text>
<line x1="712.00" y1="55" x2="712.00" y2="495" stroke="#f0f0f0"/>
<text x="712.00" y="515" text-anchor="middle" font-size="12" font-family="Arial">24.8</text>
<line x1="870.00" y1="55" x2="870.00" y2="495" stroke="#f0f0f0"/>
<text x="870.00" y="515" text-anchor="middle" font-size="12" font-family="Arial">31.0</text>
<text x="475.0" y="540" text-anchor="middle" font-size="14" font-family="Arial">lattice separation bin</text>
<text x="20" y="275.0" transform="rotate(-90 20,275.0)" text-anchor="middle" font-size="14" font-family="Arial">C(r)</text>
<line x1="80.00" y1="75.16" x2="80.00" y2="75.00" stroke="#1f77b4" stroke-width="1.2" opacity="0.85"/>
<line x1="76.00" y1="75.16" x2="84.00" y2="75.16" stroke="#1f77b4" stroke-width="1.2" opacity="0.85"/>
<line x1="76.00" y1="75.00" x2="84.00" y2="75.00" stroke="#1f77b4" stroke-width="1.2" opacity="0.85"/>
<line x1="105.48" y1="303.47" x2="105.48" y2="299.91" stroke="#1f77b4" stroke-width="1.2" opacity="0.85"/>
<line x1="101.48" y1="303.47" x2="109.48" y2="303.47" stroke="#1f77b4" stroke-width="1.2" opacity="0.85"/>
<line x1="101.48" y1="299.91" x2="109.48" y2="299.91" stroke="#1f77b4" stroke-width="1.2" opacity="0.85"/>
<line x1="130.97" y1="369.52" x2="130.97" y2="364.02" stroke="#1f77b4" stroke-width="1.2" opacity="0.85"/>
<line x1="126.97" y1="369.52" x2="134.97" y2="369.52" stroke="#1f77b4" stroke-width="1.2" opacity="0.85"/>
<line x1="126.97" y1="364.02" x2="134.97" y2="364.02" stroke="#1f77b4" stroke-width="1.2" opacity="0.85"/>
<line x1="156.45" y1="401.74" x2="156.45" y2="394.83" stroke="#1f77b4" stroke-width="1.2" opacity="0.85"/>
<line x1="152.45" y1="401.74" x2="160.45" y2="401.74" stroke="#1f77b4" stroke-width="1.2" opacity="0.85"/>
<line x1="152.45" y1="394.83" x2="160.45" y2="394.83" stroke="#1f77b4" stroke-width="1.2" opacity="0.85"/>
<line x1="181.94" y1="421.09" x2="181.94" y2="413.09" stroke="#1f77b4" stroke-width="1.2" opacity="0.85"/>
<line x1="177.94" y1="421.09" x2="185.94" y2="421.09" stroke="#1f77b4" stroke-width="1.2" opacity="0.85"/>
<line x1="177.94" y1="413.09" x2="185.94" y2="413.09" stroke="#1f77b4" stroke-width="1.2" opacity="0.85"/>
<line x1="207.42" y1="434.70" x2="207.42" y2="425.72" stroke="#1f77b4" stroke-width="1.2" opacity="0.85"/>
<line x1="203.42" y1="434.70" x2="211.42" y2="434.70" stroke="#1f77b4" stroke-width="1.2" opacity="0.85"/>
<line x1="203.42" y1="425.72" x2="211.42" y2="425.72" stroke="#1f77b4" stroke-width="1.2" opacity="0.85"/>
<line x1="232.90" y1="443.48" x2="232.90" y2="433.65" stroke="#1f77b4" stroke-width="1.2" opacity="0.85"/>
<line x1="228.90" y1="443.48" x2="236.90" y2="443.48" stroke="#1f77b4" stroke-width="1.2" opacity="0.85"/>
<line x1="228.90" y1="433.65" x2="236.90" y2="433.65" stroke="#1f77b4" stroke-width="1.2" opacity="0.85"/>
<line x1="258.39" y1="450.57" x2="258.39" y2="440.21" stroke="#1f77b4" stroke-width="1.2" opacity="0.85"/>
<line x1="254.39" y1="450.57" x2="262.39" y2="450.57" stroke="#1f77b4" stroke-width="1.2" opacity="0.85"/>
<line x1="254.39" y1="440.21" x2="262.39" y2="440.21" stroke="#1f77b4" stroke-width="1.2" opacity="0.85"/>
<line x1="283.87" y1="455.49" x2="283.87" y2="444.70" stroke="#1f77b4" stroke-width="1.2" opacity="0.85"/>
<line x1="279.87" y1="455.49" x2="287.87" y2="455.49" stroke="#1f77b4" stroke-width="1.2" opacity="0.85"/>
<line x1="279.87" y1="444.70" x2="287.87" y2="444.70" stroke="#1f77b4" stroke-width="1.2" opacity="0.85"/>
<line x1="309.35" y1="456.97" x2="309.35" y2="445.83" stroke="#1f77b4" stroke-width="1.2" opacity="0.85"/>
<line x1="305.35" y1="456.97" x2="313.35" y2="456.97" stroke="#1f77b4" stroke-width="1.2" opacity="0.85"/>
<line x1="305.35" y1="445.83" x2="313.35" y2="445.83" stroke="#1f77b4" stroke-width="1.2" opacity="0.85"/>
<line x1="334.84" y1="459.46" x2="334.84" y2="448.07" stroke="#1f77b4" stroke-width="1.2" opacity="0.85"/>
<line x1="330.84" y1="459.46" x2="338.84" y2="459.46" stroke="#1f77b4" stroke-width="1.2" opacity="0.85"/>
<line x1="330.84" y1="448.07" x2="338.84" y2="448.07" stroke="#1f77b4" stroke-width="1.2" opacity="0.85"/>
<line x1="360.32" y1="460.51" x2="360.32" y2="448.94" stroke="#1f77b4" stroke-width="1.2" opacity="0.85"/>
<line x1="356.32" y1="460.51" x2="364.32" y2="460.51" stroke="#1f77b4" stroke-width="1.2" opacity="0.85"/>
<line x1="356.32" y1="448.94" x2="364.32" y2="448.94" stroke="#1f77b4" stroke-width="1.2" opacity="0.85"/>
<line x1="385.81" y1="461.42" x2="385.81" y2="449.78" stroke="#1f77b4" stroke-width="1.2" opacity="0.85"/>
<line x1="381.81" y1="461.42" x2="389.81" y2="461.42" stroke="#1f77b4" stroke-width="1.2" opacity="0.85"/>
<line x1="381.81" y1="449.78" x2="389.81" y2="449.78" stroke="#1f77b4" stroke-width="1.2" opacity="0.85"/>
<line x1="411.29" y1="460.51" x2="411.29" y2="448.94" stroke="#1f77b4" stroke-width="1.2" opacity="0.85"/>
<line x1="407.29" y1="460.51" x2="415.29" y2="460.51" stroke="#1f77b4" stroke-width="1.2" opacity="0.85"/>
<line x1="407.29" y1="448.94" x2="415.29" y2="448.94" stroke="#1f77b4" stroke-width="1.2" opacity="0.85"/>
<line x1="436.77" y1="459.46" x2="436.77" y2="448.07" stroke="#1f77b4" stroke-width="1.2" opacity="0.85"/>
<line x1="432.77" y1="459.46" x2="440.77" y2="459.46" stroke="#1f77b4" stroke-width="1.2" opacity="0.85"/>
<line x1="432.77" y1="448.07" x2="440.77" y2="448.07" stroke="#1f77b4" stroke-width="1.2" opacity="0.85"/>
<line x1="462.26" y1="456.97" x2="462.26" y2="445.83" stroke="#1f77b4" stroke-width="1.2" opacity="0.85"/>
<line x1="458.26" y1="456.97" x2="466.26" y2="456.97" stroke="#1f77b4" stroke-width="1.2" opacity="0.85"/>
<line x1="458.26" y1="445.83" x2="466.26" y2="445.83" stroke="#1f77b4" stroke-width="1.2" opacity="0.85"/>
<line x1="487.74" y1="455.49" x2="487.74" y2="444.70" stroke="#1f77b4" stroke-width="1.2" opacity="0.85"/>
<line x1="483.74" y1="455.49" x2="491.74" y2="455.49" stroke="#1f77b4" stroke-width="1.2" opacity="0.85"/>
<line x1="483.74" y1="444.70" x2="491.74" y2="444.70" stroke="#1f77b4" stroke-width="1.2" opacity="0.85"/>
<line x1="513.23" y1="450.57" x2="513.23" y2="440.21" stroke="#1f77b4" stroke-width="1.2" opacity="0.85"/>
<line x1="509.23" y1="450.57" x2="517.23" y2="450.57" stroke="#1f77b4" stroke-width="1.2" opacity="0.85"/>
<line x1="509.23" y1="440.21" x2="517.23" y2="440.21" stroke="#1f77b4" stroke-width="1.2" opacity="0.85"/>
<line x1="538.71" y1="443.48" x2="538.71" y2="433.65" stroke="#1f77b4" stroke-width="1.2" opacity="0.85"/>
<line x1="534.71" y1="443.48" x2="542.71" y2="443.48" stroke="#1f77b4" stroke-width="1.2" opacity="0.85"/>
<line x1="534.71" y1="433.65" x2="542.71" y2="433.65" stroke="#1f77b4" stroke-width="1.2" opacity="0.85"/>
<line x1="564.19" y1="434.70" x2="564.19" y2="425.72" stroke="#1f77b4" stroke-width="1.2" opacity="0.85"/>
<line x1="560.19" y1="434.70" x2="568.19" y2="434.70" stroke="#1f77b4" stroke-width="1.2" opacity="0.85"/>
<line x1="560.19" y1="425.72" x2="568.19" y2="425.72" stroke="#1f77b4" stroke-width="1.2" opacity="0.85"/>
<line x1="589.68" y1="421.09" x2="589.68" y2="413.09" stroke="#1f77b4" stroke-width="1.2" opacity="0.85"/>
<line x1="585.68" y1="421.09" x2="593.68" y2="421.09" stroke="#1f77b4" stroke-width="1.2" opacity="0.85"/>
<line x1="585.68" y1="413.09" x2="593.68" y2="413.09" stroke="#1f77b4" stroke-width="1.2" opacity="0.85"/>
<line x1="615.16" y1="401.74" x2="615.16" y2="394.83" stroke="#1f77b4" stroke-width="1.2" opacity="0.85"/>
<line x1="611.16" y1="401.74" x2="619.16" y2="401.74" stroke="#1f77b4" stroke-width="1.2" opacity="0.85"/>
<line x1="611.16" y1="394.83" x2="619.16" y2="394.83" stroke="#1f77b4" stroke-width="1.2" opacity="0.85"/>
<line x1="640.65" y1="369.52" x2="640.65" y2="364.02" stroke="#1f77b4" stroke-width="1.2" opacity="0.85"/>
<line x1="636.65" y1="369.52" x2="644.65" y2="369.52" stroke="#1f77b4" stroke-width="1.2" opacity="0.85"/>
<line x1="636.65" y1="364.02" x2="644.65" y2="364.02" stroke="#1f77b4" stroke-width="1.2" opacity="0.85"/>
<line x1="666.13" y1="303.47" x2="666.13" y2="299.91" stroke="#1f77b4" stroke-width="1.2" opacity="0.85"/>
<line x1="662.13" y1="303.47" x2="670.13" y2="303.47" stroke="#1f77b4" stroke-width="1.2" opacity="0.85"/>
<line x1="662.13" y1="299.91" x2="670.13" y2="299.91" stroke="#1f77b4" stroke-width="1.2" opacity="0.85"/>
<polyline points="80.00,75.08 105.48,301.69 130.97,366.77 156.45,398.29 181.94,417.09 207.42,430.21 232.90,438.57 258.39,445.39 283.87,450.09 309.35,451.40 334.84,453.77 360.32,454.72 385.81,455.60 411.29,454.72 436.77,453.77 462.26,451.40 487.74,450.09 513.23,445.39 538.71,438.57 564.19,430.21 589.68,417.09 615.16,398.29 640.65,366.77 666.13,301.69" fill="none" stroke="#1f77b4" stroke-width="2"/>
<circle cx="80.00" cy="75.08" r="2.5" fill="#1f77b4"/>
<circle cx="105.48" cy="301.69" r="2.5" fill="#1f77b4"/>
<circle cx="130.97" cy="366.77" r="2.5" fill="#1f77b4"/>
<circle cx="156.45" cy="398.29" r="2.5" fill="#1f77b4"/>
<circle cx="181.94" cy="417.09" r="2.5" fill="#1f77b4"/>
<circle cx="207.42" cy="430.21" r="2.5" fill="#1f77b4"/>
<circle cx="232.90" cy="438.57" r="2.5" fill="#1f77b4"/>
<circle cx="258.39" cy="445.39" r="2.5" fill="#1f77b4"/>
<circle cx="283.87" cy="450.09" r="2.5" fill="#1f77b4"/>
<circle cx="309.35" cy="451.40" r="2.5" fill="#1f77b4"/>
<circle cx="334.84" cy="453.77" r="2.5" fill="#1f77b4"/>
<circle cx="360.32" cy="454.72" r="2.5" fill="#1f77b4"/>
<circle cx="385.81" cy="455.60" r="2.5" fill="#1f77b4"/>
<circle cx="411.29" cy="454.72" r="2.5" fill="#1f77b4"/>
<circle cx="436.77" cy="453.77" r="2.5" fill="#1f77b4"/>
<circle cx="462.26" cy="451.40" r="2.5" fill="#1f77b4"/>
<circle cx="487.74" cy="450.09" r="2.5" fill="#1f77b4"/>
<circle cx="513.23" cy="445.39" r="2.5" fill="#1f77b4"/>
<circle cx="538.71" cy="438.57" r="2.5" fill="#1f77b4"/>
<circle cx="564.19" cy="430.21" r="2.5" fill="#1f77b4"/>
<circle cx="589.68" cy="417.09" r="2.5" fill="#1f77b4"/>
<circle cx="615.16" cy="398.29" r="2.5" fill="#1f77b4"/>
<circle cx="640.65" cy="366.77" r="2.5" fill="#1f77b4"/>
<circle cx="666.13" cy="301.69" r="2.5" fill="#1f77b4"/>
<line x1="80.00" y1="75.16" x2="80.00" y2="75.00" stroke="#ff7f0e" stroke-width="1.2" opacity="0.85"/>
<line x1="76.00" y1="75.16" x2="84.00" y2="75.16" stroke="#ff7f0e" stroke-width="1.2" opacity="0.85"/>
<line x1="76.00" y1="75.00" x2="84.00" y2="75.00" stroke="#ff7f0e" stroke-width="1.2" opacity="0.85"/>
<line x1="105.48" y1="295.07" x2="105.48" y2="291.73" stroke="#ff7f0e" stroke-width="1.2" opacity="0.85"/>
<line x1="101.48" y1="295.07" x2="109.48" y2="295.07" stroke="#ff7f0e" stroke-width="1.2" opacity="0.85"/>
<line x1="101.48" y1="291.73" x2="109.48" y2="291.73" stroke="#ff7f0e" stroke-width="1.2" opacity="0.85"/>
<line x1="130.97" y1="363.26" x2="130.97" y2="358.03" stroke="#ff7f0e" stroke-width="1.2" opacity="0.85"/>
<line x1="126.97" y1="363.26" x2="134.97" y2="363.26" stroke="#ff7f0e" stroke-width="1.2" opacity="0.85"/>
<line x1="126.97" y1="358.03" x2="134.97" y2="358.03" stroke="#ff7f0e" stroke-width="1.2" opacity="0.85"/>
<line x1="156.45" y1="396.73" x2="156.45" y2="390.01" stroke="#ff7f0e" stroke-width="1.2" opacity="0.85"/>
<line x1="152.45" y1="396.73" x2="160.45" y2="396.73" stroke="#ff7f0e" stroke-width="1.2" opacity="0.85"/>
<line x1="152.45" y1="390.01" x2="160.45" y2="390.01" stroke="#ff7f0e" stroke-width="1.2" opacity="0.85"/>
<line x1="181.94" y1="417.25" x2="181.94" y2="409.42" stroke="#ff7f0e" stroke-width="1.2" opacity="0.85"/>
<line x1="177.94" y1="417.25" x2="185.94" y2="417.25" stroke="#ff7f0e" stroke-width="1.2" opacity="0.85"/>
<line x1="177.94" y1="409.42" x2="185.94" y2="409.42" stroke="#ff7f0e" stroke-width="1.2" opacity="0.85"/>
<line x1="207.42" y1="430.67" x2="207.42" y2="421.87" stroke="#ff7f0e" stroke-width="1.2" opacity="0.85"/>
<line x1="203.42" y1="430.67" x2="211.42" y2="430.67" stroke="#ff7f0e" stroke-width="1.2" opacity="0.85"/>
<line x1="203.42" y1="421.87" x2="211.42" y2="421.87" stroke="#ff7f0e" stroke-width="1.2" opacity="0.85"/>
<line x1="232.90" y1="440.77" x2="232.90" y2="431.22" stroke="#ff7f0e" stroke-width="1.2" opacity="0.85"/>
<line x1="228.90" y1="440.77" x2="236.90" y2="440.77" stroke="#ff7f0e" stroke-width="1.2" opacity="0.85"/>
<line x1="228.90" y1="431.22" x2="236.90" y2="431.22" stroke="#ff7f0e" stroke-width="1.2" opacity="0.85"/>
<line x1="258.39" y1="448.95" x2="258.39" y2="438.69" stroke="#ff7f0e" stroke-width="1.2" opacity="0.85"/>
<line x1="254.39" y1="448.95" x2="262.39" y2="448.95" stroke="#ff7f0e" stroke-width="1.2" opacity="0.85"/>
<line x1="254.39" y1="438.69" x2="262.39" y2="438.69" stroke="#ff7f0e" stroke-width="1.2" opacity="0.85"/>
<line x1="283.87" y1="456.59" x2="283.87" y2="445.70" stroke="#ff7f0e" stroke-width="1.2" opacity="0.85"/>
<line x1="279.87" y1="456.59" x2="287.87" y2="456.59" stroke="#ff7f0e" stroke-width="1.2" opacity="0.85"/>
<line x1="279.87" y1="445.70" x2="287.87" y2="445.70" stroke="#ff7f0e" stroke-width="1.2" opacity="0.85"/>
<line x1="309.35" y1="461.53" x2="309.35" y2="450.04" stroke="#ff7f0e" stroke-width="1.2" opacity="0.85"/>
<line x1="305.35" y1="461.53" x2="313.35" y2="461.53" stroke="#ff7f0e" stroke-width="1.2" opacity="0.85"/>
<line x1="305.35" y1="450.04" x2="313.35" y2="450.04" stroke="#ff7f0e" stroke-width="1.2" opacity="0.85"/>
<line x1="334.84" y1="464.69" x2="334.84" y2="452.77" stroke="#ff7f0e" stroke-width="1.2" opacity="0.85"/>
<line x1="330.84" y1="464.69" x2="338.84" y2="464.69" stroke="#ff7f0e" stroke-width="1.2" opacity="0.85"/>
<line x1="330.84" y1="452.77" x2="338.84" y2="452.77" stroke="#ff7f0e" stroke-width="1.2" opacity="0.85"/>
<line x1="360.32" y1="468.70" x2="360.32" y2="456.39" stroke="#ff7f0e" stroke-width="1.2" opacity="0.85"/>
<line x1="356.32" y1="468.70" x2="364.32" y2="468.70" stroke="#ff7f0e" stroke-width="1.2" opacity="0.85"/>
<line x1="356.32" y1="456.39" x2="364.32" y2="456.39" stroke="#ff7f0e" stroke-width="1.2" opacity="0.85"/>
<line x1="385.81" y1="470.98" x2="385.81" y2="458.31" stroke="#ff7f0e" stroke-width="1.2" opacity="0.85"/>
<line x1="381.81" y1="470.98" x2="389.81" y2="470.98" stroke="#ff7f0e" stroke-width="1.2" opacity="0.85"/>
<line x1="381.81" y1="458.31" x2="389.81" y2="458.31" stroke="#ff7f0e" stroke-width="1.2" opacity="0.85"/>
<line x1="411.29" y1="473.08" x2="411.29" y2="460.18" stroke="#ff7f0e" stroke-width="1.2" opacity="0.85"/>
<line x1="407.29" y1="473.08" x2="415.29" y2="473.08" stroke="#ff7f0e" stroke-width="1.2" opacity="0.85"/>
<line x1="407.29" y1="460.18" x2="415.29" y2="460.18" stroke="#ff7f0e" stroke-width="1.2" opacity="0.85"/>
<line x1="436.77" y1="474.47" x2="436.77" y2="461.29" stroke="#ff7f0e" stroke-width="1.2" opacity="0.85"/>
<line x1="432.77" y1="474.47" x2="440.77" y2="474.47" stroke="#ff7f0e" stroke-width="1.2" opacity="0.85"/>
<line x1="432.77" y1="461.29" x2="440.77" y2="461.29" stroke="#ff7f0e" stroke-width="1.2" opacity="0.85"/>
<line x1="462.26" y1="474.79" x2="462.26" y2="461.52" stroke="#ff7f0e" stroke-width="1.2" opacity="0.85"/>
<line x1="458.26" y1="474.79" x2="466.26" y2="474.79" stroke="#ff7f0e" stroke-width="1.2" opacity="0.85"/>
<line x1="458.26" y1="461.52" x2="466.26" y2="461.52" stroke="#ff7f0e" stroke-width="1.2" opacity="0.85"/>
<line x1="487.74" y1="475.00" x2="487.74" y2="461.62" stroke="#ff7f0e" stroke-width="1.2" opacity="0.85"/>
<line x1="483.74" y1="475.00" x2="491.74" y2="475.00" stroke="#ff7f0e" stroke-width="1.2" opacity="0.85"/>
<line x1="483.74" y1="461.62" x2="491.74" y2="461.62" stroke="#ff7f0e" stroke-width="1.2" opacity="0.85"/>
<line x1="513.23" y1="474.79" x2="513.23" y2="461.52" stroke="#ff7f0e" stroke-width="1.2" opacity="0.85"/>
<line x1="509.23" y1="474.79" x2="517.23" y2="474.79" stroke="#ff7f0e" stroke-width="1.2" opacity="0.85"/>
<line x1="509.23" y1="461.52" x2="517.23" y2="461.52" stroke="#ff7f0e" stroke-width="1.2" opacity="0.85"/>
<line x1="538.71" y1="474.47" x2="538.71" y2="461.29" stroke="#ff7f0e" stroke-width="1.2" opacity="0.85"/>
<line x1="534.71" y1="474.47" x2="542.71" y2="474.47" stroke="#ff7f0e" stroke-width="1.2" opacity="0.85"/>
<line x1="534.71" y1="461.29" x2="542.71" y2="461.29" stroke="#ff7f0e" stroke-width="1.2" opacity="0.85"/>
<line x1="564.19" y1="473.08" x2="564.19" y2="460.18" stroke="#ff7f0e" stroke-width="1.2" opacity="0.85"/>
<line x1="560.19" y1="473.08" x2="568.19" y2="473.08" stroke="#ff7f0e" stroke-width="1.2" opacity="0.85"/>
<line x1="560.19" y1="460.18" x2="568.19" y2="460.18" stroke="#ff7f0e" stroke-width="1.2" opacity="0.85"/>
<line x1="589.68" y1="470.98" x2="589.68" y2="458.31" stroke="#ff7f0e" stroke-width="1.2" opacity="0.85"/>
<line x1="585.68" y1="470.98" x2="593.68" y2="470.98" stroke="#ff7f0e" stroke-width="1.2" opacity="0.85"/>
<line x1="585.68" y1="458.31" x2="593.68" y2="458.31" stroke="#ff7f0e" stroke-width="1.2" opacity="0.85"/>
<line x1="615.16" y1="468.70" x2="615.16" y2="456.39" stroke="#ff7f0e" stroke-width="1.2" opacity="0.85"/>
<line x1="611.16" y1="468.70" x2="619.16" y2="468.70" stroke="#ff7f0e" stroke-width="1.2" opacity="0.85"/>
<line x1="611.16" y1="456.39" x2="619.16" y2="456.39" stroke="#ff7f0e" stroke-width="1.2" opacity="0.85"/>
<line x1="640.65" y1="464.69" x2="640.65" y2="452.77" stroke="#ff7f0e" stroke-width="1.2" opacity="0.85"/>
<line x1="636.65" y1="464.69" x2="644.65" y2="464.69" stroke="#ff7f0e" stroke-width="1.2" opacity="0.85"/>
<line x1="636.65" y1="452.77" x2="644.65" y2="452.77" stroke="#ff7f0e" stroke-width="1.2" opacity="0.85"/>
<line x1="666.13" y1="461.53" x2="666.13" y2="450.04" stroke="#ff7f0e" stroke-width="1.2" opacity="0.85"/>
<line x1="662.13" y1="461.53" x2="670.13" y2="461.53" stroke="#ff7f0e" stroke-width="1.2" opacity="0.85"/>
<line x1="662.13" y1="450.04" x2="670.13" y2="450.04" stroke="#ff7f0e" stroke-width="1.2" opacity="0.85"/>
<line x1="691.61" y1="456.59" x2="691.61" y2="445.70" stroke="#ff7f0e" stroke-width="1.2" opacity="0.85"/>
<line x1="687.61" y1="456.59" x2="695.61" y2="456.59" stroke="#ff7f0e" stroke-width="1.2" opacity="0.85"/>
<line x1="687.61" y1="445.70" x2="695.61" y2="445.70" stroke="#ff7f0e" stroke-width="1.2" opacity="0.85"/>
<line x1="717.10" y1="448.95" x2="717.10" y2="438.69" stroke="#ff7f0e" stroke-width="1.2" opacity="0.85"/>
<line x1="713.10" y1="448.95" x2="721.10" y2="448.95" stroke="#ff7f0e" stroke-width="1.2" opacity="0.85"/>
<line x1="713.10" y1="438.69" x2="721.10" y2="438.69" stroke="#ff7f0e" stroke-width="1.2" opacity="0.85"/>
<line x1="742.58" y1="440.77" x2="742.58" y2="431.22" stroke="#ff7f0e" stroke-width="1.2" opacity="0.85"/>
<line x1="738.58" y1="440.77" x2="746.58" y2="440.77" stroke="#ff7f0e" stroke-width="1.2" opacity="0.85"/>
<line x1="738.58" y1="431.22" x2="746.58" y2="431.22" stroke="#ff7f0e" stroke-width="1.2" opacity="0.85"/>
<line x1="768.06" y1="430.67" x2="768.06" y2="421.87" stroke="#ff7f0e" stroke-width="1.2" opacity="0.85"/>
<line x1="764.06" y1="430.67" x2="772.06" y2="430.67" stroke="#ff7f0e" stroke-width="1.2" opacity="0.85"/>
<line x1="764.06" y1="421.87" x2="772.06" y2="421.87" stroke="#ff7f0e" stroke-width="1.2" opacity="0.85"/>
<line x1="793.55" y1="417.25" x2="793.55" y2="409.42" stroke="#ff7f0e" stroke-width="1.2" opacity="0.85"/>
<line x1="789.55" y1="417.25" x2="797.55" y2="417.25" stroke="#ff7f0e" stroke-width="1.2" opacity="0.85"/>
<line x1="789.55" y1="409.42" x2="797.55" y2="409.42" stroke="#ff7f0e" stroke-width="1.2" opacity="0.85"/>
<line x1="819.03" y1="396.73" x2="819.03" y2="390.01" stroke="#ff7f0e" stroke-width="1.2" opacity="0.85"/>
<line x1="815.03" y1="396.73" x2="823.03" y2="396.73" stroke="#ff7f0e" stroke-width="1.2" opacity="0.85"/>
<line x1="815.03" y1="390.01" x2="823.03" y2="390.01" stroke="#ff7f0e" stroke-width="1.2" opacity="0.85"/>
<line x1="844.52" y1="363.26" x2="844.52" y2="358.03" stroke="#ff7f0e" stroke-width="1.2" opacity="0.85"/>
<line x1="840.52" y1="363.26" x2="848.52" y2="363.26" stroke="#ff7f0e" stroke-width="1.2" opacity="0.85"/>
<line x1="840.52" y1="358.03" x2="848.52" y2="358.03" stroke="#ff7f0e" stroke-width="1.2" opacity="0.85"/>
<line x1="870.00" y1="295.07" x2="870.00" y2="291.73" stroke="#ff7f0e" stroke-width="1.2" opacity="0.85"/>
<line x1="866.00" y1="295.07" x2="874.00" y2="295.07" stroke="#ff7f0e" stroke-width="1.2" opacity="0.85"/>
<line x1="866.00" y1="291.73" x2="874.00" y2="291.73" stroke="#ff7f0e" stroke-width="1.2" opacity="0.85"/>
<polyline points="80.00,75.08 105.48,293.40 130.97,360.64 156.45,393.37 181.94,413.34 207.42,426.27 232.90,435.99 258.39,443.82 283.87,451.15 309.35,455.78 334.84,458.73 360.32,462.54 385.81,464.65 411.29,466.63 436.77,467.88 462.26,468.16 487.74,468.31 513.23,468.16 538.71,467.88 564.19,466.63 589.68,464.65 615.16,462.54 640.65,458.73 666.13,455.78 691.61,451.15 717.10,443.82 742.58,435.99 768.06,426.27 793.55,413.34 819.03,393.37 844.52,360.64 870.00,293.40" fill="none" stroke="#ff7f0e" stroke-width="2"/>
<circle cx="80.00" cy="75.08" r="2.5" fill="#ff7f0e"/>
<circle cx="105.48" cy="293.40" r="2.5" fill="#ff7f0e"/>
<circle cx="130.97" cy="360.64" r="2.5" fill="#ff7f0e"/>
<circle cx="156.45" cy="393.37" r="2.5" fill="#ff7f0e"/>
<circle cx="181.94" cy="413.34" r="2.5" fill="#ff7f0e"/>
<circle cx="207.42" cy="426.27" r="2.5" fill="#ff7f0e"/>
<circle cx="232.90" cy="435.99" r="2.5" fill="#ff7f0e"/>
<circle cx="258.39" cy="443.82" r="2.5" fill="#ff7f0e"/>
<circle cx="283.87" cy="451.15" r="2.5" fill="#ff7f0e"/>
<circle cx="309.35" cy="455.78" r="2.5" fill="#ff7f0e"/>
<circle cx="334.84" cy="458.73" r="2.5" fill="#ff7f0e"/>
<circle cx="360.32" cy="462.54" r="2.5" fill="#ff7f0e"/>
<circle cx="385.81" cy="464.65" r="2.5" fill="#ff7f0e"/>
<circle cx="411.29" cy="466.63" r="2.5" fill="#ff7f0e"/>
<circle cx="436.77" cy="467.88" r="2.5" fill="#ff7f0e"/>
<circle cx="462.26" cy="468.16" r="2.5" fill="#ff7f0e"/>
<circle cx="487.74" cy="468.31" r="2.5" fill="#ff7f0e"/>
<circle cx="513.23" cy="468.16" r="2.5" fill="#ff7f0e"/>
<circle cx="538.71" cy="467.88" r="2.5" fill="#ff7f0e"/>
<circle cx="564.19" cy="466.63" r="2.5" fill="#ff7f0e"/>
<circle cx="589.68" cy="464.65" r="2.5" fill="#ff7f0e"/>
<circle cx="615.16" cy="462.54" r="2.5" fill="#ff7f0e"/>
<circle cx="640.65" cy="458.73" r="2.5" fill="#ff7f0e"/>
<circle cx="666.13" cy="455.78" r="2.5" fill="#ff7f0e"/>
<circle cx="691.61" cy="451.15" r="2.5" fill="#ff7f0e"/>
<circle cx="717.10" cy="443.82" r="2.5" fill="#ff7f0e"/>
<circle cx="742.58" cy="435.99" r="2.5" fill="#ff7f0e"/>
<circle cx="768.06" cy="426.27" r="2.5" fill="#ff7f0e"/>
<circle cx="793.55" cy="413.34" r="2.5" fill="#ff7f0e"/>
<circle cx="819.03" cy="393.37" r="2.5" fill="#ff7f0e"/>
<circle cx="844.52" cy="360.64" r="2.5" fill="#ff7f0e"/>
<circle cx="870.00" cy="293.40" r="2.5" fill="#ff7f0e"/>
<rect x="660" y="70" width="190" height="75" fill="white" stroke="#cccccc"/>
<line x1="670" y1="90" x2="700" y2="90" stroke="#1f77b4" stroke-width="3"/>
<text x="708" y="94" font-size="12" font-family="Arial">x direction</text>
<line x1="670" y1="112" x2="700" y2="112" stroke="#ff7f0e" stroke-width="3"/>
<text x="708" y="116" font-size="12" font-family="Arial">y direction</text>
<line x1="670" y1="134" x2="700" y2="134" stroke="#2ca02c" stroke-width="3"/>
<text x="708" y="138" font-size="12" font-family="Arial">oblique (x-y) direction</text>
</svg>