<svg xmlns="http://www.w3.org/2000/svg" width="900" height="590">
<rect x="0" y="0" width="100%" height="100%" fill="white"/>
<text x="450.0" y="30" text-anchor="middle" font-size="20" font-family="Arial">Connected all-to-all (jackknife), 36x48</text>
<line x1="80" y1="495" x2="870" y2="495" stroke="black"/>
<line x1="80" y1="55" x2="80" y2="495" stroke="black"/>
<line x1="80" y1="495.00" x2="870" y2="495.00" stroke="#dddddd"/>
<text x="70" y="499.00" text-anchor="end" font-size="12" font-family="Arial">0.363</text>
<line x1="80" y1="407.00" x2="870" y2="407.00" stroke="#dddddd"/>
<text x="70" y="411.00" text-anchor="end" font-size="12" font-family="Arial">0.497</text>
<line x1="80" y1="319.00" x2="870" y2="319.00" stroke="#dddddd"/>
<text x="70" y="323.00" text-anchor="end" font-size="12" font-family="Arial">0.630</text>
<line x1="80" y1="231.00" x2="870" y2="231.00" stroke="#dddddd"/>
<text x="70" y="235.00" text-anchor="end" font-size="12" font-family="Arial">0.764</text>
<line x1="80" y1="143.00" x2="870" y2="143.00" stroke="#dddddd"/>
<text x="70" y="147.00" text-anchor="end" font-size="12" font-family="Arial">0.897</text>
<line x1="80" y1="55.00" x2="870" y2="55.00" stroke="#dddddd"/>
<text x="70" y="59.00" text-anchor="end" font-size="12" font-family="Arial">1.030</text>
<line x1="80.00" y1="55" x2="80.00" y2="495" stroke="#f0f0f0"/>
<text x="80.00" y="515" text-anchor="middle" font-size="12" font-family="Arial">0.0</text>
<line x1="238.00" y1="55" x2="238.00" y2="495" stroke="#f0f0f0"/>
<text x="238.00" y="515" text-anchor="middle" font-size="12" font-family="Arial">9.4</text>
<line x1="396.00" y1="55" x2="396.00" y2="495" stroke="#f0f0f0"/>
<text x="396.00" y="515" text-anchor="middle" font-size="12" font-family="Arial">18.8</text>
<line x1="554.00" y1="55" x2="554.00" y2="495" stroke="#f0f0f0"/>
<text x="554.00" y="515" text-anchor="middle" font-size="12" font-family="Arial">28.2</text>
<line x1="712.00" y1="55" x2="712.00" y2="495" stroke="#f0f0f0"/>
<text x="712.00" y="515" text-anchor="middle" font-size="12" font-family="Arial">37.6</text>
<line x1="870.00" y1="55" x2="870.00" y2="495" stroke="#f0f0f0"/>
<text x="870.00" y="515" text-anchor="middle" font-size="12" font-family="Arial">47.0</text>
<text x="475.0" y="546" text-anchor="middle" font-size="14" font-family="Arial">lattice separation bin</text>
<text x="475.0" y="570" text-anchor="middle" font-size="12" font-family="Arial">k1=0.202732554054082, k2=k3=0.312572558625208</text>
<text x="20" y="275.0" transform="rotate(-90 20,275.0)" text-anchor="middle" font-size="14" font-family="Arial">C(r)</text>
<line x1="80.00" y1="75.22" x2="80.00" y2="75.00" stroke="#1f77b4" stroke-width="1.2" opacity="0.85"/>
<line x1="76.00" y1="75.22" x2="84.00" y2="75.22" stroke="#1f77b4" stroke-width="1.2" opacity="0.85"/>
<line x1="76.00" y1="75.00" x2="84.00" y2="75.00" stroke="#1f77b4" stroke-width="1.2" opacity="0.85"/>
<line x1="96.81" y1="298.53" x2="96.81" y2="297.73" stroke="#1f77b4" stroke-width="1.2" opacity="0.85"/>
<line x1="92.81" y1="298.53" x2="100.81" y2="298.53" stroke="#1f77b4" stroke-width="1.2" opacity="0.85"/>
<line x1="92.81" y1="297.73" x2="100.81" y2="297.73" stroke="#1f77b4" stroke-width="1.2" opacity="0.85"/>
<line x1="113.62" y1="361.52" x2="113.62" y2="360.31" stroke="#1f77b4" stroke-width="1.2" opacity="0.85"/>
<line x1="109.62" y1="361.52" x2="117.62" y2="361.52" stroke="#1f77b4" stroke-width="1.2" opacity="0.85"/>
<line x1="109.62" y1="360.31" x2="117.62" y2="360.31" stroke="#1f77b4" stroke-width="1.2" opacity="0.85"/>
<line x1="130.43" y1="392.93" x2="130.43" y2="391.40" stroke="#1f77b4" stroke-width="1.2" opacity="0.85"/>
<line x1="126.43" y1="392.93" x2="134.43" y2="392.93" stroke="#1f77b4" stroke-width="1.2" opacity="0.85"/>
<line x1="126.43" y1="391.40" x2="134.43" y2="391.40" stroke="#1f77b4" stroke-width="1.2" opacity="0.85"/>
<line x1="147.23" y1="412.40" x2="147.23" y2="410.60" stroke="#1f77b4" stroke-width="1.2" opacity="0.85"/>
<line x1="143.23" y1="412.40" x2="151.23" y2="412.40" stroke="#1f77b4" stroke-width="1.2" opacity="0.85"/>
<line x1="143.23" y1="410.60" x2="151.23" y2="410.60" stroke="#1f77b4" stroke-width="1.2" opacity="0.85"/>
<line x1="164.04" y1="426.10" x2="164.04" y2="424.06" stroke="#1f77b4" stroke-width="1.2" opacity="0.85"/>
<line x1="160.04" y1="426.10" x2="168.04" y2="426.10" stroke="#1f77b4" stroke-width="1.2" opacity="0.85"/>
<line x1="160.04" y1="424.06" x2="168.04" y2="424.06" stroke="#1f77b4" stroke-width="1.2" opacity="0.85"/>
<line x1="180.85" y1="436.11" x2="180.85" y2="433.88" stroke="#1f77b4" stroke-width="1.2" opacity="0.85"/>
<line x1="176.85" y1="436.11" x2="184.85" y2="436.11" stroke="#1f77b4" stroke-width="1.2" opacity="0.85"/>
<line x1="176.85" y1="433.88" x2="184.85" y2="433.88" stroke="#1f77b4" stroke-width="1.2" opacity="0.85"/>
<line x1="197.66" y1="443.79" x2="197.66" y2="441.38" stroke="#1f77b4" stroke-width="1.2" opacity="0.85"/>
<line x1="193.66" y1="443.79" x2="201.66" y2="443.79" stroke="#1f77b4" stroke-width="1.2" opacity="0.85"/>
<line x1="193.66" y1="441.38" x2="201.66" y2="441.38" stroke="#1f77b4" stroke-width="1.2" opacity="0.85"/>
<line x1="214.47" y1="449.73" x2="214.47" y2="447.16" stroke="#1f77b4" stroke-width="1.2" opacity="0.85"/>
<line x1="210.47" y1="449.73" x2="218.47" y2="449.73" stroke="#1f77b4" stroke-width="1.2" opacity="0.85"/>
<line x1="210.47" y1="447.16" x2="218.47" y2="447.16" stroke="#1f77b4" stroke-width="1.2" opacity="0.85"/>
<line x1="231.28" y1="454.56" x2="231.28" y2="451.85" stroke="#1f77b4" stroke-width="1.2" opacity="0.85"/>
<line x1="227.28" y1="454.56" x2="235.28" y2="454.56" stroke="#1f77b4" stroke-width="1.2" opacity="0.85"/>
<line x1="227.28" y1="451.85" x2="235.28" y2="451.85" stroke="#1f77b4" stroke-width="1.2" opacity="0.85"/>
<line x1="248.09" y1="458.06" x2="248.09" y2="455.23" stroke="#1f77b4" stroke-width="1.2" opacity="0.85"/>
<line x1="244.09" y1="458.06" x2="252.09" y2="458.06" stroke="#1f77b4" stroke-width="1.2" opacity="0.85"/>
<line x1="244.09" y1="455.23" x2="252.09" y2="455.23" stroke="#1f77b4" stroke-width="1.2" opacity="0.85"/>
<line x1="264.89" y1="460.93" x2="264.89" y2="458.00" stroke="#1f77b4" stroke-width="1.2" opacity="0.85"/>
<line x1="260.89" y1="460.93" x2="268.89" y2="460.93" stroke="#1f77b4" stroke-width="1.2" opacity="0.85"/>
<line x1="260.89" y1="458.00" x2="268.89" y2="458.00" stroke="#1f77b4" stroke-width="1.2" opacity="0.85"/>
<line x1="281.70" y1="463.25" x2="281.70" y2="460.22" stroke="#1f77b4" stroke-width="1.2" opacity="0.85"/>
<line x1="277.70" y1="463.25" x2="285.70" y2="463.25" stroke="#1f77b4" stroke-width="1.2" opacity="0.85"/>
<line x1="277.70" y1="460.22" x2="285.70" y2="460.22" stroke="#1f77b4" stroke-width="1.2" opacity="0.85"/>
<line x1="298.51" y1="465.19" x2="298.51" y2="462.10" stroke="#1f77b4" stroke-width="1.2" opacity="0.85"/>
<line x1="294.51" y1="465.19" x2="302.51" y2="465.19" stroke="#1f77b4" stroke-width="1.2" opacity="0.85"/>
<line x1="294.51" y1="462.10" x2="302.51" y2="462.10" stroke="#1f77b4" stroke-width="1.2" opacity="0.85"/>
<line x1="315.32" y1="466.69" x2="315.32" y2="463.54" stroke="#1f77b4" stroke-width="1.2" opacity="0.85"/>
<line x1="311.32" y1="466.69" x2="319.32" y2="466.69" stroke="#1f77b4" stroke-width="1.2" opacity="0.85"/>
<line x1="311.32" y1="463.54" x2="319.32" y2="463.54" stroke="#1f77b4" stroke-width="1.2" opacity="0.85"/>
<line x1="332.13" y1="468.02" x2="332.13" y2="464.81" stroke="#1f77b4" stroke-width="1.2" opacity="0.85"/>
<line x1="328.13" y1="468.02" x2="336.13" y2="468.02" stroke="#1f77b4" stroke-width="1.2" opacity="0.85"/>
<line x1="328.13" y1="464.81" x2="336.13" y2="464.81" stroke="#1f77b4" stroke-width="1.2" opacity="0.85"/>
<line x1="348.94" y1="468.87" x2="348.94" y2="465.62" stroke="#1f77b4" stroke-width="1.2" opacity="0.85"/>
<line x1="344.94" y1="468.87" x2="352.94" y2="468.87" stroke="#1f77b4" stroke-width="1.2" opacity="0.85"/>
<line x1="344.94" y1="465.62" x2="352.94" y2="465.62" stroke="#1f77b4" stroke-width="1.2" opacity="0.85"/>
<line x1="365.74" y1="469.36" x2="365.74" y2="466.08" stroke="#1f77b4" stroke-width="1.2" opacity="0.85"/>
<line x1="361.74" y1="469.36" x2="369.74" y2="469.36" stroke="#1f77b4" stroke-width="1.2" opacity="0.85"/>
<line x1="361.74" y1="466.08" x2="369.74" y2="466.08" stroke="#1f77b4" stroke-width="1.2" opacity="0.85"/>
<line x1="382.55" y1="469.40" x2="382.55" y2="466.12" stroke="#1f77b4" stroke-width="1.2" opacity="0.85"/>
<line x1="378.55" y1="469.40" x2="386.55" y2="469.40" stroke="#1f77b4" stroke-width="1.2" opacity="0.85"/>
<line x1="378.55" y1="466.12" x2="386.55" y2="466.12" stroke="#1f77b4" stroke-width="1.2" opacity="0.85"/>
<line x1="399.36" y1="469.36" x2="399.36" y2="466.08" stroke="#1f77b4" stroke-width="1.2" opacity="0.85"/>
<line x1="395.36" y1="469.36" x2="403.36" y2="469.36" stroke="#1f77b4" stroke-width="1.2" opacity="0.85"/>
<line x1="395.36" y1="466.08" x2="403.36" y2="466.08" stroke="#1f77b4" stroke-width="1.2" opacity="0.85"/>
<line x1="416.17" y1="468.87" x2="416.17" y2="465.62" stroke="#1f77b4" stroke-width="1.2" opacity="0.85"/>
<line x1="412.17" y1="468.87" x2="420.17" y2="468.87" stroke="#1f77b4" stroke-width="1.2" opacity="0.85"/>
<line x1="412.17" y1="465.62" x2="420.17" y2="465.62" stroke="#1f77b4" stroke-width="1.2" opacity="0.85"/>
<line x1="432.98" y1="468.02" x2="432.98" y2="464.81" stroke="#1f77b4" stroke-width="1.2" opacity="0.85"/>
<line x1="428.98" y1="468.02" x2="436.98" y2="468.02" stroke="#1f77b4" stroke-width="1.2" opacity="0.85"/>
<line x1="428.98" y1="464.81" x2="436.98" y2="464.81" stroke="#1f77b4" stroke-width="1.2" opacity="0.85"/>
<line x1="449.79" y1="466.69" x2="449.79" y2="463.54" stroke="#1f77b4" stroke-width="1.2" opacity="0.85"/>
<line x1="445.79" y1="466.69" x2="453.79" y2="466.69" stroke="#1f77b4" stroke-width="1.2" opacity="0.85"/>
<line x1="445.79" y1="463.54" x2="453.79" y2="463.54" stroke="#1f77b4" stroke-width="1.2" opacity="0.85"/>
<line x1="466.60" y1="465.19" x2="466.60" y2="462.10" stroke="#1f77b4" stroke-width="1.2" opacity="0.85"/>
<line x1="462.60" y1="465.19" x2="470.60" y2="465.19" stroke="#1f77b4" stroke-width="1.2" opacity="0.85"/>
<line x1="462.60" y1="462.10" x2="470.60" y2="462.10" stroke="#1f77b4" stroke-width="1.2" opacity="0.85"/>
<line x1="483.40" y1="463.25" x2="483.40" y2="460.22" stroke="#1f77b4" stroke-width="1.2" opacity="0.85"/>
<line x1="479.40" y1="463.25" x2="487.40" y2="463.25" stroke="#1f77b4" stroke-width="1.2" opacity="0.85"/>
<line x1="479.40" y1="460.22" x2="487.40" y2="460.22" stroke="#1f77b4" stroke-width="1.2" opacity="0.85"/>
<line x1="500.21" y1="460.93" x2="500.21" y2="458.00" stroke="#1f77b4" stroke-width="1.2" opacity="0.85"/>
<line x1="496.21" y1="460.93" x2="504.21" y2="460.93" stroke="#1f77b4" stroke-width="1.2" opacity="0.85"/>
<line x1="496.21" y1="458.00" x2="504.21" y2="458.00" stroke="#1f77b4" stroke-width="1.2" opacity="0.85"/>
<line x1="517.02" y1="458.06" x2="517.02" y2="455.23" stroke="#1f77b4" stroke-width="1.2" opacity="0.85"/>
<line x1="513.02" y1="458.06" x2="521.02" y2="458.06" stroke="#1f77b4" stroke-width="1.2" opacity="0.85"/>
<line x1="513.02" y1="455.23" x2="521.02" y2="455.23" stroke="#1f77b4" stroke-width="1.2" opacity="0.85"/>
<line x1="533.83" y1="454.56" x2="533.83" y2="451.85" stroke="#1f77b4" stroke-width="1.2" opacity="0.85"/>
<line x1="529.83" y1="454.56" x2="537.83" y2="454.56" stroke="#1f77b4" stroke-width="1.2" opacity="0.85"/>
<line x1="529.83" y1="451.85" x2="537.83" y2="451.85" stroke="#1f77b4" stroke-width="1.2" opacity="0.85"/>
<line x1="550.64" y1="449.73" x2="550.64" y2="447.16" stroke="#1f77b4" stroke-width="1.2" opacity="0.85"/>
<line x1="546.64" y1="449.73" x2="554.64" y2="449.73" stroke="#1f77b4" stroke-width="1.2" opacity="0.85"/>
<line x1="546.64" y1="447.16" x2="554.64" y2="447.16" stroke="#1f77b4" stroke-width="1.2" opacity="0.85"/>
<line x1="567.45" y1="443.79" x2="567.45" y2="441.38" stroke="#1f77b4" stroke-width="1.2" opacity="0.85"/>
<line x1="563.45" y1="443.79" x2="571.45" y2="443.79" stroke="#1f77b4" stroke-width="1.2" opacity="0.85"/>
<line x1="563.45" y1="441.38" x2="571.45" y2="441.38" stroke="#1f77b4" stroke-width="1.2" opacity="0.85"/>
<line x1="584.26" y1="436.11" x2="584.26" y2="433.88" stroke="#1f77b4" stroke-width="1.2" opacity="0.85"/>
<line x1="580.26" y1="436.11" x2="588.26" y2="436.11" stroke="#1f77b4" stroke-width="1.2" opacity="0.85"/>
<line x1="580.26" y1="433.88" x2="588.26" y2="433.88" stroke="#1f77b4" stroke-width="1.2" opacity="0.85"/>
<line x1="601.06" y1="426.10" x2="601.06" y2="424.06" stroke="#1f77b4" stroke-width="1.2" opacity="0.85"/>
<line x1="597.06" y1="426.10" x2="605.06" y2="426.10" stroke="#1f77b4" stroke-width="1.2" opacity="0.85"/>
<line x1="597.06" y1="424.06" x2="605.06" y2="424.06" stroke="#1f77b4" stroke-width="1.2" opacity="0.85"/>
<line x1="617.87" y1="412.40" x2="617.87" y2="410.60" stroke="#1f77b4" stroke-width="1.2" opacity="0.85"/>
<line x1="613.87" y1="412.40" x2="621.87" y2="412.40" stroke="#1f77b4" stroke-width="1.2" opacity="0.85"/>
<line x1="613.87" y1="410.60" x2="621.87" y2="410.60" stroke="#1f77b4" stroke-width="1.2" opacity="0.85"/>
<line x1="634.68" y1="392.93" x2="634.68" y2="391.40" stroke="#1f77b4" stroke-width="1.2" opacity="0.85"/>
<line x1="630.68" y1="392.93" x2="638.68" y2="392.93" stroke="#1f77b4" stroke-width="1.2" opacity="0.85"/>
<line x1="630.68" y1="391.40" x2="638.68" y2="391.40" stroke="#1f77b4" stroke-width="1.2" opacity="0.85"/>
<line x1="651.49" y1="361.52" x2="651.49" y2="360.31" stroke="#1f77b4" stroke-width="1.2" opacity="0.85"/>
<line x1="647.49" y1="361.52" x2="655.49" y2="361.52" stroke="#1f77b4" stroke-width="1.2" opacity="0.85"/>
<line x1="647.49" y1="360.31" x2="655.49" y2="360.31" stroke="#1f77b4" stroke-width="1.2" opacity="0.85"/>
<line x1="668.30" y1="298.53" x2="668.30" y2="297.73" stroke="#1f77b4" stroke-width="1.2" opacity="0.85"/>
<line x1="664.30" y1="298.53" x2="672.30" y2="298.53" stroke="#1f77b4" stroke-width="1.2" opacity="0.85"/>
<line x1="664.30" y1="297.73" x2="672.30" y2="297.73" stroke="#1f77b4" stroke-width="1.2" opacity="0.85"/>
<polyline points="80.00,75.11 96.81,298.13 113.62,360.92 130.43,392.16 147.23,411.50 164.04,425.08 180.85,434.99 197.66,442.58 214.47,448.45 231.28,453.20 248.09,456.65 264.89,459.46 281.70,461.73 298.51,463.65 315.32,465.12 332.13,466.42 348.94,467.25 365.74,467.72 382.55,467.76 399.36,467.72 416.17,467.25 432.98,466.42 449.79,465.12 466.60,463.65 483.40,461.73 500.21,459.46 517.02,456.65 533.83,453.20 550.64,448.45 567.45,442.58 584.26,434.99 601.06,425.08 617.87,411.50 634.68,392.16 651.49,360.92 668.30,298.13" fill="none" stroke="#1f77b4" stroke-width="2"/>
<circle cx="80.00" cy="75.11" r="2.5" fill="#1f77b4"/>
<circle cx="96.81" cy="298.13" r="2.5" fill="#1f77b4"/>
<circle cx="113.62" cy="360.92" r="2.5" fill="#1f77b4"/>
<circle cx="130.43" cy="392.16" r="2.5" fill="#1f77b4"/>
<circle cx="147.23" cy="411.50" r="2.5" fill="#1f77b4"/>
<circle cx="164.04" cy="425.08" r="2.5" fill="#1f77b4"/>
<circle cx="180.85" cy="434.99" r="2.5" fill="#1f77b4"/>
<circle cx="197.66" cy="442.58" r="2.5" fill="#1f77b4"/>
<circle cx="214.47" cy="448.45" r="2.5" fill="#1f77b4"/>
<circle cx="231.28" cy="453.20" r="2.5" fill="#1f77b4"/>
<circle cx="248.09" cy="456.65" r="2.5" fill="#1f77b4"/>
<circle cx="264.89" cy="459.46" r="2.5" fill="#1f77b4"/>
<circle cx="281.70" cy="461.73" r="2.5" fill="#1f77b4"/>
<circle cx="298.51" cy="463.65" r="2.5" fill="#1f77b4"/>
<circle cx="315.32" cy="465.12" r="2.5" fill="#1f77b4"/>
<circle cx="332.13" cy="466.42" r="2.5" fill="#1f77b4"/>
<circle cx="348.94" cy="467.25" r="2.5" fill="#1f77b4"/>
<circle cx="365.74" cy="467.72" r="2.5" fill="#1f77b4"/>
<circle cx="382.55" cy="467.76" r="2.5" fill="#1f77b4"/>
<circle cx="399.36" cy="467.72" r="2.5" fill="#1f77b4"/>
<circle cx="416.17" cy="467.25" r="2.5" fill="#1f77b4"/>
<circle cx="432.98" cy="466.42" r="2.5" fill="#1f77b4"/>
<circle cx="449.79" cy="465.12" r="2.5" fill="#1f77b4"/>
<circle cx="466.60" cy="463.65" r="2.5" fill="#1f77b4"/>
<circle cx="483.40" cy="461.73" r="2.5" fill="#1f77b4"/>
<circle cx="500.21" cy="459.46" r="2.5" fill="#1f77b4"/>
<circle cx="517.02" cy="456.65" r="2.5" fill="#1f77b4"/>
<circle cx="533.83" cy="453.20" r="2.5" fill="#1f77b4"/>
<circle cx="550.64" cy="448.45" r="2.5" fill="#1f77b4"/>
<circle cx="567.45" cy="442.58" r="2.5" fill="#1f77b4"/>
<circle cx="584.26" cy="434.99" r="2.5" fill="#1f77b4"/>
<circle cx="601.06" cy="425.08" r="2.5" fill="#1f77b4"/>
<circle cx="617.87" cy="411.50" r="2.5" fill="#1f77b4"/>
<circle cx="634.68" cy="392.16" r="2.5" fill="#1f77b4"/>
<circle cx="651.49" cy="360.92" r="2.5" fill="#1f77b4"/>
<circle cx="668.30" cy="298.13" r="2.5" fill="#1f77b4"/>
<line x1="80.00" y1="75.22" x2="80.00" y2="75.00" stroke="#ff7f0e" stroke-width="1.2" opacity="0.85"/>
<line x1="76.00" y1="75.22" x2="84.00" y2="75.22" stroke="#ff7f0e" stroke-width="1.2" opacity="0.85"/>
<line x1="76.00" y1="75.00" x2="84.00" y2="75.00" stroke="#ff7f0e" stroke-width="1.2" opacity="0.85"/>
<line x1="96.81" y1="284.73" x2="96.81" y2="283.99" stroke="#ff7f0e" stroke-width="1.2" opacity="0.85"/>
<line x1="92.81" y1="284.73" x2="100.81" y2="284.73" stroke="#ff7f0e" stroke-width="1.2" opacity="0.85"/>
<line x1="92.81" y1="283.99" x2="100.81" y2="283.99" stroke="#ff7f0e" stroke-width="1.2" opacity="0.85"/>
<line x1="113.62" y1="351.62" x2="113.62" y2="350.48" stroke="#ff7f0e" stroke-width="1.2" opacity="0.85"/>
<line x1="109.62" y1="351.62" x2="117.62" y2="351.62" stroke="#ff7f0e" stroke-width="1.2" opacity="0.85"/>
<line x1="109.62" y1="350.48" x2="117.62" y2="350.48" stroke="#ff7f0e" stroke-width="1.2" opacity="0.85"/>
<line x1="130.43" y1="384.88" x2="130.43" y2="383.43" stroke="#ff7f0e" stroke-width="1.2" opacity="0.85"/>
<line x1="126.43" y1="384.88" x2="134.43" y2="384.88" stroke="#ff7f0e" stroke-width="1.2" opacity="0.85"/>
<line x1="126.43" y1="383.43" x2="134.43" y2="383.43" stroke="#ff7f0e" stroke-width="1.2" opacity="0.85"/>
<line x1="147.23" y1="405.50" x2="147.23" y2="403.79" stroke="#ff7f0e" stroke-width="1.2" opacity="0.85"/>
<line x1="143.23" y1="405.50" x2="151.23" y2="405.50" stroke="#ff7f0e" stroke-width="1.2" opacity="0.85"/>
<line x1="143.23" y1="403.79" x2="151.23" y2="403.79" stroke="#ff7f0e" stroke-width="1.2" opacity="0.85"/>
<line x1="164.04" y1="419.93" x2="164.04" y2="418.00" stroke="#ff7f0e" stroke-width="1.2" opacity="0.85"/>
<line x1="160.04" y1="419.93" x2="168.04" y2="419.93" stroke="#ff7f0e" stroke-width="1.2" opacity="0.85"/>
<line x1="160.04" y1="418.00" x2="168.04" y2="418.00" stroke="#ff7f0e" stroke-width="1.2" opacity="0.85"/>
<line x1="180.85" y1="430.94" x2="180.85" y2="428.81" stroke="#ff7f0e" stroke-width="1.2" opacity="0.85"/>
<line x1="176.85" y1="430.94" x2="184.85" y2="430.94" stroke="#ff7f0e" stroke-width="1.2" opacity="0.85"/>
<line x1="176.85" y1="428.81" x2="184.85" y2="428.81" stroke="#ff7f0e" stroke-width="1.2" opacity="0.85"/>
<line x1="197.66" y1="439.40" x2="197.66" y2="437.09" stroke="#ff7f0e" stroke-width="1.2" opacity="0.85"/>
<line x1="193.66" y1="439.40" x2="201.66" y2="439.40" stroke="#ff7f0e" stroke-width="1.2" opacity="0.85"/>
<line x1="193.66" y1="437.09" x2="201.66" y2="437.09" stroke="#ff7f0e" stroke-width="1.2" opacity="0.85"/>
<line x1="214.47" y1="445.99" x2="214.47" y2="443.52" stroke="#ff7f0e" stroke-width="1.2" opacity="0.85"/>
<line x1="210.47" y1="445.99" x2="218.47" y2="445.99" stroke="#ff7f0e" stroke-width="1.2" opacity="0.85"/>
<line x1="210.47" y1="443.52" x2="218.47" y2="443.52" stroke="#ff7f0e" stroke-width="1.2" opacity="0.85"/>
<line x1="231.28" y1="451.48" x2="231.28" y2="448.88" stroke="#ff7f0e" stroke-width="1.2" opacity="0.85"/>
<line x1="227.28" y1="451.48" x2="235.28" y2="451.48" stroke="#ff7f0e" stroke-width="1.2" opacity="0.85"/>
<line x1="227.28" y1="448.88" x2="235.28" y2="448.88" stroke="#ff7f0e" stroke-width="1.2" opacity="0.85"/>
<line x1="248.09" y1="455.71" x2="248.09" y2="452.99" stroke="#ff7f0e" stroke-width="1.2" opacity="0.85"/>
<line x1="244.09" y1="455.71" x2="252.09" y2="455.71" stroke="#ff7f0e" stroke-width="1.2" opacity="0.85"/>
<line x1="244.09" y1="452.99" x2="252.09" y2="452.99" stroke="#ff7f0e" stroke-width="1.2" opacity="0.85"/>
<line x1="264.89" y1="459.30" x2="264.89" y2="456.45" stroke="#ff7f0e" stroke-width="1.2" opacity="0.85"/>
<line x1="260.89" y1="459.30" x2="268.89" y2="459.30" stroke="#ff7f0e" stroke-width="1.2" opacity="0.85"/>
<line x1="260.89" y1="456.45" x2="268.89" y2="456.45" stroke="#ff7f0e" stroke-width="1.2" opacity="0.85"/>
<line x1="281.70" y1="462.20" x2="281.70" y2="459.26" stroke="#ff7f0e" stroke-width="1.2" opacity="0.85"/>
<line x1="277.70" y1="462.20" x2="285.70" y2="462.20" stroke="#ff7f0e" stroke-width="1.2" opacity="0.85"/>
<line x1="277.70" y1="459.26" x2="285.70" y2="459.26" stroke="#ff7f0e" stroke-width="1.2" opacity="0.85"/>
<line x1="298.51" y1="464.49" x2="298.51" y2="461.47" stroke="#ff7f0e" stroke-width="1.2" opacity="0.85"/>
<line x1="294.51" y1="464.49" x2="302.51" y2="464.49" stroke="#ff7f0e" stroke-width="1.2" opacity="0.85"/>
<line x1="294.51" y1="461.47" x2="302.51" y2="461.47" stroke="#ff7f0e" stroke-width="1.2" opacity="0.85"/>
<line x1="315.32" y1="466.50" x2="315.32" y2="463.39" stroke="#ff7f0e" stroke-width="1.2" opacity="0.85"/>
<line x1="311.32" y1="466.50" x2="319.32" y2="466.50" stroke="#ff7f0e" stroke-width="1.2" opacity="0.85"/>
<line x1="311.32" y1="463.39" x2="319.32" y2="463.39" stroke="#ff7f0e" stroke-width="1.2" opacity="0.85"/>
<line x1="332.13" y1="468.18" x2="332.13" y2="465.00" stroke="#ff7f0e" stroke-width="1.2" opacity="0.85"/>
<line x1="328.13" y1="468.18" x2="336.13" y2="468.18" stroke="#ff7f0e" stroke-width="1.2" opacity="0.85"/>
<line x1="328.13" y1="465.00" x2="336.13" y2="465.00" stroke="#ff7f0e" stroke-width="1.2" opacity="0.85"/>
<line x1="348.94" y1="469.66" x2="348.94" y2="466.42" stroke="#ff7f0e" stroke-width="1.2" opacity="0.85"/>
<line x1="344.94" y1="469.66" x2="352.94" y2="469.66" stroke="#ff7f0e" stroke-width="1.2" opacity="0.85"/>
<line x1="344.94" y1="466.42" x2="352.94" y2="466.42" stroke="#ff7f0e" stroke-width="1.2" opacity="0.85"/>
<line x1="365.74" y1="470.96" x2="365.74" y2="467.65" stroke="#ff7f0e" stroke-width="1.2" opacity="0.85"/>
<line x1="361.74" y1="470.96" x2="369.74" y2="470.96" stroke="#ff7f0e" stroke-width="1.2" opacity="0.85"/>
<line x1="361.74" y1="467.65" x2="369.74" y2="467.65" stroke="#ff7f0e" stroke-width="1.2" opacity="0.85"/>
<line x1="382.55" y1="472.05" x2="382.55" y2="468.70" stroke="#ff7f0e" stroke-width="1.2" opacity="0.85"/>
<line x1="378.55" y1="472.05" x2="386.55" y2="472.05" stroke="#ff7f0e" stroke-width="1.2" opacity="0.85"/>
<line x1="378.55" y1="468.70" x2="386.55" y2="468.70" stroke="#ff7f0e" stroke-width="1.2" opacity="0.85"/>
<line x1="399.36" y1="473.16" x2="399.36" y2="469.75" stroke="#ff7f0e" stroke-width="1.2" opacity="0.85"/>
<line x1="395.36" y1="473.16" x2="403.36" y2="473.16" stroke="#ff7f0e" stroke-width="1.2" opacity="0.85"/>
<line x1="395.36" y1="469.75" x2="403.36" y2="469.75" stroke="#ff7f0e" stroke-width="1.2" opacity="0.85"/>
<line x1="416.17" y1="473.74" x2="416.17" y2="470.30" stroke="#ff7f0e" stroke-width="1.2" opacity="0.85"/>
<line x1="412.17" y1="473.74" x2="420.17" y2="473.74" stroke="#ff7f0e" stroke-width="1.2" opacity="0.85"/>
<line x1="412.17" y1="470.30" x2="420.17" y2="470.30" stroke="#ff7f0e" stroke-width="1.2" opacity="0.85"/>
<line x1="432.98" y1="474.12" x2="432.98" y2="470.65" stroke="#ff7f0e" stroke-width="1.2" opacity="0.85"/>
<line x1="428.98" y1="474.12" x2="436.98" y2="474.12" stroke="#ff7f0e" stroke-width="1.2" opacity="0.85"/>
<line x1="428.98" y1="470.65" x2="436.98" y2="470.65" stroke="#ff7f0e" stroke-width="1.2" opacity="0.85"/>
<line x1="449.79" y1="474.56" x2="449.79" y2="471.06" stroke="#ff7f0e" stroke-width="1.2" opacity="0.85"/>
<line x1="445.79" y1="474.56" x2="453.79" y2="474.56" stroke="#ff7f0e" stroke-width="1.2" opacity="0.85"/>
<line x1="445.79" y1="471.06" x2="453.79" y2="471.06" stroke="#ff7f0e" stroke-width="1.2" opacity="0.85"/>
<line x1="466.60" y1="474.76" x2="466.60" y2="471.23" stroke="#ff7f0e" stroke-width="1.2" opacity="0.85"/>
<line x1="462.60" y1="474.76" x2="470.60" y2="474.76" stroke="#ff7f0e" stroke-width="1.2" opacity="0.85"/>
<line x1="462.60" y1="471.23" x2="470.60" y2="471.23" stroke="#ff7f0e" stroke-width="1.2" opacity="0.85"/>
<line x1="483.40" y1="475.00" x2="483.40" y2="471.46" stroke="#ff7f0e" stroke-width="1.2" opacity="0.85"/>
<line x1="479.40" y1="475.00" x2="487.40" y2="475.00" stroke="#ff7f0e" stroke-width="1.2" opacity="0.85"/>
<line x1="479.40" y1="471.46" x2="487.40" y2="471.46" stroke="#ff7f0e" stroke-width="1.2" opacity="0.85"/>
<line x1="500.21" y1="474.76" x2="500.21" y2="471.23" stroke="#ff7f0e" stroke-width="1.2" opacity="0.85"/>
<line x1="496.21" y1="474.76" x2="504.21" y2="474.76" stroke="#ff7f0e" stroke-width="1.2" opacity="0.85"/>
<line x1="496.21" y1="471.23" x2="504.21" y2="471.23" stroke="#ff7f0e" stroke-width="1.2" opacity="0.85"/>
<line x1="517.02" y1="474.56" x2="517.02" y2="471.06" stroke="#ff7f0e" stroke-width="1.2" opacity="0.85"/>
<line x1="513.02" y1="474.56" x2="521.02" y2="474.56" stroke="#ff7f0e" stroke-width="1.2" opacity="0.85"/>
<line x1="513.02" y1="471.06" x2="521.02" y2="471.06" stroke="#ff7f0e" stroke-width="1.2" opacity="0.85"/>
<line x1="533.83" y1="474.12" x2="533.83" y2="470.65" stroke="#ff7f0e" stroke-width="1.2" opacity="0.85"/>
<line x1="529.83" y1="474.12" x2="537.83" y2="474.12" stroke="#ff7f0e" stroke-width="1.2" opacity="0.85"/>
<line x1="529.83" y1="470.65" x2="537.83" y2="470.65" stroke="#ff7f0e" stroke-width="1.2" opacity="0.85"/>
<line x1="550.64" y1="473.74" x2="550.64" y2="470.30" stroke="#ff7f0e" stroke-width="1.2" opacity="0.85"/>
<line x1="546.64" y1="473.74" x2="554.64" y2="473.74" stroke="#ff7f0e" stroke-width="1.2" opacity="0.85"/>
<line x1="546.64" y1="470.30" x2="554.64" y2="470.30" stroke="#ff7f0e" stroke-width="1.2" opacity="0.85"/>
<line x1="567.45" y1="473.16" x2="567.45" y2="469.75" stroke="#ff7f0e" stroke-width="1.2" opacity="0.85"/>
<line x1="563.45" y1="473.16" x2="571.45" y2="473.16" stroke="#ff7f0e" stroke-width="1.2" opacity="0.85"/>
<line x1="563.45" y1="469.75" x2="571.45" y2="469.75" stroke="#ff7f0e" stroke-width="1.2" opacity="0.85"/>
<line x1="584.26" y1="472.05" x2="584.26" y2="468.70" stroke="#ff7f0e" stroke-width="1.2" opacity="0.85"/>
<line x1="580.26" y1="472.05" x2="588.26" y2="472.05" stroke="#ff7f0e" stroke-width="1.2" opacity="0.85"/>
<line x1="580.26" y1="468.70" x2="588.26" y2="468.70" stroke="#ff7f0e" stroke-width="1.2" opacity="0.85"/>
<line x1="601.06" y1="470.96" x2="601.06" y2="467.65" stroke="#ff7f0e" stroke-width="1.2" opacity="0.85"/>
<line x1="597.06" y1="470.96" x2="605.06" y2="470.96" stroke="#ff7f0e" stroke-width="1.2" opacity="0.85"/>
<line x1="597.06" y1="467.65" x2="605.06" y2="467.65" stroke="#ff7f0e" stroke-width="1.2" opacity="0.85"/>
<line x1="617.87" y1="469.66" x2="617.87" y2="466.42" stroke="#ff7f0e" stroke-width="1.2" opacity="0.85"/>
<line x1="613.87" y1="469.66" x2="621.87" y2="469.66" stroke="#ff7f0e" stroke-width="1.2" opacity="0.85"/>
<line x1="613.87" y1="466.42" x2="621.87" y2="466.42" stroke="#ff7f0e" stroke-width="1.2" opacity="0.85"/>
<line x1="634.68" y1="468.18" x2="634.68" y2="465.00" stroke="#ff7f0e" stroke-width="1.2" opacity="0.85"/>
<line x1="630.68" y1="468.18" x2="638.68" y2="468.18" stroke="#ff7f0e" stroke-width="1.2" opacity="0.85"/>
<line x1="630.68" y1="465.00" x2="638.68" y2="465.00" stroke="#ff7f0e" stroke-width="1.2" opacity="0.85"/>
<line x1="651.49" y1="466.50" x2="651.49" y2="463.39" stroke="#ff7f0e" stroke-width="1.2" opacity="0.85"/>
<line x1="647.49" y1="466.50" x2="655.49" y2="466.50" stroke="#ff7f0e" stroke-width="1.2" opacity="0.85"/>
<line x1="647.49" y1="463.39" x2="655.49" y2="463.39" stroke="#ff7f0e" stroke-width="1.2" opacity="0.85"/>
<line x1="668.30" y1="464.49" x2="668.30" y2="461.47" stroke="#ff7f0e" stroke-width="1.2" opacity="0.85"/>
<line x1="664.30" y1="464.49" x2="672.30" y2="464.49" stroke="#ff7f0e" stroke-width="1.2" opacity="0.85"/>
<line x1="664.30" y1="461.47" x2="672.30" y2="461.47" stroke="#ff7f0e" stroke-width="1.2" opacity="0.85"/>
<line x1="685.11" y1="462.20" x2="685.11" y2="459.26" stroke="#ff7f0e" stroke-width="1.2" opacity="0.85"/>
<line x1="681.11" y1="462.20" x2="689.11" y2="462.20" stroke="#ff7f0e" stroke-width="1.2" opacity="0.85"/>
<line x1="681.11" y1="459.26" x2="689.11" y2="459.26" stroke="#ff7f0e" stroke-width="1.2" opacity="0.85"/>
<line x1="701.91" y1="459.30" x2="701.91" y2="456.45" stroke="#ff7f0e" stroke-width="1.2" opacity="0.85"/>
<line x1="697.91" y1="459.30" x2="705.91" y2="459.30" stroke="#ff7f0e" stroke-width="1.2" opacity="0.85"/>
<line x1="697.91" y1="456.45" x2="705.91" y2="456.45" stroke="#ff7f0e" stroke-width="1.2" opacity="0.85"/>
<line x1="718.72" y1="455.71" x2="718.72" y2="452.99" stroke="#ff7f0e" stroke-width="1.2" opacity="0.85"/>
<line x1="714.72" y1="455.71" x2="722.72" y2="455.71" stroke="#ff7f0e" stroke-width="1.2" opacity="0.85"/>
<line x1="714.72" y1="452.99" x2="722.72" y2="452.99" stroke="#ff7f0e" stroke-width="1.2" opacity="0.85"/>
<line x1="735.53" y1="451.48" x2="735.53" y2="448.88" stroke="#ff7f0e" stroke-width="1.2" opacity="0.85"/>
<line x1="731.53" y1="451.48" x2="739.53" y2="451.48" stroke="#ff7f0e" stroke-width="1.2" opacity="0.85"/>
<line x1="731.53" y1="448.88" x2="739.53" y2="448.88" stroke="#ff7f0e" stroke-width="1.2" opacity="0.85"/>
<line x1="752.34" y1="445.99" x2="752.34" y2="443.52" stroke="#ff7f0e" stroke-width="1.2" opacity="0.85"/>
<line x1="748.34" y1="445.99" x2="756.34" y2="445.99" stroke="#ff7f0e" stroke-width="1.2" opacity="0.85"/>
<line x1="748.34" y1="443.52" x2="756.34" y2="443.52" stroke="#ff7f0e" stroke-width="1.2" opacity="0.85"/>
<line x1="769.15" y1="439.40" x2="769.15" y2="437.09" stroke="#ff7f0e" stroke-width="1.2" opacity="0.85"/>
<line x1="765.15" y1="439.40" x2="773.15" y2="439.40" stroke="#ff7f0e" stroke-width="1.2" opacity="0.85"/>
<line x1="765.15" y1="437.09" x2="773.15" y2="437.09" stroke="#ff7f0e" stroke-width="1.2" opacity="0.85"/>
<line x1="785.96" y1="430.94" x2="785.96" y2="428.81" stroke="#ff7f0e" stroke-width="1.2" opacity="0.85"/>
<line x1="781.96" y1="430.94" x2="789.96" y2="430.94" stroke="#ff7f0e" stroke-width="1.2" opacity="0.85"/>
<line x1="781.96" y1="428.81" x2="789.96" y2="428.81" stroke="#ff7f0e" stroke-width="1.2" opacity="0.85"/>
<line x1="802.77" y1="419.93" x2="802.77" y2="418.00" stroke="#ff7f0e" stroke-width="1.2" opacity="0.85"/>
<line x1="798.77" y1="419.93" x2="806.77" y2="419.93" stroke="#ff7f0e" stroke-width="1.2" opacity="0.85"/>
<line x1="798.77" y1="418.00" x2="806.77" y2="418.00" stroke="#ff7f0e" stroke-width="1.2" opacity="0.85"/>
<line x1="819.57" y1="405.50" x2="819.57" y2="403.79" stroke="#ff7f0e" stroke-width="1.2" opacity="0.85"/>
<line x1="815.57" y1="405.50" x2="823.57" y2="405.50" stroke="#ff7f0e" stroke-width="1.2" opacity="0.85"/>
<line x1="815.57" y1="403.79" x2="823.57" y2="403.79" stroke="#ff7f0e" stroke-width="1.2" opacity="0.85"/>
<line x1="836.38" y1="384.88" x2="836.38" y2="383.43" stroke="#ff7f0e" stroke-width="1.2" opacity="0.85"/>
<line x1="832.38" y1="384.88" x2="840.38" y2="384.88" stroke="#ff7f0e" stroke-width="1.2" opacity="0.85"/>
<line x1="832.38" y1="383.43" x2="840.38" y2="383.43" stroke="#ff7f0e" stroke-width="1.2" opacity="0.85"/>
<line x1="853.19" y1="351.62" x2="853.19" y2="350.48" stroke="#ff7f0e" stroke-width="1.2" opacity="0.85"/>
<line x1="849.19" y1="351.62" x2="857.19" y2="351.62" stroke="#ff7f0e" stroke-width="1.2" opacity="0.85"/>
<line x1="849.19" y1="350.48" x2="857.19" y2="350.48" stroke="#ff7f0e" stroke-width="1.2" opacity="0.85"/>
<line x1="870.00" y1="284.73" x2="870.00" y2="283.99" stroke="#ff7f0e" stroke-width="1.2" opacity="0.85"/>
<line x1="866.00" y1="284.73" x2="874.00" y2="284.73" stroke="#ff7f0e" stroke-width="1.2" opacity="0.85"/>
<line x1="866.00" y1="283.99" x2="874.00" y2="283.99" stroke="#ff7f0e" stroke-width="1.2" opacity="0.85"/>
<polyline points="80.00,75.11 96.81,284.36 113.62,351.05 130.43,384.16 147.23,404.65 164.04,418.96 180.85,429.88 197.66,438.25 214.47,444.75 231.28,450.18 248.09,454.35 264.89,457.87 281.70,460.73 298.51,462.98 315.32,464.95 332.13,466.59 348.94,468.04 365.74,469.31 382.55,470.37 399.36,471.45 416.17,472.02 432.98,472.38 449.79,472.81 466.60,473.00 483.40,473.23 500.21,473.00 517.02,472.81 533.83,472.38 550.64,472.02 567.45,471.45 584.26,470.37 601.06,469.31 617.87,468.04 634.68,466.59 651.49,464.95 668.30,462.98 685.11,460.73 701.91,457.87 718.72,454.35 735.53,450.18 752.34,444.75 769.15,438.25 785.96,429.88 802.77,418.96 819.57,404.65 836.38,384.16 853.19,351.05 870.00,284.36" fill="none" stroke="#ff7f0e" stroke-width="2"/>
<circle cx="80.00" cy="75.11" r="2.5" fill="#ff7f0e"/>
<circle cx="96.81" cy="284.36" r="2.5" fill="#ff7f0e"/>
<circle cx="113.62" cy="351.05" r="2.5" fill="#ff7f0e"/>
<circle cx="130.43" cy="384.16" r="2.5" fill="#ff7f0e"/>
<circle cx="147.23" cy="404.65" r="2.5" fill="#ff7f0e"/>
<circle cx="164.04" cy="418.96" r="2.5" fill="#ff7f0e"/>
<circle cx="180.85" cy="429.88" r="2.5" fill="#ff7f0e"/>
<circle cx="197.66" cy="438.25" r="2.5" fill="#ff7f0e"/>
<circle cx="214.47" cy="444.75" r="2.5" fill="#ff7f0e"/>
<circle cx="231.28" cy="450.18" r="2.5" fill="#ff7f0e"/>
<circle cx="248.09" cy="454.35" r="2.5" fill="#ff7f0e"/>
<circle cx="264.89" cy="457.87" r="2.5" fill="#ff7f0e"/>
<circle cx="281.70" cy="460.73" r="2.5" fill="#ff7f0e"/>
<circle cx="298.51" cy="462.98" r="2.5" fill="#ff7f0e"/>
<circle cx="315.32" cy="464.95" r="2.5" fill="#ff7f0e"/>
<circle cx="332.13" cy="466.59" r="2.5" fill="#ff7f0e"/>
<circle cx="348.94" cy="468.04" r="2.5" fill="#ff7f0e"/>
<circle cx="365.74" cy="469.31" r="2.5" fill="#ff7f0e"/>
<circle cx="382.55" cy="470.37" r="2.5" fill="#ff7f0e"/>
<circle cx="399.36" cy="471.45" r="2.5" fill="#ff7f0e"/>
<circle cx="416.17" cy="472.02" r="2.5" fill="#ff7f0e"/>
<circle cx="432.98" cy="472.38" r="2.5" fill="#ff7f0e"/>
<circle cx="449.79" cy="472.81" r="2.5" fill="#ff7f0e"/>
<circle cx="466.60" cy="473.00" r="2.5" fill="#ff7f0e"/>
<circle cx="483.40" cy="473.23" r="2.5" fill="#ff7f0e"/>
<circle cx="500.21" cy="473.00" r="2.5" fill="#ff7f0e"/>
<circle cx="517.02" cy="472.81" r="2.5" fill="#ff7f0e"/>
<circle cx="533.83" cy="472.38" r="2.5" fill="#ff7f0e"/>
<circle cx="550.64" cy="472.02" r="2.5" fill="#ff7f0e"/>
<circle cx="567.45" cy="471.45" r="2.5" fill="#ff7f0e"/>
<circle cx="584.26" cy="470.37" r="2.5" fill="#ff7f0e"/>
<circle cx="601.06" cy="469.31" r="2.5" fill="#ff7f0e"/>
<circle cx="617.87" cy="468.04" r="2.5" fill="#ff7f0e"/>
<circle cx="634.68" cy="466.59" r="2.5" fill="#ff7f0e"/>
<circle cx="651.49" cy="464.95" r="2.5" fill="#ff7f0e"/>
<circle cx="668.30" cy="462.98" r="2.5" fill="#ff7f0e"/>
<circle cx="685.11" cy="460.73" r="2.5" fill="#ff7f0e"/>
<circle cx="701.91" cy="457.87" r="2.5" fill="#ff7f0e"/>
<circle cx="718.72" cy="454.35" r="2.5" fill="#ff7f0e"/>
<circle cx="735.53" cy="450.18" r="2.5" fill="#ff7f0e"/>
<circle cx="752.34" cy="444.75" r="2.5" fill="#ff7f0e"/>
<circle cx="769.15" cy="438.25" r="2.5" fill="#ff7f0e"/>
<circle cx="785.96" cy="429.88" r="2.5" fill="#ff7f0e"/>
<circle cx="802.77" cy="418.96" r="2.5" fill="#ff7f0e"/>
<circle cx="819.57" cy="404.65" r="2.5" fill="#ff7f0e"/>
<circle cx="836.38" cy="384.16" r="2.5" fill="#ff7f0e"/>
<circle cx="853.19" cy="351.05" r="2.5" fill="#ff7f0e"/>
<circle cx="870.00" cy="284.36" r="2.5" fill="#ff7f0e"/>
<rect x="660" y="70" width="190" height="64" fill="white" stroke="#cccccc"/>
<line x1="670" y1="90" x2="700" y2="90" stroke="#1f77b4" stroke-width="3"/>
<text x="708" y="94" font-size="12" font-family="Arial">connected x (jackknife)</text>
<line x1="670" y1="112" x2="700" y2="112" stroke="#ff7f0e" stroke-width="3"/>
<text x="708" y="116" font-size="12" font-family="Arial">connected y (jackknife)</text>
</svg>