<?xml version="1.0" encoding="utf-8" standalone="no"?>
<!DOCTYPE svg PUBLIC "-//W3C//DTD SVG 1.1//EN"
  "http://www.w3.org/Graphics/SVG/1.1/DTD/svg11.dtd">
<svg xmlns:xlink="http://www.w3.org/1999/xlink" width="612pt" height="396pt" viewBox="0 0 612 396" xmlns="http://www.w3.org/2000/svg" version="1.1">
 <metadata>
  <rdf:RDF xmlns:dc="http://purl.org/dc/elements/1.1/" xmlns:cc="http://creativecommons.org/ns#" xmlns:rdf="http://www.w3.org/1999/02/22-rdf-syntax-ns#">
   <cc:Work>
    <dc:type rdf:resource="http://purl.org/dc/dcmitype/StillImage"/>
    <dc:date>2026-03-06T19:20:24.648405</dc:date>
    <dc:format>image/svg+xml</dc:format>
    <dc:creator>
     <cc:Agent>
      <dc:title>Matplotlib v3.10.8, https://matplotlib.org/</dc:title>
     </cc:Agent>
    </dc:creator>
   </cc:Work>
  </rdf:RDF>
 </metadata>
 <defs>
  <style type="text/css">*{stroke-linejoin: round; stroke-linecap: butt}</style>
 </defs>
 <g id="figure_1">
  <g id="patch_1">
   <path d="M 0 396 
L 612 396 
L 612 0 
L 0 0 
z
" style="fill: #ffffff"/>
  </g>
  <g id="axes_1">
   <g id="patch_2">
    <path d="M 47.84 355 
L 601.2 355 
L 601.2 25.92 
L 47.84 25.92 
z
" style="fill: #ffffff"/>
   </g>
   <g id="matplotlib.axis_1">
    <g id="xtick_1">
     <g id="line2d_1">
      <path d="M 47.84 355 
L 47.84 25.92 
" clip-path="url(#p0bf407bd59)" style="fill: none; stroke: #b0b0b0; stroke-opacity: 0.25; stroke-width: 0.8; stroke-linecap: square"/>
     </g>
     <g id="line2d_2">
      <defs>
       <path id="m2091e96a27" d="M 0 0 
L 0 3.5 
" style="stroke: #000000; stroke-width: 0.8"/>
      </defs>
      <g>
       <use xlink:href="#m2091e96a27" x="47.84" y="355" style="stroke: #000000; stroke-width: 0.8"/>
      </g>
     </g>
     <g id="text_1">
      <!-- 0.0 -->
      <g transform="translate(39.888438 369.598437) scale(0.1 -0.1)">
       <defs>
        <path id="DejaVuSans-30" d="M 2034 4250 
Q 1547 4250 1301 3770 
Q 1056 3291 1056 2328 
Q 1056 1369 1301 889 
Q 1547 409 2034 409 
Q 2525 409 2770 889 
Q 3016 1369 3016 2328 
Q 3016 3291 2770 3770 
Q 2525 4250 2034 4250 
z
M 2034 4750 
Q 2819 4750 3233 4129 
Q 3647 3509 3647 2328 
Q 3647 1150 3233 529 
Q 2819 -91 2034 -91 
Q 1250 -91 836 529 
Q 422 1150 422 2328 
Q 422 3509 836 4129 
Q 1250 4750 2034 4750 
z
" transform="scale(0.015625)"/>
        <path id="DejaVuSans-2e" d="M 684 794 
L 1344 794 
L 1344 0 
L 684 0 
L 684 794 
z
" transform="scale(0.015625)"/>
       </defs>
       <use xlink:href="#DejaVuSans-30"/>
       <use xlink:href="#DejaVuSans-2e" transform="translate(63.623047 0)"/>
       <use xlink:href="#DejaVuSans-30" transform="translate(95.410156 0)"/>
      </g>
     </g>
    </g>
    <g id="xtick_2">
     <g id="line2d_3">
      <path d="M 160.866723 355 
L 160.866723 25.92 
" clip-path="url(#p0bf407bd59)" style="fill: none; stroke: #b0b0b0; stroke-opacity: 0.25; stroke-width: 0.8; stroke-linecap: square"/>
     </g>
     <g id="line2d_4">
      <g>
       <use xlink:href="#m2091e96a27" x="160.866723" y="355" style="stroke: #000000; stroke-width: 0.8"/>
      </g>
     </g>
     <g id="text_2">
      <!-- 0.2 -->
      <g transform="translate(152.915161 369.598437) scale(0.1 -0.1)">
       <defs>
        <path id="DejaVuSans-32" d="M 1228 531 
L 3431 531 
L 3431 0 
L 469 0 
L 469 531 
Q 828 903 1448 1529 
Q 2069 2156 2228 2338 
Q 2531 2678 2651 2914 
Q 2772 3150 2772 3378 
Q 2772 3750 2511 3984 
Q 2250 4219 1831 4219 
Q 1534 4219 1204 4116 
Q 875 4013 500 3803 
L 500 4441 
Q 881 4594 1212 4672 
Q 1544 4750 1819 4750 
Q 2544 4750 2975 4387 
Q 3406 4025 3406 3419 
Q 3406 3131 3298 2873 
Q 3191 2616 2906 2266 
Q 2828 2175 2409 1742 
Q 1991 1309 1228 531 
z
" transform="scale(0.015625)"/>
       </defs>
       <use xlink:href="#DejaVuSans-30"/>
       <use xlink:href="#DejaVuSans-2e" transform="translate(63.623047 0)"/>
       <use xlink:href="#DejaVuSans-32" transform="translate(95.410156 0)"/>
      </g>
     </g>
    </g>
    <g id="xtick_3">
     <g id="line2d_5">
      <path d="M 273.893447 355 
L 273.893447 25.92 
" clip-path="url(#p0bf407bd59)" style="fill: none; stroke: #b0b0b0; stroke-opacity: 0.25; stroke-width: 0.8; stroke-linecap: square"/>
     </g>
     <g id="line2d_6">
      <g>
       <use xlink:href="#m2091e96a27" x="273.893447" y="355" style="stroke: #000000; stroke-width: 0.8"/>
      </g>
     </g>
     <g id="text_3">
      <!-- 0.4 -->
      <g transform="translate(265.941884 369.598437) scale(0.1 -0.1)">
       <defs>
        <path id="DejaVuSans-34" d="M 2419 4116 
L 825 1625 
L 2419 1625 
L 2419 4116 
z
M 2253 4666 
L 3047 4666 
L 3047 1625 
L 3713 1625 
L 3713 1100 
L 3047 1100 
L 3047 0 
L 2419 0 
L 2419 1100 
L 313 1100 
L 313 1709 
L 2253 4666 
z
" transform="scale(0.015625)"/>
       </defs>
       <use xlink:href="#DejaVuSans-30"/>
       <use xlink:href="#DejaVuSans-2e" transform="translate(63.623047 0)"/>
       <use xlink:href="#DejaVuSans-34" transform="translate(95.410156 0)"/>
      </g>
     </g>
    </g>
    <g id="xtick_4">
     <g id="line2d_7">
      <path d="M 386.92017 355 
L 386.92017 25.92 
" clip-path="url(#p0bf407bd59)" style="fill: none; stroke: #b0b0b0; stroke-opacity: 0.25; stroke-width: 0.8; stroke-linecap: square"/>
     </g>
     <g id="line2d_8">
      <g>
       <use xlink:href="#m2091e96a27" x="386.92017" y="355" style="stroke: #000000; stroke-width: 0.8"/>
      </g>
     </g>
     <g id="text_4">
      <!-- 0.6 -->
      <g transform="translate(378.968608 369.598437) scale(0.1 -0.1)">
       <defs>
        <path id="DejaVuSans-36" d="M 2113 2584 
Q 1688 2584 1439 2293 
Q 1191 2003 1191 1497 
Q 1191 994 1439 701 
Q 1688 409 2113 409 
Q 2538 409 2786 701 
Q 3034 994 3034 1497 
Q 3034 2003 2786 2293 
Q 2538 2584 2113 2584 
z
M 3366 4563 
L 3366 3988 
Q 3128 4100 2886 4159 
Q 2644 4219 2406 4219 
Q 1781 4219 1451 3797 
Q 1122 3375 1075 2522 
Q 1259 2794 1537 2939 
Q 1816 3084 2150 3084 
Q 2853 3084 3261 2657 
Q 3669 2231 3669 1497 
Q 3669 778 3244 343 
Q 2819 -91 2113 -91 
Q 1303 -91 875 529 
Q 447 1150 447 2328 
Q 447 3434 972 4092 
Q 1497 4750 2381 4750 
Q 2619 4750 2861 4703 
Q 3103 4656 3366 4563 
z
" transform="scale(0.015625)"/>
       </defs>
       <use xlink:href="#DejaVuSans-30"/>
       <use xlink:href="#DejaVuSans-2e" transform="translate(63.623047 0)"/>
       <use xlink:href="#DejaVuSans-36" transform="translate(95.410156 0)"/>
      </g>
     </g>
    </g>
    <g id="xtick_5">
     <g id="line2d_9">
      <path d="M 499.946894 355 
L 499.946894 25.92 
" clip-path="url(#p0bf407bd59)" style="fill: none; stroke: #b0b0b0; stroke-opacity: 0.25; stroke-width: 0.8; stroke-linecap: square"/>
     </g>
     <g id="line2d_10">
      <g>
       <use xlink:href="#m2091e96a27" x="499.946894" y="355" style="stroke: #000000; stroke-width: 0.8"/>
      </g>
     </g>
     <g id="text_5">
      <!-- 0.8 -->
      <g transform="translate(491.995331 369.598437) scale(0.1 -0.1)">
       <defs>
        <path id="DejaVuSans-38" d="M 2034 2216 
Q 1584 2216 1326 1975 
Q 1069 1734 1069 1313 
Q 1069 891 1326 650 
Q 1584 409 2034 409 
Q 2484 409 2743 651 
Q 3003 894 3003 1313 
Q 3003 1734 2745 1975 
Q 2488 2216 2034 2216 
z
M 1403 2484 
Q 997 2584 770 2862 
Q 544 3141 544 3541 
Q 544 4100 942 4425 
Q 1341 4750 2034 4750 
Q 2731 4750 3128 4425 
Q 3525 4100 3525 3541 
Q 3525 3141 3298 2862 
Q 3072 2584 2669 2484 
Q 3125 2378 3379 2068 
Q 3634 1759 3634 1313 
Q 3634 634 3220 271 
Q 2806 -91 2034 -91 
Q 1263 -91 848 271 
Q 434 634 434 1313 
Q 434 1759 690 2068 
Q 947 2378 1403 2484 
z
M 1172 3481 
Q 1172 3119 1398 2916 
Q 1625 2713 2034 2713 
Q 2441 2713 2670 2916 
Q 2900 3119 2900 3481 
Q 2900 3844 2670 4047 
Q 2441 4250 2034 4250 
Q 1625 4250 1398 4047 
Q 1172 3844 1172 3481 
z
" transform="scale(0.015625)"/>
       </defs>
       <use xlink:href="#DejaVuSans-30"/>
       <use xlink:href="#DejaVuSans-2e" transform="translate(63.623047 0)"/>
       <use xlink:href="#DejaVuSans-38" transform="translate(95.410156 0)"/>
      </g>
     </g>
    </g>
    <g id="text_6">
     <!-- fractional separation r/Lx -->
     <g transform="translate(261.580938 383.276562) scale(0.1 -0.1)">
      <defs>
       <path id="DejaVuSans-66" d="M 2375 4863 
L 2375 4384 
L 1825 4384 
Q 1516 4384 1395 4259 
Q 1275 4134 1275 3809 
L 1275 3500 
L 2222 3500 
L 2222 3053 
L 1275 3053 
L 1275 0 
L 697 0 
L 697 3053 
L 147 3053 
L 147 3500 
L 697 3500 
L 697 3744 
Q 697 4328 969 4595 
Q 1241 4863 1831 4863 
L 2375 4863 
z
" transform="scale(0.015625)"/>
       <path id="DejaVuSans-72" d="M 2631 2963 
Q 2534 3019 2420 3045 
Q 2306 3072 2169 3072 
Q 1681 3072 1420 2755 
Q 1159 2438 1159 1844 
L 1159 0 
L 581 0 
L 581 3500 
L 1159 3500 
L 1159 2956 
Q 1341 3275 1631 3429 
Q 1922 3584 2338 3584 
Q 2397 3584 2469 3576 
Q 2541 3569 2628 3553 
L 2631 2963 
z
" transform="scale(0.015625)"/>
       <path id="DejaVuSans-61" d="M 2194 1759 
Q 1497 1759 1228 1600 
Q 959 1441 959 1056 
Q 959 750 1161 570 
Q 1363 391 1709 391 
Q 2188 391 2477 730 
Q 2766 1069 2766 1631 
L 2766 1759 
L 2194 1759 
z
M 3341 1997 
L 3341 0 
L 2766 0 
L 2766 531 
Q 2569 213 2275 61 
Q 1981 -91 1556 -91 
Q 1019 -91 701 211 
Q 384 513 384 1019 
Q 384 1609 779 1909 
Q 1175 2209 1959 2209 
L 2766 2209 
L 2766 2266 
Q 2766 2663 2505 2880 
Q 2244 3097 1772 3097 
Q 1472 3097 1187 3025 
Q 903 2953 641 2809 
L 641 3341 
Q 956 3463 1253 3523 
Q 1550 3584 1831 3584 
Q 2591 3584 2966 3190 
Q 3341 2797 3341 1997 
z
" transform="scale(0.015625)"/>
       <path id="DejaVuSans-63" d="M 3122 3366 
L 3122 2828 
Q 2878 2963 2633 3030 
Q 2388 3097 2138 3097 
Q 1578 3097 1268 2742 
Q 959 2388 959 1747 
Q 959 1106 1268 751 
Q 1578 397 2138 397 
Q 2388 397 2633 464 
Q 2878 531 3122 666 
L 3122 134 
Q 2881 22 2623 -34 
Q 2366 -91 2075 -91 
Q 1284 -91 818 406 
Q 353 903 353 1747 
Q 353 2603 823 3093 
Q 1294 3584 2113 3584 
Q 2378 3584 2631 3529 
Q 2884 3475 3122 3366 
z
" transform="scale(0.015625)"/>
       <path id="DejaVuSans-74" d="M 1172 4494 
L 1172 3500 
L 2356 3500 
L 2356 3053 
L 1172 3053 
L 1172 1153 
Q 1172 725 1289 603 
Q 1406 481 1766 481 
L 2356 481 
L 2356 0 
L 1766 0 
Q 1100 0 847 248 
Q 594 497 594 1153 
L 594 3053 
L 172 3053 
L 172 3500 
L 594 3500 
L 594 4494 
L 1172 4494 
z
" transform="scale(0.015625)"/>
       <path id="DejaVuSans-69" d="M 603 3500 
L 1178 3500 
L 1178 0 
L 603 0 
L 603 3500 
z
M 603 4863 
L 1178 4863 
L 1178 4134 
L 603 4134 
L 603 4863 
z
" transform="scale(0.015625)"/>
       <path id="DejaVuSans-6f" d="M 1959 3097 
Q 1497 3097 1228 2736 
Q 959 2375 959 1747 
Q 959 1119 1226 758 
Q 1494 397 1959 397 
Q 2419 397 2687 759 
Q 2956 1122 2956 1747 
Q 2956 2369 2687 2733 
Q 2419 3097 1959 3097 
z
M 1959 3584 
Q 2709 3584 3137 3096 
Q 3566 2609 3566 1747 
Q 3566 888 3137 398 
Q 2709 -91 1959 -91 
Q 1206 -91 779 398 
Q 353 888 353 1747 
Q 353 2609 779 3096 
Q 1206 3584 1959 3584 
z
" transform="scale(0.015625)"/>
       <path id="DejaVuSans-6e" d="M 3513 2113 
L 3513 0 
L 2938 0 
L 2938 2094 
Q 2938 2591 2744 2837 
Q 2550 3084 2163 3084 
Q 1697 3084 1428 2787 
Q 1159 2491 1159 1978 
L 1159 0 
L 581 0 
L 581 3500 
L 1159 3500 
L 1159 2956 
Q 1366 3272 1645 3428 
Q 1925 3584 2291 3584 
Q 2894 3584 3203 3211 
Q 3513 2838 3513 2113 
z
" transform="scale(0.015625)"/>
       <path id="DejaVuSans-6c" d="M 603 4863 
L 1178 4863 
L 1178 0 
L 603 0 
L 603 4863 
z
" transform="scale(0.015625)"/>
       <path id="DejaVuSans-20" transform="scale(0.015625)"/>
       <path id="DejaVuSans-73" d="M 2834 3397 
L 2834 2853 
Q 2591 2978 2328 3040 
Q 2066 3103 1784 3103 
Q 1356 3103 1142 2972 
Q 928 2841 928 2578 
Q 928 2378 1081 2264 
Q 1234 2150 1697 2047 
L 1894 2003 
Q 2506 1872 2764 1633 
Q 3022 1394 3022 966 
Q 3022 478 2636 193 
Q 2250 -91 1575 -91 
Q 1294 -91 989 -36 
Q 684 19 347 128 
L 347 722 
Q 666 556 975 473 
Q 1284 391 1588 391 
Q 1994 391 2212 530 
Q 2431 669 2431 922 
Q 2431 1156 2273 1281 
Q 2116 1406 1581 1522 
L 1381 1569 
Q 847 1681 609 1914 
Q 372 2147 372 2553 
Q 372 3047 722 3315 
Q 1072 3584 1716 3584 
Q 2034 3584 2315 3537 
Q 2597 3491 2834 3397 
z
" transform="scale(0.015625)"/>
       <path id="DejaVuSans-65" d="M 3597 1894 
L 3597 1613 
L 953 1613 
Q 991 1019 1311 708 
Q 1631 397 2203 397 
Q 2534 397 2845 478 
Q 3156 559 3463 722 
L 3463 178 
Q 3153 47 2828 -22 
Q 2503 -91 2169 -91 
Q 1331 -91 842 396 
Q 353 884 353 1716 
Q 353 2575 817 3079 
Q 1281 3584 2069 3584 
Q 2775 3584 3186 3129 
Q 3597 2675 3597 1894 
z
M 3022 2063 
Q 3016 2534 2758 2815 
Q 2500 3097 2075 3097 
Q 1594 3097 1305 2825 
Q 1016 2553 972 2059 
L 3022 2063 
z
" transform="scale(0.015625)"/>
       <path id="DejaVuSans-70" d="M 1159 525 
L 1159 -1331 
L 581 -1331 
L 581 3500 
L 1159 3500 
L 1159 2969 
Q 1341 3281 1617 3432 
Q 1894 3584 2278 3584 
Q 2916 3584 3314 3078 
Q 3713 2572 3713 1747 
Q 3713 922 3314 415 
Q 2916 -91 2278 -91 
Q 1894 -91 1617 61 
Q 1341 213 1159 525 
z
M 3116 1747 
Q 3116 2381 2855 2742 
Q 2594 3103 2138 3103 
Q 1681 3103 1420 2742 
Q 1159 2381 1159 1747 
Q 1159 1113 1420 752 
Q 1681 391 2138 391 
Q 2594 391 2855 752 
Q 3116 1113 3116 1747 
z
" transform="scale(0.015625)"/>
       <path id="DejaVuSans-2f" d="M 1625 4666 
L 2156 4666 
L 531 -594 
L 0 -594 
L 1625 4666 
z
" transform="scale(0.015625)"/>
       <path id="DejaVuSans-4c" d="M 628 4666 
L 1259 4666 
L 1259 531 
L 3531 531 
L 3531 0 
L 628 0 
L 628 4666 
z
" transform="scale(0.015625)"/>
       <path id="DejaVuSans-78" d="M 3513 3500 
L 2247 1797 
L 3578 0 
L 2900 0 
L 1881 1375 
L 863 0 
L 184 0 
L 1544 1831 
L 300 3500 
L 978 3500 
L 1906 2253 
L 2834 3500 
L 3513 3500 
z
" transform="scale(0.015625)"/>
      </defs>
      <use xlink:href="#DejaVuSans-66"/>
      <use xlink:href="#DejaVuSans-72" transform="translate(35.205078 0)"/>
      <use xlink:href="#DejaVuSans-61" transform="translate(76.318359 0)"/>
      <use xlink:href="#DejaVuSans-63" transform="translate(137.597656 0)"/>
      <use xlink:href="#DejaVuSans-74" transform="translate(192.578125 0)"/>
      <use xlink:href="#DejaVuSans-69" transform="translate(231.787109 0)"/>
      <use xlink:href="#DejaVuSans-6f" transform="translate(259.570312 0)"/>
      <use xlink:href="#DejaVuSans-6e" transform="translate(320.751953 0)"/>
      <use xlink:href="#DejaVuSans-61" transform="translate(384.130859 0)"/>
      <use xlink:href="#DejaVuSans-6c" transform="translate(445.410156 0)"/>
      <use xlink:href="#DejaVuSans-20" transform="translate(473.193359 0)"/>
      <use xlink:href="#DejaVuSans-73" transform="translate(504.980469 0)"/>
      <use xlink:href="#DejaVuSans-65" transform="translate(557.080078 0)"/>
      <use xlink:href="#DejaVuSans-70" transform="translate(618.603516 0)"/>
      <use xlink:href="#DejaVuSans-61" transform="translate(682.080078 0)"/>
      <use xlink:href="#DejaVuSans-72" transform="translate(743.359375 0)"/>
      <use xlink:href="#DejaVuSans-61" transform="translate(784.472656 0)"/>
      <use xlink:href="#DejaVuSans-74" transform="translate(845.751953 0)"/>
      <use xlink:href="#DejaVuSans-69" transform="translate(884.960938 0)"/>
      <use xlink:href="#DejaVuSans-6f" transform="translate(912.744141 0)"/>
      <use xlink:href="#DejaVuSans-6e" transform="translate(973.925781 0)"/>
      <use xlink:href="#DejaVuSans-20" transform="translate(1037.304688 0)"/>
      <use xlink:href="#DejaVuSans-72" transform="translate(1069.091797 0)"/>
      <use xlink:href="#DejaVuSans-2f" transform="translate(1110.205078 0)"/>
      <use xlink:href="#DejaVuSans-4c" transform="translate(1143.896484 0)"/>
      <use xlink:href="#DejaVuSans-78" transform="translate(1199.609375 0)"/>
     </g>
    </g>
   </g>
   <g id="matplotlib.axis_2">
    <g id="ytick_1">
     <g id="line2d_11">
      <path d="M 47.84 321.873339 
L 601.2 321.873339 
" clip-path="url(#p0bf407bd59)" style="fill: none; stroke: #b0b0b0; stroke-opacity: 0.25; stroke-width: 0.8; stroke-linecap: square"/>
     </g>
     <g id="line2d_12">
      <defs>
       <path id="mbef405e229" d="M 0 0 
L -3.5 0 
" style="stroke: #000000; stroke-width: 0.8"/>
      </defs>
      <g>
       <use xlink:href="#mbef405e229" x="47.84" y="321.873339" style="stroke: #000000; stroke-width: 0.8"/>
      </g>
     </g>
     <g id="text_7">
      <!-- 0.4 -->
      <g transform="translate(24.936875 325.672558) scale(0.1 -0.1)">
       <use xlink:href="#DejaVuSans-30"/>
       <use xlink:href="#DejaVuSans-2e" transform="translate(63.623047 0)"/>
       <use xlink:href="#DejaVuSans-34" transform="translate(95.410156 0)"/>
      </g>
     </g>
    </g>
    <g id="ytick_2">
     <g id="line2d_13">
      <path d="M 47.84 275.040813 
L 601.2 275.040813 
" clip-path="url(#p0bf407bd59)" style="fill: none; stroke: #b0b0b0; stroke-opacity: 0.25; stroke-width: 0.8; stroke-linecap: square"/>
     </g>
     <g id="line2d_14">
      <g>
       <use xlink:href="#mbef405e229" x="47.84" y="275.040813" style="stroke: #000000; stroke-width: 0.8"/>
      </g>
     </g>
     <g id="text_8">
      <!-- 0.5 -->
      <g transform="translate(24.936875 278.840032) scale(0.1 -0.1)">
       <defs>
        <path id="DejaVuSans-35" d="M 691 4666 
L 3169 4666 
L 3169 4134 
L 1269 4134 
L 1269 2991 
Q 1406 3038 1543 3061 
Q 1681 3084 1819 3084 
Q 2600 3084 3056 2656 
Q 3513 2228 3513 1497 
Q 3513 744 3044 326 
Q 2575 -91 1722 -91 
Q 1428 -91 1123 -41 
Q 819 9 494 109 
L 494 744 
Q 775 591 1075 516 
Q 1375 441 1709 441 
Q 2250 441 2565 725 
Q 2881 1009 2881 1497 
Q 2881 1984 2565 2268 
Q 2250 2553 1709 2553 
Q 1456 2553 1204 2497 
Q 953 2441 691 2322 
L 691 4666 
z
" transform="scale(0.015625)"/>
       </defs>
       <use xlink:href="#DejaVuSans-30"/>
       <use xlink:href="#DejaVuSans-2e" transform="translate(63.623047 0)"/>
       <use xlink:href="#DejaVuSans-35" transform="translate(95.410156 0)"/>
      </g>
     </g>
    </g>
    <g id="ytick_3">
     <g id="line2d_15">
      <path d="M 47.84 228.208287 
L 601.2 228.208287 
" clip-path="url(#p0bf407bd59)" style="fill: none; stroke: #b0b0b0; stroke-opacity: 0.25; stroke-width: 0.8; stroke-linecap: square"/>
     </g>
     <g id="line2d_16">
      <g>
       <use xlink:href="#mbef405e229" x="47.84" y="228.208287" style="stroke: #000000; stroke-width: 0.8"/>
      </g>
     </g>
     <g id="text_9">
      <!-- 0.6 -->
      <g transform="translate(24.936875 232.007505) scale(0.1 -0.1)">
       <use xlink:href="#DejaVuSans-30"/>
       <use xlink:href="#DejaVuSans-2e" transform="translate(63.623047 0)"/>
       <use xlink:href="#DejaVuSans-36" transform="translate(95.410156 0)"/>
      </g>
     </g>
    </g>
    <g id="ytick_4">
     <g id="line2d_17">
      <path d="M 47.84 181.375761 
L 601.2 181.375761 
" clip-path="url(#p0bf407bd59)" style="fill: none; stroke: #b0b0b0; stroke-opacity: 0.25; stroke-width: 0.8; stroke-linecap: square"/>
     </g>
     <g id="line2d_18">
      <g>
       <use xlink:href="#mbef405e229" x="47.84" y="181.375761" style="stroke: #000000; stroke-width: 0.8"/>
      </g>
     </g>
     <g id="text_10">
      <!-- 0.7 -->
      <g transform="translate(24.936875 185.174979) scale(0.1 -0.1)">
       <defs>
        <path id="DejaVuSans-37" d="M 525 4666 
L 3525 4666 
L 3525 4397 
L 1831 0 
L 1172 0 
L 2766 4134 
L 525 4134 
L 525 4666 
z
" transform="scale(0.015625)"/>
       </defs>
       <use xlink:href="#DejaVuSans-30"/>
       <use xlink:href="#DejaVuSans-2e" transform="translate(63.623047 0)"/>
       <use xlink:href="#DejaVuSans-37" transform="translate(95.410156 0)"/>
      </g>
     </g>
    </g>
    <g id="ytick_5">
     <g id="line2d_19">
      <path d="M 47.84 134.543234 
L 601.2 134.543234 
" clip-path="url(#p0bf407bd59)" style="fill: none; stroke: #b0b0b0; stroke-opacity: 0.25; stroke-width: 0.8; stroke-linecap: square"/>
     </g>
     <g id="line2d_20">
      <g>
       <use xlink:href="#mbef405e229" x="47.84" y="134.543234" style="stroke: #000000; stroke-width: 0.8"/>
      </g>
     </g>
     <g id="text_11">
      <!-- 0.8 -->
      <g transform="translate(24.936875 138.342453) scale(0.1 -0.1)">
       <use xlink:href="#DejaVuSans-30"/>
       <use xlink:href="#DejaVuSans-2e" transform="translate(63.623047 0)"/>
       <use xlink:href="#DejaVuSans-38" transform="translate(95.410156 0)"/>
      </g>
     </g>
    </g>
    <g id="ytick_6">
     <g id="line2d_21">
      <path d="M 47.84 87.710708 
L 601.2 87.710708 
" clip-path="url(#p0bf407bd59)" style="fill: none; stroke: #b0b0b0; stroke-opacity: 0.25; stroke-width: 0.8; stroke-linecap: square"/>
     </g>
     <g id="line2d_22">
      <g>
       <use xlink:href="#mbef405e229" x="47.84" y="87.710708" style="stroke: #000000; stroke-width: 0.8"/>
      </g>
     </g>
     <g id="text_12">
      <!-- 0.9 -->
      <g transform="translate(24.936875 91.509927) scale(0.1 -0.1)">
       <defs>
        <path id="DejaVuSans-39" d="M 703 97 
L 703 672 
Q 941 559 1184 500 
Q 1428 441 1663 441 
Q 2288 441 2617 861 
Q 2947 1281 2994 2138 
Q 2813 1869 2534 1725 
Q 2256 1581 1919 1581 
Q 1219 1581 811 2004 
Q 403 2428 403 3163 
Q 403 3881 828 4315 
Q 1253 4750 1959 4750 
Q 2769 4750 3195 4129 
Q 3622 3509 3622 2328 
Q 3622 1225 3098 567 
Q 2575 -91 1691 -91 
Q 1453 -91 1209 -44 
Q 966 3 703 97 
z
M 1959 2075 
Q 2384 2075 2632 2365 
Q 2881 2656 2881 3163 
Q 2881 3666 2632 3958 
Q 2384 4250 1959 4250 
Q 1534 4250 1286 3958 
Q 1038 3666 1038 3163 
Q 1038 2656 1286 2365 
Q 1534 2075 1959 2075 
z
" transform="scale(0.015625)"/>
       </defs>
       <use xlink:href="#DejaVuSans-30"/>
       <use xlink:href="#DejaVuSans-2e" transform="translate(63.623047 0)"/>
       <use xlink:href="#DejaVuSans-39" transform="translate(95.410156 0)"/>
      </g>
     </g>
    </g>
    <g id="ytick_7">
     <g id="line2d_23">
      <path d="M 47.84 40.878182 
L 601.2 40.878182 
" clip-path="url(#p0bf407bd59)" style="fill: none; stroke: #b0b0b0; stroke-opacity: 0.25; stroke-width: 0.8; stroke-linecap: square"/>
     </g>
     <g id="line2d_24">
      <g>
       <use xlink:href="#mbef405e229" x="47.84" y="40.878182" style="stroke: #000000; stroke-width: 0.8"/>
      </g>
     </g>
     <g id="text_13">
      <!-- 1.0 -->
      <g transform="translate(24.936875 44.677401) scale(0.1 -0.1)">
       <defs>
        <path id="DejaVuSans-31" d="M 794 531 
L 1825 531 
L 1825 4091 
L 703 3866 
L 703 4441 
L 1819 4666 
L 2450 4666 
L 2450 531 
L 3481 531 
L 3481 0 
L 794 0 
L 794 531 
z
" transform="scale(0.015625)"/>
       </defs>
       <use xlink:href="#DejaVuSans-31"/>
       <use xlink:href="#DejaVuSans-2e" transform="translate(63.623047 0)"/>
       <use xlink:href="#DejaVuSans-30" transform="translate(95.410156 0)"/>
      </g>
     </g>
    </g>
    <g id="text_14">
     <!-- C_{x+y}(r) -->
     <g transform="translate(18.579063 218.879531) rotate(-90) scale(0.1 -0.1)">
      <defs>
       <path id="DejaVuSans-43" d="M 4122 4306 
L 4122 3641 
Q 3803 3938 3442 4084 
Q 3081 4231 2675 4231 
Q 1875 4231 1450 3742 
Q 1025 3253 1025 2328 
Q 1025 1406 1450 917 
Q 1875 428 2675 428 
Q 3081 428 3442 575 
Q 3803 722 4122 1019 
L 4122 359 
Q 3791 134 3420 21 
Q 3050 -91 2638 -91 
Q 1578 -91 968 557 
Q 359 1206 359 2328 
Q 359 3453 968 4101 
Q 1578 4750 2638 4750 
Q 3056 4750 3426 4639 
Q 3797 4528 4122 4306 
z
" transform="scale(0.015625)"/>
       <path id="DejaVuSans-5f" d="M 3263 -1063 
L 3263 -1509 
L -63 -1509 
L -63 -1063 
L 3263 -1063 
z
" transform="scale(0.015625)"/>
       <path id="DejaVuSans-7b" d="M 3272 -594 
L 3272 -1044 
L 3078 -1044 
Q 2300 -1044 2036 -812 
Q 1772 -581 1772 109 
L 1772 856 
Q 1772 1328 1603 1509 
Q 1434 1691 991 1691 
L 800 1691 
L 800 2138 
L 991 2138 
Q 1438 2138 1605 2317 
Q 1772 2497 1772 2963 
L 1772 3713 
Q 1772 4403 2036 4633 
Q 2300 4863 3078 4863 
L 3272 4863 
L 3272 4416 
L 3059 4416 
Q 2619 4416 2484 4278 
Q 2350 4141 2350 3700 
L 2350 2925 
Q 2350 2434 2208 2212 
Q 2066 1991 1722 1913 
Q 2069 1828 2209 1606 
Q 2350 1384 2350 897 
L 2350 122 
Q 2350 -319 2484 -456 
Q 2619 -594 3059 -594 
L 3272 -594 
z
" transform="scale(0.015625)"/>
       <path id="DejaVuSans-2b" d="M 2944 4013 
L 2944 2272 
L 4684 2272 
L 4684 1741 
L 2944 1741 
L 2944 0 
L 2419 0 
L 2419 1741 
L 678 1741 
L 678 2272 
L 2419 2272 
L 2419 4013 
L 2944 4013 
z
" transform="scale(0.015625)"/>
       <path id="DejaVuSans-79" d="M 2059 -325 
Q 1816 -950 1584 -1140 
Q 1353 -1331 966 -1331 
L 506 -1331 
L 506 -850 
L 844 -850 
Q 1081 -850 1212 -737 
Q 1344 -625 1503 -206 
L 1606 56 
L 191 3500 
L 800 3500 
L 1894 763 
L 2988 3500 
L 3597 3500 
L 2059 -325 
z
" transform="scale(0.015625)"/>
       <path id="DejaVuSans-7d" d="M 800 -594 
L 1019 -594 
Q 1456 -594 1589 -459 
Q 1722 -325 1722 122 
L 1722 897 
Q 1722 1384 1862 1606 
Q 2003 1828 2350 1913 
Q 2003 1991 1862 2212 
Q 1722 2434 1722 2925 
L 1722 3700 
Q 1722 4144 1589 4280 
Q 1456 4416 1019 4416 
L 800 4416 
L 800 4863 
L 997 4863 
Q 1775 4863 2036 4633 
Q 2297 4403 2297 3713 
L 2297 2963 
Q 2297 2497 2465 2317 
Q 2634 2138 3078 2138 
L 3272 2138 
L 3272 1691 
L 3078 1691 
Q 2634 1691 2465 1509 
Q 2297 1328 2297 856 
L 2297 109 
Q 2297 -581 2036 -812 
Q 1775 -1044 997 -1044 
L 800 -1044 
L 800 -594 
z
" transform="scale(0.015625)"/>
       <path id="DejaVuSans-28" d="M 1984 4856 
Q 1566 4138 1362 3434 
Q 1159 2731 1159 2009 
Q 1159 1288 1364 580 
Q 1569 -128 1984 -844 
L 1484 -844 
Q 1016 -109 783 600 
Q 550 1309 550 2009 
Q 550 2706 781 3412 
Q 1013 4119 1484 4856 
L 1984 4856 
z
" transform="scale(0.015625)"/>
       <path id="DejaVuSans-29" d="M 513 4856 
L 1013 4856 
Q 1481 4119 1714 3412 
Q 1947 2706 1947 2009 
Q 1947 1309 1714 600 
Q 1481 -109 1013 -844 
L 513 -844 
Q 928 -128 1133 580 
Q 1338 1288 1338 2009 
Q 1338 2731 1133 3434 
Q 928 4138 513 4856 
z
" transform="scale(0.015625)"/>
      </defs>
      <use xlink:href="#DejaVuSans-43"/>
      <use xlink:href="#DejaVuSans-5f" transform="translate(69.824219 0)"/>
      <use xlink:href="#DejaVuSans-7b" transform="translate(119.824219 0)"/>
      <use xlink:href="#DejaVuSans-78" transform="translate(183.447266 0)"/>
      <use xlink:href="#DejaVuSans-2b" transform="translate(242.626953 0)"/>
      <use xlink:href="#DejaVuSans-79" transform="translate(326.416016 0)"/>
      <use xlink:href="#DejaVuSans-7d" transform="translate(385.595703 0)"/>
      <use xlink:href="#DejaVuSans-28" transform="translate(449.21875 0)"/>
      <use xlink:href="#DejaVuSans-72" transform="translate(488.232422 0)"/>
      <use xlink:href="#DejaVuSans-29" transform="translate(529.345703 0)"/>
     </g>
    </g>
   </g>
   <g id="LineCollection_1">
    <path d="M 47.84 40.878182 
L 47.84 40.878182 
" clip-path="url(#p0bf407bd59)" style="fill: none; stroke: #1f77b4; stroke-width: 1.4"/>
    <path d="M 59.613617 234.854912 
L 59.613617 233.932766 
" clip-path="url(#p0bf407bd59)" style="fill: none; stroke: #1f77b4; stroke-width: 1.4"/>
    <path d="M 71.387234 274.447426 
L 71.387234 273.031092 
" clip-path="url(#p0bf407bd59)" style="fill: none; stroke: #1f77b4; stroke-width: 1.4"/>
    <path d="M 83.160851 294.06601 
L 83.160851 292.271796 
" clip-path="url(#p0bf407bd59)" style="fill: none; stroke: #1f77b4; stroke-width: 1.4"/>
    <path d="M 94.934468 306.325451 
L 94.934468 304.22965 
" clip-path="url(#p0bf407bd59)" style="fill: none; stroke: #1f77b4; stroke-width: 1.4"/>
    <path d="M 106.708085 314.711676 
L 106.708085 312.360672 
" clip-path="url(#p0bf407bd59)" style="fill: none; stroke: #1f77b4; stroke-width: 1.4"/>
    <path d="M 118.481702 320.517789 
L 118.481702 317.947058 
" clip-path="url(#p0bf407bd59)" style="fill: none; stroke: #1f77b4; stroke-width: 1.4"/>
    <path d="M 130.255319 325.128394 
L 130.255319 322.375619 
" clip-path="url(#p0bf407bd59)" style="fill: none; stroke: #1f77b4; stroke-width: 1.4"/>
    <path d="M 142.028936 328.704823 
L 142.028936 325.795286 
" clip-path="url(#p0bf407bd59)" style="fill: none; stroke: #1f77b4; stroke-width: 1.4"/>
    <path d="M 153.802553 331.625815 
L 153.802553 328.571764 
" clip-path="url(#p0bf407bd59)" style="fill: none; stroke: #1f77b4; stroke-width: 1.4"/>
    <path d="M 165.57617 333.911064 
L 165.57617 330.737557 
" clip-path="url(#p0bf407bd59)" style="fill: none; stroke: #1f77b4; stroke-width: 1.4"/>
    <path d="M 177.349787 335.664201 
L 177.349787 332.401242 
" clip-path="url(#p0bf407bd59)" style="fill: none; stroke: #1f77b4; stroke-width: 1.4"/>
    <path d="M 189.123404 336.692349 
L 189.123404 333.362501 
" clip-path="url(#p0bf407bd59)" style="fill: none; stroke: #1f77b4; stroke-width: 1.4"/>
    <path d="M 200.897021 337.600264 
L 200.897021 334.219099 
" clip-path="url(#p0bf407bd59)" style="fill: none; stroke: #1f77b4; stroke-width: 1.4"/>
    <path d="M 212.670638 338.12754 
L 212.670638 334.71726 
" clip-path="url(#p0bf407bd59)" style="fill: none; stroke: #1f77b4; stroke-width: 1.4"/>
    <path d="M 224.444255 338.611075 
L 224.444255 335.174767 
" clip-path="url(#p0bf407bd59)" style="fill: none; stroke: #1f77b4; stroke-width: 1.4"/>
    <path d="M 236.217872 338.682184 
L 236.217872 335.241716 
" clip-path="url(#p0bf407bd59)" style="fill: none; stroke: #1f77b4; stroke-width: 1.4"/>
    <path d="M 247.991489 338.715765 
L 247.991489 335.267163 
" clip-path="url(#p0bf407bd59)" style="fill: none; stroke: #1f77b4; stroke-width: 1.4"/>
    <path d="M 259.765106 338.687647 
L 259.765106 335.248449 
" clip-path="url(#p0bf407bd59)" style="fill: none; stroke: #1f77b4; stroke-width: 1.4"/>
    <path d="M 271.538723 338.659456 
L 271.538723 335.233222 
" clip-path="url(#p0bf407bd59)" style="fill: none; stroke: #1f77b4; stroke-width: 1.4"/>
    <path d="M 283.31234 338.634471 
L 283.31234 335.220643 
" clip-path="url(#p0bf407bd59)" style="fill: none; stroke: #1f77b4; stroke-width: 1.4"/>
    <path d="M 295.085957 338.518108 
L 295.085957 335.118454 
" clip-path="url(#p0bf407bd59)" style="fill: none; stroke: #1f77b4; stroke-width: 1.4"/>
    <path d="M 306.859574 338.171354 
L 306.859574 334.786136 
" clip-path="url(#p0bf407bd59)" style="fill: none; stroke: #1f77b4; stroke-width: 1.4"/>
    <path d="M 318.633191 337.734185 
L 318.633191 334.360319 
" clip-path="url(#p0bf407bd59)" style="fill: none; stroke: #1f77b4; stroke-width: 1.4"/>
    <path d="M 330.406809 337.439949 
L 330.406809 334.076466 
" clip-path="url(#p0bf407bd59)" style="fill: none; stroke: #1f77b4; stroke-width: 1.4"/>
    <path d="M 342.180426 337.497571 
L 342.180426 334.135926 
" clip-path="url(#p0bf407bd59)" style="fill: none; stroke: #1f77b4; stroke-width: 1.4"/>
    <path d="M 353.954043 337.351324 
L 353.954043 333.971419 
" clip-path="url(#p0bf407bd59)" style="fill: none; stroke: #1f77b4; stroke-width: 1.4"/>
    <path d="M 365.72766 337.095688 
L 365.72766 333.709458 
" clip-path="url(#p0bf407bd59)" style="fill: none; stroke: #1f77b4; stroke-width: 1.4"/>
    <path d="M 377.501277 337.242764 
L 377.501277 333.843865 
" clip-path="url(#p0bf407bd59)" style="fill: none; stroke: #1f77b4; stroke-width: 1.4"/>
    <path d="M 389.274894 337.262291 
L 389.274894 333.85995 
" clip-path="url(#p0bf407bd59)" style="fill: none; stroke: #1f77b4; stroke-width: 1.4"/>
    <path d="M 401.048511 337.580635 
L 401.048511 334.162137 
" clip-path="url(#p0bf407bd59)" style="fill: none; stroke: #1f77b4; stroke-width: 1.4"/>
    <path d="M 412.822128 338.150612 
L 412.822128 334.712726 
" clip-path="url(#p0bf407bd59)" style="fill: none; stroke: #1f77b4; stroke-width: 1.4"/>
    <path d="M 424.595745 338.929714 
L 424.595745 335.487391 
" clip-path="url(#p0bf407bd59)" style="fill: none; stroke: #1f77b4; stroke-width: 1.4"/>
    <path d="M 436.369362 339.21406 
L 436.369362 335.757717 
" clip-path="url(#p0bf407bd59)" style="fill: none; stroke: #1f77b4; stroke-width: 1.4"/>
    <path d="M 448.142979 339.493225 
L 448.142979 336.019078 
" clip-path="url(#p0bf407bd59)" style="fill: none; stroke: #1f77b4; stroke-width: 1.4"/>
    <path d="M 459.916596 339.620469 
L 459.916596 336.137217 
" clip-path="url(#p0bf407bd59)" style="fill: none; stroke: #1f77b4; stroke-width: 1.4"/>
    <path d="M 471.690213 339.653607 
L 471.690213 336.151399 
" clip-path="url(#p0bf407bd59)" style="fill: none; stroke: #1f77b4; stroke-width: 1.4"/>
    <path d="M 483.46383 339.678734 
L 483.46383 336.161884 
" clip-path="url(#p0bf407bd59)" style="fill: none; stroke: #1f77b4; stroke-width: 1.4"/>
    <path d="M 495.237447 339.739524 
L 495.237447 336.21037 
" clip-path="url(#p0bf407bd59)" style="fill: none; stroke: #1f77b4; stroke-width: 1.4"/>
    <path d="M 507.011064 339.887668 
L 507.011064 336.347124 
" clip-path="url(#p0bf407bd59)" style="fill: none; stroke: #1f77b4; stroke-width: 1.4"/>
    <path d="M 518.784681 340.041818 
L 518.784681 336.498849 
" clip-path="url(#p0bf407bd59)" style="fill: none; stroke: #1f77b4; stroke-width: 1.4"/>
    <path d="M 530.558298 339.914348 
L 530.558298 336.392156 
" clip-path="url(#p0bf407bd59)" style="fill: none; stroke: #1f77b4; stroke-width: 1.4"/>
    <path d="M 542.331915 339.472028 
L 542.331915 335.974905 
" clip-path="url(#p0bf407bd59)" style="fill: none; stroke: #1f77b4; stroke-width: 1.4"/>
    <path d="M 554.105532 338.795846 
L 554.105532 335.342215 
" clip-path="url(#p0bf407bd59)" style="fill: none; stroke: #1f77b4; stroke-width: 1.4"/>
    <path d="M 565.879149 337.899155 
L 565.879149 334.510493 
" clip-path="url(#p0bf407bd59)" style="fill: none; stroke: #1f77b4; stroke-width: 1.4"/>
    <path d="M 577.652766 336.563026 
L 577.652766 333.246441 
" clip-path="url(#p0bf407bd59)" style="fill: none; stroke: #1f77b4; stroke-width: 1.4"/>
    <path d="M 589.426383 335.032173 
L 589.426383 331.80538 
" clip-path="url(#p0bf407bd59)" style="fill: none; stroke: #1f77b4; stroke-width: 1.4"/>
    <path d="M 601.2 333.202032 
L 601.2 330.079664 
" clip-path="url(#p0bf407bd59)" style="fill: none; stroke: #1f77b4; stroke-width: 1.4"/>
   </g>
   <g id="line2d_25">
    <defs>
     <path id="m6dc3193f2d" d="M 2 0 
L -2 -0 
" style="stroke: #1f77b4"/>
    </defs>
    <g clip-path="url(#p0bf407bd59)">
     <use xlink:href="#m6dc3193f2d" x="47.84" y="40.878182" style="fill: #1f77b4; stroke: #1f77b4"/>
     <use xlink:href="#m6dc3193f2d" x="59.613617" y="234.854912" style="fill: #1f77b4; stroke: #1f77b4"/>
     <use xlink:href="#m6dc3193f2d" x="71.387234" y="274.447426" style="fill: #1f77b4; stroke: #1f77b4"/>
     <use xlink:href="#m6dc3193f2d" x="83.160851" y="294.06601" style="fill: #1f77b4; stroke: #1f77b4"/>
     <use xlink:href="#m6dc3193f2d" x="94.934468" y="306.325451" style="fill: #1f77b4; stroke: #1f77b4"/>
     <use xlink:href="#m6dc3193f2d" x="106.708085" y="314.711676" style="fill: #1f77b4; stroke: #1f77b4"/>
     <use xlink:href="#m6dc3193f2d" x="118.481702" y="320.517789" style="fill: #1f77b4; stroke: #1f77b4"/>
     <use xlink:href="#m6dc3193f2d" x="130.255319" y="325.128394" style="fill: #1f77b4; stroke: #1f77b4"/>
     <use xlink:href="#m6dc3193f2d" x="142.028936" y="328.704823" style="fill: #1f77b4; stroke: #1f77b4"/>
     <use xlink:href="#m6dc3193f2d" x="153.802553" y="331.625815" style="fill: #1f77b4; stroke: #1f77b4"/>
     <use xlink:href="#m6dc3193f2d" x="165.57617" y="333.911064" style="fill: #1f77b4; stroke: #1f77b4"/>
     <use xlink:href="#m6dc3193f2d" x="177.349787" y="335.664201" style="fill: #1f77b4; stroke: #1f77b4"/>
     <use xlink:href="#m6dc3193f2d" x="189.123404" y="336.692349" style="fill: #1f77b4; stroke: #1f77b4"/>
     <use xlink:href="#m6dc3193f2d" x="200.897021" y="337.600264" style="fill: #1f77b4; stroke: #1f77b4"/>
     <use xlink:href="#m6dc3193f2d" x="212.670638" y="338.12754" style="fill: #1f77b4; stroke: #1f77b4"/>
     <use xlink:href="#m6dc3193f2d" x="224.444255" y="338.611075" style="fill: #1f77b4; stroke: #1f77b4"/>
     <use xlink:href="#m6dc3193f2d" x="236.217872" y="338.682184" style="fill: #1f77b4; stroke: #1f77b4"/>
     <use xlink:href="#m6dc3193f2d" x="247.991489" y="338.715765" style="fill: #1f77b4; stroke: #1f77b4"/>
     <use xlink:href="#m6dc3193f2d" x="259.765106" y="338.687647" style="fill: #1f77b4; stroke: #1f77b4"/>
     <use xlink:href="#m6dc3193f2d" x="271.538723" y="338.659456" style="fill: #1f77b4; stroke: #1f77b4"/>
     <use xlink:href="#m6dc3193f2d" x="283.31234" y="338.634471" style="fill: #1f77b4; stroke: #1f77b4"/>
     <use xlink:href="#m6dc3193f2d" x="295.085957" y="338.518108" style="fill: #1f77b4; stroke: #1f77b4"/>
     <use xlink:href="#m6dc3193f2d" x="306.859574" y="338.171354" style="fill: #1f77b4; stroke: #1f77b4"/>
     <use xlink:href="#m6dc3193f2d" x="318.633191" y="337.734185" style="fill: #1f77b4; stroke: #1f77b4"/>
     <use xlink:href="#m6dc3193f2d" x="330.406809" y="337.439949" style="fill: #1f77b4; stroke: #1f77b4"/>
     <use xlink:href="#m6dc3193f2d" x="342.180426" y="337.497571" style="fill: #1f77b4; stroke: #1f77b4"/>
     <use xlink:href="#m6dc3193f2d" x="353.954043" y="337.351324" style="fill: #1f77b4; stroke: #1f77b4"/>
     <use xlink:href="#m6dc3193f2d" x="365.72766" y="337.095688" style="fill: #1f77b4; stroke: #1f77b4"/>
     <use xlink:href="#m6dc3193f2d" x="377.501277" y="337.242764" style="fill: #1f77b4; stroke: #1f77b4"/>
     <use xlink:href="#m6dc3193f2d" x="389.274894" y="337.262291" style="fill: #1f77b4; stroke: #1f77b4"/>
     <use xlink:href="#m6dc3193f2d" x="401.048511" y="337.580635" style="fill: #1f77b4; stroke: #1f77b4"/>
     <use xlink:href="#m6dc3193f2d" x="412.822128" y="338.150612" style="fill: #1f77b4; stroke: #1f77b4"/>
     <use xlink:href="#m6dc3193f2d" x="424.595745" y="338.929714" style="fill: #1f77b4; stroke: #1f77b4"/>
     <use xlink:href="#m6dc3193f2d" x="436.369362" y="339.21406" style="fill: #1f77b4; stroke: #1f77b4"/>
     <use xlink:href="#m6dc3193f2d" x="448.142979" y="339.493225" style="fill: #1f77b4; stroke: #1f77b4"/>
     <use xlink:href="#m6dc3193f2d" x="459.916596" y="339.620469" style="fill: #1f77b4; stroke: #1f77b4"/>
     <use xlink:href="#m6dc3193f2d" x="471.690213" y="339.653607" style="fill: #1f77b4; stroke: #1f77b4"/>
     <use xlink:href="#m6dc3193f2d" x="483.46383" y="339.678734" style="fill: #1f77b4; stroke: #1f77b4"/>
     <use xlink:href="#m6dc3193f2d" x="495.237447" y="339.739524" style="fill: #1f77b4; stroke: #1f77b4"/>
     <use xlink:href="#m6dc3193f2d" x="507.011064" y="339.887668" style="fill: #1f77b4; stroke: #1f77b4"/>
     <use xlink:href="#m6dc3193f2d" x="518.784681" y="340.041818" style="fill: #1f77b4; stroke: #1f77b4"/>
     <use xlink:href="#m6dc3193f2d" x="530.558298" y="339.914348" style="fill: #1f77b4; stroke: #1f77b4"/>
     <use xlink:href="#m6dc3193f2d" x="542.331915" y="339.472028" style="fill: #1f77b4; stroke: #1f77b4"/>
     <use xlink:href="#m6dc3193f2d" x="554.105532" y="338.795846" style="fill: #1f77b4; stroke: #1f77b4"/>
     <use xlink:href="#m6dc3193f2d" x="565.879149" y="337.899155" style="fill: #1f77b4; stroke: #1f77b4"/>
     <use xlink:href="#m6dc3193f2d" x="577.652766" y="336.563026" style="fill: #1f77b4; stroke: #1f77b4"/>
     <use xlink:href="#m6dc3193f2d" x="589.426383" y="335.032173" style="fill: #1f77b4; stroke: #1f77b4"/>
     <use xlink:href="#m6dc3193f2d" x="601.2" y="333.202032" style="fill: #1f77b4; stroke: #1f77b4"/>
    </g>
   </g>
   <g id="line2d_26">
    <g clip-path="url(#p0bf407bd59)">
     <use xlink:href="#m6dc3193f2d" x="47.84" y="40.878182" style="fill: #1f77b4; stroke: #1f77b4"/>
     <use xlink:href="#m6dc3193f2d" x="59.613617" y="233.932766" style="fill: #1f77b4; stroke: #1f77b4"/>
     <use xlink:href="#m6dc3193f2d" x="71.387234" y="273.031092" style="fill: #1f77b4; stroke: #1f77b4"/>
     <use xlink:href="#m6dc3193f2d" x="83.160851" y="292.271796" style="fill: #1f77b4; stroke: #1f77b4"/>
     <use xlink:href="#m6dc3193f2d" x="94.934468" y="304.22965" style="fill: #1f77b4; stroke: #1f77b4"/>
     <use xlink:href="#m6dc3193f2d" x="106.708085" y="312.360672" style="fill: #1f77b4; stroke: #1f77b4"/>
     <use xlink:href="#m6dc3193f2d" x="118.481702" y="317.947058" style="fill: #1f77b4; stroke: #1f77b4"/>
     <use xlink:href="#m6dc3193f2d" x="130.255319" y="322.375619" style="fill: #1f77b4; stroke: #1f77b4"/>
     <use xlink:href="#m6dc3193f2d" x="142.028936" y="325.795286" style="fill: #1f77b4; stroke: #1f77b4"/>
     <use xlink:href="#m6dc3193f2d" x="153.802553" y="328.571764" style="fill: #1f77b4; stroke: #1f77b4"/>
     <use xlink:href="#m6dc3193f2d" x="165.57617" y="330.737557" style="fill: #1f77b4; stroke: #1f77b4"/>
     <use xlink:href="#m6dc3193f2d" x="177.349787" y="332.401242" style="fill: #1f77b4; stroke: #1f77b4"/>
     <use xlink:href="#m6dc3193f2d" x="189.123404" y="333.362501" style="fill: #1f77b4; stroke: #1f77b4"/>
     <use xlink:href="#m6dc3193f2d" x="200.897021" y="334.219099" style="fill: #1f77b4; stroke: #1f77b4"/>
     <use xlink:href="#m6dc3193f2d" x="212.670638" y="334.71726" style="fill: #1f77b4; stroke: #1f77b4"/>
     <use xlink:href="#m6dc3193f2d" x="224.444255" y="335.174767" style="fill: #1f77b4; stroke: #1f77b4"/>
     <use xlink:href="#m6dc3193f2d" x="236.217872" y="335.241716" style="fill: #1f77b4; stroke: #1f77b4"/>
     <use xlink:href="#m6dc3193f2d" x="247.991489" y="335.267163" style="fill: #1f77b4; stroke: #1f77b4"/>
     <use xlink:href="#m6dc3193f2d" x="259.765106" y="335.248449" style="fill: #1f77b4; stroke: #1f77b4"/>
     <use xlink:href="#m6dc3193f2d" x="271.538723" y="335.233222" style="fill: #1f77b4; stroke: #1f77b4"/>
     <use xlink:href="#m6dc3193f2d" x="283.31234" y="335.220643" style="fill: #1f77b4; stroke: #1f77b4"/>
     <use xlink:href="#m6dc3193f2d" x="295.085957" y="335.118454" style="fill: #1f77b4; stroke: #1f77b4"/>
     <use xlink:href="#m6dc3193f2d" x="306.859574" y="334.786136" style="fill: #1f77b4; stroke: #1f77b4"/>
     <use xlink:href="#m6dc3193f2d" x="318.633191" y="334.360319" style="fill: #1f77b4; stroke: #1f77b4"/>
     <use xlink:href="#m6dc3193f2d" x="330.406809" y="334.076466" style="fill: #1f77b4; stroke: #1f77b4"/>
     <use xlink:href="#m6dc3193f2d" x="342.180426" y="334.135926" style="fill: #1f77b4; stroke: #1f77b4"/>
     <use xlink:href="#m6dc3193f2d" x="353.954043" y="333.971419" style="fill: #1f77b4; stroke: #1f77b4"/>
     <use xlink:href="#m6dc3193f2d" x="365.72766" y="333.709458" style="fill: #1f77b4; stroke: #1f77b4"/>
     <use xlink:href="#m6dc3193f2d" x="377.501277" y="333.843865" style="fill: #1f77b4; stroke: #1f77b4"/>
     <use xlink:href="#m6dc3193f2d" x="389.274894" y="333.85995" style="fill: #1f77b4; stroke: #1f77b4"/>
     <use xlink:href="#m6dc3193f2d" x="401.048511" y="334.162137" style="fill: #1f77b4; stroke: #1f77b4"/>
     <use xlink:href="#m6dc3193f2d" x="412.822128" y="334.712726" style="fill: #1f77b4; stroke: #1f77b4"/>
     <use xlink:href="#m6dc3193f2d" x="424.595745" y="335.487391" style="fill: #1f77b4; stroke: #1f77b4"/>
     <use xlink:href="#m6dc3193f2d" x="436.369362" y="335.757717" style="fill: #1f77b4; stroke: #1f77b4"/>
     <use xlink:href="#m6dc3193f2d" x="448.142979" y="336.019078" style="fill: #1f77b4; stroke: #1f77b4"/>
     <use xlink:href="#m6dc3193f2d" x="459.916596" y="336.137217" style="fill: #1f77b4; stroke: #1f77b4"/>
     <use xlink:href="#m6dc3193f2d" x="471.690213" y="336.151399" style="fill: #1f77b4; stroke: #1f77b4"/>
     <use xlink:href="#m6dc3193f2d" x="483.46383" y="336.161884" style="fill: #1f77b4; stroke: #1f77b4"/>
     <use xlink:href="#m6dc3193f2d" x="495.237447" y="336.21037" style="fill: #1f77b4; stroke: #1f77b4"/>
     <use xlink:href="#m6dc3193f2d" x="507.011064" y="336.347124" style="fill: #1f77b4; stroke: #1f77b4"/>
     <use xlink:href="#m6dc3193f2d" x="518.784681" y="336.498849" style="fill: #1f77b4; stroke: #1f77b4"/>
     <use xlink:href="#m6dc3193f2d" x="530.558298" y="336.392156" style="fill: #1f77b4; stroke: #1f77b4"/>
     <use xlink:href="#m6dc3193f2d" x="542.331915" y="335.974905" style="fill: #1f77b4; stroke: #1f77b4"/>
     <use xlink:href="#m6dc3193f2d" x="554.105532" y="335.342215" style="fill: #1f77b4; stroke: #1f77b4"/>
     <use xlink:href="#m6dc3193f2d" x="565.879149" y="334.510493" style="fill: #1f77b4; stroke: #1f77b4"/>
     <use xlink:href="#m6dc3193f2d" x="577.652766" y="333.246441" style="fill: #1f77b4; stroke: #1f77b4"/>
     <use xlink:href="#m6dc3193f2d" x="589.426383" y="331.80538" style="fill: #1f77b4; stroke: #1f77b4"/>
     <use xlink:href="#m6dc3193f2d" x="601.2" y="330.079664" style="fill: #1f77b4; stroke: #1f77b4"/>
    </g>
   </g>
   <g id="line2d_27">
    <path d="M 47.84 40.878182 
L 59.613617 234.393839 
L 71.387234 273.739259 
L 83.160851 293.168903 
L 94.934468 305.277551 
L 106.708085 313.536174 
L 118.481702 319.232424 
L 130.255319 323.752006 
L 142.028936 327.250055 
L 153.802553 330.098789 
L 165.57617 332.32431 
L 177.349787 334.032722 
L 189.123404 335.027425 
L 200.897021 335.909681 
L 212.670638 336.4224 
L 224.444255 336.892921 
L 236.217872 336.96195 
L 247.991489 336.991464 
L 259.765106 336.968048 
L 271.538723 336.946339 
L 283.31234 336.927557 
L 295.085957 336.818281 
L 306.859574 336.478745 
L 318.633191 336.047252 
L 330.406809 335.758208 
L 342.180426 335.816748 
L 353.954043 335.661372 
L 365.72766 335.402573 
L 377.501277 335.543315 
L 389.274894 335.561121 
L 401.048511 335.871386 
L 412.822128 336.431669 
L 424.595745 337.208552 
L 436.369362 337.485889 
L 448.142979 337.756151 
L 459.916596 337.878843 
L 471.690213 337.902503 
L 483.46383 337.920309 
L 495.237447 337.974947 
L 507.011064 338.117396 
L 518.784681 338.270334 
L 530.558298 338.153252 
L 542.331915 337.723466 
L 554.105532 337.06903 
L 565.879149 336.204824 
L 577.652766 334.904734 
L 589.426383 333.418776 
L 601.2 331.640848 
" clip-path="url(#p0bf407bd59)" style="fill: none; stroke: #1f77b4; stroke-width: 1.4; stroke-linecap: square"/>
    <defs>
     <path id="m2cc9ac336d" d="M 0 1.9 
C 0.503886 1.9 0.987202 1.699804 1.343503 1.343503 
C 1.699804 0.987202 1.9 0.503886 1.9 0 
C 1.9 -0.503886 1.699804 -0.987202 1.343503 -1.343503 
C 0.987202 -1.699804 0.503886 -1.9 0 -1.9 
C -0.503886 -1.9 -0.987202 -1.699804 -1.343503 -1.343503 
C -1.699804 -0.987202 -1.9 -0.503886 -1.9 0 
C -1.9 0.503886 -1.699804 0.987202 -1.343503 1.343503 
C -0.987202 1.699804 -0.503886 1.9 0 1.9 
z
" style="stroke: #1f77b4"/>
    </defs>
    <g clip-path="url(#p0bf407bd59)">
     <use xlink:href="#m2cc9ac336d" x="47.84" y="40.878182" style="fill: #1f77b4; stroke: #1f77b4"/>
     <use xlink:href="#m2cc9ac336d" x="59.613617" y="234.393839" style="fill: #1f77b4; stroke: #1f77b4"/>
     <use xlink:href="#m2cc9ac336d" x="71.387234" y="273.739259" style="fill: #1f77b4; stroke: #1f77b4"/>
     <use xlink:href="#m2cc9ac336d" x="83.160851" y="293.168903" style="fill: #1f77b4; stroke: #1f77b4"/>
     <use xlink:href="#m2cc9ac336d" x="94.934468" y="305.277551" style="fill: #1f77b4; stroke: #1f77b4"/>
     <use xlink:href="#m2cc9ac336d" x="106.708085" y="313.536174" style="fill: #1f77b4; stroke: #1f77b4"/>
     <use xlink:href="#m2cc9ac336d" x="118.481702" y="319.232424" style="fill: #1f77b4; stroke: #1f77b4"/>
     <use xlink:href="#m2cc9ac336d" x="130.255319" y="323.752006" style="fill: #1f77b4; stroke: #1f77b4"/>
     <use xlink:href="#m2cc9ac336d" x="142.028936" y="327.250055" style="fill: #1f77b4; stroke: #1f77b4"/>
     <use xlink:href="#m2cc9ac336d" x="153.802553" y="330.098789" style="fill: #1f77b4; stroke: #1f77b4"/>
     <use xlink:href="#m2cc9ac336d" x="165.57617" y="332.32431" style="fill: #1f77b4; stroke: #1f77b4"/>
     <use xlink:href="#m2cc9ac336d" x="177.349787" y="334.032722" style="fill: #1f77b4; stroke: #1f77b4"/>
     <use xlink:href="#m2cc9ac336d" x="189.123404" y="335.027425" style="fill: #1f77b4; stroke: #1f77b4"/>
     <use xlink:href="#m2cc9ac336d" x="200.897021" y="335.909681" style="fill: #1f77b4; stroke: #1f77b4"/>
     <use xlink:href="#m2cc9ac336d" x="212.670638" y="336.4224" style="fill: #1f77b4; stroke: #1f77b4"/>
     <use xlink:href="#m2cc9ac336d" x="224.444255" y="336.892921" style="fill: #1f77b4; stroke: #1f77b4"/>
     <use xlink:href="#m2cc9ac336d" x="236.217872" y="336.96195" style="fill: #1f77b4; stroke: #1f77b4"/>
     <use xlink:href="#m2cc9ac336d" x="247.991489" y="336.991464" style="fill: #1f77b4; stroke: #1f77b4"/>
     <use xlink:href="#m2cc9ac336d" x="259.765106" y="336.968048" style="fill: #1f77b4; stroke: #1f77b4"/>
     <use xlink:href="#m2cc9ac336d" x="271.538723" y="336.946339" style="fill: #1f77b4; stroke: #1f77b4"/>
     <use xlink:href="#m2cc9ac336d" x="283.31234" y="336.927557" style="fill: #1f77b4; stroke: #1f77b4"/>
     <use xlink:href="#m2cc9ac336d" x="295.085957" y="336.818281" style="fill: #1f77b4; stroke: #1f77b4"/>
     <use xlink:href="#m2cc9ac336d" x="306.859574" y="336.478745" style="fill: #1f77b4; stroke: #1f77b4"/>
     <use xlink:href="#m2cc9ac336d" x="318.633191" y="336.047252" style="fill: #1f77b4; stroke: #1f77b4"/>
     <use xlink:href="#m2cc9ac336d" x="330.406809" y="335.758208" style="fill: #1f77b4; stroke: #1f77b4"/>
     <use xlink:href="#m2cc9ac336d" x="342.180426" y="335.816748" style="fill: #1f77b4; stroke: #1f77b4"/>
     <use xlink:href="#m2cc9ac336d" x="353.954043" y="335.661372" style="fill: #1f77b4; stroke: #1f77b4"/>
     <use xlink:href="#m2cc9ac336d" x="365.72766" y="335.402573" style="fill: #1f77b4; stroke: #1f77b4"/>
     <use xlink:href="#m2cc9ac336d" x="377.501277" y="335.543315" style="fill: #1f77b4; stroke: #1f77b4"/>
     <use xlink:href="#m2cc9ac336d" x="389.274894" y="335.561121" style="fill: #1f77b4; stroke: #1f77b4"/>
     <use xlink:href="#m2cc9ac336d" x="401.048511" y="335.871386" style="fill: #1f77b4; stroke: #1f77b4"/>
     <use xlink:href="#m2cc9ac336d" x="412.822128" y="336.431669" style="fill: #1f77b4; stroke: #1f77b4"/>
     <use xlink:href="#m2cc9ac336d" x="424.595745" y="337.208552" style="fill: #1f77b4; stroke: #1f77b4"/>
     <use xlink:href="#m2cc9ac336d" x="436.369362" y="337.485889" style="fill: #1f77b4; stroke: #1f77b4"/>
     <use xlink:href="#m2cc9ac336d" x="448.142979" y="337.756151" style="fill: #1f77b4; stroke: #1f77b4"/>
     <use xlink:href="#m2cc9ac336d" x="459.916596" y="337.878843" style="fill: #1f77b4; stroke: #1f77b4"/>
     <use xlink:href="#m2cc9ac336d" x="471.690213" y="337.902503" style="fill: #1f77b4; stroke: #1f77b4"/>
     <use xlink:href="#m2cc9ac336d" x="483.46383" y="337.920309" style="fill: #1f77b4; stroke: #1f77b4"/>
     <use xlink:href="#m2cc9ac336d" x="495.237447" y="337.974947" style="fill: #1f77b4; stroke: #1f77b4"/>
     <use xlink:href="#m2cc9ac336d" x="507.011064" y="338.117396" style="fill: #1f77b4; stroke: #1f77b4"/>
     <use xlink:href="#m2cc9ac336d" x="518.784681" y="338.270334" style="fill: #1f77b4; stroke: #1f77b4"/>
     <use xlink:href="#m2cc9ac336d" x="530.558298" y="338.153252" style="fill: #1f77b4; stroke: #1f77b4"/>
     <use xlink:href="#m2cc9ac336d" x="542.331915" y="337.723466" style="fill: #1f77b4; stroke: #1f77b4"/>
     <use xlink:href="#m2cc9ac336d" x="554.105532" y="337.06903" style="fill: #1f77b4; stroke: #1f77b4"/>
     <use xlink:href="#m2cc9ac336d" x="565.879149" y="336.204824" style="fill: #1f77b4; stroke: #1f77b4"/>
     <use xlink:href="#m2cc9ac336d" x="577.652766" y="334.904734" style="fill: #1f77b4; stroke: #1f77b4"/>
     <use xlink:href="#m2cc9ac336d" x="589.426383" y="333.418776" style="fill: #1f77b4; stroke: #1f77b4"/>
     <use xlink:href="#m2cc9ac336d" x="601.2" y="331.640848" style="fill: #1f77b4; stroke: #1f77b4"/>
    </g>
   </g>
   <g id="patch_3">
    <path d="M 47.84 355 
L 47.84 25.92 
" style="fill: none; stroke: #000000; stroke-width: 0.8; stroke-linejoin: miter; stroke-linecap: square"/>
   </g>
   <g id="patch_4">
    <path d="M 601.2 355 
L 601.2 25.92 
" style="fill: none; stroke: #000000; stroke-width: 0.8; stroke-linejoin: miter; stroke-linecap: square"/>
   </g>
   <g id="patch_5">
    <path d="M 47.84 355 
L 601.2 355 
" style="fill: none; stroke: #000000; stroke-width: 0.8; stroke-linejoin: miter; stroke-linecap: square"/>
   </g>
   <g id="patch_6">
    <path d="M 47.84 25.92 
L 601.2 25.92 
" style="fill: none; stroke: #000000; stroke-width: 0.8; stroke-linejoin: miter; stroke-linecap: square"/>
   </g>
   <g id="text_15">
    <!-- L48x64: x+y Correlator (First Wrap Only) -->
    <g transform="translate(201.922188 19.92) scale(0.12 -0.12)">
     <defs>
      <path id="DejaVuSans-3a" d="M 750 794 
L 1409 794 
L 1409 0 
L 750 0 
L 750 794 
z
M 750 3309 
L 1409 3309 
L 1409 2516 
L 750 2516 
L 750 3309 
z
" transform="scale(0.015625)"/>
      <path id="DejaVuSans-46" d="M 628 4666 
L 3309 4666 
L 3309 4134 
L 1259 4134 
L 1259 2759 
L 3109 2759 
L 3109 2228 
L 1259 2228 
L 1259 0 
L 628 0 
L 628 4666 
z
" transform="scale(0.015625)"/>
      <path id="DejaVuSans-57" d="M 213 4666 
L 850 4666 
L 1831 722 
L 2809 4666 
L 3519 4666 
L 4500 722 
L 5478 4666 
L 6119 4666 
L 4947 0 
L 4153 0 
L 3169 4050 
L 2175 0 
L 1381 0 
L 213 4666 
z
" transform="scale(0.015625)"/>
      <path id="DejaVuSans-4f" d="M 2522 4238 
Q 1834 4238 1429 3725 
Q 1025 3213 1025 2328 
Q 1025 1447 1429 934 
Q 1834 422 2522 422 
Q 3209 422 3611 934 
Q 4013 1447 4013 2328 
Q 4013 3213 3611 3725 
Q 3209 4238 2522 4238 
z
M 2522 4750 
Q 3503 4750 4090 4092 
Q 4678 3434 4678 2328 
Q 4678 1225 4090 567 
Q 3503 -91 2522 -91 
Q 1538 -91 948 565 
Q 359 1222 359 2328 
Q 359 3434 948 4092 
Q 1538 4750 2522 4750 
z
" transform="scale(0.015625)"/>
     </defs>
     <use xlink:href="#DejaVuSans-4c"/>
     <use xlink:href="#DejaVuSans-34" transform="translate(55.712891 0)"/>
     <use xlink:href="#DejaVuSans-38" transform="translate(119.335938 0)"/>
     <use xlink:href="#DejaVuSans-78" transform="translate(182.958984 0)"/>
     <use xlink:href="#DejaVuSans-36" transform="translate(242.138672 0)"/>
     <use xlink:href="#DejaVuSans-34" transform="translate(305.761719 0)"/>
     <use xlink:href="#DejaVuSans-3a" transform="translate(369.384766 0)"/>
     <use xlink:href="#DejaVuSans-20" transform="translate(403.076172 0)"/>
     <use xlink:href="#DejaVuSans-78" transform="translate(434.863281 0)"/>
     <use xlink:href="#DejaVuSans-2b" transform="translate(494.042969 0)"/>
     <use xlink:href="#DejaVuSans-79" transform="translate(577.832031 0)"/>
     <use xlink:href="#DejaVuSans-20" transform="translate(637.011719 0)"/>
     <use xlink:href="#DejaVuSans-43" transform="translate(668.798828 0)"/>
     <use xlink:href="#DejaVuSans-6f" transform="translate(738.623047 0)"/>
     <use xlink:href="#DejaVuSans-72" transform="translate(799.804688 0)"/>
     <use xlink:href="#DejaVuSans-72" transform="translate(839.167969 0)"/>
     <use xlink:href="#DejaVuSans-65" transform="translate(878.03125 0)"/>
     <use xlink:href="#DejaVuSans-6c" transform="translate(939.554688 0)"/>
     <use xlink:href="#DejaVuSans-61" transform="translate(967.337891 0)"/>
     <use xlink:href="#DejaVuSans-74" transform="translate(1028.617188 0)"/>
     <use xlink:href="#DejaVuSans-6f" transform="translate(1067.826172 0)"/>
     <use xlink:href="#DejaVuSans-72" transform="translate(1129.007812 0)"/>
     <use xlink:href="#DejaVuSans-20" transform="translate(1170.121094 0)"/>
     <use xlink:href="#DejaVuSans-28" transform="translate(1201.908203 0)"/>
     <use xlink:href="#DejaVuSans-46" transform="translate(1240.921875 0)"/>
     <use xlink:href="#DejaVuSans-69" transform="translate(1291.191406 0)"/>
     <use xlink:href="#DejaVuSans-72" transform="translate(1318.974609 0)"/>
     <use xlink:href="#DejaVuSans-73" transform="translate(1360.087891 0)"/>
     <use xlink:href="#DejaVuSans-74" transform="translate(1412.1875 0)"/>
     <use xlink:href="#DejaVuSans-20" transform="translate(1451.396484 0)"/>
     <use xlink:href="#DejaVuSans-57" transform="translate(1483.183594 0)"/>
     <use xlink:href="#DejaVuSans-72" transform="translate(1577.560547 0)"/>
     <use xlink:href="#DejaVuSans-61" transform="translate(1618.673828 0)"/>
     <use xlink:href="#DejaVuSans-70" transform="translate(1679.953125 0)"/>
     <use xlink:href="#DejaVuSans-20" transform="translate(1743.429688 0)"/>
     <use xlink:href="#DejaVuSans-4f" transform="translate(1775.216797 0)"/>
     <use xlink:href="#DejaVuSans-6e" transform="translate(1853.927734 0)"/>
     <use xlink:href="#DejaVuSans-6c" transform="translate(1917.306641 0)"/>
     <use xlink:href="#DejaVuSans-79" transform="translate(1945.089844 0)"/>
     <use xlink:href="#DejaVuSans-29" transform="translate(2004.269531 0)"/>
    </g>
   </g>
   <g id="legend_1">
    <g id="patch_7">
     <path d="M 459.079687 48.598125 
L 594.2 48.598125 
Q 596.2 48.598125 596.2 46.598125 
L 596.2 32.92 
Q 596.2 30.92 594.2 30.92 
L 459.079687 30.92 
Q 457.079687 30.92 457.079687 32.92 
L 457.079687 46.598125 
Q 457.079687 48.598125 459.079687 48.598125 
z
" style="fill: #ffffff; opacity: 0.8; stroke: #cccccc; stroke-linejoin: miter"/>
    </g>
    <g id="LineCollection_2">
     <path d="M 471.079687 44.018438 
L 471.079687 34.018438 
" style="fill: none; stroke: #1f77b4; stroke-width: 1.4"/>
    </g>
    <g id="line2d_28">
     <g>
      <use xlink:href="#m6dc3193f2d" x="471.079687" y="44.018438" style="fill: #1f77b4; stroke: #1f77b4"/>
     </g>
    </g>
    <g id="line2d_29">
     <g>
      <use xlink:href="#m6dc3193f2d" x="471.079687" y="34.018438" style="fill: #1f77b4; stroke: #1f77b4"/>
     </g>
    </g>
    <g id="line2d_30">
     <path d="M 461.079687 39.018438 
L 481.079687 39.018438 
" style="fill: none; stroke: #1f77b4; stroke-width: 1.4; stroke-linecap: square"/>
    </g>
    <g id="line2d_31">
     <g>
      <use xlink:href="#m2cc9ac336d" x="471.079687" y="39.018438" style="fill: #1f77b4; stroke: #1f77b4"/>
     </g>
    </g>
    <g id="text_16">
     <!-- oblique x+y (type 2) -->
     <g transform="translate(489.079687 42.518438) scale(0.1 -0.1)">
      <defs>
       <path id="DejaVuSans-62" d="M 3116 1747 
Q 3116 2381 2855 2742 
Q 2594 3103 2138 3103 
Q 1681 3103 1420 2742 
Q 1159 2381 1159 1747 
Q 1159 1113 1420 752 
Q 1681 391 2138 391 
Q 2594 391 2855 752 
Q 3116 1113 3116 1747 
z
M 1159 2969 
Q 1341 3281 1617 3432 
Q 1894 3584 2278 3584 
Q 2916 3584 3314 3078 
Q 3713 2572 3713 1747 
Q 3713 922 3314 415 
Q 2916 -91 2278 -91 
Q 1894 -91 1617 61 
Q 1341 213 1159 525 
L 1159 0 
L 581 0 
L 581 4863 
L 1159 4863 
L 1159 2969 
z
" transform="scale(0.015625)"/>
       <path id="DejaVuSans-71" d="M 947 1747 
Q 947 1113 1208 752 
Q 1469 391 1925 391 
Q 2381 391 2643 752 
Q 2906 1113 2906 1747 
Q 2906 2381 2643 2742 
Q 2381 3103 1925 3103 
Q 1469 3103 1208 2742 
Q 947 2381 947 1747 
z
M 2906 525 
Q 2725 213 2448 61 
Q 2172 -91 1784 -91 
Q 1150 -91 751 415 
Q 353 922 353 1747 
Q 353 2572 751 3078 
Q 1150 3584 1784 3584 
Q 2172 3584 2448 3432 
Q 2725 3281 2906 2969 
L 2906 3500 
L 3481 3500 
L 3481 -1331 
L 2906 -1331 
L 2906 525 
z
" transform="scale(0.015625)"/>
       <path id="DejaVuSans-75" d="M 544 1381 
L 544 3500 
L 1119 3500 
L 1119 1403 
Q 1119 906 1312 657 
Q 1506 409 1894 409 
Q 2359 409 2629 706 
Q 2900 1003 2900 1516 
L 2900 3500 
L 3475 3500 
L 3475 0 
L 2900 0 
L 2900 538 
Q 2691 219 2414 64 
Q 2138 -91 1772 -91 
Q 1169 -91 856 284 
Q 544 659 544 1381 
z
M 1991 3584 
L 1991 3584 
z
" transform="scale(0.015625)"/>
      </defs>
      <use xlink:href="#DejaVuSans-6f"/>
      <use xlink:href="#DejaVuSans-62" transform="translate(61.181641 0)"/>
      <use xlink:href="#DejaVuSans-6c" transform="translate(124.658203 0)"/>
      <use xlink:href="#DejaVuSans-69" transform="translate(152.441406 0)"/>
      <use xlink:href="#DejaVuSans-71" transform="translate(180.224609 0)"/>
      <use xlink:href="#DejaVuSans-75" transform="translate(243.701172 0)"/>
      <use xlink:href="#DejaVuSans-65" transform="translate(307.080078 0)"/>
      <use xlink:href="#DejaVuSans-20" transform="translate(368.603516 0)"/>
      <use xlink:href="#DejaVuSans-78" transform="translate(400.390625 0)"/>
      <use xlink:href="#DejaVuSans-2b" transform="translate(459.570312 0)"/>
      <use xlink:href="#DejaVuSans-79" transform="translate(543.359375 0)"/>
      <use xlink:href="#DejaVuSans-20" transform="translate(602.539062 0)"/>
      <use xlink:href="#DejaVuSans-28" transform="translate(634.326172 0)"/>
      <use xlink:href="#DejaVuSans-74" transform="translate(673.339844 0)"/>
      <use xlink:href="#DejaVuSans-79" transform="translate(712.548828 0)"/>
      <use xlink:href="#DejaVuSans-70" transform="translate(771.728516 0)"/>
      <use xlink:href="#DejaVuSans-65" transform="translate(835.205078 0)"/>
      <use xlink:href="#DejaVuSans-20" transform="translate(896.728516 0)"/>
      <use xlink:href="#DejaVuSans-32" transform="translate(928.515625 0)"/>
      <use xlink:href="#DejaVuSans-29" transform="translate(992.138672 0)"/>
     </g>
    </g>
   </g>
  </g>
 </g>
 <defs>
  <clipPath id="p0bf407bd59">
   <rect x="47.84" y="25.92" width="553.36" height="329.08"/>
  </clipPath>
 </defs>
</svg>
