<svg xmlns="http://www.w3.org/2000/svg" width="900" height="590">
<rect x="0" y="0" width="100%" height="100%" fill="white"/>
<text x="450.0" y="30" text-anchor="middle" font-size="20" font-family="Arial">Connected all-to-all (jackknife) vs r/L, 48x64</text>
<line x1="80" y1="495" x2="870" y2="495" stroke="black"/>
<line x1="80" y1="55" x2="80" y2="495" stroke="black"/>
<line x1="80" y1="495.00" x2="870" y2="495.00" stroke="#dddddd"/>
<text x="70" y="499.00" text-anchor="end" font-size="12" font-family="Arial">0.334</text>
<line x1="80" y1="407.00" x2="870" y2="407.00" stroke="#dddddd"/>
<text x="70" y="411.00" text-anchor="end" font-size="12" font-family="Arial">0.473</text>
<line x1="80" y1="319.00" x2="870" y2="319.00" stroke="#dddddd"/>
<text x="70" y="323.00" text-anchor="end" font-size="12" font-family="Arial">0.613</text>
<line x1="80" y1="231.00" x2="870" y2="231.00" stroke="#dddddd"/>
<text x="70" y="235.00" text-anchor="end" font-size="12" font-family="Arial">0.753</text>
<line x1="80" y1="143.00" x2="870" y2="143.00" stroke="#dddddd"/>
<text x="70" y="147.00" text-anchor="end" font-size="12" font-family="Arial">0.892</text>
<line x1="80" y1="55.00" x2="870" y2="55.00" stroke="#dddddd"/>
<text x="70" y="59.00" text-anchor="end" font-size="12" font-family="Arial">1.032</text>
<line x1="80.00" y1="55" x2="80.00" y2="495" stroke="#f0f0f0"/>
<text x="80.00" y="515" text-anchor="middle" font-size="12" font-family="Arial">0.0</text>
<line x1="238.00" y1="55" x2="238.00" y2="495" stroke="#f0f0f0"/>
<text x="238.00" y="515" text-anchor="middle" font-size="12" font-family="Arial">0.2</text>
<line x1="396.00" y1="55" x2="396.00" y2="495" stroke="#f0f0f0"/>
<text x="396.00" y="515" text-anchor="middle" font-size="12" font-family="Arial">0.4</text>
<line x1="554.00" y1="55" x2="554.00" y2="495" stroke="#f0f0f0"/>
<text x="554.00" y="515" text-anchor="middle" font-size="12" font-family="Arial">0.6</text>
<line x1="712.00" y1="55" x2="712.00" y2="495" stroke="#f0f0f0"/>
<text x="712.00" y="515" text-anchor="middle" font-size="12" font-family="Arial">0.8</text>
<line x1="870.00" y1="55" x2="870.00" y2="495" stroke="#f0f0f0"/>
<text x="870.00" y="515" text-anchor="middle" font-size="12" font-family="Arial">1.0</text>
<text x="475.0" y="546" text-anchor="middle" font-size="14" font-family="Arial">fractional separation r/L</text>
<text x="475.0" y="570" text-anchor="middle" font-size="12" font-family="Arial">k1=0.202732554054082, k2=k3=0.312572558625208</text>
<text x="20" y="275.0" transform="rotate(-90 20,275.0)" text-anchor="middle" font-size="14" font-family="Arial">C(r)</text>
<line x1="80.00" y1="75.13" x2="80.00" y2="75.00" stroke="#1f77b4" stroke-width="1.2" opacity="0.85"/>
<line x1="76.00" y1="75.13" x2="84.00" y2="75.13" stroke="#1f77b4" stroke-width="1.2" opacity="0.85"/>
<line x1="76.00" y1="75.00" x2="84.00" y2="75.00" stroke="#1f77b4" stroke-width="1.2" opacity="0.85"/>
<line x1="96.72" y1="289.75" x2="96.72" y2="289.17" stroke="#1f77b4" stroke-width="1.2" opacity="0.85"/>
<line x1="92.72" y1="289.75" x2="100.72" y2="289.75" stroke="#1f77b4" stroke-width="1.2" opacity="0.85"/>
<line x1="92.72" y1="289.17" x2="100.72" y2="289.17" stroke="#1f77b4" stroke-width="1.2" opacity="0.85"/>
<line x1="113.44" y1="350.82" x2="113.44" y2="349.92" stroke="#1f77b4" stroke-width="1.2" opacity="0.85"/>
<line x1="109.44" y1="350.82" x2="117.44" y2="350.82" stroke="#1f77b4" stroke-width="1.2" opacity="0.85"/>
<line x1="109.44" y1="349.92" x2="117.44" y2="349.92" stroke="#1f77b4" stroke-width="1.2" opacity="0.85"/>
<line x1="130.16" y1="381.66" x2="130.16" y2="380.51" stroke="#1f77b4" stroke-width="1.2" opacity="0.85"/>
<line x1="126.16" y1="381.66" x2="134.16" y2="381.66" stroke="#1f77b4" stroke-width="1.2" opacity="0.85"/>
<line x1="126.16" y1="380.51" x2="134.16" y2="380.51" stroke="#1f77b4" stroke-width="1.2" opacity="0.85"/>
<line x1="146.88" y1="400.98" x2="146.88" y2="399.61" stroke="#1f77b4" stroke-width="1.2" opacity="0.85"/>
<line x1="142.88" y1="400.98" x2="150.88" y2="400.98" stroke="#1f77b4" stroke-width="1.2" opacity="0.85"/>
<line x1="142.88" y1="399.61" x2="150.88" y2="399.61" stroke="#1f77b4" stroke-width="1.2" opacity="0.85"/>
<line x1="163.60" y1="414.65" x2="163.60" y2="413.11" stroke="#1f77b4" stroke-width="1.2" opacity="0.85"/>
<line x1="159.60" y1="414.65" x2="167.60" y2="414.65" stroke="#1f77b4" stroke-width="1.2" opacity="0.85"/>
<line x1="159.60" y1="413.11" x2="167.60" y2="413.11" stroke="#1f77b4" stroke-width="1.2" opacity="0.85"/>
<line x1="180.32" y1="424.83" x2="180.32" y2="423.13" stroke="#1f77b4" stroke-width="1.2" opacity="0.85"/>
<line x1="176.32" y1="424.83" x2="184.32" y2="424.83" stroke="#1f77b4" stroke-width="1.2" opacity="0.85"/>
<line x1="176.32" y1="423.13" x2="184.32" y2="423.13" stroke="#1f77b4" stroke-width="1.2" opacity="0.85"/>
<line x1="197.04" y1="432.96" x2="197.04" y2="431.11" stroke="#1f77b4" stroke-width="1.2" opacity="0.85"/>
<line x1="193.04" y1="432.96" x2="201.04" y2="432.96" stroke="#1f77b4" stroke-width="1.2" opacity="0.85"/>
<line x1="193.04" y1="431.11" x2="201.04" y2="431.11" stroke="#1f77b4" stroke-width="1.2" opacity="0.85"/>
<line x1="213.76" y1="439.51" x2="213.76" y2="437.53" stroke="#1f77b4" stroke-width="1.2" opacity="0.85"/>
<line x1="209.76" y1="439.51" x2="217.76" y2="439.51" stroke="#1f77b4" stroke-width="1.2" opacity="0.85"/>
<line x1="209.76" y1="437.53" x2="217.76" y2="437.53" stroke="#1f77b4" stroke-width="1.2" opacity="0.85"/>
<line x1="230.48" y1="444.74" x2="230.48" y2="442.64" stroke="#1f77b4" stroke-width="1.2" opacity="0.85"/>
<line x1="226.48" y1="444.74" x2="234.48" y2="444.74" stroke="#1f77b4" stroke-width="1.2" opacity="0.85"/>
<line x1="226.48" y1="442.64" x2="234.48" y2="442.64" stroke="#1f77b4" stroke-width="1.2" opacity="0.85"/>
<line x1="247.20" y1="449.12" x2="247.20" y2="446.91" stroke="#1f77b4" stroke-width="1.2" opacity="0.85"/>
<line x1="243.20" y1="449.12" x2="251.20" y2="449.12" stroke="#1f77b4" stroke-width="1.2" opacity="0.85"/>
<line x1="243.20" y1="446.91" x2="251.20" y2="446.91" stroke="#1f77b4" stroke-width="1.2" opacity="0.85"/>
<line x1="263.92" y1="452.75" x2="263.92" y2="450.44" stroke="#1f77b4" stroke-width="1.2" opacity="0.85"/>
<line x1="259.92" y1="452.75" x2="267.92" y2="452.75" stroke="#1f77b4" stroke-width="1.2" opacity="0.85"/>
<line x1="259.92" y1="450.44" x2="267.92" y2="450.44" stroke="#1f77b4" stroke-width="1.2" opacity="0.85"/>
<line x1="280.63" y1="455.87" x2="280.63" y2="453.47" stroke="#1f77b4" stroke-width="1.2" opacity="0.85"/>
<line x1="276.63" y1="455.87" x2="284.63" y2="455.87" stroke="#1f77b4" stroke-width="1.2" opacity="0.85"/>
<line x1="276.63" y1="453.47" x2="284.63" y2="453.47" stroke="#1f77b4" stroke-width="1.2" opacity="0.85"/>
<line x1="297.35" y1="458.58" x2="297.35" y2="456.10" stroke="#1f77b4" stroke-width="1.2" opacity="0.85"/>
<line x1="293.35" y1="458.58" x2="301.35" y2="458.58" stroke="#1f77b4" stroke-width="1.2" opacity="0.85"/>
<line x1="293.35" y1="456.10" x2="301.35" y2="456.10" stroke="#1f77b4" stroke-width="1.2" opacity="0.85"/>
<line x1="314.07" y1="460.91" x2="314.07" y2="458.36" stroke="#1f77b4" stroke-width="1.2" opacity="0.85"/>
<line x1="310.07" y1="460.91" x2="318.07" y2="460.91" stroke="#1f77b4" stroke-width="1.2" opacity="0.85"/>
<line x1="310.07" y1="458.36" x2="318.07" y2="458.36" stroke="#1f77b4" stroke-width="1.2" opacity="0.85"/>
<line x1="330.79" y1="462.96" x2="330.79" y2="460.34" stroke="#1f77b4" stroke-width="1.2" opacity="0.85"/>
<line x1="326.79" y1="462.96" x2="334.79" y2="462.96" stroke="#1f77b4" stroke-width="1.2" opacity="0.85"/>
<line x1="326.79" y1="460.34" x2="334.79" y2="460.34" stroke="#1f77b4" stroke-width="1.2" opacity="0.85"/>
<line x1="347.51" y1="464.66" x2="347.51" y2="461.97" stroke="#1f77b4" stroke-width="1.2" opacity="0.85"/>
<line x1="343.51" y1="464.66" x2="351.51" y2="464.66" stroke="#1f77b4" stroke-width="1.2" opacity="0.85"/>
<line x1="343.51" y1="461.97" x2="351.51" y2="461.97" stroke="#1f77b4" stroke-width="1.2" opacity="0.85"/>
<line x1="364.23" y1="466.06" x2="364.23" y2="463.31" stroke="#1f77b4" stroke-width="1.2" opacity="0.85"/>
<line x1="360.23" y1="466.06" x2="368.23" y2="466.06" stroke="#1f77b4" stroke-width="1.2" opacity="0.85"/>
<line x1="360.23" y1="463.31" x2="368.23" y2="463.31" stroke="#1f77b4" stroke-width="1.2" opacity="0.85"/>
<line x1="380.95" y1="467.22" x2="380.95" y2="464.42" stroke="#1f77b4" stroke-width="1.2" opacity="0.85"/>
<line x1="376.95" y1="467.22" x2="384.95" y2="467.22" stroke="#1f77b4" stroke-width="1.2" opacity="0.85"/>
<line x1="376.95" y1="464.42" x2="384.95" y2="464.42" stroke="#1f77b4" stroke-width="1.2" opacity="0.85"/>
<line x1="397.67" y1="468.13" x2="397.67" y2="465.30" stroke="#1f77b4" stroke-width="1.2" opacity="0.85"/>
<line x1="393.67" y1="468.13" x2="401.67" y2="468.13" stroke="#1f77b4" stroke-width="1.2" opacity="0.85"/>
<line x1="393.67" y1="465.30" x2="401.67" y2="465.30" stroke="#1f77b4" stroke-width="1.2" opacity="0.85"/>
<line x1="414.39" y1="468.90" x2="414.39" y2="466.03" stroke="#1f77b4" stroke-width="1.2" opacity="0.85"/>
<line x1="410.39" y1="468.90" x2="418.39" y2="468.90" stroke="#1f77b4" stroke-width="1.2" opacity="0.85"/>
<line x1="410.39" y1="466.03" x2="418.39" y2="466.03" stroke="#1f77b4" stroke-width="1.2" opacity="0.85"/>
<line x1="431.11" y1="469.46" x2="431.11" y2="466.56" stroke="#1f77b4" stroke-width="1.2" opacity="0.85"/>
<line x1="427.11" y1="469.46" x2="435.11" y2="469.46" stroke="#1f77b4" stroke-width="1.2" opacity="0.85"/>
<line x1="427.11" y1="466.56" x2="435.11" y2="466.56" stroke="#1f77b4" stroke-width="1.2" opacity="0.85"/>
<line x1="447.83" y1="469.98" x2="447.83" y2="467.05" stroke="#1f77b4" stroke-width="1.2" opacity="0.85"/>
<line x1="443.83" y1="469.98" x2="451.83" y2="469.98" stroke="#1f77b4" stroke-width="1.2" opacity="0.85"/>
<line x1="443.83" y1="467.05" x2="451.83" y2="467.05" stroke="#1f77b4" stroke-width="1.2" opacity="0.85"/>
<line x1="464.55" y1="470.21" x2="464.55" y2="467.27" stroke="#1f77b4" stroke-width="1.2" opacity="0.85"/>
<line x1="460.55" y1="470.21" x2="468.55" y2="470.21" stroke="#1f77b4" stroke-width="1.2" opacity="0.85"/>
<line x1="460.55" y1="467.27" x2="468.55" y2="467.27" stroke="#1f77b4" stroke-width="1.2" opacity="0.85"/>
<line x1="481.27" y1="470.39" x2="481.27" y2="467.44" stroke="#1f77b4" stroke-width="1.2" opacity="0.85"/>
<line x1="477.27" y1="470.39" x2="485.27" y2="470.39" stroke="#1f77b4" stroke-width="1.2" opacity="0.85"/>
<line x1="477.27" y1="467.44" x2="485.27" y2="467.44" stroke="#1f77b4" stroke-width="1.2" opacity="0.85"/>
<line x1="497.99" y1="470.21" x2="497.99" y2="467.27" stroke="#1f77b4" stroke-width="1.2" opacity="0.85"/>
<line x1="493.99" y1="470.21" x2="501.99" y2="470.21" stroke="#1f77b4" stroke-width="1.2" opacity="0.85"/>
<line x1="493.99" y1="467.27" x2="501.99" y2="467.27" stroke="#1f77b4" stroke-width="1.2" opacity="0.85"/>
<line x1="514.71" y1="469.98" x2="514.71" y2="467.05" stroke="#1f77b4" stroke-width="1.2" opacity="0.85"/>
<line x1="510.71" y1="469.98" x2="518.71" y2="469.98" stroke="#1f77b4" stroke-width="1.2" opacity="0.85"/>
<line x1="510.71" y1="467.05" x2="518.71" y2="467.05" stroke="#1f77b4" stroke-width="1.2" opacity="0.85"/>
<line x1="531.43" y1="469.46" x2="531.43" y2="466.56" stroke="#1f77b4" stroke-width="1.2" opacity="0.85"/>
<line x1="527.43" y1="469.46" x2="535.43" y2="469.46" stroke="#1f77b4" stroke-width="1.2" opacity="0.85"/>
<line x1="527.43" y1="466.56" x2="535.43" y2="466.56" stroke="#1f77b4" stroke-width="1.2" opacity="0.85"/>
<line x1="548.15" y1="468.90" x2="548.15" y2="466.03" stroke="#1f77b4" stroke-width="1.2" opacity="0.85"/>
<line x1="544.15" y1="468.90" x2="552.15" y2="468.90" stroke="#1f77b4" stroke-width="1.2" opacity="0.85"/>
<line x1="544.15" y1="466.03" x2="552.15" y2="466.03" stroke="#1f77b4" stroke-width="1.2" opacity="0.85"/>
<line x1="564.87" y1="468.13" x2="564.87" y2="465.30" stroke="#1f77b4" stroke-width="1.2" opacity="0.85"/>
<line x1="560.87" y1="468.13" x2="568.87" y2="468.13" stroke="#1f77b4" stroke-width="1.2" opacity="0.85"/>
<line x1="560.87" y1="465.30" x2="568.87" y2="465.30" stroke="#1f77b4" stroke-width="1.2" opacity="0.85"/>
<line x1="581.59" y1="467.22" x2="581.59" y2="464.42" stroke="#1f77b4" stroke-width="1.2" opacity="0.85"/>
<line x1="577.59" y1="467.22" x2="585.59" y2="467.22" stroke="#1f77b4" stroke-width="1.2" opacity="0.85"/>
<line x1="577.59" y1="464.42" x2="585.59" y2="464.42" stroke="#1f77b4" stroke-width="1.2" opacity="0.85"/>
<line x1="598.31" y1="466.06" x2="598.31" y2="463.31" stroke="#1f77b4" stroke-width="1.2" opacity="0.85"/>
<line x1="594.31" y1="466.06" x2="602.31" y2="466.06" stroke="#1f77b4" stroke-width="1.2" opacity="0.85"/>
<line x1="594.31" y1="463.31" x2="602.31" y2="463.31" stroke="#1f77b4" stroke-width="1.2" opacity="0.85"/>
<line x1="615.03" y1="464.66" x2="615.03" y2="461.97" stroke="#1f77b4" stroke-width="1.2" opacity="0.85"/>
<line x1="611.03" y1="464.66" x2="619.03" y2="464.66" stroke="#1f77b4" stroke-width="1.2" opacity="0.85"/>
<line x1="611.03" y1="461.97" x2="619.03" y2="461.97" stroke="#1f77b4" stroke-width="1.2" opacity="0.85"/>
<line x1="631.75" y1="462.96" x2="631.75" y2="460.34" stroke="#1f77b4" stroke-width="1.2" opacity="0.85"/>
<line x1="627.75" y1="462.96" x2="635.75" y2="462.96" stroke="#1f77b4" stroke-width="1.2" opacity="0.85"/>
<line x1="627.75" y1="460.34" x2="635.75" y2="460.34" stroke="#1f77b4" stroke-width="1.2" opacity="0.85"/>
<line x1="648.47" y1="460.91" x2="648.47" y2="458.36" stroke="#1f77b4" stroke-width="1.2" opacity="0.85"/>
<line x1="644.47" y1="460.91" x2="652.47" y2="460.91" stroke="#1f77b4" stroke-width="1.2" opacity="0.85"/>
<line x1="644.47" y1="458.36" x2="652.47" y2="458.36" stroke="#1f77b4" stroke-width="1.2" opacity="0.85"/>
<line x1="665.19" y1="458.58" x2="665.19" y2="456.10" stroke="#1f77b4" stroke-width="1.2" opacity="0.85"/>
<line x1="661.19" y1="458.58" x2="669.19" y2="458.58" stroke="#1f77b4" stroke-width="1.2" opacity="0.85"/>
<line x1="661.19" y1="456.10" x2="669.19" y2="456.10" stroke="#1f77b4" stroke-width="1.2" opacity="0.85"/>
<line x1="681.90" y1="455.87" x2="681.90" y2="453.47" stroke="#1f77b4" stroke-width="1.2" opacity="0.85"/>
<line x1="677.90" y1="455.87" x2="685.90" y2="455.87" stroke="#1f77b4" stroke-width="1.2" opacity="0.85"/>
<line x1="677.90" y1="453.47" x2="685.90" y2="453.47" stroke="#1f77b4" stroke-width="1.2" opacity="0.85"/>
<line x1="698.62" y1="452.75" x2="698.62" y2="450.44" stroke="#1f77b4" stroke-width="1.2" opacity="0.85"/>
<line x1="694.62" y1="452.75" x2="702.62" y2="452.75" stroke="#1f77b4" stroke-width="1.2" opacity="0.85"/>
<line x1="694.62" y1="450.44" x2="702.62" y2="450.44" stroke="#1f77b4" stroke-width="1.2" opacity="0.85"/>
<line x1="715.34" y1="449.12" x2="715.34" y2="446.91" stroke="#1f77b4" stroke-width="1.2" opacity="0.85"/>
<line x1="711.34" y1="449.12" x2="719.34" y2="449.12" stroke="#1f77b4" stroke-width="1.2" opacity="0.85"/>
<line x1="711.34" y1="446.91" x2="719.34" y2="446.91" stroke="#1f77b4" stroke-width="1.2" opacity="0.85"/>
<line x1="732.06" y1="444.74" x2="732.06" y2="442.64" stroke="#1f77b4" stroke-width="1.2" opacity="0.85"/>
<line x1="728.06" y1="444.74" x2="736.06" y2="444.74" stroke="#1f77b4" stroke-width="1.2" opacity="0.85"/>
<line x1="728.06" y1="442.64" x2="736.06" y2="442.64" stroke="#1f77b4" stroke-width="1.2" opacity="0.85"/>
<line x1="748.78" y1="439.51" x2="748.78" y2="437.53" stroke="#1f77b4" stroke-width="1.2" opacity="0.85"/>
<line x1="744.78" y1="439.51" x2="752.78" y2="439.51" stroke="#1f77b4" stroke-width="1.2" opacity="0.85"/>
<line x1="744.78" y1="437.53" x2="752.78" y2="437.53" stroke="#1f77b4" stroke-width="1.2" opacity="0.85"/>
<line x1="765.50" y1="432.96" x2="765.50" y2="431.11" stroke="#1f77b4" stroke-width="1.2" opacity="0.85"/>
<line x1="761.50" y1="432.96" x2="769.50" y2="432.96" stroke="#1f77b4" stroke-width="1.2" opacity="0.85"/>
<line x1="761.50" y1="431.11" x2="769.50" y2="431.11" stroke="#1f77b4" stroke-width="1.2" opacity="0.85"/>
<line x1="782.22" y1="424.83" x2="782.22" y2="423.13" stroke="#1f77b4" stroke-width="1.2" opacity="0.85"/>
<line x1="778.22" y1="424.83" x2="786.22" y2="424.83" stroke="#1f77b4" stroke-width="1.2" opacity="0.85"/>
<line x1="778.22" y1="423.13" x2="786.22" y2="423.13" stroke="#1f77b4" stroke-width="1.2" opacity="0.85"/>
<line x1="798.94" y1="414.65" x2="798.94" y2="413.11" stroke="#1f77b4" stroke-width="1.2" opacity="0.85"/>
<line x1="794.94" y1="414.65" x2="802.94" y2="414.65" stroke="#1f77b4" stroke-width="1.2" opacity="0.85"/>
<line x1="794.94" y1="413.11" x2="802.94" y2="413.11" stroke="#1f77b4" stroke-width="1.2" opacity="0.85"/>
<line x1="815.66" y1="400.98" x2="815.66" y2="399.61" stroke="#1f77b4" stroke-width="1.2" opacity="0.85"/>
<line x1="811.66" y1="400.98" x2="819.66" y2="400.98" stroke="#1f77b4" stroke-width="1.2" opacity="0.85"/>
<line x1="811.66" y1="399.61" x2="819.66" y2="399.61" stroke="#1f77b4" stroke-width="1.2" opacity="0.85"/>
<line x1="832.38" y1="381.66" x2="832.38" y2="380.51" stroke="#1f77b4" stroke-width="1.2" opacity="0.85"/>
<line x1="828.38" y1="381.66" x2="836.38" y2="381.66" stroke="#1f77b4" stroke-width="1.2" opacity="0.85"/>
<line x1="828.38" y1="380.51" x2="836.38" y2="380.51" stroke="#1f77b4" stroke-width="1.2" opacity="0.85"/>
<line x1="849.10" y1="350.82" x2="849.10" y2="349.92" stroke="#1f77b4" stroke-width="1.2" opacity="0.85"/>
<line x1="845.10" y1="350.82" x2="853.10" y2="350.82" stroke="#1f77b4" stroke-width="1.2" opacity="0.85"/>
<line x1="845.10" y1="349.92" x2="853.10" y2="349.92" stroke="#1f77b4" stroke-width="1.2" opacity="0.85"/>
<line x1="865.82" y1="289.75" x2="865.82" y2="289.17" stroke="#1f77b4" stroke-width="1.2" opacity="0.85"/>
<line x1="861.82" y1="289.75" x2="869.82" y2="289.75" stroke="#1f77b4" stroke-width="1.2" opacity="0.85"/>
<line x1="861.82" y1="289.17" x2="869.82" y2="289.17" stroke="#1f77b4" stroke-width="1.2" opacity="0.85"/>
<polyline points="80.00,75.06 96.72,289.46 113.44,350.37 130.16,381.08 146.88,400.29 163.60,413.88 180.32,423.98 197.04,432.04 213.76,438.52 230.48,443.69 247.20,448.01 263.92,451.60 280.63,454.67 297.35,457.34 314.07,459.63 330.79,461.65 347.51,463.31 364.23,464.68 380.95,465.82 397.67,466.72 414.39,467.47 431.11,468.01 447.83,468.51 464.55,468.74 481.27,468.91 497.99,468.74 514.71,468.51 531.43,468.01 548.15,467.47 564.87,466.72 581.59,465.82 598.31,464.68 615.03,463.31 631.75,461.65 648.47,459.63 665.19,457.34 681.90,454.67 698.62,451.60 715.34,448.01 732.06,443.69 748.78,438.52 765.50,432.04 782.22,423.98 798.94,413.88 815.66,400.29 832.38,381.08 849.10,350.37 865.82,289.46" fill="none" stroke="#1f77b4" stroke-width="2"/>
<circle cx="80.00" cy="75.06" r="2.5" fill="#1f77b4"/>
<circle cx="96.72" cy="289.46" r="2.5" fill="#1f77b4"/>
<circle cx="113.44" cy="350.37" r="2.5" fill="#1f77b4"/>
<circle cx="130.16" cy="381.08" r="2.5" fill="#1f77b4"/>
<circle cx="146.88" cy="400.29" r="2.5" fill="#1f77b4"/>
<circle cx="163.60" cy="413.88" r="2.5" fill="#1f77b4"/>
<circle cx="180.32" cy="423.98" r="2.5" fill="#1f77b4"/>
<circle cx="197.04" cy="432.04" r="2.5" fill="#1f77b4"/>
<circle cx="213.76" cy="438.52" r="2.5" fill="#1f77b4"/>
<circle cx="230.48" cy="443.69" r="2.5" fill="#1f77b4"/>
<circle cx="247.20" cy="448.01" r="2.5" fill="#1f77b4"/>
<circle cx="263.92" cy="451.60" r="2.5" fill="#1f77b4"/>
<circle cx="280.63" cy="454.67" r="2.5" fill="#1f77b4"/>
<circle cx="297.35" cy="457.34" r="2.5" fill="#1f77b4"/>
<circle cx="314.07" cy="459.63" r="2.5" fill="#1f77b4"/>
<circle cx="330.79" cy="461.65" r="2.5" fill="#1f77b4"/>
<circle cx="347.51" cy="463.31" r="2.5" fill="#1f77b4"/>
<circle cx="364.23" cy="464.68" r="2.5" fill="#1f77b4"/>
<circle cx="380.95" cy="465.82" r="2.5" fill="#1f77b4"/>
<circle cx="397.67" cy="466.72" r="2.5" fill="#1f77b4"/>
<circle cx="414.39" cy="467.47" r="2.5" fill="#1f77b4"/>
<circle cx="431.11" cy="468.01" r="2.5" fill="#1f77b4"/>
<circle cx="447.83" cy="468.51" r="2.5" fill="#1f77b4"/>
<circle cx="464.55" cy="468.74" r="2.5" fill="#1f77b4"/>
<circle cx="481.27" cy="468.91" r="2.5" fill="#1f77b4"/>
<circle cx="497.99" cy="468.74" r="2.5" fill="#1f77b4"/>
<circle cx="514.71" cy="468.51" r="2.5" fill="#1f77b4"/>
<circle cx="531.43" cy="468.01" r="2.5" fill="#1f77b4"/>
<circle cx="548.15" cy="467.47" r="2.5" fill="#1f77b4"/>
<circle cx="564.87" cy="466.72" r="2.5" fill="#1f77b4"/>
<circle cx="581.59" cy="465.82" r="2.5" fill="#1f77b4"/>
<circle cx="598.31" cy="464.68" r="2.5" fill="#1f77b4"/>
<circle cx="615.03" cy="463.31" r="2.5" fill="#1f77b4"/>
<circle cx="631.75" cy="461.65" r="2.5" fill="#1f77b4"/>
<circle cx="648.47" cy="459.63" r="2.5" fill="#1f77b4"/>
<circle cx="665.19" cy="457.34" r="2.5" fill="#1f77b4"/>
<circle cx="681.90" cy="454.67" r="2.5" fill="#1f77b4"/>
<circle cx="698.62" cy="451.60" r="2.5" fill="#1f77b4"/>
<circle cx="715.34" cy="448.01" r="2.5" fill="#1f77b4"/>
<circle cx="732.06" cy="443.69" r="2.5" fill="#1f77b4"/>
<circle cx="748.78" cy="438.52" r="2.5" fill="#1f77b4"/>
<circle cx="765.50" cy="432.04" r="2.5" fill="#1f77b4"/>
<circle cx="782.22" cy="423.98" r="2.5" fill="#1f77b4"/>
<circle cx="798.94" cy="413.88" r="2.5" fill="#1f77b4"/>
<circle cx="815.66" cy="400.29" r="2.5" fill="#1f77b4"/>
<circle cx="832.38" cy="381.08" r="2.5" fill="#1f77b4"/>
<circle cx="849.10" cy="350.37" r="2.5" fill="#1f77b4"/>
<circle cx="865.82" cy="289.46" r="2.5" fill="#1f77b4"/>
<line x1="80.00" y1="75.13" x2="80.00" y2="75.00" stroke="#ff7f0e" stroke-width="1.2" opacity="0.85"/>
<line x1="76.00" y1="75.13" x2="84.00" y2="75.13" stroke="#ff7f0e" stroke-width="1.2" opacity="0.85"/>
<line x1="76.00" y1="75.00" x2="84.00" y2="75.00" stroke="#ff7f0e" stroke-width="1.2" opacity="0.85"/>
<line x1="92.54" y1="276.70" x2="92.54" y2="276.17" stroke="#ff7f0e" stroke-width="1.2" opacity="0.85"/>
<line x1="88.54" y1="276.70" x2="96.54" y2="276.70" stroke="#ff7f0e" stroke-width="1.2" opacity="0.85"/>
<line x1="88.54" y1="276.17" x2="96.54" y2="276.17" stroke="#ff7f0e" stroke-width="1.2" opacity="0.85"/>
<line x1="105.08" y1="341.35" x2="105.08" y2="340.51" stroke="#ff7f0e" stroke-width="1.2" opacity="0.85"/>
<line x1="101.08" y1="341.35" x2="109.08" y2="341.35" stroke="#ff7f0e" stroke-width="1.2" opacity="0.85"/>
<line x1="101.08" y1="340.51" x2="109.08" y2="340.51" stroke="#ff7f0e" stroke-width="1.2" opacity="0.85"/>
<line x1="117.62" y1="373.69" x2="117.62" y2="372.61" stroke="#ff7f0e" stroke-width="1.2" opacity="0.85"/>
<line x1="113.62" y1="373.69" x2="121.62" y2="373.69" stroke="#ff7f0e" stroke-width="1.2" opacity="0.85"/>
<line x1="113.62" y1="372.61" x2="121.62" y2="372.61" stroke="#ff7f0e" stroke-width="1.2" opacity="0.85"/>
<line x1="130.16" y1="394.14" x2="130.16" y2="392.87" stroke="#ff7f0e" stroke-width="1.2" opacity="0.85"/>
<line x1="126.16" y1="394.14" x2="134.16" y2="394.14" stroke="#ff7f0e" stroke-width="1.2" opacity="0.85"/>
<line x1="126.16" y1="392.87" x2="134.16" y2="392.87" stroke="#ff7f0e" stroke-width="1.2" opacity="0.85"/>
<line x1="142.70" y1="408.41" x2="142.70" y2="406.96" stroke="#ff7f0e" stroke-width="1.2" opacity="0.85"/>
<line x1="138.70" y1="408.41" x2="146.70" y2="408.41" stroke="#ff7f0e" stroke-width="1.2" opacity="0.85"/>
<line x1="138.70" y1="406.96" x2="146.70" y2="406.96" stroke="#ff7f0e" stroke-width="1.2" opacity="0.85"/>
<line x1="155.24" y1="419.29" x2="155.24" y2="417.68" stroke="#ff7f0e" stroke-width="1.2" opacity="0.85"/>
<line x1="151.24" y1="419.29" x2="159.24" y2="419.29" stroke="#ff7f0e" stroke-width="1.2" opacity="0.85"/>
<line x1="151.24" y1="417.68" x2="159.24" y2="417.68" stroke="#ff7f0e" stroke-width="1.2" opacity="0.85"/>
<line x1="167.78" y1="427.70" x2="167.78" y2="425.94" stroke="#ff7f0e" stroke-width="1.2" opacity="0.85"/>
<line x1="163.78" y1="427.70" x2="171.78" y2="427.70" stroke="#ff7f0e" stroke-width="1.2" opacity="0.85"/>
<line x1="163.78" y1="425.94" x2="171.78" y2="425.94" stroke="#ff7f0e" stroke-width="1.2" opacity="0.85"/>
<line x1="180.32" y1="434.57" x2="180.32" y2="432.69" stroke="#ff7f0e" stroke-width="1.2" opacity="0.85"/>
<line x1="176.32" y1="434.57" x2="184.32" y2="434.57" stroke="#ff7f0e" stroke-width="1.2" opacity="0.85"/>
<line x1="176.32" y1="432.69" x2="184.32" y2="432.69" stroke="#ff7f0e" stroke-width="1.2" opacity="0.85"/>
<line x1="192.86" y1="440.27" x2="192.86" y2="438.27" stroke="#ff7f0e" stroke-width="1.2" opacity="0.85"/>
<line x1="188.86" y1="440.27" x2="196.86" y2="440.27" stroke="#ff7f0e" stroke-width="1.2" opacity="0.85"/>
<line x1="188.86" y1="438.27" x2="196.86" y2="438.27" stroke="#ff7f0e" stroke-width="1.2" opacity="0.85"/>
<line x1="205.40" y1="445.07" x2="205.40" y2="442.96" stroke="#ff7f0e" stroke-width="1.2" opacity="0.85"/>
<line x1="201.40" y1="445.07" x2="209.40" y2="445.07" stroke="#ff7f0e" stroke-width="1.2" opacity="0.85"/>
<line x1="201.40" y1="442.96" x2="209.40" y2="442.96" stroke="#ff7f0e" stroke-width="1.2" opacity="0.85"/>
<line x1="217.94" y1="449.24" x2="217.94" y2="447.03" stroke="#ff7f0e" stroke-width="1.2" opacity="0.85"/>
<line x1="213.94" y1="449.24" x2="221.94" y2="449.24" stroke="#ff7f0e" stroke-width="1.2" opacity="0.85"/>
<line x1="213.94" y1="447.03" x2="221.94" y2="447.03" stroke="#ff7f0e" stroke-width="1.2" opacity="0.85"/>
<line x1="230.48" y1="452.80" x2="230.48" y2="450.49" stroke="#ff7f0e" stroke-width="1.2" opacity="0.85"/>
<line x1="226.48" y1="452.80" x2="234.48" y2="452.80" stroke="#ff7f0e" stroke-width="1.2" opacity="0.85"/>
<line x1="226.48" y1="450.49" x2="234.48" y2="450.49" stroke="#ff7f0e" stroke-width="1.2" opacity="0.85"/>
<line x1="243.02" y1="455.87" x2="243.02" y2="453.47" stroke="#ff7f0e" stroke-width="1.2" opacity="0.85"/>
<line x1="239.02" y1="455.87" x2="247.02" y2="455.87" stroke="#ff7f0e" stroke-width="1.2" opacity="0.85"/>
<line x1="239.02" y1="453.47" x2="247.02" y2="453.47" stroke="#ff7f0e" stroke-width="1.2" opacity="0.85"/>
<line x1="255.56" y1="458.73" x2="255.56" y2="456.25" stroke="#ff7f0e" stroke-width="1.2" opacity="0.85"/>
<line x1="251.56" y1="458.73" x2="259.56" y2="458.73" stroke="#ff7f0e" stroke-width="1.2" opacity="0.85"/>
<line x1="251.56" y1="456.25" x2="259.56" y2="456.25" stroke="#ff7f0e" stroke-width="1.2" opacity="0.85"/>
<line x1="268.10" y1="461.07" x2="268.10" y2="458.52" stroke="#ff7f0e" stroke-width="1.2" opacity="0.85"/>
<line x1="264.10" y1="461.07" x2="272.10" y2="461.07" stroke="#ff7f0e" stroke-width="1.2" opacity="0.85"/>
<line x1="264.10" y1="458.52" x2="272.10" y2="458.52" stroke="#ff7f0e" stroke-width="1.2" opacity="0.85"/>
<line x1="280.63" y1="463.17" x2="280.63" y2="460.55" stroke="#ff7f0e" stroke-width="1.2" opacity="0.85"/>
<line x1="276.63" y1="463.17" x2="284.63" y2="463.17" stroke="#ff7f0e" stroke-width="1.2" opacity="0.85"/>
<line x1="276.63" y1="460.55" x2="284.63" y2="460.55" stroke="#ff7f0e" stroke-width="1.2" opacity="0.85"/>
<line x1="293.17" y1="464.99" x2="293.17" y2="462.30" stroke="#ff7f0e" stroke-width="1.2" opacity="0.85"/>
<line x1="289.17" y1="464.99" x2="297.17" y2="464.99" stroke="#ff7f0e" stroke-width="1.2" opacity="0.85"/>
<line x1="289.17" y1="462.30" x2="297.17" y2="462.30" stroke="#ff7f0e" stroke-width="1.2" opacity="0.85"/>
<line x1="305.71" y1="466.57" x2="305.71" y2="463.83" stroke="#ff7f0e" stroke-width="1.2" opacity="0.85"/>
<line x1="301.71" y1="466.57" x2="309.71" y2="466.57" stroke="#ff7f0e" stroke-width="1.2" opacity="0.85"/>
<line x1="301.71" y1="463.83" x2="309.71" y2="463.83" stroke="#ff7f0e" stroke-width="1.2" opacity="0.85"/>
<line x1="318.25" y1="467.84" x2="318.25" y2="465.04" stroke="#ff7f0e" stroke-width="1.2" opacity="0.85"/>
<line x1="314.25" y1="467.84" x2="322.25" y2="467.84" stroke="#ff7f0e" stroke-width="1.2" opacity="0.85"/>
<line x1="314.25" y1="465.04" x2="322.25" y2="465.04" stroke="#ff7f0e" stroke-width="1.2" opacity="0.85"/>
<line x1="330.79" y1="469.04" x2="330.79" y2="466.19" stroke="#ff7f0e" stroke-width="1.2" opacity="0.85"/>
<line x1="326.79" y1="469.04" x2="334.79" y2="469.04" stroke="#ff7f0e" stroke-width="1.2" opacity="0.85"/>
<line x1="326.79" y1="466.19" x2="334.79" y2="466.19" stroke="#ff7f0e" stroke-width="1.2" opacity="0.85"/>
<line x1="343.33" y1="470.20" x2="343.33" y2="467.31" stroke="#ff7f0e" stroke-width="1.2" opacity="0.85"/>
<line x1="339.33" y1="470.20" x2="347.33" y2="470.20" stroke="#ff7f0e" stroke-width="1.2" opacity="0.85"/>
<line x1="339.33" y1="467.31" x2="347.33" y2="467.31" stroke="#ff7f0e" stroke-width="1.2" opacity="0.85"/>
<line x1="355.87" y1="471.11" x2="355.87" y2="468.18" stroke="#ff7f0e" stroke-width="1.2" opacity="0.85"/>
<line x1="351.87" y1="471.11" x2="359.87" y2="471.11" stroke="#ff7f0e" stroke-width="1.2" opacity="0.85"/>
<line x1="351.87" y1="468.18" x2="359.87" y2="468.18" stroke="#ff7f0e" stroke-width="1.2" opacity="0.85"/>
<line x1="368.41" y1="471.88" x2="368.41" y2="468.90" stroke="#ff7f0e" stroke-width="1.2" opacity="0.85"/>
<line x1="364.41" y1="471.88" x2="372.41" y2="471.88" stroke="#ff7f0e" stroke-width="1.2" opacity="0.85"/>
<line x1="364.41" y1="468.90" x2="372.41" y2="468.90" stroke="#ff7f0e" stroke-width="1.2" opacity="0.85"/>
<line x1="380.95" y1="472.53" x2="380.95" y2="469.51" stroke="#ff7f0e" stroke-width="1.2" opacity="0.85"/>
<line x1="376.95" y1="472.53" x2="384.95" y2="472.53" stroke="#ff7f0e" stroke-width="1.2" opacity="0.85"/>
<line x1="376.95" y1="469.51" x2="384.95" y2="469.51" stroke="#ff7f0e" stroke-width="1.2" opacity="0.85"/>
<line x1="393.49" y1="473.18" x2="393.49" y2="470.13" stroke="#ff7f0e" stroke-width="1.2" opacity="0.85"/>
<line x1="389.49" y1="473.18" x2="397.49" y2="473.18" stroke="#ff7f0e" stroke-width="1.2" opacity="0.85"/>
<line x1="389.49" y1="470.13" x2="397.49" y2="470.13" stroke="#ff7f0e" stroke-width="1.2" opacity="0.85"/>
<line x1="406.03" y1="473.71" x2="406.03" y2="470.63" stroke="#ff7f0e" stroke-width="1.2" opacity="0.85"/>
<line x1="402.03" y1="473.71" x2="410.03" y2="473.71" stroke="#ff7f0e" stroke-width="1.2" opacity="0.85"/>
<line x1="402.03" y1="470.63" x2="410.03" y2="470.63" stroke="#ff7f0e" stroke-width="1.2" opacity="0.85"/>
<line x1="418.57" y1="474.23" x2="418.57" y2="471.14" stroke="#ff7f0e" stroke-width="1.2" opacity="0.85"/>
<line x1="414.57" y1="474.23" x2="422.57" y2="474.23" stroke="#ff7f0e" stroke-width="1.2" opacity="0.85"/>
<line x1="414.57" y1="471.14" x2="422.57" y2="471.14" stroke="#ff7f0e" stroke-width="1.2" opacity="0.85"/>
<line x1="431.11" y1="474.53" x2="431.11" y2="471.41" stroke="#ff7f0e" stroke-width="1.2" opacity="0.85"/>
<line x1="427.11" y1="474.53" x2="435.11" y2="474.53" stroke="#ff7f0e" stroke-width="1.2" opacity="0.85"/>
<line x1="427.11" y1="471.41" x2="435.11" y2="471.41" stroke="#ff7f0e" stroke-width="1.2" opacity="0.85"/>
<line x1="443.65" y1="474.74" x2="443.65" y2="471.61" stroke="#ff7f0e" stroke-width="1.2" opacity="0.85"/>
<line x1="439.65" y1="474.74" x2="447.65" y2="474.74" stroke="#ff7f0e" stroke-width="1.2" opacity="0.85"/>
<line x1="439.65" y1="471.61" x2="447.65" y2="471.61" stroke="#ff7f0e" stroke-width="1.2" opacity="0.85"/>
<line x1="456.19" y1="474.84" x2="456.19" y2="471.69" stroke="#ff7f0e" stroke-width="1.2" opacity="0.85"/>
<line x1="452.19" y1="474.84" x2="460.19" y2="474.84" stroke="#ff7f0e" stroke-width="1.2" opacity="0.85"/>
<line x1="452.19" y1="471.69" x2="460.19" y2="471.69" stroke="#ff7f0e" stroke-width="1.2" opacity="0.85"/>
<line x1="468.73" y1="474.93" x2="468.73" y2="471.77" stroke="#ff7f0e" stroke-width="1.2" opacity="0.85"/>
<line x1="464.73" y1="474.93" x2="472.73" y2="474.93" stroke="#ff7f0e" stroke-width="1.2" opacity="0.85"/>
<line x1="464.73" y1="471.77" x2="472.73" y2="471.77" stroke="#ff7f0e" stroke-width="1.2" opacity="0.85"/>
<line x1="481.27" y1="475.00" x2="481.27" y2="471.83" stroke="#ff7f0e" stroke-width="1.2" opacity="0.85"/>
<line x1="477.27" y1="475.00" x2="485.27" y2="475.00" stroke="#ff7f0e" stroke-width="1.2" opacity="0.85"/>
<line x1="477.27" y1="471.83" x2="485.27" y2="471.83" stroke="#ff7f0e" stroke-width="1.2" opacity="0.85"/>
<line x1="493.81" y1="474.93" x2="493.81" y2="471.77" stroke="#ff7f0e" stroke-width="1.2" opacity="0.85"/>
<line x1="489.81" y1="474.93" x2="497.81" y2="474.93" stroke="#ff7f0e" stroke-width="1.2" opacity="0.85"/>
<line x1="489.81" y1="471.77" x2="497.81" y2="471.77" stroke="#ff7f0e" stroke-width="1.2" opacity="0.85"/>
<line x1="506.35" y1="474.84" x2="506.35" y2="471.69" stroke="#ff7f0e" stroke-width="1.2" opacity="0.85"/>
<line x1="502.35" y1="474.84" x2="510.35" y2="474.84" stroke="#ff7f0e" stroke-width="1.2" opacity="0.85"/>
<line x1="502.35" y1="471.69" x2="510.35" y2="471.69" stroke="#ff7f0e" stroke-width="1.2" opacity="0.85"/>
<line x1="518.89" y1="474.74" x2="518.89" y2="471.61" stroke="#ff7f0e" stroke-width="1.2" opacity="0.85"/>
<line x1="514.89" y1="474.74" x2="522.89" y2="474.74" stroke="#ff7f0e" stroke-width="1.2" opacity="0.85"/>
<line x1="514.89" y1="471.61" x2="522.89" y2="471.61" stroke="#ff7f0e" stroke-width="1.2" opacity="0.85"/>
<line x1="531.43" y1="474.53" x2="531.43" y2="471.41" stroke="#ff7f0e" stroke-width="1.2" opacity="0.85"/>
<line x1="527.43" y1="474.53" x2="535.43" y2="474.53" stroke="#ff7f0e" stroke-width="1.2" opacity="0.85"/>
<line x1="527.43" y1="471.41" x2="535.43" y2="471.41" stroke="#ff7f0e" stroke-width="1.2" opacity="0.85"/>
<line x1="543.97" y1="474.23" x2="543.97" y2="471.14" stroke="#ff7f0e" stroke-width="1.2" opacity="0.85"/>
<line x1="539.97" y1="474.23" x2="547.97" y2="474.23" stroke="#ff7f0e" stroke-width="1.2" opacity="0.85"/>
<line x1="539.97" y1="471.14" x2="547.97" y2="471.14" stroke="#ff7f0e" stroke-width="1.2" opacity="0.85"/>
<line x1="556.51" y1="473.71" x2="556.51" y2="470.63" stroke="#ff7f0e" stroke-width="1.2" opacity="0.85"/>
<line x1="552.51" y1="473.71" x2="560.51" y2="473.71" stroke="#ff7f0e" stroke-width="1.2" opacity="0.85"/>
<line x1="552.51" y1="470.63" x2="560.51" y2="470.63" stroke="#ff7f0e" stroke-width="1.2" opacity="0.85"/>
<line x1="569.05" y1="473.18" x2="569.05" y2="470.13" stroke="#ff7f0e" stroke-width="1.2" opacity="0.85"/>
<line x1="565.05" y1="473.18" x2="573.05" y2="473.18" stroke="#ff7f0e" stroke-width="1.2" opacity="0.85"/>
<line x1="565.05" y1="470.13" x2="573.05" y2="470.13" stroke="#ff7f0e" stroke-width="1.2" opacity="0.85"/>
<line x1="581.59" y1="472.53" x2="581.59" y2="469.51" stroke="#ff7f0e" stroke-width="1.2" opacity="0.85"/>
<line x1="577.59" y1="472.53" x2="585.59" y2="472.53" stroke="#ff7f0e" stroke-width="1.2" opacity="0.85"/>
<line x1="577.59" y1="469.51" x2="585.59" y2="469.51" stroke="#ff7f0e" stroke-width="1.2" opacity="0.85"/>
<line x1="594.13" y1="471.88" x2="594.13" y2="468.90" stroke="#ff7f0e" stroke-width="1.2" opacity="0.85"/>
<line x1="590.13" y1="471.88" x2="598.13" y2="471.88" stroke="#ff7f0e" stroke-width="1.2" opacity="0.85"/>
<line x1="590.13" y1="468.90" x2="598.13" y2="468.90" stroke="#ff7f0e" stroke-width="1.2" opacity="0.85"/>
<line x1="606.67" y1="471.11" x2="606.67" y2="468.18" stroke="#ff7f0e" stroke-width="1.2" opacity="0.85"/>
<line x1="602.67" y1="471.11" x2="610.67" y2="471.11" stroke="#ff7f0e" stroke-width="1.2" opacity="0.85"/>
<line x1="602.67" y1="468.18" x2="610.67" y2="468.18" stroke="#ff7f0e" stroke-width="1.2" opacity="0.85"/>
<line x1="619.21" y1="470.20" x2="619.21" y2="467.31" stroke="#ff7f0e" stroke-width="1.2" opacity="0.85"/>
<line x1="615.21" y1="470.20" x2="623.21" y2="470.20" stroke="#ff7f0e" stroke-width="1.2" opacity="0.85"/>
<line x1="615.21" y1="467.31" x2="623.21" y2="467.31" stroke="#ff7f0e" stroke-width="1.2" opacity="0.85"/>
<line x1="631.75" y1="469.04" x2="631.75" y2="466.19" stroke="#ff7f0e" stroke-width="1.2" opacity="0.85"/>
<line x1="627.75" y1="469.04" x2="635.75" y2="469.04" stroke="#ff7f0e" stroke-width="1.2" opacity="0.85"/>
<line x1="627.75" y1="466.19" x2="635.75" y2="466.19" stroke="#ff7f0e" stroke-width="1.2" opacity="0.85"/>
<line x1="644.29" y1="467.84" x2="644.29" y2="465.04" stroke="#ff7f0e" stroke-width="1.2" opacity="0.85"/>
<line x1="640.29" y1="467.84" x2="648.29" y2="467.84" stroke="#ff7f0e" stroke-width="1.2" opacity="0.85"/>
<line x1="640.29" y1="465.04" x2="648.29" y2="465.04" stroke="#ff7f0e" stroke-width="1.2" opacity="0.85"/>
<line x1="656.83" y1="466.57" x2="656.83" y2="463.83" stroke="#ff7f0e" stroke-width="1.2" opacity="0.85"/>
<line x1="652.83" y1="466.57" x2="660.83" y2="466.57" stroke="#ff7f0e" stroke-width="1.2" opacity="0.85"/>
<line x1="652.83" y1="463.83" x2="660.83" y2="463.83" stroke="#ff7f0e" stroke-width="1.2" opacity="0.85"/>
<line x1="669.37" y1="464.99" x2="669.37" y2="462.30" stroke="#ff7f0e" stroke-width="1.2" opacity="0.85"/>
<line x1="665.37" y1="464.99" x2="673.37" y2="464.99" stroke="#ff7f0e" stroke-width="1.2" opacity="0.85"/>
<line x1="665.37" y1="462.30" x2="673.37" y2="462.30" stroke="#ff7f0e" stroke-width="1.2" opacity="0.85"/>
<line x1="681.90" y1="463.17" x2="681.90" y2="460.55" stroke="#ff7f0e" stroke-width="1.2" opacity="0.85"/>
<line x1="677.90" y1="463.17" x2="685.90" y2="463.17" stroke="#ff7f0e" stroke-width="1.2" opacity="0.85"/>
<line x1="677.90" y1="460.55" x2="685.90" y2="460.55" stroke="#ff7f0e" stroke-width="1.2" opacity="0.85"/>
<line x1="694.44" y1="461.07" x2="694.44" y2="458.52" stroke="#ff7f0e" stroke-width="1.2" opacity="0.85"/>
<line x1="690.44" y1="461.07" x2="698.44" y2="461.07" stroke="#ff7f0e" stroke-width="1.2" opacity="0.85"/>
<line x1="690.44" y1="458.52" x2="698.44" y2="458.52" stroke="#ff7f0e" stroke-width="1.2" opacity="0.85"/>
<line x1="706.98" y1="458.73" x2="706.98" y2="456.25" stroke="#ff7f0e" stroke-width="1.2" opacity="0.85"/>
<line x1="702.98" y1="458.73" x2="710.98" y2="458.73" stroke="#ff7f0e" stroke-width="1.2" opacity="0.85"/>
<line x1="702.98" y1="456.25" x2="710.98" y2="456.25" stroke="#ff7f0e" stroke-width="1.2" opacity="0.85"/>
<line x1="719.52" y1="455.87" x2="719.52" y2="453.47" stroke="#ff7f0e" stroke-width="1.2" opacity="0.85"/>
<line x1="715.52" y1="455.87" x2="723.52" y2="455.87" stroke="#ff7f0e" stroke-width="1.2" opacity="0.85"/>
<line x1="715.52" y1="453.47" x2="723.52" y2="453.47" stroke="#ff7f0e" stroke-width="1.2" opacity="0.85"/>
<line x1="732.06" y1="452.80" x2="732.06" y2="450.49" stroke="#ff7f0e" stroke-width="1.2" opacity="0.85"/>
<line x1="728.06" y1="452.80" x2="736.06" y2="452.80" stroke="#ff7f0e" stroke-width="1.2" opacity="0.85"/>
<line x1="728.06" y1="450.49" x2="736.06" y2="450.49" stroke="#ff7f0e" stroke-width="1.2" opacity="0.85"/>
<line x1="744.60" y1="449.24" x2="744.60" y2="447.03" stroke="#ff7f0e" stroke-width="1.2" opacity="0.85"/>
<line x1="740.60" y1="449.24" x2="748.60" y2="449.24" stroke="#ff7f0e" stroke-width="1.2" opacity="0.85"/>
<line x1="740.60" y1="447.03" x2="748.60" y2="447.03" stroke="#ff7f0e" stroke-width="1.2" opacity="0.85"/>
<line x1="757.14" y1="445.07" x2="757.14" y2="442.96" stroke="#ff7f0e" stroke-width="1.2" opacity="0.85"/>
<line x1="753.14" y1="445.07" x2="761.14" y2="445.07" stroke="#ff7f0e" stroke-width="1.2" opacity="0.85"/>
<line x1="753.14" y1="442.96" x2="761.14" y2="442.96" stroke="#ff7f0e" stroke-width="1.2" opacity="0.85"/>
<line x1="769.68" y1="440.27" x2="769.68" y2="438.27" stroke="#ff7f0e" stroke-width="1.2" opacity="0.85"/>
<line x1="765.68" y1="440.27" x2="773.68" y2="440.27" stroke="#ff7f0e" stroke-width="1.2" opacity="0.85"/>
<line x1="765.68" y1="438.27" x2="773.68" y2="438.27" stroke="#ff7f0e" stroke-width="1.2" opacity="0.85"/>
<line x1="782.22" y1="434.57" x2="782.22" y2="432.69" stroke="#ff7f0e" stroke-width="1.2" opacity="0.85"/>
<line x1="778.22" y1="434.57" x2="786.22" y2="434.57" stroke="#ff7f0e" stroke-width="1.2" opacity="0.85"/>
<line x1="778.22" y1="432.69" x2="786.22" y2="432.69" stroke="#ff7f0e" stroke-width="1.2" opacity="0.85"/>
<line x1="794.76" y1="427.70" x2="794.76" y2="425.94" stroke="#ff7f0e" stroke-width="1.2" opacity="0.85"/>
<line x1="790.76" y1="427.70" x2="798.76" y2="427.70" stroke="#ff7f0e" stroke-width="1.2" opacity="0.85"/>
<line x1="790.76" y1="425.94" x2="798.76" y2="425.94" stroke="#ff7f0e" stroke-width="1.2" opacity="0.85"/>
<line x1="807.30" y1="419.29" x2="807.30" y2="417.68" stroke="#ff7f0e" stroke-width="1.2" opacity="0.85"/>
<line x1="803.30" y1="419.29" x2="811.30" y2="419.29" stroke="#ff7f0e" stroke-width="1.2" opacity="0.85"/>
<line x1="803.30" y1="417.68" x2="811.30" y2="417.68" stroke="#ff7f0e" stroke-width="1.2" opacity="0.85"/>
<line x1="819.84" y1="408.41" x2="819.84" y2="406.96" stroke="#ff7f0e" stroke-width="1.2" opacity="0.85"/>
<line x1="815.84" y1="408.41" x2="823.84" y2="408.41" stroke="#ff7f0e" stroke-width="1.2" opacity="0.85"/>
<line x1="815.84" y1="406.96" x2="823.84" y2="406.96" stroke="#ff7f0e" stroke-width="1.2" opacity="0.85"/>
<line x1="832.38" y1="394.14" x2="832.38" y2="392.87" stroke="#ff7f0e" stroke-width="1.2" opacity="0.85"/>
<line x1="828.38" y1="394.14" x2="836.38" y2="394.14" stroke="#ff7f0e" stroke-width="1.2" opacity="0.85"/>
<line x1="828.38" y1="392.87" x2="836.38" y2="392.87" stroke="#ff7f0e" stroke-width="1.2" opacity="0.85"/>
<line x1="844.92" y1="373.69" x2="844.92" y2="372.61" stroke="#ff7f0e" stroke-width="1.2" opacity="0.85"/>
<line x1="840.92" y1="373.69" x2="848.92" y2="373.69" stroke="#ff7f0e" stroke-width="1.2" opacity="0.85"/>
<line x1="840.92" y1="372.61" x2="848.92" y2="372.61" stroke="#ff7f0e" stroke-width="1.2" opacity="0.85"/>
<line x1="857.46" y1="341.35" x2="857.46" y2="340.51" stroke="#ff7f0e" stroke-width="1.2" opacity="0.85"/>
<line x1="853.46" y1="341.35" x2="861.46" y2="341.35" stroke="#ff7f0e" stroke-width="1.2" opacity="0.85"/>
<line x1="853.46" y1="340.51" x2="861.46" y2="340.51" stroke="#ff7f0e" stroke-width="1.2" opacity="0.85"/>
<line x1="870.00" y1="276.70" x2="870.00" y2="276.17" stroke="#ff7f0e" stroke-width="1.2" opacity="0.85"/>
<line x1="866.00" y1="276.70" x2="874.00" y2="276.70" stroke="#ff7f0e" stroke-width="1.2" opacity="0.85"/>
<line x1="866.00" y1="276.17" x2="874.00" y2="276.17" stroke="#ff7f0e" stroke-width="1.2" opacity="0.85"/>
<polyline points="80.00,75.06 92.54,276.44 105.08,340.93 117.62,373.15 130.16,393.51 142.70,407.69 155.24,418.49 167.78,426.82 180.32,433.63 192.86,439.27 205.40,444.02 217.94,448.13 230.48,451.64 243.02,454.67 255.56,457.49 268.10,459.80 280.63,461.86 293.17,463.64 305.71,465.20 318.25,466.44 330.79,467.62 343.33,468.76 355.87,469.65 368.41,470.39 380.95,471.02 393.49,471.65 406.03,472.17 418.57,472.69 431.11,472.97 443.65,473.18 456.19,473.27 468.73,473.35 481.27,473.41 493.81,473.35 506.35,473.27 518.89,473.18 531.43,472.97 543.97,472.69 556.51,472.17 569.05,471.65 581.59,471.02 594.13,470.39 606.67,469.65 619.21,468.76 631.75,467.62 644.29,466.44 656.83,465.20 669.37,463.64 681.90,461.86 694.44,459.80 706.98,457.49 719.52,454.67 732.06,451.64 744.60,448.13 757.14,444.02 769.68,439.27 782.22,433.63 794.76,426.82 807.30,418.49 819.84,407.69 832.38,393.51 844.92,373.15 857.46,340.93 870.00,276.44" fill="none" stroke="#ff7f0e" stroke-width="2"/>
<circle cx="80.00" cy="75.06" r="2.5" fill="#ff7f0e"/>
<circle cx="92.54" cy="276.44" r="2.5" fill="#ff7f0e"/>
<circle cx="105.08" cy="340.93" r="2.5" fill="#ff7f0e"/>
<circle cx="117.62" cy="373.15" r="2.5" fill="#ff7f0e"/>
<circle cx="130.16" cy="393.51" r="2.5" fill="#ff7f0e"/>
<circle cx="142.70" cy="407.69" r="2.5" fill="#ff7f0e"/>
<circle cx="155.24" cy="418.49" r="2.5" fill="#ff7f0e"/>
<circle cx="167.78" cy="426.82" r="2.5" fill="#ff7f0e"/>
<circle cx="180.32" cy="433.63" r="2.5" fill="#ff7f0e"/>
<circle cx="192.86" cy="439.27" r="2.5" fill="#ff7f0e"/>
<circle cx="205.40" cy="444.02" r="2.5" fill="#ff7f0e"/>
<circle cx="217.94" cy="448.13" r="2.5" fill="#ff7f0e"/>
<circle cx="230.48" cy="451.64" r="2.5" fill="#ff7f0e"/>
<circle cx="243.02" cy="454.67" r="2.5" fill="#ff7f0e"/>
<circle cx="255.56" cy="457.49" r="2.5" fill="#ff7f0e"/>
<circle cx="268.10" cy="459.80" r="2.5" fill="#ff7f0e"/>
<circle cx="280.63" cy="461.86" r="2.5" fill="#ff7f0e"/>
<circle cx="293.17" cy="463.64" r="2.5" fill="#ff7f0e"/>
<circle cx="305.71" cy="465.20" r="2.5" fill="#ff7f0e"/>
<circle cx="318.25" cy="466.44" r="2.5" fill="#ff7f0e"/>
<circle cx="330.79" cy="467.62" r="2.5" fill="#ff7f0e"/>
<circle cx="343.33" cy="468.76" r="2.5" fill="#ff7f0e"/>
<circle cx="355.87" cy="469.65" r="2.5" fill="#ff7f0e"/>
<circle cx="368.41" cy="470.39" r="2.5" fill="#ff7f0e"/>
<circle cx="380.95" cy="471.02" r="2.5" fill="#ff7f0e"/>
<circle cx="393.49" cy="471.65" r="2.5" fill="#ff7f0e"/>
<circle cx="406.03" cy="472.17" r="2.5" fill="#ff7f0e"/>
<circle cx="418.57" cy="472.69" r="2.5" fill="#ff7f0e"/>
<circle cx="431.11" cy="472.97" r="2.5" fill="#ff7f0e"/>
<circle cx="443.65" cy="473.18" r="2.5" fill="#ff7f0e"/>
<circle cx="456.19" cy="473.27" r="2.5" fill="#ff7f0e"/>
<circle cx="468.73" cy="473.35" r="2.5" fill="#ff7f0e"/>
<circle cx="481.27" cy="473.41" r="2.5" fill="#ff7f0e"/>
<circle cx="493.81" cy="473.35" r="2.5" fill="#ff7f0e"/>
<circle cx="506.35" cy="473.27" r="2.5" fill="#ff7f0e"/>
<circle cx="518.89" cy="473.18" r="2.5" fill="#ff7f0e"/>
<circle cx="531.43" cy="472.97" r="2.5" fill="#ff7f0e"/>
<circle cx="543.97" cy="472.69" r="2.5" fill="#ff7f0e"/>
<circle cx="556.51" cy="472.17" r="2.5" fill="#ff7f0e"/>
<circle cx="569.05" cy="471.65" r="2.5" fill="#ff7f0e"/>
<circle cx="581.59" cy="471.02" r="2.5" fill="#ff7f0e"/>
<circle cx="594.13" cy="470.39" r="2.5" fill="#ff7f0e"/>
<circle cx="606.67" cy="469.65" r="2.5" fill="#ff7f0e"/>
<circle cx="619.21" cy="468.76" r="2.5" fill="#ff7f0e"/>
<circle cx="631.75" cy="467.62" r="2.5" fill="#ff7f0e"/>
<circle cx="644.29" cy="466.44" r="2.5" fill="#ff7f0e"/>
<circle cx="656.83" cy="465.20" r="2.5" fill="#ff7f0e"/>
<circle cx="669.37" cy="463.64" r="2.5" fill="#ff7f0e"/>
<circle cx="681.90" cy="461.86" r="2.5" fill="#ff7f0e"/>
<circle cx="694.44" cy="459.80" r="2.5" fill="#ff7f0e"/>
<circle cx="706.98" cy="457.49" r="2.5" fill="#ff7f0e"/>
<circle cx="719.52" cy="454.67" r="2.5" fill="#ff7f0e"/>
<circle cx="732.06" cy="451.64" r="2.5" fill="#ff7f0e"/>
<circle cx="744.60" cy="448.13" r="2.5" fill="#ff7f0e"/>
<circle cx="757.14" cy="444.02" r="2.5" fill="#ff7f0e"/>
<circle cx="769.68" cy="439.27" r="2.5" fill="#ff7f0e"/>
<circle cx="782.22" cy="433.63" r="2.5" fill="#ff7f0e"/>
<circle cx="794.76" cy="426.82" r="2.5" fill="#ff7f0e"/>
<circle cx="807.30" cy="418.49" r="2.5" fill="#ff7f0e"/>
<circle cx="819.84" cy="407.69" r="2.5" fill="#ff7f0e"/>
<circle cx="832.38" cy="393.51" r="2.5" fill="#ff7f0e"/>
<circle cx="844.92" cy="373.15" r="2.5" fill="#ff7f0e"/>
<circle cx="857.46" cy="340.93" r="2.5" fill="#ff7f0e"/>
<circle cx="870.00" cy="276.44" r="2.5" fill="#ff7f0e"/>
<rect x="660" y="70" width="190" height="64" fill="white" stroke="#cccccc"/>
<line x1="670" y1="90" x2="700" y2="90" stroke="#1f77b4" stroke-width="3"/>
<text x="708" y="94" font-size="12" font-family="Arial">connected x (jackknife)</text>
<line x1="670" y1="112" x2="700" y2="112" stroke="#ff7f0e" stroke-width="3"/>
<text x="708" y="116" font-size="12" font-family="Arial">connected y (jackknife)</text>
</svg>