<svg xmlns="http://www.w3.org/2000/svg" width="900" height="560">
<rect x="0" y="0" width="100%" height="100%" fill="white"/>
<text x="450.0" y="30" text-anchor="middle" font-size="20" font-family="Arial">Connected two-point over full periods: x=24, y=32 (no gaps)</text>
<line x1="80" y1="495" x2="870" y2="495" stroke="black"/>
<line x1="80" y1="55" x2="80" y2="495" stroke="black"/>
<line x1="80" y1="495.00" x2="870" y2="495.00" stroke="#dddddd"/>
<text x="70" y="499.00" text-anchor="end" font-size="12" font-family="Arial">0.160</text>
<line x1="80" y1="407.00" x2="870" y2="407.00" stroke="#dddddd"/>
<text x="70" y="411.00" text-anchor="end" font-size="12" font-family="Arial">0.336</text>
<line x1="80" y1="319.00" x2="870" y2="319.00" stroke="#dddddd"/>
<text x="70" y="323.00" text-anchor="end" font-size="12" font-family="Arial">0.512</text>
<line x1="80" y1="231.00" x2="870" y2="231.00" stroke="#dddddd"/>
<text x="70" y="235.00" text-anchor="end" font-size="12" font-family="Arial">0.687</text>
<line x1="80" y1="143.00" x2="870" y2="143.00" stroke="#dddddd"/>
<text x="70" y="147.00" text-anchor="end" font-size="12" font-family="Arial">0.863</text>
<line x1="80" y1="55.00" x2="870" y2="55.00" stroke="#dddddd"/>
<text x="70" y="59.00" text-anchor="end" font-size="12" font-family="Arial">1.039</text>
<line x1="80.00" y1="55" x2="80.00" y2="495" stroke="#f0f0f0"/>
<text x="80.00" y="515" text-anchor="middle" font-size="12" font-family="Arial">0.0</text>
<line x1="238.00" y1="55" x2="238.00" y2="495" stroke="#f0f0f0"/>
<text x="238.00" y="515" text-anchor="middle" font-size="12" font-family="Arial">6.2</text>
<line x1="396.00" y1="55" x2="396.00" y2="495" stroke="#f0f0f0"/>
<text x="396.00" y="515" text-anchor="middle" font-size="12" font-family="Arial">12.4</text>
<line x1="554.00" y1="55" x2="554.00" y2="495" stroke="#f0f0f0"/>
<text x="554.00" y="515" text-anchor="middle" font-size="12" font-family="Arial">18.6</text>
<line x1="712.00" y1="55" x2="712.00" y2="495" stroke="#f0f0f0"/>
<text x="712.00" y="515" text-anchor="middle" font-size="12" font-family="Arial">24.8</text>
<line x1="870.00" y1="55" x2="870.00" y2="495" stroke="#f0f0f0"/>
<text x="870.00" y="515" text-anchor="middle" font-size="12" font-family="Arial">31.0</text>
<text x="475.0" y="540" text-anchor="middle" font-size="14" font-family="Arial">lattice separation bin</text>
<text x="20" y="275.0" transform="rotate(-90 20,275.0)" text-anchor="middle" font-size="14" font-family="Arial">C(r)</text>
<polyline points="80.00,75.00 105.48,247.33 130.97,295.51 156.45,319.68 181.94,333.21 207.42,342.27 232.90,349.52 258.39,354.73 283.87,358.44 309.35,361.44 334.84,363.26 360.32,363.96 385.81,469.90 411.29,363.96 436.77,363.26 462.26,361.44 487.74,358.44 513.23,354.73 538.71,349.52 564.19,342.27 589.68,333.21 615.16,319.68 640.65,295.51 666.13,247.33" fill="none" stroke="#1f77b4" stroke-width="2"/>
<circle cx="80.00" cy="75.00" r="2.5" fill="#1f77b4"/>
<circle cx="105.48" cy="247.33" r="2.5" fill="#1f77b4"/>
<circle cx="130.97" cy="295.51" r="2.5" fill="#1f77b4"/>
<circle cx="156.45" cy="319.68" r="2.5" fill="#1f77b4"/>
<circle cx="181.94" cy="333.21" r="2.5" fill="#1f77b4"/>
<circle cx="207.42" cy="342.27" r="2.5" fill="#1f77b4"/>
<circle cx="232.90" cy="349.52" r="2.5" fill="#1f77b4"/>
<circle cx="258.39" cy="354.73" r="2.5" fill="#1f77b4"/>
<circle cx="283.87" cy="358.44" r="2.5" fill="#1f77b4"/>
<circle cx="309.35" cy="361.44" r="2.5" fill="#1f77b4"/>
<circle cx="334.84" cy="363.26" r="2.5" fill="#1f77b4"/>
<circle cx="360.32" cy="363.96" r="2.5" fill="#1f77b4"/>
<circle cx="385.81" cy="469.90" r="2.5" fill="#1f77b4"/>
<circle cx="411.29" cy="363.96" r="2.5" fill="#1f77b4"/>
<circle cx="436.77" cy="363.26" r="2.5" fill="#1f77b4"/>
<circle cx="462.26" cy="361.44" r="2.5" fill="#1f77b4"/>
<circle cx="487.74" cy="358.44" r="2.5" fill="#1f77b4"/>
<circle cx="513.23" cy="354.73" r="2.5" fill="#1f77b4"/>
<circle cx="538.71" cy="349.52" r="2.5" fill="#1f77b4"/>
<circle cx="564.19" cy="342.27" r="2.5" fill="#1f77b4"/>
<circle cx="589.68" cy="333.21" r="2.5" fill="#1f77b4"/>
<circle cx="615.16" cy="319.68" r="2.5" fill="#1f77b4"/>
<circle cx="640.65" cy="295.51" r="2.5" fill="#1f77b4"/>
<circle cx="666.13" cy="247.33" r="2.5" fill="#1f77b4"/>
<polyline points="80.00,75.00 105.48,248.18 130.97,295.88 156.45,319.99 181.94,334.85 207.42,344.49 232.90,351.97 258.39,357.78 283.87,362.35 309.35,365.88 334.84,368.65 360.32,370.86 385.81,372.41 411.29,373.35 436.77,373.99 462.26,374.26 487.74,475.00 513.23,374.26 538.71,373.99 564.19,373.35 589.68,372.41 615.16,370.86 640.65,368.65 666.13,365.88 691.61,362.35 717.10,357.78 742.58,351.97 768.06,344.49 793.55,334.85 819.03,319.99 844.52,295.88 870.00,248.18" fill="none" stroke="#ff7f0e" stroke-width="2"/>
<circle cx="80.00" cy="75.00" r="2.5" fill="#ff7f0e"/>
<circle cx="105.48" cy="248.18" r="2.5" fill="#ff7f0e"/>
<circle cx="130.97" cy="295.88" r="2.5" fill="#ff7f0e"/>
<circle cx="156.45" cy="319.99" r="2.5" fill="#ff7f0e"/>
<circle cx="181.94" cy="334.85" r="2.5" fill="#ff7f0e"/>
<circle cx="207.42" cy="344.49" r="2.5" fill="#ff7f0e"/>
<circle cx="232.90" cy="351.97" r="2.5" fill="#ff7f0e"/>
<circle cx="258.39" cy="357.78" r="2.5" fill="#ff7f0e"/>
<circle cx="283.87" cy="362.35" r="2.5" fill="#ff7f0e"/>
<circle cx="309.35" cy="365.88" r="2.5" fill="#ff7f0e"/>
<circle cx="334.84" cy="368.65" r="2.5" fill="#ff7f0e"/>
<circle cx="360.32" cy="370.86" r="2.5" fill="#ff7f0e"/>
<circle cx="385.81" cy="372.41" r="2.5" fill="#ff7f0e"/>
<circle cx="411.29" cy="373.35" r="2.5" fill="#ff7f0e"/>
<circle cx="436.77" cy="373.99" r="2.5" fill="#ff7f0e"/>
<circle cx="462.26" cy="374.26" r="2.5" fill="#ff7f0e"/>
<circle cx="487.74" cy="475.00" r="2.5" fill="#ff7f0e"/>
<circle cx="513.23" cy="374.26" r="2.5" fill="#ff7f0e"/>
<circle cx="538.71" cy="373.99" r="2.5" fill="#ff7f0e"/>
<circle cx="564.19" cy="373.35" r="2.5" fill="#ff7f0e"/>
<circle cx="589.68" cy="372.41" r="2.5" fill="#ff7f0e"/>
<circle cx="615.16" cy="370.86" r="2.5" fill="#ff7f0e"/>
<circle cx="640.65" cy="368.65" r="2.5" fill="#ff7f0e"/>
<circle cx="666.13" cy="365.88" r="2.5" fill="#ff7f0e"/>
<circle cx="691.61" cy="362.35" r="2.5" fill="#ff7f0e"/>
<circle cx="717.10" cy="357.78" r="2.5" fill="#ff7f0e"/>
<circle cx="742.58" cy="351.97" r="2.5" fill="#ff7f0e"/>
<circle cx="768.06" cy="344.49" r="2.5" fill="#ff7f0e"/>
<circle cx="793.55" cy="334.85" r="2.5" fill="#ff7f0e"/>
<circle cx="819.03" cy="319.99" r="2.5" fill="#ff7f0e"/>
<circle cx="844.52" cy="295.88" r="2.5" fill="#ff7f0e"/>
<circle cx="870.00" cy="248.18" r="2.5" fill="#ff7f0e"/>
<rect x="660" y="70" width="190" height="75" fill="white" stroke="#cccccc"/>
<line x1="670" y1="90" x2="700" y2="90" stroke="#1f77b4" stroke-width="3"/>
<text x="708" y="94" font-size="12" font-family="Arial">x direction</text>
<line x1="670" y1="112" x2="700" y2="112" stroke="#ff7f0e" stroke-width="3"/>
<text x="708" y="116" font-size="12" font-family="Arial">y direction</text>
<line x1="670" y1="134" x2="700" y2="134" stroke="#2ca02c" stroke-width="3"/>
<text x="708" y="138" font-size="12" font-family="Arial">oblique (x-y) direction</text>
</svg>