<svg xmlns="http://www.w3.org/2000/svg" width="900" height="560">
<rect x="0" y="0" width="100%" height="100%" fill="white"/>
<text x="450.0" y="30" text-anchor="middle" font-size="20" font-family="Arial">Equilateral (N=8): n_x=24, n_y=32, k1=k2=k3=0.44068679</text>
<line x1="80" y1="495" x2="870" y2="495" stroke="black"/>
<line x1="80" y1="55" x2="80" y2="495" stroke="black"/>
<line x1="80" y1="495.00" x2="870" y2="495.00" stroke="#dddddd"/>
<text x="70" y="499.00" text-anchor="end" font-size="12" font-family="Arial">0.375</text>
<line x1="80" y1="407.00" x2="870" y2="407.00" stroke="#dddddd"/>
<text x="70" y="411.00" text-anchor="end" font-size="12" font-family="Arial">0.525</text>
<line x1="80" y1="319.00" x2="870" y2="319.00" stroke="#dddddd"/>
<text x="70" y="323.00" text-anchor="end" font-size="12" font-family="Arial">0.675</text>
<line x1="80" y1="231.00" x2="870" y2="231.00" stroke="#dddddd"/>
<text x="70" y="235.00" text-anchor="end" font-size="12" font-family="Arial">0.824</text>
<line x1="80" y1="143.00" x2="870" y2="143.00" stroke="#dddddd"/>
<text x="70" y="147.00" text-anchor="end" font-size="12" font-family="Arial">0.974</text>
<line x1="80" y1="55.00" x2="870" y2="55.00" stroke="#dddddd"/>
<text x="70" y="59.00" text-anchor="end" font-size="12" font-family="Arial">1.124</text>
<line x1="80.00" y1="55" x2="80.00" y2="495" stroke="#f0f0f0"/>
<text x="80.00" y="515" text-anchor="middle" font-size="12" font-family="Arial">0.0</text>
<line x1="238.00" y1="55" x2="238.00" y2="495" stroke="#f0f0f0"/>
<text x="238.00" y="515" text-anchor="middle" font-size="12" font-family="Arial">2.2</text>
<line x1="396.00" y1="55" x2="396.00" y2="495" stroke="#f0f0f0"/>
<text x="396.00" y="515" text-anchor="middle" font-size="12" font-family="Arial">4.4</text>
<line x1="554.00" y1="55" x2="554.00" y2="495" stroke="#f0f0f0"/>
<text x="554.00" y="515" text-anchor="middle" font-size="12" font-family="Arial">6.6</text>
<line x1="712.00" y1="55" x2="712.00" y2="495" stroke="#f0f0f0"/>
<text x="712.00" y="515" text-anchor="middle" font-size="12" font-family="Arial">8.8</text>
<line x1="870.00" y1="55" x2="870.00" y2="495" stroke="#f0f0f0"/>
<text x="870.00" y="515" text-anchor="middle" font-size="12" font-family="Arial">11.0</text>
<text x="475.0" y="540" text-anchor="middle" font-size="14" font-family="Arial">lattice separation bin</text>
<text x="20" y="275.0" transform="rotate(-90 20,275.0)" text-anchor="middle" font-size="14" font-family="Arial">C(r)</text>
<polyline points="80.00,127.93 151.82,330.09 223.64,386.61 295.45,414.97 367.27,430.84 439.09,441.46 510.91,449.97 582.73,456.08 654.55,460.43 726.36,463.95 798.18,466.09 870.00,466.91" fill="none" stroke="#1f77b4" stroke-width="2"/>
<circle cx="80.00" cy="127.93" r="2.5" fill="#1f77b4"/>
<circle cx="151.82" cy="330.09" r="2.5" fill="#1f77b4"/>
<circle cx="223.64" cy="386.61" r="2.5" fill="#1f77b4"/>
<circle cx="295.45" cy="414.97" r="2.5" fill="#1f77b4"/>
<circle cx="367.27" cy="430.84" r="2.5" fill="#1f77b4"/>
<circle cx="439.09" cy="441.46" r="2.5" fill="#1f77b4"/>
<circle cx="510.91" cy="449.97" r="2.5" fill="#1f77b4"/>
<circle cx="582.73" cy="456.08" r="2.5" fill="#1f77b4"/>
<circle cx="654.55" cy="460.43" r="2.5" fill="#1f77b4"/>
<circle cx="726.36" cy="463.95" r="2.5" fill="#1f77b4"/>
<circle cx="798.18" cy="466.09" r="2.5" fill="#1f77b4"/>
<circle cx="870.00" cy="466.91" r="2.5" fill="#1f77b4"/>
<polyline points="80.00,127.93 151.82,331.09 223.64,387.05 295.45,415.32 367.27,432.77 439.09,444.07 510.91,452.84 582.73,459.66 654.55,465.02 726.36,469.16 798.18,472.41 870.00,475.00" fill="none" stroke="#ff7f0e" stroke-width="2"/>
<circle cx="80.00" cy="127.93" r="2.5" fill="#ff7f0e"/>
<circle cx="151.82" cy="331.09" r="2.5" fill="#ff7f0e"/>
<circle cx="223.64" cy="387.05" r="2.5" fill="#ff7f0e"/>
<circle cx="295.45" cy="415.32" r="2.5" fill="#ff7f0e"/>
<circle cx="367.27" cy="432.77" r="2.5" fill="#ff7f0e"/>
<circle cx="439.09" cy="444.07" r="2.5" fill="#ff7f0e"/>
<circle cx="510.91" cy="452.84" r="2.5" fill="#ff7f0e"/>
<circle cx="582.73" cy="459.66" r="2.5" fill="#ff7f0e"/>
<circle cx="654.55" cy="465.02" r="2.5" fill="#ff7f0e"/>
<circle cx="726.36" cy="469.16" r="2.5" fill="#ff7f0e"/>
<circle cx="798.18" cy="472.41" r="2.5" fill="#ff7f0e"/>
<circle cx="870.00" cy="475.00" r="2.5" fill="#ff7f0e"/>
<polyline points="80.00,75.00 151.82,283.80 223.64,340.74 295.45,369.32 367.27,390.00 439.09,405.50 510.91,417.54 582.73,426.75 654.55,432.56 726.36,432.48 798.18,431.77 870.00,431.43" fill="none" stroke="#2ca02c" stroke-width="2"/>
<circle cx="80.00" cy="75.00" r="2.5" fill="#2ca02c"/>
<circle cx="151.82" cy="283.80" r="2.5" fill="#2ca02c"/>
<circle cx="223.64" cy="340.74" r="2.5" fill="#2ca02c"/>
<circle cx="295.45" cy="369.32" r="2.5" fill="#2ca02c"/>
<circle cx="367.27" cy="390.00" r="2.5" fill="#2ca02c"/>
<circle cx="439.09" cy="405.50" r="2.5" fill="#2ca02c"/>
<circle cx="510.91" cy="417.54" r="2.5" fill="#2ca02c"/>
<circle cx="582.73" cy="426.75" r="2.5" fill="#2ca02c"/>
<circle cx="654.55" cy="432.56" r="2.5" fill="#2ca02c"/>
<circle cx="726.36" cy="432.48" r="2.5" fill="#2ca02c"/>
<circle cx="798.18" cy="431.77" r="2.5" fill="#2ca02c"/>
<circle cx="870.00" cy="431.43" r="2.5" fill="#2ca02c"/>
<rect x="660" y="70" width="190" height="75" fill="white" stroke="#cccccc"/>
<line x1="670" y1="90" x2="700" y2="90" stroke="#1f77b4" stroke-width="3"/>
<text x="708" y="94" font-size="12" font-family="Arial">x direction</text>
<line x1="670" y1="112" x2="700" y2="112" stroke="#ff7f0e" stroke-width="3"/>
<text x="708" y="116" font-size="12" font-family="Arial">y direction</text>
<line x1="670" y1="134" x2="700" y2="134" stroke="#2ca02c" stroke-width="3"/>
<text x="708" y="138" font-size="12" font-family="Arial">oblique (x-y) direction</text>
</svg>