<svg xmlns="http://www.w3.org/2000/svg" width="900" height="560">
<rect x="0" y="0" width="100%" height="100%" fill="white"/>
<text x="450.0" y="30" text-anchor="middle" font-size="20" font-family="Arial">Connected all-to-all two-point with error bars: x=24, y=32</text>
<line x1="80" y1="495" x2="870" y2="495" stroke="black"/>
<line x1="80" y1="55" x2="80" y2="495" stroke="black"/>
<line x1="80" y1="495.00" x2="870" y2="495.00" stroke="#dddddd"/>
<text x="70" y="499.00" text-anchor="end" font-size="12" font-family="Arial">0.386</text>
<line x1="80" y1="407.00" x2="870" y2="407.00" stroke="#dddddd"/>
<text x="70" y="411.00" text-anchor="end" font-size="12" font-family="Arial">0.515</text>
<line x1="80" y1="319.00" x2="870" y2="319.00" stroke="#dddddd"/>
<text x="70" y="323.00" text-anchor="end" font-size="12" font-family="Arial">0.643</text>
<line x1="80" y1="231.00" x2="870" y2="231.00" stroke="#dddddd"/>
<text x="70" y="235.00" text-anchor="end" font-size="12" font-family="Arial">0.771</text>
<line x1="80" y1="143.00" x2="870" y2="143.00" stroke="#dddddd"/>
<text x="70" y="147.00" text-anchor="end" font-size="12" font-family="Arial">0.900</text>
<line x1="80" y1="55.00" x2="870" y2="55.00" stroke="#dddddd"/>
<text x="70" y="59.00" text-anchor="end" font-size="12" font-family="Arial">1.028</text>
<line x1="80.00" y1="55" x2="80.00" y2="495" stroke="#f0f0f0"/>
<text x="80.00" y="515" text-anchor="middle" font-size="12" font-family="Arial">0.0</text>
<line x1="238.00" y1="55" x2="238.00" y2="495" stroke="#f0f0f0"/>
<text x="238.00" y="515" text-anchor="middle" font-size="12" font-family="Arial">6.2</text>
<line x1="396.00" y1="55" x2="396.00" y2="495" stroke="#f0f0f0"/>
<text x="396.00" y="515" text-anchor="middle" font-size="12" font-family="Arial">12.4</text>
<line x1="554.00" y1="55" x2="554.00" y2="495" stroke="#f0f0f0"/>
<text x="554.00" y="515" text-anchor="middle" font-size="12" font-family="Arial">18.6</text>
<line x1="712.00" y1="55" x2="712.00" y2="495" stroke="#f0f0f0"/>
<text x="712.00" y="515" text-anchor="middle" font-size="12" font-family="Arial">24.8</text>
<line x1="870.00" y1="55" x2="870.00" y2="495" stroke="#f0f0f0"/>
<text x="870.00" y="515" text-anchor="middle" font-size="12" font-family="Arial">31.0</text>
<text x="475.0" y="540" text-anchor="middle" font-size="14" font-family="Arial">lattice separation bin</text>
<text x="20" y="275.0" transform="rotate(-90 20,275.0)" text-anchor="middle" font-size="14" font-family="Arial">C(r)</text>
<line x1="80.00" y1="75.00" x2="80.00" y2="75.00" stroke="#1f77b4" stroke-width="1.2" opacity="0.85"/>
<line x1="76.00" y1="75.00" x2="84.00" y2="75.00" stroke="#1f77b4" stroke-width="1.2" opacity="0.85"/>
<line x1="76.00" y1="75.00" x2="84.00" y2="75.00" stroke="#1f77b4" stroke-width="1.2" opacity="0.85"/>
<line x1="105.48" y1="298.62" x2="105.48" y2="295.21" stroke="#1f77b4" stroke-width="1.2" opacity="0.85"/>
<line x1="101.48" y1="298.62" x2="109.48" y2="298.62" stroke="#1f77b4" stroke-width="1.2" opacity="0.85"/>
<line x1="101.48" y1="295.21" x2="109.48" y2="295.21" stroke="#1f77b4" stroke-width="1.2" opacity="0.85"/>
<line x1="130.97" y1="365.58" x2="130.97" y2="360.24" stroke="#1f77b4" stroke-width="1.2" opacity="0.85"/>
<line x1="126.97" y1="365.58" x2="134.97" y2="365.58" stroke="#1f77b4" stroke-width="1.2" opacity="0.85"/>
<line x1="126.97" y1="360.24" x2="134.97" y2="360.24" stroke="#1f77b4" stroke-width="1.2" opacity="0.85"/>
<line x1="156.45" y1="399.20" x2="156.45" y2="392.46" stroke="#1f77b4" stroke-width="1.2" opacity="0.85"/>
<line x1="152.45" y1="399.20" x2="160.45" y2="399.20" stroke="#1f77b4" stroke-width="1.2" opacity="0.85"/>
<line x1="152.45" y1="392.46" x2="160.45" y2="392.46" stroke="#1f77b4" stroke-width="1.2" opacity="0.85"/>
<line x1="181.94" y1="419.25" x2="181.94" y2="411.40" stroke="#1f77b4" stroke-width="1.2" opacity="0.85"/>
<line x1="177.94" y1="419.25" x2="185.94" y2="419.25" stroke="#1f77b4" stroke-width="1.2" opacity="0.85"/>
<line x1="177.94" y1="411.40" x2="185.94" y2="411.40" stroke="#1f77b4" stroke-width="1.2" opacity="0.85"/>
<line x1="207.42" y1="433.35" x2="207.42" y2="424.65" stroke="#1f77b4" stroke-width="1.2" opacity="0.85"/>
<line x1="203.42" y1="433.35" x2="211.42" y2="433.35" stroke="#1f77b4" stroke-width="1.2" opacity="0.85"/>
<line x1="203.42" y1="424.65" x2="211.42" y2="424.65" stroke="#1f77b4" stroke-width="1.2" opacity="0.85"/>
<line x1="232.90" y1="442.55" x2="232.90" y2="433.06" stroke="#1f77b4" stroke-width="1.2" opacity="0.85"/>
<line x1="228.90" y1="442.55" x2="236.90" y2="442.55" stroke="#1f77b4" stroke-width="1.2" opacity="0.85"/>
<line x1="228.90" y1="433.06" x2="236.90" y2="433.06" stroke="#1f77b4" stroke-width="1.2" opacity="0.85"/>
<line x1="258.39" y1="449.68" x2="258.39" y2="439.55" stroke="#1f77b4" stroke-width="1.2" opacity="0.85"/>
<line x1="254.39" y1="449.68" x2="262.39" y2="449.68" stroke="#1f77b4" stroke-width="1.2" opacity="0.85"/>
<line x1="254.39" y1="439.55" x2="262.39" y2="439.55" stroke="#1f77b4" stroke-width="1.2" opacity="0.85"/>
<line x1="283.87" y1="454.93" x2="283.87" y2="444.34" stroke="#1f77b4" stroke-width="1.2" opacity="0.85"/>
<line x1="279.87" y1="454.93" x2="287.87" y2="454.93" stroke="#1f77b4" stroke-width="1.2" opacity="0.85"/>
<line x1="279.87" y1="444.34" x2="287.87" y2="444.34" stroke="#1f77b4" stroke-width="1.2" opacity="0.85"/>
<line x1="309.35" y1="458.97" x2="309.35" y2="448.04" stroke="#1f77b4" stroke-width="1.2" opacity="0.85"/>
<line x1="305.35" y1="458.97" x2="313.35" y2="458.97" stroke="#1f77b4" stroke-width="1.2" opacity="0.85"/>
<line x1="305.35" y1="448.04" x2="313.35" y2="448.04" stroke="#1f77b4" stroke-width="1.2" opacity="0.85"/>
<line x1="334.84" y1="461.43" x2="334.84" y2="450.18" stroke="#1f77b4" stroke-width="1.2" opacity="0.85"/>
<line x1="330.84" y1="461.43" x2="338.84" y2="461.43" stroke="#1f77b4" stroke-width="1.2" opacity="0.85"/>
<line x1="330.84" y1="450.18" x2="338.84" y2="450.18" stroke="#1f77b4" stroke-width="1.2" opacity="0.85"/>
<line x1="360.32" y1="462.12" x2="360.32" y2="450.56" stroke="#1f77b4" stroke-width="1.2" opacity="0.85"/>
<line x1="356.32" y1="462.12" x2="364.32" y2="462.12" stroke="#1f77b4" stroke-width="1.2" opacity="0.85"/>
<line x1="356.32" y1="450.56" x2="364.32" y2="450.56" stroke="#1f77b4" stroke-width="1.2" opacity="0.85"/>
<line x1="385.81" y1="462.95" x2="385.81" y2="451.15" stroke="#1f77b4" stroke-width="1.2" opacity="0.85"/>
<line x1="381.81" y1="462.95" x2="389.81" y2="462.95" stroke="#1f77b4" stroke-width="1.2" opacity="0.85"/>
<line x1="381.81" y1="451.15" x2="389.81" y2="451.15" stroke="#1f77b4" stroke-width="1.2" opacity="0.85"/>
<line x1="411.29" y1="462.12" x2="411.29" y2="450.56" stroke="#1f77b4" stroke-width="1.2" opacity="0.85"/>
<line x1="407.29" y1="462.12" x2="415.29" y2="462.12" stroke="#1f77b4" stroke-width="1.2" opacity="0.85"/>
<line x1="407.29" y1="450.56" x2="415.29" y2="450.56" stroke="#1f77b4" stroke-width="1.2" opacity="0.85"/>
<line x1="436.77" y1="461.43" x2="436.77" y2="450.18" stroke="#1f77b4" stroke-width="1.2" opacity="0.85"/>
<line x1="432.77" y1="461.43" x2="440.77" y2="461.43" stroke="#1f77b4" stroke-width="1.2" opacity="0.85"/>
<line x1="432.77" y1="450.18" x2="440.77" y2="450.18" stroke="#1f77b4" stroke-width="1.2" opacity="0.85"/>
<line x1="462.26" y1="458.97" x2="462.26" y2="448.04" stroke="#1f77b4" stroke-width="1.2" opacity="0.85"/>
<line x1="458.26" y1="458.97" x2="466.26" y2="458.97" stroke="#1f77b4" stroke-width="1.2" opacity="0.85"/>
<line x1="458.26" y1="448.04" x2="466.26" y2="448.04" stroke="#1f77b4" stroke-width="1.2" opacity="0.85"/>
<line x1="487.74" y1="454.93" x2="487.74" y2="444.34" stroke="#1f77b4" stroke-width="1.2" opacity="0.85"/>
<line x1="483.74" y1="454.93" x2="491.74" y2="454.93" stroke="#1f77b4" stroke-width="1.2" opacity="0.85"/>
<line x1="483.74" y1="444.34" x2="491.74" y2="444.34" stroke="#1f77b4" stroke-width="1.2" opacity="0.85"/>
<line x1="513.23" y1="449.68" x2="513.23" y2="439.55" stroke="#1f77b4" stroke-width="1.2" opacity="0.85"/>
<line x1="509.23" y1="449.68" x2="517.23" y2="449.68" stroke="#1f77b4" stroke-width="1.2" opacity="0.85"/>
<line x1="509.23" y1="439.55" x2="517.23" y2="439.55" stroke="#1f77b4" stroke-width="1.2" opacity="0.85"/>
<line x1="538.71" y1="442.55" x2="538.71" y2="433.06" stroke="#1f77b4" stroke-width="1.2" opacity="0.85"/>
<line x1="534.71" y1="442.55" x2="542.71" y2="442.55" stroke="#1f77b4" stroke-width="1.2" opacity="0.85"/>
<line x1="534.71" y1="433.06" x2="542.71" y2="433.06" stroke="#1f77b4" stroke-width="1.2" opacity="0.85"/>
<line x1="564.19" y1="433.35" x2="564.19" y2="424.65" stroke="#1f77b4" stroke-width="1.2" opacity="0.85"/>
<line x1="560.19" y1="433.35" x2="568.19" y2="433.35" stroke="#1f77b4" stroke-width="1.2" opacity="0.85"/>
<line x1="560.19" y1="424.65" x2="568.19" y2="424.65" stroke="#1f77b4" stroke-width="1.2" opacity="0.85"/>
<line x1="589.68" y1="419.25" x2="589.68" y2="411.40" stroke="#1f77b4" stroke-width="1.2" opacity="0.85"/>
<line x1="585.68" y1="419.25" x2="593.68" y2="419.25" stroke="#1f77b4" stroke-width="1.2" opacity="0.85"/>
<line x1="585.68" y1="411.40" x2="593.68" y2="411.40" stroke="#1f77b4" stroke-width="1.2" opacity="0.85"/>
<line x1="615.16" y1="399.20" x2="615.16" y2="392.46" stroke="#1f77b4" stroke-width="1.2" opacity="0.85"/>
<line x1="611.16" y1="399.20" x2="619.16" y2="399.20" stroke="#1f77b4" stroke-width="1.2" opacity="0.85"/>
<line x1="611.16" y1="392.46" x2="619.16" y2="392.46" stroke="#1f77b4" stroke-width="1.2" opacity="0.85"/>
<line x1="640.65" y1="365.58" x2="640.65" y2="360.24" stroke="#1f77b4" stroke-width="1.2" opacity="0.85"/>
<line x1="636.65" y1="365.58" x2="644.65" y2="365.58" stroke="#1f77b4" stroke-width="1.2" opacity="0.85"/>
<line x1="636.65" y1="360.24" x2="644.65" y2="360.24" stroke="#1f77b4" stroke-width="1.2" opacity="0.85"/>
<line x1="666.13" y1="298.62" x2="666.13" y2="295.21" stroke="#1f77b4" stroke-width="1.2" opacity="0.85"/>
<line x1="662.13" y1="298.62" x2="670.13" y2="298.62" stroke="#1f77b4" stroke-width="1.2" opacity="0.85"/>
<line x1="662.13" y1="295.21" x2="670.13" y2="295.21" stroke="#1f77b4" stroke-width="1.2" opacity="0.85"/>
<polyline points="80.00,75.00 105.48,296.92 130.97,362.91 156.45,395.83 181.94,415.32 207.42,429.00 232.90,437.81 258.39,444.62 283.87,449.63 309.35,453.50 334.84,455.81 360.32,456.34 385.81,457.05 411.29,456.34 436.77,455.81 462.26,453.50 487.74,449.63 513.23,444.62 538.71,437.81 564.19,429.00 589.68,415.32 615.16,395.83 640.65,362.91 666.13,296.92" fill="none" stroke="#1f77b4" stroke-width="2"/>
<circle cx="80.00" cy="75.00" r="2.5" fill="#1f77b4"/>
<circle cx="105.48" cy="296.92" r="2.5" fill="#1f77b4"/>
<circle cx="130.97" cy="362.91" r="2.5" fill="#1f77b4"/>
<circle cx="156.45" cy="395.83" r="2.5" fill="#1f77b4"/>
<circle cx="181.94" cy="415.32" r="2.5" fill="#1f77b4"/>
<circle cx="207.42" cy="429.00" r="2.5" fill="#1f77b4"/>
<circle cx="232.90" cy="437.81" r="2.5" fill="#1f77b4"/>
<circle cx="258.39" cy="444.62" r="2.5" fill="#1f77b4"/>
<circle cx="283.87" cy="449.63" r="2.5" fill="#1f77b4"/>
<circle cx="309.35" cy="453.50" r="2.5" fill="#1f77b4"/>
<circle cx="334.84" cy="455.81" r="2.5" fill="#1f77b4"/>
<circle cx="360.32" cy="456.34" r="2.5" fill="#1f77b4"/>
<circle cx="385.81" cy="457.05" r="2.5" fill="#1f77b4"/>
<circle cx="411.29" cy="456.34" r="2.5" fill="#1f77b4"/>
<circle cx="436.77" cy="455.81" r="2.5" fill="#1f77b4"/>
<circle cx="462.26" cy="453.50" r="2.5" fill="#1f77b4"/>
<circle cx="487.74" cy="449.63" r="2.5" fill="#1f77b4"/>
<circle cx="513.23" cy="444.62" r="2.5" fill="#1f77b4"/>
<circle cx="538.71" cy="437.81" r="2.5" fill="#1f77b4"/>
<circle cx="564.19" cy="429.00" r="2.5" fill="#1f77b4"/>
<circle cx="589.68" cy="415.32" r="2.5" fill="#1f77b4"/>
<circle cx="615.16" cy="395.83" r="2.5" fill="#1f77b4"/>
<circle cx="640.65" cy="362.91" r="2.5" fill="#1f77b4"/>
<circle cx="666.13" cy="296.92" r="2.5" fill="#1f77b4"/>
<line x1="80.00" y1="75.00" x2="80.00" y2="75.00" stroke="#ff7f0e" stroke-width="1.2" opacity="0.85"/>
<line x1="76.00" y1="75.00" x2="84.00" y2="75.00" stroke="#ff7f0e" stroke-width="1.2" opacity="0.85"/>
<line x1="76.00" y1="75.00" x2="84.00" y2="75.00" stroke="#ff7f0e" stroke-width="1.2" opacity="0.85"/>
<line x1="105.48" y1="298.45" x2="105.48" y2="295.06" stroke="#ff7f0e" stroke-width="1.2" opacity="0.85"/>
<line x1="101.48" y1="298.45" x2="109.48" y2="298.45" stroke="#ff7f0e" stroke-width="1.2" opacity="0.85"/>
<line x1="101.48" y1="295.06" x2="109.48" y2="295.06" stroke="#ff7f0e" stroke-width="1.2" opacity="0.85"/>
<line x1="130.97" y1="364.39" x2="130.97" y2="359.20" stroke="#ff7f0e" stroke-width="1.2" opacity="0.85"/>
<line x1="126.97" y1="364.39" x2="134.97" y2="364.39" stroke="#ff7f0e" stroke-width="1.2" opacity="0.85"/>
<line x1="126.97" y1="359.20" x2="134.97" y2="359.20" stroke="#ff7f0e" stroke-width="1.2" opacity="0.85"/>
<line x1="156.45" y1="398.30" x2="156.45" y2="391.72" stroke="#ff7f0e" stroke-width="1.2" opacity="0.85"/>
<line x1="152.45" y1="398.30" x2="160.45" y2="398.30" stroke="#ff7f0e" stroke-width="1.2" opacity="0.85"/>
<line x1="152.45" y1="391.72" x2="160.45" y2="391.72" stroke="#ff7f0e" stroke-width="1.2" opacity="0.85"/>
<line x1="181.94" y1="419.28" x2="181.94" y2="411.55" stroke="#ff7f0e" stroke-width="1.2" opacity="0.85"/>
<line x1="177.94" y1="419.28" x2="185.94" y2="419.28" stroke="#ff7f0e" stroke-width="1.2" opacity="0.85"/>
<line x1="177.94" y1="411.55" x2="185.94" y2="411.55" stroke="#ff7f0e" stroke-width="1.2" opacity="0.85"/>
<line x1="207.42" y1="433.44" x2="207.42" y2="424.75" stroke="#ff7f0e" stroke-width="1.2" opacity="0.85"/>
<line x1="203.42" y1="433.44" x2="211.42" y2="433.44" stroke="#ff7f0e" stroke-width="1.2" opacity="0.85"/>
<line x1="203.42" y1="424.75" x2="211.42" y2="424.75" stroke="#ff7f0e" stroke-width="1.2" opacity="0.85"/>
<line x1="232.90" y1="444.31" x2="232.90" y2="434.74" stroke="#ff7f0e" stroke-width="1.2" opacity="0.85"/>
<line x1="228.90" y1="444.31" x2="236.90" y2="444.31" stroke="#ff7f0e" stroke-width="1.2" opacity="0.85"/>
<line x1="228.90" y1="434.74" x2="236.90" y2="434.74" stroke="#ff7f0e" stroke-width="1.2" opacity="0.85"/>
<line x1="258.39" y1="452.36" x2="258.39" y2="442.06" stroke="#ff7f0e" stroke-width="1.2" opacity="0.85"/>
<line x1="254.39" y1="452.36" x2="262.39" y2="452.36" stroke="#ff7f0e" stroke-width="1.2" opacity="0.85"/>
<line x1="254.39" y1="442.06" x2="262.39" y2="442.06" stroke="#ff7f0e" stroke-width="1.2" opacity="0.85"/>
<line x1="283.87" y1="458.09" x2="283.87" y2="447.15" stroke="#ff7f0e" stroke-width="1.2" opacity="0.85"/>
<line x1="279.87" y1="458.09" x2="287.87" y2="458.09" stroke="#ff7f0e" stroke-width="1.2" opacity="0.85"/>
<line x1="279.87" y1="447.15" x2="287.87" y2="447.15" stroke="#ff7f0e" stroke-width="1.2" opacity="0.85"/>
<line x1="309.35" y1="462.98" x2="309.35" y2="451.51" stroke="#ff7f0e" stroke-width="1.2" opacity="0.85"/>
<line x1="305.35" y1="462.98" x2="313.35" y2="462.98" stroke="#ff7f0e" stroke-width="1.2" opacity="0.85"/>
<line x1="305.35" y1="451.51" x2="313.35" y2="451.51" stroke="#ff7f0e" stroke-width="1.2" opacity="0.85"/>
<line x1="334.84" y1="466.41" x2="334.84" y2="454.45" stroke="#ff7f0e" stroke-width="1.2" opacity="0.85"/>
<line x1="330.84" y1="466.41" x2="338.84" y2="466.41" stroke="#ff7f0e" stroke-width="1.2" opacity="0.85"/>
<line x1="330.84" y1="454.45" x2="338.84" y2="454.45" stroke="#ff7f0e" stroke-width="1.2" opacity="0.85"/>
<line x1="360.32" y1="469.75" x2="360.32" y2="457.33" stroke="#ff7f0e" stroke-width="1.2" opacity="0.85"/>
<line x1="356.32" y1="469.75" x2="364.32" y2="469.75" stroke="#ff7f0e" stroke-width="1.2" opacity="0.85"/>
<line x1="356.32" y1="457.33" x2="364.32" y2="457.33" stroke="#ff7f0e" stroke-width="1.2" opacity="0.85"/>
<line x1="385.81" y1="472.47" x2="385.81" y2="459.68" stroke="#ff7f0e" stroke-width="1.2" opacity="0.85"/>
<line x1="381.81" y1="472.47" x2="389.81" y2="472.47" stroke="#ff7f0e" stroke-width="1.2" opacity="0.85"/>
<line x1="381.81" y1="459.68" x2="389.81" y2="459.68" stroke="#ff7f0e" stroke-width="1.2" opacity="0.85"/>
<line x1="411.29" y1="474.20" x2="411.29" y2="461.11" stroke="#ff7f0e" stroke-width="1.2" opacity="0.85"/>
<line x1="407.29" y1="474.20" x2="415.29" y2="474.20" stroke="#ff7f0e" stroke-width="1.2" opacity="0.85"/>
<line x1="407.29" y1="461.11" x2="415.29" y2="461.11" stroke="#ff7f0e" stroke-width="1.2" opacity="0.85"/>
<line x1="436.77" y1="474.52" x2="436.77" y2="461.20" stroke="#ff7f0e" stroke-width="1.2" opacity="0.85"/>
<line x1="432.77" y1="474.52" x2="440.77" y2="474.52" stroke="#ff7f0e" stroke-width="1.2" opacity="0.85"/>
<line x1="432.77" y1="461.20" x2="440.77" y2="461.20" stroke="#ff7f0e" stroke-width="1.2" opacity="0.85"/>
<line x1="462.26" y1="475.00" x2="462.26" y2="461.65" stroke="#ff7f0e" stroke-width="1.2" opacity="0.85"/>
<line x1="458.26" y1="475.00" x2="466.26" y2="475.00" stroke="#ff7f0e" stroke-width="1.2" opacity="0.85"/>
<line x1="458.26" y1="461.65" x2="466.26" y2="461.65" stroke="#ff7f0e" stroke-width="1.2" opacity="0.85"/>
<line x1="487.74" y1="474.92" x2="487.74" y2="461.50" stroke="#ff7f0e" stroke-width="1.2" opacity="0.85"/>
<line x1="483.74" y1="474.92" x2="491.74" y2="474.92" stroke="#ff7f0e" stroke-width="1.2" opacity="0.85"/>
<line x1="483.74" y1="461.50" x2="491.74" y2="461.50" stroke="#ff7f0e" stroke-width="1.2" opacity="0.85"/>
<line x1="513.23" y1="475.00" x2="513.23" y2="461.65" stroke="#ff7f0e" stroke-width="1.2" opacity="0.85"/>
<line x1="509.23" y1="475.00" x2="517.23" y2="475.00" stroke="#ff7f0e" stroke-width="1.2" opacity="0.85"/>
<line x1="509.23" y1="461.65" x2="517.23" y2="461.65" stroke="#ff7f0e" stroke-width="1.2" opacity="0.85"/>
<line x1="538.71" y1="474.52" x2="538.71" y2="461.20" stroke="#ff7f0e" stroke-width="1.2" opacity="0.85"/>
<line x1="534.71" y1="474.52" x2="542.71" y2="474.52" stroke="#ff7f0e" stroke-width="1.2" opacity="0.85"/>
<line x1="534.71" y1="461.20" x2="542.71" y2="461.20" stroke="#ff7f0e" stroke-width="1.2" opacity="0.85"/>
<line x1="564.19" y1="474.20" x2="564.19" y2="461.11" stroke="#ff7f0e" stroke-width="1.2" opacity="0.85"/>
<line x1="560.19" y1="474.20" x2="568.19" y2="474.20" stroke="#ff7f0e" stroke-width="1.2" opacity="0.85"/>
<line x1="560.19" y1="461.11" x2="568.19" y2="461.11" stroke="#ff7f0e" stroke-width="1.2" opacity="0.85"/>
<line x1="589.68" y1="472.47" x2="589.68" y2="459.68" stroke="#ff7f0e" stroke-width="1.2" opacity="0.85"/>
<line x1="585.68" y1="472.47" x2="593.68" y2="472.47" stroke="#ff7f0e" stroke-width="1.2" opacity="0.85"/>
<line x1="585.68" y1="459.68" x2="593.68" y2="459.68" stroke="#ff7f0e" stroke-width="1.2" opacity="0.85"/>
<line x1="615.16" y1="469.75" x2="615.16" y2="457.33" stroke="#ff7f0e" stroke-width="1.2" opacity="0.85"/>
<line x1="611.16" y1="469.75" x2="619.16" y2="469.75" stroke="#ff7f0e" stroke-width="1.2" opacity="0.85"/>
<line x1="611.16" y1="457.33" x2="619.16" y2="457.33" stroke="#ff7f0e" stroke-width="1.2" opacity="0.85"/>
<line x1="640.65" y1="466.41" x2="640.65" y2="454.45" stroke="#ff7f0e" stroke-width="1.2" opacity="0.85"/>
<line x1="636.65" y1="466.41" x2="644.65" y2="466.41" stroke="#ff7f0e" stroke-width="1.2" opacity="0.85"/>
<line x1="636.65" y1="454.45" x2="644.65" y2="454.45" stroke="#ff7f0e" stroke-width="1.2" opacity="0.85"/>
<line x1="666.13" y1="462.98" x2="666.13" y2="451.51" stroke="#ff7f0e" stroke-width="1.2" opacity="0.85"/>
<line x1="662.13" y1="462.98" x2="670.13" y2="462.98" stroke="#ff7f0e" stroke-width="1.2" opacity="0.85"/>
<line x1="662.13" y1="451.51" x2="670.13" y2="451.51" stroke="#ff7f0e" stroke-width="1.2" opacity="0.85"/>
<line x1="691.61" y1="458.09" x2="691.61" y2="447.15" stroke="#ff7f0e" stroke-width="1.2" opacity="0.85"/>
<line x1="687.61" y1="458.09" x2="695.61" y2="458.09" stroke="#ff7f0e" stroke-width="1.2" opacity="0.85"/>
<line x1="687.61" y1="447.15" x2="695.61" y2="447.15" stroke="#ff7f0e" stroke-width="1.2" opacity="0.85"/>
<line x1="717.10" y1="452.36" x2="717.10" y2="442.06" stroke="#ff7f0e" stroke-width="1.2" opacity="0.85"/>
<line x1="713.10" y1="452.36" x2="721.10" y2="452.36" stroke="#ff7f0e" stroke-width="1.2" opacity="0.85"/>
<line x1="713.10" y1="442.06" x2="721.10" y2="442.06" stroke="#ff7f0e" stroke-width="1.2" opacity="0.85"/>
<line x1="742.58" y1="444.31" x2="742.58" y2="434.74" stroke="#ff7f0e" stroke-width="1.2" opacity="0.85"/>
<line x1="738.58" y1="444.31" x2="746.58" y2="444.31" stroke="#ff7f0e" stroke-width="1.2" opacity="0.85"/>
<line x1="738.58" y1="434.74" x2="746.58" y2="434.74" stroke="#ff7f0e" stroke-width="1.2" opacity="0.85"/>
<line x1="768.06" y1="433.44" x2="768.06" y2="424.75" stroke="#ff7f0e" stroke-width="1.2" opacity="0.85"/>
<line x1="764.06" y1="433.44" x2="772.06" y2="433.44" stroke="#ff7f0e" stroke-width="1.2" opacity="0.85"/>
<line x1="764.06" y1="424.75" x2="772.06" y2="424.75" stroke="#ff7f0e" stroke-width="1.2" opacity="0.85"/>
<line x1="793.55" y1="419.28" x2="793.55" y2="411.55" stroke="#ff7f0e" stroke-width="1.2" opacity="0.85"/>
<line x1="789.55" y1="419.28" x2="797.55" y2="419.28" stroke="#ff7f0e" stroke-width="1.2" opacity="0.85"/>
<line x1="789.55" y1="411.55" x2="797.55" y2="411.55" stroke="#ff7f0e" stroke-width="1.2" opacity="0.85"/>
<line x1="819.03" y1="398.30" x2="819.03" y2="391.72" stroke="#ff7f0e" stroke-width="1.2" opacity="0.85"/>
<line x1="815.03" y1="398.30" x2="823.03" y2="398.30" stroke="#ff7f0e" stroke-width="1.2" opacity="0.85"/>
<line x1="815.03" y1="391.72" x2="823.03" y2="391.72" stroke="#ff7f0e" stroke-width="1.2" opacity="0.85"/>
<line x1="844.52" y1="364.39" x2="844.52" y2="359.20" stroke="#ff7f0e" stroke-width="1.2" opacity="0.85"/>
<line x1="840.52" y1="364.39" x2="848.52" y2="364.39" stroke="#ff7f0e" stroke-width="1.2" opacity="0.85"/>
<line x1="840.52" y1="359.20" x2="848.52" y2="359.20" stroke="#ff7f0e" stroke-width="1.2" opacity="0.85"/>
<line x1="870.00" y1="298.45" x2="870.00" y2="295.06" stroke="#ff7f0e" stroke-width="1.2" opacity="0.85"/>
<line x1="866.00" y1="298.45" x2="874.00" y2="298.45" stroke="#ff7f0e" stroke-width="1.2" opacity="0.85"/>
<line x1="866.00" y1="295.06" x2="874.00" y2="295.06" stroke="#ff7f0e" stroke-width="1.2" opacity="0.85"/>
<polyline points="80.00,75.00 105.48,296.75 130.97,361.80 156.45,395.01 181.94,415.41 207.42,429.10 232.90,439.52 258.39,447.21 283.87,452.62 309.35,457.25 334.84,460.43 360.32,463.54 385.81,466.08 411.29,467.66 436.77,467.86 462.26,468.32 487.74,468.21 513.23,468.32 538.71,467.86 564.19,467.66 589.68,466.08 615.16,463.54 640.65,460.43 666.13,457.25 691.61,452.62 717.10,447.21 742.58,439.52 768.06,429.10 793.55,415.41 819.03,395.01 844.52,361.80 870.00,296.75" fill="none" stroke="#ff7f0e" stroke-width="2"/>
<circle cx="80.00" cy="75.00" r="2.5" fill="#ff7f0e"/>
<circle cx="105.48" cy="296.75" r="2.5" fill="#ff7f0e"/>
<circle cx="130.97" cy="361.80" r="2.5" fill="#ff7f0e"/>
<circle cx="156.45" cy="395.01" r="2.5" fill="#ff7f0e"/>
<circle cx="181.94" cy="415.41" r="2.5" fill="#ff7f0e"/>
<circle cx="207.42" cy="429.10" r="2.5" fill="#ff7f0e"/>
<circle cx="232.90" cy="439.52" r="2.5" fill="#ff7f0e"/>
<circle cx="258.39" cy="447.21" r="2.5" fill="#ff7f0e"/>
<circle cx="283.87" cy="452.62" r="2.5" fill="#ff7f0e"/>
<circle cx="309.35" cy="457.25" r="2.5" fill="#ff7f0e"/>
<circle cx="334.84" cy="460.43" r="2.5" fill="#ff7f0e"/>
<circle cx="360.32" cy="463.54" r="2.5" fill="#ff7f0e"/>
<circle cx="385.81" cy="466.08" r="2.5" fill="#ff7f0e"/>
<circle cx="411.29" cy="467.66" r="2.5" fill="#ff7f0e"/>
<circle cx="436.77" cy="467.86" r="2.5" fill="#ff7f0e"/>
<circle cx="462.26" cy="468.32" r="2.5" fill="#ff7f0e"/>
<circle cx="487.74" cy="468.21" r="2.5" fill="#ff7f0e"/>
<circle cx="513.23" cy="468.32" r="2.5" fill="#ff7f0e"/>
<circle cx="538.71" cy="467.86" r="2.5" fill="#ff7f0e"/>
<circle cx="564.19" cy="467.66" r="2.5" fill="#ff7f0e"/>
<circle cx="589.68" cy="466.08" r="2.5" fill="#ff7f0e"/>
<circle cx="615.16" cy="463.54" r="2.5" fill="#ff7f0e"/>
<circle cx="640.65" cy="460.43" r="2.5" fill="#ff7f0e"/>
<circle cx="666.13" cy="457.25" r="2.5" fill="#ff7f0e"/>
<circle cx="691.61" cy="452.62" r="2.5" fill="#ff7f0e"/>
<circle cx="717.10" cy="447.21" r="2.5" fill="#ff7f0e"/>
<circle cx="742.58" cy="439.52" r="2.5" fill="#ff7f0e"/>
<circle cx="768.06" cy="429.10" r="2.5" fill="#ff7f0e"/>
<circle cx="793.55" cy="415.41" r="2.5" fill="#ff7f0e"/>
<circle cx="819.03" cy="395.01" r="2.5" fill="#ff7f0e"/>
<circle cx="844.52" cy="361.80" r="2.5" fill="#ff7f0e"/>
<circle cx="870.00" cy="296.75" r="2.5" fill="#ff7f0e"/>
<rect x="660" y="70" width="190" height="75" fill="white" stroke="#cccccc"/>
<line x1="670" y1="90" x2="700" y2="90" stroke="#1f77b4" stroke-width="3"/>
<text x="708" y="94" font-size="12" font-family="Arial">x direction</text>
<line x1="670" y1="112" x2="700" y2="112" stroke="#ff7f0e" stroke-width="3"/>
<text x="708" y="116" font-size="12" font-family="Arial">y direction</text>
<line x1="670" y1="134" x2="700" y2="134" stroke="#2ca02c" stroke-width="3"/>
<text x="708" y="138" font-size="12" font-family="Arial">oblique (x-y) direction</text>
</svg>