<svg xmlns="http://www.w3.org/2000/svg" width="900" height="560">
<rect x="0" y="0" width="100%" height="100%" fill="white"/>
<text x="450.0" y="30" text-anchor="middle" font-size="20" font-family="Arial">Aspect=2 isosceles: x,y,oblique correlators</text>
<line x1="80" y1="495" x2="870" y2="495" stroke="black"/>
<line x1="80" y1="55" x2="80" y2="495" stroke="black"/>
<line x1="80" y1="495.00" x2="870" y2="495.00" stroke="#dddddd"/>
<text x="70" y="499.00" text-anchor="end" font-size="12" font-family="Arial">0.479</text>
<line x1="80" y1="407.00" x2="870" y2="407.00" stroke="#dddddd"/>
<text x="70" y="411.00" text-anchor="end" font-size="12" font-family="Arial">0.589</text>
<line x1="80" y1="319.00" x2="870" y2="319.00" stroke="#dddddd"/>
<text x="70" y="323.00" text-anchor="end" font-size="12" font-family="Arial">0.698</text>
<line x1="80" y1="231.00" x2="870" y2="231.00" stroke="#dddddd"/>
<text x="70" y="235.00" text-anchor="end" font-size="12" font-family="Arial">0.807</text>
<line x1="80" y1="143.00" x2="870" y2="143.00" stroke="#dddddd"/>
<text x="70" y="147.00" text-anchor="end" font-size="12" font-family="Arial">0.916</text>
<line x1="80" y1="55.00" x2="870" y2="55.00" stroke="#dddddd"/>
<text x="70" y="59.00" text-anchor="end" font-size="12" font-family="Arial">1.025</text>
<line x1="80.00" y1="55" x2="80.00" y2="495" stroke="#f0f0f0"/>
<text x="80.00" y="515" text-anchor="middle" font-size="12" font-family="Arial">0.0</text>
<line x1="238.00" y1="55" x2="238.00" y2="495" stroke="#f0f0f0"/>
<text x="238.00" y="515" text-anchor="middle" font-size="12" font-family="Arial">2.2</text>
<line x1="396.00" y1="55" x2="396.00" y2="495" stroke="#f0f0f0"/>
<text x="396.00" y="515" text-anchor="middle" font-size="12" font-family="Arial">4.4</text>
<line x1="554.00" y1="55" x2="554.00" y2="495" stroke="#f0f0f0"/>
<text x="554.00" y="515" text-anchor="middle" font-size="12" font-family="Arial">6.6</text>
<line x1="712.00" y1="55" x2="712.00" y2="495" stroke="#f0f0f0"/>
<text x="712.00" y="515" text-anchor="middle" font-size="12" font-family="Arial">8.8</text>
<line x1="870.00" y1="55" x2="870.00" y2="495" stroke="#f0f0f0"/>
<text x="870.00" y="515" text-anchor="middle" font-size="12" font-family="Arial">11.0</text>
<text x="475.0" y="540" text-anchor="middle" font-size="14" font-family="Arial">lattice separation bin</text>
<text x="20" y="275.0" transform="rotate(-90 20,275.0)" text-anchor="middle" font-size="14" font-family="Arial">C(r)</text>
<polyline points="80.00,75.00 151.82,307.20 223.64,378.25 295.45,410.30 367.27,431.37 439.09,445.71 510.91,454.78 582.73,460.85 654.55,465.09 726.36,468.72 798.18,470.31 870.00,471.76" fill="none" stroke="#1f77b4" stroke-width="2"/>
<circle cx="80.00" cy="75.00" r="2.5" fill="#1f77b4"/>
<circle cx="151.82" cy="307.20" r="2.5" fill="#1f77b4"/>
<circle cx="223.64" cy="378.25" r="2.5" fill="#1f77b4"/>
<circle cx="295.45" cy="410.30" r="2.5" fill="#1f77b4"/>
<circle cx="367.27" cy="431.37" r="2.5" fill="#1f77b4"/>
<circle cx="439.09" cy="445.71" r="2.5" fill="#1f77b4"/>
<circle cx="510.91" cy="454.78" r="2.5" fill="#1f77b4"/>
<circle cx="582.73" cy="460.85" r="2.5" fill="#1f77b4"/>
<circle cx="654.55" cy="465.09" r="2.5" fill="#1f77b4"/>
<circle cx="726.36" cy="468.72" r="2.5" fill="#1f77b4"/>
<circle cx="798.18" cy="470.31" r="2.5" fill="#1f77b4"/>
<circle cx="870.00" cy="471.76" r="2.5" fill="#1f77b4"/>
<polyline points="80.00,75.00 151.82,309.06 223.64,377.22 295.45,410.82 367.27,429.06 439.09,441.71 510.91,450.89 582.73,456.73 654.55,461.59 726.36,463.78 798.18,465.92 870.00,467.30" fill="none" stroke="#ff7f0e" stroke-width="2"/>
<circle cx="80.00" cy="75.00" r="2.5" fill="#ff7f0e"/>
<circle cx="151.82" cy="309.06" r="2.5" fill="#ff7f0e"/>
<circle cx="223.64" cy="377.22" r="2.5" fill="#ff7f0e"/>
<circle cx="295.45" cy="410.82" r="2.5" fill="#ff7f0e"/>
<circle cx="367.27" cy="429.06" r="2.5" fill="#ff7f0e"/>
<circle cx="439.09" cy="441.71" r="2.5" fill="#ff7f0e"/>
<circle cx="510.91" cy="450.89" r="2.5" fill="#ff7f0e"/>
<circle cx="582.73" cy="456.73" r="2.5" fill="#ff7f0e"/>
<circle cx="654.55" cy="461.59" r="2.5" fill="#ff7f0e"/>
<circle cx="726.36" cy="463.78" r="2.5" fill="#ff7f0e"/>
<circle cx="798.18" cy="465.92" r="2.5" fill="#ff7f0e"/>
<circle cx="870.00" cy="467.30" r="2.5" fill="#ff7f0e"/>
<polyline points="80.00,75.00 151.82,365.34 223.64,419.98 295.45,443.77 367.27,457.11 439.09,465.99 510.91,470.75 582.73,471.80 654.55,471.88 726.36,472.81 798.18,474.39 870.00,475.00" fill="none" stroke="#2ca02c" stroke-width="2"/>
<circle cx="80.00" cy="75.00" r="2.5" fill="#2ca02c"/>
<circle cx="151.82" cy="365.34" r="2.5" fill="#2ca02c"/>
<circle cx="223.64" cy="419.98" r="2.5" fill="#2ca02c"/>
<circle cx="295.45" cy="443.77" r="2.5" fill="#2ca02c"/>
<circle cx="367.27" cy="457.11" r="2.5" fill="#2ca02c"/>
<circle cx="439.09" cy="465.99" r="2.5" fill="#2ca02c"/>
<circle cx="510.91" cy="470.75" r="2.5" fill="#2ca02c"/>
<circle cx="582.73" cy="471.80" r="2.5" fill="#2ca02c"/>
<circle cx="654.55" cy="471.88" r="2.5" fill="#2ca02c"/>
<circle cx="726.36" cy="472.81" r="2.5" fill="#2ca02c"/>
<circle cx="798.18" cy="474.39" r="2.5" fill="#2ca02c"/>
<circle cx="870.00" cy="475.00" r="2.5" fill="#2ca02c"/>
<rect x="660" y="70" width="190" height="75" fill="white" stroke="#cccccc"/>
<line x1="670" y1="90" x2="700" y2="90" stroke="#1f77b4" stroke-width="3"/>
<text x="708" y="94" font-size="12" font-family="Arial">x direction</text>
<line x1="670" y1="112" x2="700" y2="112" stroke="#ff7f0e" stroke-width="3"/>
<text x="708" y="116" font-size="12" font-family="Arial">y direction</text>
<line x1="670" y1="134" x2="700" y2="134" stroke="#2ca02c" stroke-width="3"/>
<text x="708" y="138" font-size="12" font-family="Arial">oblique (x-y) direction</text>
</svg>