<?xml version="1.0" encoding="utf-8" standalone="no"?>
<!DOCTYPE svg PUBLIC "-//W3C//DTD SVG 1.1//EN"
  "http://www.w3.org/Graphics/SVG/1.1/DTD/svg11.dtd">
<svg xmlns:xlink="http://www.w3.org/1999/xlink" width="612pt" height="504pt" viewBox="0 0 612 504" xmlns="http://www.w3.org/2000/svg" version="1.1">
 <metadata>
  <rdf:RDF xmlns:dc="http://purl.org/dc/elements/1.1/" xmlns:cc="http://creativecommons.org/ns#" xmlns:rdf="http://www.w3.org/1999/02/22-rdf-syntax-ns#">
   <cc:Work>
    <dc:type rdf:resource="http://purl.org/dc/dcmitype/StillImage"/>
    <dc:date>2026-03-09T23:18:51.691762</dc:date>
    <dc:format>image/svg+xml</dc:format>
    <dc:creator>
     <cc:Agent>
      <dc:title>Matplotlib v3.10.8, https://matplotlib.org/</dc:title>
     </cc:Agent>
    </dc:creator>
   </cc:Work>
  </rdf:RDF>
 </metadata>
 <defs>
  <style type="text/css">*{stroke-linejoin: round; stroke-linecap: butt}</style>
 </defs>
 <g id="figure_1">
  <g id="patch_1">
   <path d="M 0 504 
L 612 504 
L 612 0 
L 0 0 
z
" style="fill: #ffffff"/>
  </g>
  <g id="axes_1">
   <g id="patch_2">
    <path d="M 47.82125 272.447125 
L 601.2 272.447125 
L 601.2 97.15425 
L 47.82125 97.15425 
z
" style="fill: #ffffff"/>
   </g>
   <g id="matplotlib.axis_1">
    <g id="xtick_1">
     <g id="line2d_1">
      <path d="M 72.97483 272.447125 
L 72.97483 97.15425 
" clip-path="url(#pcf800eb055)" style="fill: none; stroke: #b0b0b0; stroke-opacity: 0.25; stroke-width: 0.8; stroke-linecap: square"/>
     </g>
     <g id="line2d_2">
      <defs>
       <path id="m536c2f55ab" d="M 0 0 
L 0 3.5 
" style="stroke: #000000; stroke-width: 0.8"/>
      </defs>
      <g>
       <use xlink:href="#m536c2f55ab" x="72.97483" y="272.447125" style="stroke: #000000; stroke-width: 0.8"/>
      </g>
     </g>
    </g>
    <g id="xtick_2">
     <g id="line2d_3">
      <path d="M 135.858778 272.447125 
L 135.858778 97.15425 
" clip-path="url(#pcf800eb055)" style="fill: none; stroke: #b0b0b0; stroke-opacity: 0.25; stroke-width: 0.8; stroke-linecap: square"/>
     </g>
     <g id="line2d_4">
      <g>
       <use xlink:href="#m536c2f55ab" x="135.858778" y="272.447125" style="stroke: #000000; stroke-width: 0.8"/>
      </g>
     </g>
    </g>
    <g id="xtick_3">
     <g id="line2d_5">
      <path d="M 198.742727 272.447125 
L 198.742727 97.15425 
" clip-path="url(#pcf800eb055)" style="fill: none; stroke: #b0b0b0; stroke-opacity: 0.25; stroke-width: 0.8; stroke-linecap: square"/>
     </g>
     <g id="line2d_6">
      <g>
       <use xlink:href="#m536c2f55ab" x="198.742727" y="272.447125" style="stroke: #000000; stroke-width: 0.8"/>
      </g>
     </g>
    </g>
    <g id="xtick_4">
     <g id="line2d_7">
      <path d="M 261.626676 272.447125 
L 261.626676 97.15425 
" clip-path="url(#pcf800eb055)" style="fill: none; stroke: #b0b0b0; stroke-opacity: 0.25; stroke-width: 0.8; stroke-linecap: square"/>
     </g>
     <g id="line2d_8">
      <g>
       <use xlink:href="#m536c2f55ab" x="261.626676" y="272.447125" style="stroke: #000000; stroke-width: 0.8"/>
      </g>
     </g>
    </g>
    <g id="xtick_5">
     <g id="line2d_9">
      <path d="M 324.510625 272.447125 
L 324.510625 97.15425 
" clip-path="url(#pcf800eb055)" style="fill: none; stroke: #b0b0b0; stroke-opacity: 0.25; stroke-width: 0.8; stroke-linecap: square"/>
     </g>
     <g id="line2d_10">
      <g>
       <use xlink:href="#m536c2f55ab" x="324.510625" y="272.447125" style="stroke: #000000; stroke-width: 0.8"/>
      </g>
     </g>
    </g>
    <g id="xtick_6">
     <g id="line2d_11">
      <path d="M 387.394574 272.447125 
L 387.394574 97.15425 
" clip-path="url(#pcf800eb055)" style="fill: none; stroke: #b0b0b0; stroke-opacity: 0.25; stroke-width: 0.8; stroke-linecap: square"/>
     </g>
     <g id="line2d_12">
      <g>
       <use xlink:href="#m536c2f55ab" x="387.394574" y="272.447125" style="stroke: #000000; stroke-width: 0.8"/>
      </g>
     </g>
    </g>
    <g id="xtick_7">
     <g id="line2d_13">
      <path d="M 450.278523 272.447125 
L 450.278523 97.15425 
" clip-path="url(#pcf800eb055)" style="fill: none; stroke: #b0b0b0; stroke-opacity: 0.25; stroke-width: 0.8; stroke-linecap: square"/>
     </g>
     <g id="line2d_14">
      <g>
       <use xlink:href="#m536c2f55ab" x="450.278523" y="272.447125" style="stroke: #000000; stroke-width: 0.8"/>
      </g>
     </g>
    </g>
    <g id="xtick_8">
     <g id="line2d_15">
      <path d="M 513.162472 272.447125 
L 513.162472 97.15425 
" clip-path="url(#pcf800eb055)" style="fill: none; stroke: #b0b0b0; stroke-opacity: 0.25; stroke-width: 0.8; stroke-linecap: square"/>
     </g>
     <g id="line2d_16">
      <g>
       <use xlink:href="#m536c2f55ab" x="513.162472" y="272.447125" style="stroke: #000000; stroke-width: 0.8"/>
      </g>
     </g>
    </g>
    <g id="xtick_9">
     <g id="line2d_17">
      <path d="M 576.04642 272.447125 
L 576.04642 97.15425 
" clip-path="url(#pcf800eb055)" style="fill: none; stroke: #b0b0b0; stroke-opacity: 0.25; stroke-width: 0.8; stroke-linecap: square"/>
     </g>
     <g id="line2d_18">
      <g>
       <use xlink:href="#m536c2f55ab" x="576.04642" y="272.447125" style="stroke: #000000; stroke-width: 0.8"/>
      </g>
     </g>
    </g>
   </g>
   <g id="matplotlib.axis_2">
    <g id="ytick_1">
     <g id="line2d_19">
      <path d="M 47.82125 264.479267 
L 601.2 264.479267 
" clip-path="url(#pcf800eb055)" style="fill: none; stroke: #b0b0b0; stroke-opacity: 0.25; stroke-width: 0.8; stroke-linecap: square"/>
     </g>
     <g id="line2d_20">
      <defs>
       <path id="m732098283e" d="M 0 0 
L -3.5 0 
" style="stroke: #000000; stroke-width: 0.8"/>
      </defs>
      <g>
       <use xlink:href="#m732098283e" x="47.82125" y="264.479267" style="stroke: #000000; stroke-width: 0.8"/>
      </g>
     </g>
     <g id="text_1">
      <!-- 0 -->
      <g transform="translate(34.45875 268.278486) scale(0.1 -0.1)">
       <defs>
        <path id="DejaVuSans-30" d="M 2034 4250 
Q 1547 4250 1301 3770 
Q 1056 3291 1056 2328 
Q 1056 1369 1301 889 
Q 1547 409 2034 409 
Q 2525 409 2770 889 
Q 3016 1369 3016 2328 
Q 3016 3291 2770 3770 
Q 2525 4250 2034 4250 
z
M 2034 4750 
Q 2819 4750 3233 4129 
Q 3647 3509 3647 2328 
Q 3647 1150 3233 529 
Q 2819 -91 2034 -91 
Q 1250 -91 836 529 
Q 422 1150 422 2328 
Q 422 3509 836 4129 
Q 1250 4750 2034 4750 
z
" transform="scale(0.015625)"/>
       </defs>
       <use xlink:href="#DejaVuSans-30"/>
      </g>
     </g>
    </g>
    <g id="ytick_2">
     <g id="line2d_21">
      <path d="M 47.82125 224.639977 
L 601.2 224.639977 
" clip-path="url(#pcf800eb055)" style="fill: none; stroke: #b0b0b0; stroke-opacity: 0.25; stroke-width: 0.8; stroke-linecap: square"/>
     </g>
     <g id="line2d_22">
      <g>
       <use xlink:href="#m732098283e" x="47.82125" y="224.639977" style="stroke: #000000; stroke-width: 0.8"/>
      </g>
     </g>
     <g id="text_2">
      <!-- 2 -->
      <g transform="translate(34.45875 228.439196) scale(0.1 -0.1)">
       <defs>
        <path id="DejaVuSans-32" d="M 1228 531 
L 3431 531 
L 3431 0 
L 469 0 
L 469 531 
Q 828 903 1448 1529 
Q 2069 2156 2228 2338 
Q 2531 2678 2651 2914 
Q 2772 3150 2772 3378 
Q 2772 3750 2511 3984 
Q 2250 4219 1831 4219 
Q 1534 4219 1204 4116 
Q 875 4013 500 3803 
L 500 4441 
Q 881 4594 1212 4672 
Q 1544 4750 1819 4750 
Q 2544 4750 2975 4387 
Q 3406 4025 3406 3419 
Q 3406 3131 3298 2873 
Q 3191 2616 2906 2266 
Q 2828 2175 2409 1742 
Q 1991 1309 1228 531 
z
" transform="scale(0.015625)"/>
       </defs>
       <use xlink:href="#DejaVuSans-32"/>
      </g>
     </g>
    </g>
    <g id="ytick_3">
     <g id="line2d_23">
      <path d="M 47.82125 184.800687 
L 601.2 184.800687 
" clip-path="url(#pcf800eb055)" style="fill: none; stroke: #b0b0b0; stroke-opacity: 0.25; stroke-width: 0.8; stroke-linecap: square"/>
     </g>
     <g id="line2d_24">
      <g>
       <use xlink:href="#m732098283e" x="47.82125" y="184.800687" style="stroke: #000000; stroke-width: 0.8"/>
      </g>
     </g>
     <g id="text_3">
      <!-- 4 -->
      <g transform="translate(34.45875 188.599906) scale(0.1 -0.1)">
       <defs>
        <path id="DejaVuSans-34" d="M 2419 4116 
L 825 1625 
L 2419 1625 
L 2419 4116 
z
M 2253 4666 
L 3047 4666 
L 3047 1625 
L 3713 1625 
L 3713 1100 
L 3047 1100 
L 3047 0 
L 2419 0 
L 2419 1100 
L 313 1100 
L 313 1709 
L 2253 4666 
z
" transform="scale(0.015625)"/>
       </defs>
       <use xlink:href="#DejaVuSans-34"/>
      </g>
     </g>
    </g>
    <g id="ytick_4">
     <g id="line2d_25">
      <path d="M 47.82125 144.961398 
L 601.2 144.961398 
" clip-path="url(#pcf800eb055)" style="fill: none; stroke: #b0b0b0; stroke-opacity: 0.25; stroke-width: 0.8; stroke-linecap: square"/>
     </g>
     <g id="line2d_26">
      <g>
       <use xlink:href="#m732098283e" x="47.82125" y="144.961398" style="stroke: #000000; stroke-width: 0.8"/>
      </g>
     </g>
     <g id="text_4">
      <!-- 6 -->
      <g transform="translate(34.45875 148.760616) scale(0.1 -0.1)">
       <defs>
        <path id="DejaVuSans-36" d="M 2113 2584 
Q 1688 2584 1439 2293 
Q 1191 2003 1191 1497 
Q 1191 994 1439 701 
Q 1688 409 2113 409 
Q 2538 409 2786 701 
Q 3034 994 3034 1497 
Q 3034 2003 2786 2293 
Q 2538 2584 2113 2584 
z
M 3366 4563 
L 3366 3988 
Q 3128 4100 2886 4159 
Q 2644 4219 2406 4219 
Q 1781 4219 1451 3797 
Q 1122 3375 1075 2522 
Q 1259 2794 1537 2939 
Q 1816 3084 2150 3084 
Q 2853 3084 3261 2657 
Q 3669 2231 3669 1497 
Q 3669 778 3244 343 
Q 2819 -91 2113 -91 
Q 1303 -91 875 529 
Q 447 1150 447 2328 
Q 447 3434 972 4092 
Q 1497 4750 2381 4750 
Q 2619 4750 2861 4703 
Q 3103 4656 3366 4563 
z
" transform="scale(0.015625)"/>
       </defs>
       <use xlink:href="#DejaVuSans-36"/>
      </g>
     </g>
    </g>
    <g id="ytick_5">
     <g id="line2d_27">
      <path d="M 47.82125 105.122108 
L 601.2 105.122108 
" clip-path="url(#pcf800eb055)" style="fill: none; stroke: #b0b0b0; stroke-opacity: 0.25; stroke-width: 0.8; stroke-linecap: square"/>
     </g>
     <g id="line2d_28">
      <g>
       <use xlink:href="#m732098283e" x="47.82125" y="105.122108" style="stroke: #000000; stroke-width: 0.8"/>
      </g>
     </g>
     <g id="text_5">
      <!-- 8 -->
      <g transform="translate(34.45875 108.921327) scale(0.1 -0.1)">
       <defs>
        <path id="DejaVuSans-38" d="M 2034 2216 
Q 1584 2216 1326 1975 
Q 1069 1734 1069 1313 
Q 1069 891 1326 650 
Q 1584 409 2034 409 
Q 2484 409 2743 651 
Q 3003 894 3003 1313 
Q 3003 1734 2745 1975 
Q 2488 2216 2034 2216 
z
M 1403 2484 
Q 997 2584 770 2862 
Q 544 3141 544 3541 
Q 544 4100 942 4425 
Q 1341 4750 2034 4750 
Q 2731 4750 3128 4425 
Q 3525 4100 3525 3541 
Q 3525 3141 3298 2862 
Q 3072 2584 2669 2484 
Q 3125 2378 3379 2068 
Q 3634 1759 3634 1313 
Q 3634 634 3220 271 
Q 2806 -91 2034 -91 
Q 1263 -91 848 271 
Q 434 634 434 1313 
Q 434 1759 690 2068 
Q 947 2378 1403 2484 
z
M 1172 3481 
Q 1172 3119 1398 2916 
Q 1625 2713 2034 2713 
Q 2441 2713 2670 2916 
Q 2900 3119 2900 3481 
Q 2900 3844 2670 4047 
Q 2441 4250 2034 4250 
Q 1625 4250 1398 4047 
Q 1172 3844 1172 3481 
z
" transform="scale(0.015625)"/>
       </defs>
       <use xlink:href="#DejaVuSans-38"/>
      </g>
     </g>
    </g>
    <g id="text_6">
     <!-- effective periodic distance  d_eff(r) -->
     <g transform="translate(28.100938 272.446781) rotate(-90) scale(0.1 -0.1)">
      <defs>
       <path id="DejaVuSans-65" d="M 3597 1894 
L 3597 1613 
L 953 1613 
Q 991 1019 1311 708 
Q 1631 397 2203 397 
Q 2534 397 2845 478 
Q 3156 559 3463 722 
L 3463 178 
Q 3153 47 2828 -22 
Q 2503 -91 2169 -91 
Q 1331 -91 842 396 
Q 353 884 353 1716 
Q 353 2575 817 3079 
Q 1281 3584 2069 3584 
Q 2775 3584 3186 3129 
Q 3597 2675 3597 1894 
z
M 3022 2063 
Q 3016 2534 2758 2815 
Q 2500 3097 2075 3097 
Q 1594 3097 1305 2825 
Q 1016 2553 972 2059 
L 3022 2063 
z
" transform="scale(0.015625)"/>
       <path id="DejaVuSans-66" d="M 2375 4863 
L 2375 4384 
L 1825 4384 
Q 1516 4384 1395 4259 
Q 1275 4134 1275 3809 
L 1275 3500 
L 2222 3500 
L 2222 3053 
L 1275 3053 
L 1275 0 
L 697 0 
L 697 3053 
L 147 3053 
L 147 3500 
L 697 3500 
L 697 3744 
Q 697 4328 969 4595 
Q 1241 4863 1831 4863 
L 2375 4863 
z
" transform="scale(0.015625)"/>
       <path id="DejaVuSans-63" d="M 3122 3366 
L 3122 2828 
Q 2878 2963 2633 3030 
Q 2388 3097 2138 3097 
Q 1578 3097 1268 2742 
Q 959 2388 959 1747 
Q 959 1106 1268 751 
Q 1578 397 2138 397 
Q 2388 397 2633 464 
Q 2878 531 3122 666 
L 3122 134 
Q 2881 22 2623 -34 
Q 2366 -91 2075 -91 
Q 1284 -91 818 406 
Q 353 903 353 1747 
Q 353 2603 823 3093 
Q 1294 3584 2113 3584 
Q 2378 3584 2631 3529 
Q 2884 3475 3122 3366 
z
" transform="scale(0.015625)"/>
       <path id="DejaVuSans-74" d="M 1172 4494 
L 1172 3500 
L 2356 3500 
L 2356 3053 
L 1172 3053 
L 1172 1153 
Q 1172 725 1289 603 
Q 1406 481 1766 481 
L 2356 481 
L 2356 0 
L 1766 0 
Q 1100 0 847 248 
Q 594 497 594 1153 
L 594 3053 
L 172 3053 
L 172 3500 
L 594 3500 
L 594 4494 
L 1172 4494 
z
" transform="scale(0.015625)"/>
       <path id="DejaVuSans-69" d="M 603 3500 
L 1178 3500 
L 1178 0 
L 603 0 
L 603 3500 
z
M 603 4863 
L 1178 4863 
L 1178 4134 
L 603 4134 
L 603 4863 
z
" transform="scale(0.015625)"/>
       <path id="DejaVuSans-76" d="M 191 3500 
L 800 3500 
L 1894 563 
L 2988 3500 
L 3597 3500 
L 2284 0 
L 1503 0 
L 191 3500 
z
" transform="scale(0.015625)"/>
       <path id="DejaVuSans-20" transform="scale(0.015625)"/>
       <path id="DejaVuSans-70" d="M 1159 525 
L 1159 -1331 
L 581 -1331 
L 581 3500 
L 1159 3500 
L 1159 2969 
Q 1341 3281 1617 3432 
Q 1894 3584 2278 3584 
Q 2916 3584 3314 3078 
Q 3713 2572 3713 1747 
Q 3713 922 3314 415 
Q 2916 -91 2278 -91 
Q 1894 -91 1617 61 
Q 1341 213 1159 525 
z
M 3116 1747 
Q 3116 2381 2855 2742 
Q 2594 3103 2138 3103 
Q 1681 3103 1420 2742 
Q 1159 2381 1159 1747 
Q 1159 1113 1420 752 
Q 1681 391 2138 391 
Q 2594 391 2855 752 
Q 3116 1113 3116 1747 
z
" transform="scale(0.015625)"/>
       <path id="DejaVuSans-72" d="M 2631 2963 
Q 2534 3019 2420 3045 
Q 2306 3072 2169 3072 
Q 1681 3072 1420 2755 
Q 1159 2438 1159 1844 
L 1159 0 
L 581 0 
L 581 3500 
L 1159 3500 
L 1159 2956 
Q 1341 3275 1631 3429 
Q 1922 3584 2338 3584 
Q 2397 3584 2469 3576 
Q 2541 3569 2628 3553 
L 2631 2963 
z
" transform="scale(0.015625)"/>
       <path id="DejaVuSans-6f" d="M 1959 3097 
Q 1497 3097 1228 2736 
Q 959 2375 959 1747 
Q 959 1119 1226 758 
Q 1494 397 1959 397 
Q 2419 397 2687 759 
Q 2956 1122 2956 1747 
Q 2956 2369 2687 2733 
Q 2419 3097 1959 3097 
z
M 1959 3584 
Q 2709 3584 3137 3096 
Q 3566 2609 3566 1747 
Q 3566 888 3137 398 
Q 2709 -91 1959 -91 
Q 1206 -91 779 398 
Q 353 888 353 1747 
Q 353 2609 779 3096 
Q 1206 3584 1959 3584 
z
" transform="scale(0.015625)"/>
       <path id="DejaVuSans-64" d="M 2906 2969 
L 2906 4863 
L 3481 4863 
L 3481 0 
L 2906 0 
L 2906 525 
Q 2725 213 2448 61 
Q 2172 -91 1784 -91 
Q 1150 -91 751 415 
Q 353 922 353 1747 
Q 353 2572 751 3078 
Q 1150 3584 1784 3584 
Q 2172 3584 2448 3432 
Q 2725 3281 2906 2969 
z
M 947 1747 
Q 947 1113 1208 752 
Q 1469 391 1925 391 
Q 2381 391 2643 752 
Q 2906 1113 2906 1747 
Q 2906 2381 2643 2742 
Q 2381 3103 1925 3103 
Q 1469 3103 1208 2742 
Q 947 2381 947 1747 
z
" transform="scale(0.015625)"/>
       <path id="DejaVuSans-73" d="M 2834 3397 
L 2834 2853 
Q 2591 2978 2328 3040 
Q 2066 3103 1784 3103 
Q 1356 3103 1142 2972 
Q 928 2841 928 2578 
Q 928 2378 1081 2264 
Q 1234 2150 1697 2047 
L 1894 2003 
Q 2506 1872 2764 1633 
Q 3022 1394 3022 966 
Q 3022 478 2636 193 
Q 2250 -91 1575 -91 
Q 1294 -91 989 -36 
Q 684 19 347 128 
L 347 722 
Q 666 556 975 473 
Q 1284 391 1588 391 
Q 1994 391 2212 530 
Q 2431 669 2431 922 
Q 2431 1156 2273 1281 
Q 2116 1406 1581 1522 
L 1381 1569 
Q 847 1681 609 1914 
Q 372 2147 372 2553 
Q 372 3047 722 3315 
Q 1072 3584 1716 3584 
Q 2034 3584 2315 3537 
Q 2597 3491 2834 3397 
z
" transform="scale(0.015625)"/>
       <path id="DejaVuSans-61" d="M 2194 1759 
Q 1497 1759 1228 1600 
Q 959 1441 959 1056 
Q 959 750 1161 570 
Q 1363 391 1709 391 
Q 2188 391 2477 730 
Q 2766 1069 2766 1631 
L 2766 1759 
L 2194 1759 
z
M 3341 1997 
L 3341 0 
L 2766 0 
L 2766 531 
Q 2569 213 2275 61 
Q 1981 -91 1556 -91 
Q 1019 -91 701 211 
Q 384 513 384 1019 
Q 384 1609 779 1909 
Q 1175 2209 1959 2209 
L 2766 2209 
L 2766 2266 
Q 2766 2663 2505 2880 
Q 2244 3097 1772 3097 
Q 1472 3097 1187 3025 
Q 903 2953 641 2809 
L 641 3341 
Q 956 3463 1253 3523 
Q 1550 3584 1831 3584 
Q 2591 3584 2966 3190 
Q 3341 2797 3341 1997 
z
" transform="scale(0.015625)"/>
       <path id="DejaVuSans-6e" d="M 3513 2113 
L 3513 0 
L 2938 0 
L 2938 2094 
Q 2938 2591 2744 2837 
Q 2550 3084 2163 3084 
Q 1697 3084 1428 2787 
Q 1159 2491 1159 1978 
L 1159 0 
L 581 0 
L 581 3500 
L 1159 3500 
L 1159 2956 
Q 1366 3272 1645 3428 
Q 1925 3584 2291 3584 
Q 2894 3584 3203 3211 
Q 3513 2838 3513 2113 
z
" transform="scale(0.015625)"/>
       <path id="DejaVuSans-5f" d="M 3263 -1063 
L 3263 -1509 
L -63 -1509 
L -63 -1063 
L 3263 -1063 
z
" transform="scale(0.015625)"/>
       <path id="DejaVuSans-28" d="M 1984 4856 
Q 1566 4138 1362 3434 
Q 1159 2731 1159 2009 
Q 1159 1288 1364 580 
Q 1569 -128 1984 -844 
L 1484 -844 
Q 1016 -109 783 600 
Q 550 1309 550 2009 
Q 550 2706 781 3412 
Q 1013 4119 1484 4856 
L 1984 4856 
z
" transform="scale(0.015625)"/>
       <path id="DejaVuSans-29" d="M 513 4856 
L 1013 4856 
Q 1481 4119 1714 3412 
Q 1947 2706 1947 2009 
Q 1947 1309 1714 600 
Q 1481 -109 1013 -844 
L 513 -844 
Q 928 -128 1133 580 
Q 1338 1288 1338 2009 
Q 1338 2731 1133 3434 
Q 928 4138 513 4856 
z
" transform="scale(0.015625)"/>
      </defs>
      <use xlink:href="#DejaVuSans-65"/>
      <use xlink:href="#DejaVuSans-66" transform="translate(61.523438 0)"/>
      <use xlink:href="#DejaVuSans-66" transform="translate(96.728516 0)"/>
      <use xlink:href="#DejaVuSans-65" transform="translate(131.933594 0)"/>
      <use xlink:href="#DejaVuSans-63" transform="translate(193.457031 0)"/>
      <use xlink:href="#DejaVuSans-74" transform="translate(248.4375 0)"/>
      <use xlink:href="#DejaVuSans-69" transform="translate(287.646484 0)"/>
      <use xlink:href="#DejaVuSans-76" transform="translate(315.429688 0)"/>
      <use xlink:href="#DejaVuSans-65" transform="translate(374.609375 0)"/>
      <use xlink:href="#DejaVuSans-20" transform="translate(436.132812 0)"/>
      <use xlink:href="#DejaVuSans-70" transform="translate(467.919922 0)"/>
      <use xlink:href="#DejaVuSans-65" transform="translate(531.396484 0)"/>
      <use xlink:href="#DejaVuSans-72" transform="translate(592.919922 0)"/>
      <use xlink:href="#DejaVuSans-69" transform="translate(634.033203 0)"/>
      <use xlink:href="#DejaVuSans-6f" transform="translate(661.816406 0)"/>
      <use xlink:href="#DejaVuSans-64" transform="translate(722.998047 0)"/>
      <use xlink:href="#DejaVuSans-69" transform="translate(786.474609 0)"/>
      <use xlink:href="#DejaVuSans-63" transform="translate(814.257812 0)"/>
      <use xlink:href="#DejaVuSans-20" transform="translate(869.238281 0)"/>
      <use xlink:href="#DejaVuSans-64" transform="translate(901.025391 0)"/>
      <use xlink:href="#DejaVuSans-69" transform="translate(964.501953 0)"/>
      <use xlink:href="#DejaVuSans-73" transform="translate(992.285156 0)"/>
      <use xlink:href="#DejaVuSans-74" transform="translate(1044.384766 0)"/>
      <use xlink:href="#DejaVuSans-61" transform="translate(1083.59375 0)"/>
      <use xlink:href="#DejaVuSans-6e" transform="translate(1144.873047 0)"/>
      <use xlink:href="#DejaVuSans-63" transform="translate(1208.251953 0)"/>
      <use xlink:href="#DejaVuSans-65" transform="translate(1263.232422 0)"/>
      <use xlink:href="#DejaVuSans-20" transform="translate(1324.755859 0)"/>
      <use xlink:href="#DejaVuSans-20" transform="translate(1356.542969 0)"/>
      <use xlink:href="#DejaVuSans-64" transform="translate(1388.330078 0)"/>
      <use xlink:href="#DejaVuSans-5f" transform="translate(1451.806641 0)"/>
      <use xlink:href="#DejaVuSans-65" transform="translate(1501.806641 0)"/>
      <use xlink:href="#DejaVuSans-66" transform="translate(1563.330078 0)"/>
      <use xlink:href="#DejaVuSans-66" transform="translate(1598.535156 0)"/>
      <use xlink:href="#DejaVuSans-28" transform="translate(1633.740234 0)"/>
      <use xlink:href="#DejaVuSans-72" transform="translate(1672.753906 0)"/>
      <use xlink:href="#DejaVuSans-29" transform="translate(1713.867188 0)"/>
     </g>
    </g>
   </g>
   <g id="line2d_29">
    <path d="M 72.97483 264.479267 
L 79.263224 244.559622 
L 85.551619 224.639977 
L 91.840014 204.720332 
L 98.128409 184.800687 
L 104.416804 164.881043 
L 110.705199 144.961398 
L 116.993594 125.041753 
L 123.281989 105.122108 
L 129.570384 125.041753 
L 135.858778 144.961398 
L 142.147173 164.881043 
L 148.435568 184.800687 
L 154.723963 204.720332 
L 161.012358 224.639977 
L 167.300753 244.559622 
L 173.589148 264.479267 
L 179.877543 244.559622 
L 186.165937 224.639977 
L 192.454332 204.720332 
L 198.742727 184.800687 
L 205.031122 164.881043 
L 211.319517 144.961398 
L 217.607912 125.041753 
L 223.896307 105.122108 
L 230.184702 125.041753 
L 236.473097 144.961398 
L 242.761491 164.881043 
L 249.049886 184.800687 
L 255.338281 204.720332 
L 261.626676 224.639977 
L 267.915071 244.559622 
L 274.203466 264.479267 
L 280.491861 244.559622 
L 286.780256 224.639977 
L 293.068651 204.720332 
L 299.357045 184.800687 
L 305.64544 164.881043 
L 311.933835 144.961398 
L 318.22223 125.041753 
L 324.510625 105.122108 
L 330.79902 125.041753 
L 337.087415 144.961398 
L 343.37581 164.881043 
L 349.664205 184.800687 
L 355.952599 204.720332 
L 362.240994 224.639977 
L 368.529389 244.559622 
L 374.817784 264.479267 
L 381.106179 244.559622 
L 387.394574 224.639977 
L 393.682969 204.720332 
L 399.971364 184.800687 
L 406.259759 164.881043 
L 412.548153 144.961398 
L 418.836548 125.041753 
L 425.124943 105.122108 
L 431.413338 125.041753 
L 437.701733 144.961398 
L 443.990128 164.881043 
L 450.278523 184.800687 
L 456.566918 204.720332 
L 462.855312 224.639977 
L 469.143707 244.559622 
L 475.432102 264.479267 
L 481.720497 244.559622 
L 488.008892 224.639977 
L 494.297287 204.720332 
L 500.585682 184.800687 
L 506.874077 164.881043 
L 513.162472 144.961398 
L 519.450866 125.041753 
L 525.739261 105.122108 
L 532.027656 125.041753 
L 538.316051 144.961398 
L 544.604446 164.881043 
L 550.892841 184.800687 
L 557.181236 204.720332 
L 563.469631 224.639977 
L 569.758026 244.559622 
L 576.04642 264.479267 
" clip-path="url(#pcf800eb055)" style="fill: none; stroke: #1f77b4; stroke-width: 1.5; stroke-linecap: square"/>
    <defs>
     <path id="mb74a709b98" d="M 0 3 
C 0.795609 3 1.55874 2.683901 2.12132 2.12132 
C 2.683901 1.55874 3 0.795609 3 0 
C 3 -0.795609 2.683901 -1.55874 2.12132 -2.12132 
C 1.55874 -2.683901 0.795609 -3 0 -3 
C -0.795609 -3 -1.55874 -2.683901 -2.12132 -2.12132 
C -2.683901 -1.55874 -3 -0.795609 -3 0 
C -3 0.795609 -2.683901 1.55874 -2.12132 2.12132 
C -1.55874 2.683901 -0.795609 3 0 3 
z
" style="stroke: #1f77b4"/>
    </defs>
    <g clip-path="url(#pcf800eb055)">
     <use xlink:href="#mb74a709b98" x="72.97483" y="264.479267" style="fill: #1f77b4; stroke: #1f77b4"/>
     <use xlink:href="#mb74a709b98" x="79.263224" y="244.559622" style="fill: #1f77b4; stroke: #1f77b4"/>
     <use xlink:href="#mb74a709b98" x="85.551619" y="224.639977" style="fill: #1f77b4; stroke: #1f77b4"/>
     <use xlink:href="#mb74a709b98" x="91.840014" y="204.720332" style="fill: #1f77b4; stroke: #1f77b4"/>
     <use xlink:href="#mb74a709b98" x="98.128409" y="184.800687" style="fill: #1f77b4; stroke: #1f77b4"/>
     <use xlink:href="#mb74a709b98" x="104.416804" y="164.881043" style="fill: #1f77b4; stroke: #1f77b4"/>
     <use xlink:href="#mb74a709b98" x="110.705199" y="144.961398" style="fill: #1f77b4; stroke: #1f77b4"/>
     <use xlink:href="#mb74a709b98" x="116.993594" y="125.041753" style="fill: #1f77b4; stroke: #1f77b4"/>
     <use xlink:href="#mb74a709b98" x="123.281989" y="105.122108" style="fill: #1f77b4; stroke: #1f77b4"/>
     <use xlink:href="#mb74a709b98" x="129.570384" y="125.041753" style="fill: #1f77b4; stroke: #1f77b4"/>
     <use xlink:href="#mb74a709b98" x="135.858778" y="144.961398" style="fill: #1f77b4; stroke: #1f77b4"/>
     <use xlink:href="#mb74a709b98" x="142.147173" y="164.881043" style="fill: #1f77b4; stroke: #1f77b4"/>
     <use xlink:href="#mb74a709b98" x="148.435568" y="184.800687" style="fill: #1f77b4; stroke: #1f77b4"/>
     <use xlink:href="#mb74a709b98" x="154.723963" y="204.720332" style="fill: #1f77b4; stroke: #1f77b4"/>
     <use xlink:href="#mb74a709b98" x="161.012358" y="224.639977" style="fill: #1f77b4; stroke: #1f77b4"/>
     <use xlink:href="#mb74a709b98" x="167.300753" y="244.559622" style="fill: #1f77b4; stroke: #1f77b4"/>
     <use xlink:href="#mb74a709b98" x="173.589148" y="264.479267" style="fill: #1f77b4; stroke: #1f77b4"/>
     <use xlink:href="#mb74a709b98" x="179.877543" y="244.559622" style="fill: #1f77b4; stroke: #1f77b4"/>
     <use xlink:href="#mb74a709b98" x="186.165937" y="224.639977" style="fill: #1f77b4; stroke: #1f77b4"/>
     <use xlink:href="#mb74a709b98" x="192.454332" y="204.720332" style="fill: #1f77b4; stroke: #1f77b4"/>
     <use xlink:href="#mb74a709b98" x="198.742727" y="184.800687" style="fill: #1f77b4; stroke: #1f77b4"/>
     <use xlink:href="#mb74a709b98" x="205.031122" y="164.881043" style="fill: #1f77b4; stroke: #1f77b4"/>
     <use xlink:href="#mb74a709b98" x="211.319517" y="144.961398" style="fill: #1f77b4; stroke: #1f77b4"/>
     <use xlink:href="#mb74a709b98" x="217.607912" y="125.041753" style="fill: #1f77b4; stroke: #1f77b4"/>
     <use xlink:href="#mb74a709b98" x="223.896307" y="105.122108" style="fill: #1f77b4; stroke: #1f77b4"/>
     <use xlink:href="#mb74a709b98" x="230.184702" y="125.041753" style="fill: #1f77b4; stroke: #1f77b4"/>
     <use xlink:href="#mb74a709b98" x="236.473097" y="144.961398" style="fill: #1f77b4; stroke: #1f77b4"/>
     <use xlink:href="#mb74a709b98" x="242.761491" y="164.881043" style="fill: #1f77b4; stroke: #1f77b4"/>
     <use xlink:href="#mb74a709b98" x="249.049886" y="184.800687" style="fill: #1f77b4; stroke: #1f77b4"/>
     <use xlink:href="#mb74a709b98" x="255.338281" y="204.720332" style="fill: #1f77b4; stroke: #1f77b4"/>
     <use xlink:href="#mb74a709b98" x="261.626676" y="224.639977" style="fill: #1f77b4; stroke: #1f77b4"/>
     <use xlink:href="#mb74a709b98" x="267.915071" y="244.559622" style="fill: #1f77b4; stroke: #1f77b4"/>
     <use xlink:href="#mb74a709b98" x="274.203466" y="264.479267" style="fill: #1f77b4; stroke: #1f77b4"/>
     <use xlink:href="#mb74a709b98" x="280.491861" y="244.559622" style="fill: #1f77b4; stroke: #1f77b4"/>
     <use xlink:href="#mb74a709b98" x="286.780256" y="224.639977" style="fill: #1f77b4; stroke: #1f77b4"/>
     <use xlink:href="#mb74a709b98" x="293.068651" y="204.720332" style="fill: #1f77b4; stroke: #1f77b4"/>
     <use xlink:href="#mb74a709b98" x="299.357045" y="184.800687" style="fill: #1f77b4; stroke: #1f77b4"/>
     <use xlink:href="#mb74a709b98" x="305.64544" y="164.881043" style="fill: #1f77b4; stroke: #1f77b4"/>
     <use xlink:href="#mb74a709b98" x="311.933835" y="144.961398" style="fill: #1f77b4; stroke: #1f77b4"/>
     <use xlink:href="#mb74a709b98" x="318.22223" y="125.041753" style="fill: #1f77b4; stroke: #1f77b4"/>
     <use xlink:href="#mb74a709b98" x="324.510625" y="105.122108" style="fill: #1f77b4; stroke: #1f77b4"/>
     <use xlink:href="#mb74a709b98" x="330.79902" y="125.041753" style="fill: #1f77b4; stroke: #1f77b4"/>
     <use xlink:href="#mb74a709b98" x="337.087415" y="144.961398" style="fill: #1f77b4; stroke: #1f77b4"/>
     <use xlink:href="#mb74a709b98" x="343.37581" y="164.881043" style="fill: #1f77b4; stroke: #1f77b4"/>
     <use xlink:href="#mb74a709b98" x="349.664205" y="184.800687" style="fill: #1f77b4; stroke: #1f77b4"/>
     <use xlink:href="#mb74a709b98" x="355.952599" y="204.720332" style="fill: #1f77b4; stroke: #1f77b4"/>
     <use xlink:href="#mb74a709b98" x="362.240994" y="224.639977" style="fill: #1f77b4; stroke: #1f77b4"/>
     <use xlink:href="#mb74a709b98" x="368.529389" y="244.559622" style="fill: #1f77b4; stroke: #1f77b4"/>
     <use xlink:href="#mb74a709b98" x="374.817784" y="264.479267" style="fill: #1f77b4; stroke: #1f77b4"/>
     <use xlink:href="#mb74a709b98" x="381.106179" y="244.559622" style="fill: #1f77b4; stroke: #1f77b4"/>
     <use xlink:href="#mb74a709b98" x="387.394574" y="224.639977" style="fill: #1f77b4; stroke: #1f77b4"/>
     <use xlink:href="#mb74a709b98" x="393.682969" y="204.720332" style="fill: #1f77b4; stroke: #1f77b4"/>
     <use xlink:href="#mb74a709b98" x="399.971364" y="184.800687" style="fill: #1f77b4; stroke: #1f77b4"/>
     <use xlink:href="#mb74a709b98" x="406.259759" y="164.881043" style="fill: #1f77b4; stroke: #1f77b4"/>
     <use xlink:href="#mb74a709b98" x="412.548153" y="144.961398" style="fill: #1f77b4; stroke: #1f77b4"/>
     <use xlink:href="#mb74a709b98" x="418.836548" y="125.041753" style="fill: #1f77b4; stroke: #1f77b4"/>
     <use xlink:href="#mb74a709b98" x="425.124943" y="105.122108" style="fill: #1f77b4; stroke: #1f77b4"/>
     <use xlink:href="#mb74a709b98" x="431.413338" y="125.041753" style="fill: #1f77b4; stroke: #1f77b4"/>
     <use xlink:href="#mb74a709b98" x="437.701733" y="144.961398" style="fill: #1f77b4; stroke: #1f77b4"/>
     <use xlink:href="#mb74a709b98" x="443.990128" y="164.881043" style="fill: #1f77b4; stroke: #1f77b4"/>
     <use xlink:href="#mb74a709b98" x="450.278523" y="184.800687" style="fill: #1f77b4; stroke: #1f77b4"/>
     <use xlink:href="#mb74a709b98" x="456.566918" y="204.720332" style="fill: #1f77b4; stroke: #1f77b4"/>
     <use xlink:href="#mb74a709b98" x="462.855312" y="224.639977" style="fill: #1f77b4; stroke: #1f77b4"/>
     <use xlink:href="#mb74a709b98" x="469.143707" y="244.559622" style="fill: #1f77b4; stroke: #1f77b4"/>
     <use xlink:href="#mb74a709b98" x="475.432102" y="264.479267" style="fill: #1f77b4; stroke: #1f77b4"/>
     <use xlink:href="#mb74a709b98" x="481.720497" y="244.559622" style="fill: #1f77b4; stroke: #1f77b4"/>
     <use xlink:href="#mb74a709b98" x="488.008892" y="224.639977" style="fill: #1f77b4; stroke: #1f77b4"/>
     <use xlink:href="#mb74a709b98" x="494.297287" y="204.720332" style="fill: #1f77b4; stroke: #1f77b4"/>
     <use xlink:href="#mb74a709b98" x="500.585682" y="184.800687" style="fill: #1f77b4; stroke: #1f77b4"/>
     <use xlink:href="#mb74a709b98" x="506.874077" y="164.881043" style="fill: #1f77b4; stroke: #1f77b4"/>
     <use xlink:href="#mb74a709b98" x="513.162472" y="144.961398" style="fill: #1f77b4; stroke: #1f77b4"/>
     <use xlink:href="#mb74a709b98" x="519.450866" y="125.041753" style="fill: #1f77b4; stroke: #1f77b4"/>
     <use xlink:href="#mb74a709b98" x="525.739261" y="105.122108" style="fill: #1f77b4; stroke: #1f77b4"/>
     <use xlink:href="#mb74a709b98" x="532.027656" y="125.041753" style="fill: #1f77b4; stroke: #1f77b4"/>
     <use xlink:href="#mb74a709b98" x="538.316051" y="144.961398" style="fill: #1f77b4; stroke: #1f77b4"/>
     <use xlink:href="#mb74a709b98" x="544.604446" y="164.881043" style="fill: #1f77b4; stroke: #1f77b4"/>
     <use xlink:href="#mb74a709b98" x="550.892841" y="184.800687" style="fill: #1f77b4; stroke: #1f77b4"/>
     <use xlink:href="#mb74a709b98" x="557.181236" y="204.720332" style="fill: #1f77b4; stroke: #1f77b4"/>
     <use xlink:href="#mb74a709b98" x="563.469631" y="224.639977" style="fill: #1f77b4; stroke: #1f77b4"/>
     <use xlink:href="#mb74a709b98" x="569.758026" y="244.559622" style="fill: #1f77b4; stroke: #1f77b4"/>
     <use xlink:href="#mb74a709b98" x="576.04642" y="264.479267" style="fill: #1f77b4; stroke: #1f77b4"/>
    </g>
   </g>
   <g id="patch_3">
    <path d="M 47.82125 272.447125 
L 47.82125 97.15425 
" style="fill: none; stroke: #000000; stroke-width: 0.8; stroke-linejoin: miter; stroke-linecap: square"/>
   </g>
   <g id="patch_4">
    <path d="M 601.2 272.447125 
L 601.2 97.15425 
" style="fill: none; stroke: #000000; stroke-width: 0.8; stroke-linejoin: miter; stroke-linecap: square"/>
   </g>
   <g id="patch_5">
    <path d="M 47.82125 272.447125 
L 601.2 272.447125 
" style="fill: none; stroke: #000000; stroke-width: 0.8; stroke-linejoin: miter; stroke-linecap: square"/>
   </g>
   <g id="patch_6">
    <path d="M 47.82125 97.15425 
L 601.2 97.15425 
" style="fill: none; stroke: #000000; stroke-width: 0.8; stroke-linejoin: miter; stroke-linecap: square"/>
   </g>
   <g id="text_7">
    <!-- base e1 = (1,0)  (period=16) -->
    <g transform="translate(237.4525 91.15425) scale(0.12 -0.12)">
     <defs>
      <path id="DejaVuSans-62" d="M 3116 1747 
Q 3116 2381 2855 2742 
Q 2594 3103 2138 3103 
Q 1681 3103 1420 2742 
Q 1159 2381 1159 1747 
Q 1159 1113 1420 752 
Q 1681 391 2138 391 
Q 2594 391 2855 752 
Q 3116 1113 3116 1747 
z
M 1159 2969 
Q 1341 3281 1617 3432 
Q 1894 3584 2278 3584 
Q 2916 3584 3314 3078 
Q 3713 2572 3713 1747 
Q 3713 922 3314 415 
Q 2916 -91 2278 -91 
Q 1894 -91 1617 61 
Q 1341 213 1159 525 
L 1159 0 
L 581 0 
L 581 4863 
L 1159 4863 
L 1159 2969 
z
" transform="scale(0.015625)"/>
      <path id="DejaVuSans-31" d="M 794 531 
L 1825 531 
L 1825 4091 
L 703 3866 
L 703 4441 
L 1819 4666 
L 2450 4666 
L 2450 531 
L 3481 531 
L 3481 0 
L 794 0 
L 794 531 
z
" transform="scale(0.015625)"/>
      <path id="DejaVuSans-3d" d="M 678 2906 
L 4684 2906 
L 4684 2381 
L 678 2381 
L 678 2906 
z
M 678 1631 
L 4684 1631 
L 4684 1100 
L 678 1100 
L 678 1631 
z
" transform="scale(0.015625)"/>
      <path id="DejaVuSans-2c" d="M 750 794 
L 1409 794 
L 1409 256 
L 897 -744 
L 494 -744 
L 750 256 
L 750 794 
z
" transform="scale(0.015625)"/>
     </defs>
     <use xlink:href="#DejaVuSans-62"/>
     <use xlink:href="#DejaVuSans-61" transform="translate(63.476562 0)"/>
     <use xlink:href="#DejaVuSans-73" transform="translate(124.755859 0)"/>
     <use xlink:href="#DejaVuSans-65" transform="translate(176.855469 0)"/>
     <use xlink:href="#DejaVuSans-20" transform="translate(238.378906 0)"/>
     <use xlink:href="#DejaVuSans-65" transform="translate(270.166016 0)"/>
     <use xlink:href="#DejaVuSans-31" transform="translate(331.689453 0)"/>
     <use xlink:href="#DejaVuSans-20" transform="translate(395.3125 0)"/>
     <use xlink:href="#DejaVuSans-3d" transform="translate(427.099609 0)"/>
     <use xlink:href="#DejaVuSans-20" transform="translate(510.888672 0)"/>
     <use xlink:href="#DejaVuSans-28" transform="translate(542.675781 0)"/>
     <use xlink:href="#DejaVuSans-31" transform="translate(581.689453 0)"/>
     <use xlink:href="#DejaVuSans-2c" transform="translate(645.3125 0)"/>
     <use xlink:href="#DejaVuSans-30" transform="translate(677.099609 0)"/>
     <use xlink:href="#DejaVuSans-29" transform="translate(740.722656 0)"/>
     <use xlink:href="#DejaVuSans-20" transform="translate(779.736328 0)"/>
     <use xlink:href="#DejaVuSans-20" transform="translate(811.523438 0)"/>
     <use xlink:href="#DejaVuSans-28" transform="translate(843.310547 0)"/>
     <use xlink:href="#DejaVuSans-70" transform="translate(882.324219 0)"/>
     <use xlink:href="#DejaVuSans-65" transform="translate(945.800781 0)"/>
     <use xlink:href="#DejaVuSans-72" transform="translate(1007.324219 0)"/>
     <use xlink:href="#DejaVuSans-69" transform="translate(1048.4375 0)"/>
     <use xlink:href="#DejaVuSans-6f" transform="translate(1076.220703 0)"/>
     <use xlink:href="#DejaVuSans-64" transform="translate(1137.402344 0)"/>
     <use xlink:href="#DejaVuSans-3d" transform="translate(1200.878906 0)"/>
     <use xlink:href="#DejaVuSans-31" transform="translate(1284.667969 0)"/>
     <use xlink:href="#DejaVuSans-36" transform="translate(1348.291016 0)"/>
     <use xlink:href="#DejaVuSans-29" transform="translate(1411.914062 0)"/>
    </g>
   </g>
  </g>
  <g id="axes_2">
   <g id="patch_7">
    <path d="M 47.82125 462.04 
L 601.2 462.04 
L 601.2 286.747125 
L 47.82125 286.747125 
z
" style="fill: #ffffff"/>
   </g>
   <g id="matplotlib.axis_3">
    <g id="xtick_10">
     <g id="line2d_30">
      <path d="M 72.97483 462.04 
L 72.97483 286.747125 
" clip-path="url(#p8943dc810e)" style="fill: none; stroke: #b0b0b0; stroke-opacity: 0.25; stroke-width: 0.8; stroke-linecap: square"/>
     </g>
     <g id="line2d_31">
      <g>
       <use xlink:href="#m536c2f55ab" x="72.97483" y="462.04" style="stroke: #000000; stroke-width: 0.8"/>
      </g>
     </g>
     <g id="text_8">
      <!-- 0 -->
      <g transform="translate(69.79358 476.638438) scale(0.1 -0.1)">
       <use xlink:href="#DejaVuSans-30"/>
      </g>
     </g>
    </g>
    <g id="xtick_11">
     <g id="line2d_32">
      <path d="M 135.858778 462.04 
L 135.858778 286.747125 
" clip-path="url(#p8943dc810e)" style="fill: none; stroke: #b0b0b0; stroke-opacity: 0.25; stroke-width: 0.8; stroke-linecap: square"/>
     </g>
     <g id="line2d_33">
      <g>
       <use xlink:href="#m536c2f55ab" x="135.858778" y="462.04" style="stroke: #000000; stroke-width: 0.8"/>
      </g>
     </g>
     <g id="text_9">
      <!-- 10 -->
      <g transform="translate(129.496278 476.638438) scale(0.1 -0.1)">
       <use xlink:href="#DejaVuSans-31"/>
       <use xlink:href="#DejaVuSans-30" transform="translate(63.623047 0)"/>
      </g>
     </g>
    </g>
    <g id="xtick_12">
     <g id="line2d_34">
      <path d="M 198.742727 462.04 
L 198.742727 286.747125 
" clip-path="url(#p8943dc810e)" style="fill: none; stroke: #b0b0b0; stroke-opacity: 0.25; stroke-width: 0.8; stroke-linecap: square"/>
     </g>
     <g id="line2d_35">
      <g>
       <use xlink:href="#m536c2f55ab" x="198.742727" y="462.04" style="stroke: #000000; stroke-width: 0.8"/>
      </g>
     </g>
     <g id="text_10">
      <!-- 20 -->
      <g transform="translate(192.380227 476.638438) scale(0.1 -0.1)">
       <use xlink:href="#DejaVuSans-32"/>
       <use xlink:href="#DejaVuSans-30" transform="translate(63.623047 0)"/>
      </g>
     </g>
    </g>
    <g id="xtick_13">
     <g id="line2d_36">
      <path d="M 261.626676 462.04 
L 261.626676 286.747125 
" clip-path="url(#p8943dc810e)" style="fill: none; stroke: #b0b0b0; stroke-opacity: 0.25; stroke-width: 0.8; stroke-linecap: square"/>
     </g>
     <g id="line2d_37">
      <g>
       <use xlink:href="#m536c2f55ab" x="261.626676" y="462.04" style="stroke: #000000; stroke-width: 0.8"/>
      </g>
     </g>
     <g id="text_11">
      <!-- 30 -->
      <g transform="translate(255.264176 476.638438) scale(0.1 -0.1)">
       <defs>
        <path id="DejaVuSans-33" d="M 2597 2516 
Q 3050 2419 3304 2112 
Q 3559 1806 3559 1356 
Q 3559 666 3084 287 
Q 2609 -91 1734 -91 
Q 1441 -91 1130 -33 
Q 819 25 488 141 
L 488 750 
Q 750 597 1062 519 
Q 1375 441 1716 441 
Q 2309 441 2620 675 
Q 2931 909 2931 1356 
Q 2931 1769 2642 2001 
Q 2353 2234 1838 2234 
L 1294 2234 
L 1294 2753 
L 1863 2753 
Q 2328 2753 2575 2939 
Q 2822 3125 2822 3475 
Q 2822 3834 2567 4026 
Q 2313 4219 1838 4219 
Q 1578 4219 1281 4162 
Q 984 4106 628 3988 
L 628 4550 
Q 988 4650 1302 4700 
Q 1616 4750 1894 4750 
Q 2613 4750 3031 4423 
Q 3450 4097 3450 3541 
Q 3450 3153 3228 2886 
Q 3006 2619 2597 2516 
z
" transform="scale(0.015625)"/>
       </defs>
       <use xlink:href="#DejaVuSans-33"/>
       <use xlink:href="#DejaVuSans-30" transform="translate(63.623047 0)"/>
      </g>
     </g>
    </g>
    <g id="xtick_14">
     <g id="line2d_38">
      <path d="M 324.510625 462.04 
L 324.510625 286.747125 
" clip-path="url(#p8943dc810e)" style="fill: none; stroke: #b0b0b0; stroke-opacity: 0.25; stroke-width: 0.8; stroke-linecap: square"/>
     </g>
     <g id="line2d_39">
      <g>
       <use xlink:href="#m536c2f55ab" x="324.510625" y="462.04" style="stroke: #000000; stroke-width: 0.8"/>
      </g>
     </g>
     <g id="text_12">
      <!-- 40 -->
      <g transform="translate(318.148125 476.638438) scale(0.1 -0.1)">
       <use xlink:href="#DejaVuSans-34"/>
       <use xlink:href="#DejaVuSans-30" transform="translate(63.623047 0)"/>
      </g>
     </g>
    </g>
    <g id="xtick_15">
     <g id="line2d_40">
      <path d="M 387.394574 462.04 
L 387.394574 286.747125 
" clip-path="url(#p8943dc810e)" style="fill: none; stroke: #b0b0b0; stroke-opacity: 0.25; stroke-width: 0.8; stroke-linecap: square"/>
     </g>
     <g id="line2d_41">
      <g>
       <use xlink:href="#m536c2f55ab" x="387.394574" y="462.04" style="stroke: #000000; stroke-width: 0.8"/>
      </g>
     </g>
     <g id="text_13">
      <!-- 50 -->
      <g transform="translate(381.032074 476.638438) scale(0.1 -0.1)">
       <defs>
        <path id="DejaVuSans-35" d="M 691 4666 
L 3169 4666 
L 3169 4134 
L 1269 4134 
L 1269 2991 
Q 1406 3038 1543 3061 
Q 1681 3084 1819 3084 
Q 2600 3084 3056 2656 
Q 3513 2228 3513 1497 
Q 3513 744 3044 326 
Q 2575 -91 1722 -91 
Q 1428 -91 1123 -41 
Q 819 9 494 109 
L 494 744 
Q 775 591 1075 516 
Q 1375 441 1709 441 
Q 2250 441 2565 725 
Q 2881 1009 2881 1497 
Q 2881 1984 2565 2268 
Q 2250 2553 1709 2553 
Q 1456 2553 1204 2497 
Q 953 2441 691 2322 
L 691 4666 
z
" transform="scale(0.015625)"/>
       </defs>
       <use xlink:href="#DejaVuSans-35"/>
       <use xlink:href="#DejaVuSans-30" transform="translate(63.623047 0)"/>
      </g>
     </g>
    </g>
    <g id="xtick_16">
     <g id="line2d_42">
      <path d="M 450.278523 462.04 
L 450.278523 286.747125 
" clip-path="url(#p8943dc810e)" style="fill: none; stroke: #b0b0b0; stroke-opacity: 0.25; stroke-width: 0.8; stroke-linecap: square"/>
     </g>
     <g id="line2d_43">
      <g>
       <use xlink:href="#m536c2f55ab" x="450.278523" y="462.04" style="stroke: #000000; stroke-width: 0.8"/>
      </g>
     </g>
     <g id="text_14">
      <!-- 60 -->
      <g transform="translate(443.916023 476.638438) scale(0.1 -0.1)">
       <use xlink:href="#DejaVuSans-36"/>
       <use xlink:href="#DejaVuSans-30" transform="translate(63.623047 0)"/>
      </g>
     </g>
    </g>
    <g id="xtick_17">
     <g id="line2d_44">
      <path d="M 513.162472 462.04 
L 513.162472 286.747125 
" clip-path="url(#p8943dc810e)" style="fill: none; stroke: #b0b0b0; stroke-opacity: 0.25; stroke-width: 0.8; stroke-linecap: square"/>
     </g>
     <g id="line2d_45">
      <g>
       <use xlink:href="#m536c2f55ab" x="513.162472" y="462.04" style="stroke: #000000; stroke-width: 0.8"/>
      </g>
     </g>
     <g id="text_15">
      <!-- 70 -->
      <g transform="translate(506.799972 476.638438) scale(0.1 -0.1)">
       <defs>
        <path id="DejaVuSans-37" d="M 525 4666 
L 3525 4666 
L 3525 4397 
L 1831 0 
L 1172 0 
L 2766 4134 
L 525 4134 
L 525 4666 
z
" transform="scale(0.015625)"/>
       </defs>
       <use xlink:href="#DejaVuSans-37"/>
       <use xlink:href="#DejaVuSans-30" transform="translate(63.623047 0)"/>
      </g>
     </g>
    </g>
    <g id="xtick_18">
     <g id="line2d_46">
      <path d="M 576.04642 462.04 
L 576.04642 286.747125 
" clip-path="url(#p8943dc810e)" style="fill: none; stroke: #b0b0b0; stroke-opacity: 0.25; stroke-width: 0.8; stroke-linecap: square"/>
     </g>
     <g id="line2d_47">
      <g>
       <use xlink:href="#m536c2f55ab" x="576.04642" y="462.04" style="stroke: #000000; stroke-width: 0.8"/>
      </g>
     </g>
     <g id="text_16">
      <!-- 80 -->
      <g transform="translate(569.68392 476.638438) scale(0.1 -0.1)">
       <use xlink:href="#DejaVuSans-38"/>
       <use xlink:href="#DejaVuSans-30" transform="translate(63.623047 0)"/>
      </g>
     </g>
    </g>
    <g id="text_17">
     <!-- trajectory separation r (lattice steps) -->
     <g transform="translate(232.243437 490.316563) scale(0.1 -0.1)">
      <defs>
       <path id="DejaVuSans-6a" d="M 603 3500 
L 1178 3500 
L 1178 -63 
Q 1178 -731 923 -1031 
Q 669 -1331 103 -1331 
L -116 -1331 
L -116 -844 
L 38 -844 
Q 366 -844 484 -692 
Q 603 -541 603 -63 
L 603 3500 
z
M 603 4863 
L 1178 4863 
L 1178 4134 
L 603 4134 
L 603 4863 
z
" transform="scale(0.015625)"/>
       <path id="DejaVuSans-79" d="M 2059 -325 
Q 1816 -950 1584 -1140 
Q 1353 -1331 966 -1331 
L 506 -1331 
L 506 -850 
L 844 -850 
Q 1081 -850 1212 -737 
Q 1344 -625 1503 -206 
L 1606 56 
L 191 3500 
L 800 3500 
L 1894 763 
L 2988 3500 
L 3597 3500 
L 2059 -325 
z
" transform="scale(0.015625)"/>
       <path id="DejaVuSans-6c" d="M 603 4863 
L 1178 4863 
L 1178 0 
L 603 0 
L 603 4863 
z
" transform="scale(0.015625)"/>
      </defs>
      <use xlink:href="#DejaVuSans-74"/>
      <use xlink:href="#DejaVuSans-72" transform="translate(39.208984 0)"/>
      <use xlink:href="#DejaVuSans-61" transform="translate(80.322266 0)"/>
      <use xlink:href="#DejaVuSans-6a" transform="translate(141.601562 0)"/>
      <use xlink:href="#DejaVuSans-65" transform="translate(169.384766 0)"/>
      <use xlink:href="#DejaVuSans-63" transform="translate(230.908203 0)"/>
      <use xlink:href="#DejaVuSans-74" transform="translate(285.888672 0)"/>
      <use xlink:href="#DejaVuSans-6f" transform="translate(325.097656 0)"/>
      <use xlink:href="#DejaVuSans-72" transform="translate(386.279297 0)"/>
      <use xlink:href="#DejaVuSans-79" transform="translate(427.392578 0)"/>
      <use xlink:href="#DejaVuSans-20" transform="translate(486.572266 0)"/>
      <use xlink:href="#DejaVuSans-73" transform="translate(518.359375 0)"/>
      <use xlink:href="#DejaVuSans-65" transform="translate(570.458984 0)"/>
      <use xlink:href="#DejaVuSans-70" transform="translate(631.982422 0)"/>
      <use xlink:href="#DejaVuSans-61" transform="translate(695.458984 0)"/>
      <use xlink:href="#DejaVuSans-72" transform="translate(756.738281 0)"/>
      <use xlink:href="#DejaVuSans-61" transform="translate(797.851562 0)"/>
      <use xlink:href="#DejaVuSans-74" transform="translate(859.130859 0)"/>
      <use xlink:href="#DejaVuSans-69" transform="translate(898.339844 0)"/>
      <use xlink:href="#DejaVuSans-6f" transform="translate(926.123047 0)"/>
      <use xlink:href="#DejaVuSans-6e" transform="translate(987.304688 0)"/>
      <use xlink:href="#DejaVuSans-20" transform="translate(1050.683594 0)"/>
      <use xlink:href="#DejaVuSans-72" transform="translate(1082.470703 0)"/>
      <use xlink:href="#DejaVuSans-20" transform="translate(1123.583984 0)"/>
      <use xlink:href="#DejaVuSans-28" transform="translate(1155.371094 0)"/>
      <use xlink:href="#DejaVuSans-6c" transform="translate(1194.384766 0)"/>
      <use xlink:href="#DejaVuSans-61" transform="translate(1222.167969 0)"/>
      <use xlink:href="#DejaVuSans-74" transform="translate(1283.447266 0)"/>
      <use xlink:href="#DejaVuSans-74" transform="translate(1322.65625 0)"/>
      <use xlink:href="#DejaVuSans-69" transform="translate(1361.865234 0)"/>
      <use xlink:href="#DejaVuSans-63" transform="translate(1389.648438 0)"/>
      <use xlink:href="#DejaVuSans-65" transform="translate(1444.628906 0)"/>
      <use xlink:href="#DejaVuSans-20" transform="translate(1506.152344 0)"/>
      <use xlink:href="#DejaVuSans-73" transform="translate(1537.939453 0)"/>
      <use xlink:href="#DejaVuSans-74" transform="translate(1590.039062 0)"/>
      <use xlink:href="#DejaVuSans-65" transform="translate(1629.248047 0)"/>
      <use xlink:href="#DejaVuSans-70" transform="translate(1690.771484 0)"/>
      <use xlink:href="#DejaVuSans-73" transform="translate(1754.248047 0)"/>
      <use xlink:href="#DejaVuSans-29" transform="translate(1806.347656 0)"/>
     </g>
    </g>
   </g>
   <g id="matplotlib.axis_4">
    <g id="ytick_6">
     <g id="line2d_48">
      <path d="M 47.82125 458.763498 
L 601.2 458.763498 
" clip-path="url(#p8943dc810e)" style="fill: none; stroke: #b0b0b0; stroke-opacity: 0.25; stroke-width: 0.8; stroke-linecap: square"/>
     </g>
     <g id="line2d_49">
      <g>
       <use xlink:href="#m732098283e" x="47.82125" y="458.763498" style="stroke: #000000; stroke-width: 0.8"/>
      </g>
     </g>
     <g id="text_18">
      <!-- 0.0 -->
      <g transform="translate(24.918125 462.562716) scale(0.1 -0.1)">
       <defs>
        <path id="DejaVuSans-2e" d="M 684 794 
L 1344 794 
L 1344 0 
L 684 0 
L 684 794 
z
" transform="scale(0.015625)"/>
       </defs>
       <use xlink:href="#DejaVuSans-30"/>
       <use xlink:href="#DejaVuSans-2e" transform="translate(63.623047 0)"/>
       <use xlink:href="#DejaVuSans-30" transform="translate(95.410156 0)"/>
      </g>
     </g>
    </g>
    <g id="ytick_7">
     <g id="line2d_50">
      <path d="M 47.82125 425.998474 
L 601.2 425.998474 
" clip-path="url(#p8943dc810e)" style="fill: none; stroke: #b0b0b0; stroke-opacity: 0.25; stroke-width: 0.8; stroke-linecap: square"/>
     </g>
     <g id="line2d_51">
      <g>
       <use xlink:href="#m732098283e" x="47.82125" y="425.998474" style="stroke: #000000; stroke-width: 0.8"/>
      </g>
     </g>
     <g id="text_19">
      <!-- 0.2 -->
      <g transform="translate(24.918125 429.797693) scale(0.1 -0.1)">
       <use xlink:href="#DejaVuSans-30"/>
       <use xlink:href="#DejaVuSans-2e" transform="translate(63.623047 0)"/>
       <use xlink:href="#DejaVuSans-32" transform="translate(95.410156 0)"/>
      </g>
     </g>
    </g>
    <g id="ytick_8">
     <g id="line2d_52">
      <path d="M 47.82125 393.233451 
L 601.2 393.233451 
" clip-path="url(#p8943dc810e)" style="fill: none; stroke: #b0b0b0; stroke-opacity: 0.25; stroke-width: 0.8; stroke-linecap: square"/>
     </g>
     <g id="line2d_53">
      <g>
       <use xlink:href="#m732098283e" x="47.82125" y="393.233451" style="stroke: #000000; stroke-width: 0.8"/>
      </g>
     </g>
     <g id="text_20">
      <!-- 0.4 -->
      <g transform="translate(24.918125 397.03267) scale(0.1 -0.1)">
       <use xlink:href="#DejaVuSans-30"/>
       <use xlink:href="#DejaVuSans-2e" transform="translate(63.623047 0)"/>
       <use xlink:href="#DejaVuSans-34" transform="translate(95.410156 0)"/>
      </g>
     </g>
    </g>
    <g id="ytick_9">
     <g id="line2d_54">
      <path d="M 47.82125 360.468428 
L 601.2 360.468428 
" clip-path="url(#p8943dc810e)" style="fill: none; stroke: #b0b0b0; stroke-opacity: 0.25; stroke-width: 0.8; stroke-linecap: square"/>
     </g>
     <g id="line2d_55">
      <g>
       <use xlink:href="#m732098283e" x="47.82125" y="360.468428" style="stroke: #000000; stroke-width: 0.8"/>
      </g>
     </g>
     <g id="text_21">
      <!-- 0.6 -->
      <g transform="translate(24.918125 364.267646) scale(0.1 -0.1)">
       <use xlink:href="#DejaVuSans-30"/>
       <use xlink:href="#DejaVuSans-2e" transform="translate(63.623047 0)"/>
       <use xlink:href="#DejaVuSans-36" transform="translate(95.410156 0)"/>
      </g>
     </g>
    </g>
    <g id="ytick_10">
     <g id="line2d_56">
      <path d="M 47.82125 327.703404 
L 601.2 327.703404 
" clip-path="url(#p8943dc810e)" style="fill: none; stroke: #b0b0b0; stroke-opacity: 0.25; stroke-width: 0.8; stroke-linecap: square"/>
     </g>
     <g id="line2d_57">
      <g>
       <use xlink:href="#m732098283e" x="47.82125" y="327.703404" style="stroke: #000000; stroke-width: 0.8"/>
      </g>
     </g>
     <g id="text_22">
      <!-- 0.8 -->
      <g transform="translate(24.918125 331.502623) scale(0.1 -0.1)">
       <use xlink:href="#DejaVuSans-30"/>
       <use xlink:href="#DejaVuSans-2e" transform="translate(63.623047 0)"/>
       <use xlink:href="#DejaVuSans-38" transform="translate(95.410156 0)"/>
      </g>
     </g>
    </g>
    <g id="ytick_11">
     <g id="line2d_58">
      <path d="M 47.82125 294.938381 
L 601.2 294.938381 
" clip-path="url(#p8943dc810e)" style="fill: none; stroke: #b0b0b0; stroke-opacity: 0.25; stroke-width: 0.8; stroke-linecap: square"/>
     </g>
     <g id="line2d_59">
      <g>
       <use xlink:href="#m732098283e" x="47.82125" y="294.938381" style="stroke: #000000; stroke-width: 0.8"/>
      </g>
     </g>
     <g id="text_23">
      <!-- 1.0 -->
      <g transform="translate(24.918125 298.7376) scale(0.1 -0.1)">
       <use xlink:href="#DejaVuSans-31"/>
       <use xlink:href="#DejaVuSans-2e" transform="translate(63.623047 0)"/>
       <use xlink:href="#DejaVuSans-30" transform="translate(95.410156 0)"/>
      </g>
     </g>
    </g>
    <g id="text_24">
     <!-- C_d(n) = exp(-n_fold*ell_d/a) -->
     <g transform="translate(18.560313 446.6545) rotate(-90) scale(0.1 -0.1)">
      <defs>
       <path id="DejaVuSans-43" d="M 4122 4306 
L 4122 3641 
Q 3803 3938 3442 4084 
Q 3081 4231 2675 4231 
Q 1875 4231 1450 3742 
Q 1025 3253 1025 2328 
Q 1025 1406 1450 917 
Q 1875 428 2675 428 
Q 3081 428 3442 575 
Q 3803 722 4122 1019 
L 4122 359 
Q 3791 134 3420 21 
Q 3050 -91 2638 -91 
Q 1578 -91 968 557 
Q 359 1206 359 2328 
Q 359 3453 968 4101 
Q 1578 4750 2638 4750 
Q 3056 4750 3426 4639 
Q 3797 4528 4122 4306 
z
" transform="scale(0.015625)"/>
       <path id="DejaVuSans-78" d="M 3513 3500 
L 2247 1797 
L 3578 0 
L 2900 0 
L 1881 1375 
L 863 0 
L 184 0 
L 1544 1831 
L 300 3500 
L 978 3500 
L 1906 2253 
L 2834 3500 
L 3513 3500 
z
" transform="scale(0.015625)"/>
       <path id="DejaVuSans-2d" d="M 313 2009 
L 1997 2009 
L 1997 1497 
L 313 1497 
L 313 2009 
z
" transform="scale(0.015625)"/>
       <path id="DejaVuSans-2a" d="M 3009 3897 
L 1888 3291 
L 3009 2681 
L 2828 2375 
L 1778 3009 
L 1778 1831 
L 1422 1831 
L 1422 3009 
L 372 2375 
L 191 2681 
L 1313 3291 
L 191 3897 
L 372 4206 
L 1422 3572 
L 1422 4750 
L 1778 4750 
L 1778 3572 
L 2828 4206 
L 3009 3897 
z
" transform="scale(0.015625)"/>
       <path id="DejaVuSans-2f" d="M 1625 4666 
L 2156 4666 
L 531 -594 
L 0 -594 
L 1625 4666 
z
" transform="scale(0.015625)"/>
      </defs>
      <use xlink:href="#DejaVuSans-43"/>
      <use xlink:href="#DejaVuSans-5f" transform="translate(69.824219 0)"/>
      <use xlink:href="#DejaVuSans-64" transform="translate(119.824219 0)"/>
      <use xlink:href="#DejaVuSans-28" transform="translate(183.300781 0)"/>
      <use xlink:href="#DejaVuSans-6e" transform="translate(222.314453 0)"/>
      <use xlink:href="#DejaVuSans-29" transform="translate(285.693359 0)"/>
      <use xlink:href="#DejaVuSans-20" transform="translate(324.707031 0)"/>
      <use xlink:href="#DejaVuSans-3d" transform="translate(356.494141 0)"/>
      <use xlink:href="#DejaVuSans-20" transform="translate(440.283203 0)"/>
      <use xlink:href="#DejaVuSans-65" transform="translate(472.070312 0)"/>
      <use xlink:href="#DejaVuSans-78" transform="translate(531.84375 0)"/>
      <use xlink:href="#DejaVuSans-70" transform="translate(591.023438 0)"/>
      <use xlink:href="#DejaVuSans-28" transform="translate(654.5 0)"/>
      <use xlink:href="#DejaVuSans-2d" transform="translate(693.513672 0)"/>
      <use xlink:href="#DejaVuSans-6e" transform="translate(729.597656 0)"/>
      <use xlink:href="#DejaVuSans-5f" transform="translate(792.976562 0)"/>
      <use xlink:href="#DejaVuSans-66" transform="translate(842.976562 0)"/>
      <use xlink:href="#DejaVuSans-6f" transform="translate(878.181641 0)"/>
      <use xlink:href="#DejaVuSans-6c" transform="translate(939.363281 0)"/>
      <use xlink:href="#DejaVuSans-64" transform="translate(967.146484 0)"/>
      <use xlink:href="#DejaVuSans-2a" transform="translate(1030.623047 0)"/>
      <use xlink:href="#DejaVuSans-65" transform="translate(1080.623047 0)"/>
      <use xlink:href="#DejaVuSans-6c" transform="translate(1142.146484 0)"/>
      <use xlink:href="#DejaVuSans-6c" transform="translate(1169.929688 0)"/>
      <use xlink:href="#DejaVuSans-5f" transform="translate(1197.712891 0)"/>
      <use xlink:href="#DejaVuSans-64" transform="translate(1247.712891 0)"/>
      <use xlink:href="#DejaVuSans-2f" transform="translate(1311.189453 0)"/>
      <use xlink:href="#DejaVuSans-61" transform="translate(1344.880859 0)"/>
      <use xlink:href="#DejaVuSans-29" transform="translate(1406.160156 0)"/>
     </g>
    </g>
   </g>
   <g id="line2d_60">
    <path d="M 72.97483 294.938381 
L 79.263224 398.495605 
L 85.551619 436.592179 
L 91.840014 450.607125 
L 98.128409 455.762936 
L 104.416804 457.659653 
L 110.705199 458.357416 
L 116.993594 458.614108 
L 123.281989 458.70854 
L 129.570384 458.614108 
L 135.858778 458.357416 
L 142.147173 457.659653 
L 148.435568 455.762936 
L 154.723963 450.607125 
L 161.012358 436.592179 
L 167.300753 398.495605 
L 173.589148 294.938381 
L 179.877543 398.495605 
L 186.165937 436.592179 
L 192.454332 450.607125 
L 198.742727 455.762936 
L 205.031122 457.659653 
L 211.319517 458.357416 
L 217.607912 458.614108 
L 223.896307 458.70854 
L 230.184702 458.614108 
L 236.473097 458.357416 
L 242.761491 457.659653 
L 249.049886 455.762936 
L 255.338281 450.607125 
L 261.626676 436.592179 
L 267.915071 398.495605 
L 274.203466 294.938381 
L 280.491861 398.495605 
L 286.780256 436.592179 
L 293.068651 450.607125 
L 299.357045 455.762936 
L 305.64544 457.659653 
L 311.933835 458.357416 
L 318.22223 458.614108 
L 324.510625 458.70854 
L 330.79902 458.614108 
L 337.087415 458.357416 
L 343.37581 457.659653 
L 349.664205 455.762936 
L 355.952599 450.607125 
L 362.240994 436.592179 
L 368.529389 398.495605 
L 374.817784 294.938381 
L 381.106179 398.495605 
L 387.394574 436.592179 
L 393.682969 450.607125 
L 399.971364 455.762936 
L 406.259759 457.659653 
L 412.548153 458.357416 
L 418.836548 458.614108 
L 425.124943 458.70854 
L 431.413338 458.614108 
L 437.701733 458.357416 
L 443.990128 457.659653 
L 450.278523 455.762936 
L 456.566918 450.607125 
L 462.855312 436.592179 
L 469.143707 398.495605 
L 475.432102 294.938381 
L 481.720497 398.495605 
L 488.008892 436.592179 
L 494.297287 450.607125 
L 500.585682 455.762936 
L 506.874077 457.659653 
L 513.162472 458.357416 
L 519.450866 458.614108 
L 525.739261 458.70854 
L 532.027656 458.614108 
L 538.316051 458.357416 
L 544.604446 457.659653 
L 550.892841 455.762936 
L 557.181236 450.607125 
L 563.469631 436.592179 
L 569.758026 398.495605 
L 576.04642 294.938381 
" clip-path="url(#p8943dc810e)" style="fill: none; stroke: #1f77b4; stroke-width: 1.5; stroke-linecap: square"/>
    <g clip-path="url(#p8943dc810e)">
     <use xlink:href="#mb74a709b98" x="72.97483" y="294.938381" style="fill: #1f77b4; stroke: #1f77b4"/>
     <use xlink:href="#mb74a709b98" x="79.263224" y="398.495605" style="fill: #1f77b4; stroke: #1f77b4"/>
     <use xlink:href="#mb74a709b98" x="85.551619" y="436.592179" style="fill: #1f77b4; stroke: #1f77b4"/>
     <use xlink:href="#mb74a709b98" x="91.840014" y="450.607125" style="fill: #1f77b4; stroke: #1f77b4"/>
     <use xlink:href="#mb74a709b98" x="98.128409" y="455.762936" style="fill: #1f77b4; stroke: #1f77b4"/>
     <use xlink:href="#mb74a709b98" x="104.416804" y="457.659653" style="fill: #1f77b4; stroke: #1f77b4"/>
     <use xlink:href="#mb74a709b98" x="110.705199" y="458.357416" style="fill: #1f77b4; stroke: #1f77b4"/>
     <use xlink:href="#mb74a709b98" x="116.993594" y="458.614108" style="fill: #1f77b4; stroke: #1f77b4"/>
     <use xlink:href="#mb74a709b98" x="123.281989" y="458.70854" style="fill: #1f77b4; stroke: #1f77b4"/>
     <use xlink:href="#mb74a709b98" x="129.570384" y="458.614108" style="fill: #1f77b4; stroke: #1f77b4"/>
     <use xlink:href="#mb74a709b98" x="135.858778" y="458.357416" style="fill: #1f77b4; stroke: #1f77b4"/>
     <use xlink:href="#mb74a709b98" x="142.147173" y="457.659653" style="fill: #1f77b4; stroke: #1f77b4"/>
     <use xlink:href="#mb74a709b98" x="148.435568" y="455.762936" style="fill: #1f77b4; stroke: #1f77b4"/>
     <use xlink:href="#mb74a709b98" x="154.723963" y="450.607125" style="fill: #1f77b4; stroke: #1f77b4"/>
     <use xlink:href="#mb74a709b98" x="161.012358" y="436.592179" style="fill: #1f77b4; stroke: #1f77b4"/>
     <use xlink:href="#mb74a709b98" x="167.300753" y="398.495605" style="fill: #1f77b4; stroke: #1f77b4"/>
     <use xlink:href="#mb74a709b98" x="173.589148" y="294.938381" style="fill: #1f77b4; stroke: #1f77b4"/>
     <use xlink:href="#mb74a709b98" x="179.877543" y="398.495605" style="fill: #1f77b4; stroke: #1f77b4"/>
     <use xlink:href="#mb74a709b98" x="186.165937" y="436.592179" style="fill: #1f77b4; stroke: #1f77b4"/>
     <use xlink:href="#mb74a709b98" x="192.454332" y="450.607125" style="fill: #1f77b4; stroke: #1f77b4"/>
     <use xlink:href="#mb74a709b98" x="198.742727" y="455.762936" style="fill: #1f77b4; stroke: #1f77b4"/>
     <use xlink:href="#mb74a709b98" x="205.031122" y="457.659653" style="fill: #1f77b4; stroke: #1f77b4"/>
     <use xlink:href="#mb74a709b98" x="211.319517" y="458.357416" style="fill: #1f77b4; stroke: #1f77b4"/>
     <use xlink:href="#mb74a709b98" x="217.607912" y="458.614108" style="fill: #1f77b4; stroke: #1f77b4"/>
     <use xlink:href="#mb74a709b98" x="223.896307" y="458.70854" style="fill: #1f77b4; stroke: #1f77b4"/>
     <use xlink:href="#mb74a709b98" x="230.184702" y="458.614108" style="fill: #1f77b4; stroke: #1f77b4"/>
     <use xlink:href="#mb74a709b98" x="236.473097" y="458.357416" style="fill: #1f77b4; stroke: #1f77b4"/>
     <use xlink:href="#mb74a709b98" x="242.761491" y="457.659653" style="fill: #1f77b4; stroke: #1f77b4"/>
     <use xlink:href="#mb74a709b98" x="249.049886" y="455.762936" style="fill: #1f77b4; stroke: #1f77b4"/>
     <use xlink:href="#mb74a709b98" x="255.338281" y="450.607125" style="fill: #1f77b4; stroke: #1f77b4"/>
     <use xlink:href="#mb74a709b98" x="261.626676" y="436.592179" style="fill: #1f77b4; stroke: #1f77b4"/>
     <use xlink:href="#mb74a709b98" x="267.915071" y="398.495605" style="fill: #1f77b4; stroke: #1f77b4"/>
     <use xlink:href="#mb74a709b98" x="274.203466" y="294.938381" style="fill: #1f77b4; stroke: #1f77b4"/>
     <use xlink:href="#mb74a709b98" x="280.491861" y="398.495605" style="fill: #1f77b4; stroke: #1f77b4"/>
     <use xlink:href="#mb74a709b98" x="286.780256" y="436.592179" style="fill: #1f77b4; stroke: #1f77b4"/>
     <use xlink:href="#mb74a709b98" x="293.068651" y="450.607125" style="fill: #1f77b4; stroke: #1f77b4"/>
     <use xlink:href="#mb74a709b98" x="299.357045" y="455.762936" style="fill: #1f77b4; stroke: #1f77b4"/>
     <use xlink:href="#mb74a709b98" x="305.64544" y="457.659653" style="fill: #1f77b4; stroke: #1f77b4"/>
     <use xlink:href="#mb74a709b98" x="311.933835" y="458.357416" style="fill: #1f77b4; stroke: #1f77b4"/>
     <use xlink:href="#mb74a709b98" x="318.22223" y="458.614108" style="fill: #1f77b4; stroke: #1f77b4"/>
     <use xlink:href="#mb74a709b98" x="324.510625" y="458.70854" style="fill: #1f77b4; stroke: #1f77b4"/>
     <use xlink:href="#mb74a709b98" x="330.79902" y="458.614108" style="fill: #1f77b4; stroke: #1f77b4"/>
     <use xlink:href="#mb74a709b98" x="337.087415" y="458.357416" style="fill: #1f77b4; stroke: #1f77b4"/>
     <use xlink:href="#mb74a709b98" x="343.37581" y="457.659653" style="fill: #1f77b4; stroke: #1f77b4"/>
     <use xlink:href="#mb74a709b98" x="349.664205" y="455.762936" style="fill: #1f77b4; stroke: #1f77b4"/>
     <use xlink:href="#mb74a709b98" x="355.952599" y="450.607125" style="fill: #1f77b4; stroke: #1f77b4"/>
     <use xlink:href="#mb74a709b98" x="362.240994" y="436.592179" style="fill: #1f77b4; stroke: #1f77b4"/>
     <use xlink:href="#mb74a709b98" x="368.529389" y="398.495605" style="fill: #1f77b4; stroke: #1f77b4"/>
     <use xlink:href="#mb74a709b98" x="374.817784" y="294.938381" style="fill: #1f77b4; stroke: #1f77b4"/>
     <use xlink:href="#mb74a709b98" x="381.106179" y="398.495605" style="fill: #1f77b4; stroke: #1f77b4"/>
     <use xlink:href="#mb74a709b98" x="387.394574" y="436.592179" style="fill: #1f77b4; stroke: #1f77b4"/>
     <use xlink:href="#mb74a709b98" x="393.682969" y="450.607125" style="fill: #1f77b4; stroke: #1f77b4"/>
     <use xlink:href="#mb74a709b98" x="399.971364" y="455.762936" style="fill: #1f77b4; stroke: #1f77b4"/>
     <use xlink:href="#mb74a709b98" x="406.259759" y="457.659653" style="fill: #1f77b4; stroke: #1f77b4"/>
     <use xlink:href="#mb74a709b98" x="412.548153" y="458.357416" style="fill: #1f77b4; stroke: #1f77b4"/>
     <use xlink:href="#mb74a709b98" x="418.836548" y="458.614108" style="fill: #1f77b4; stroke: #1f77b4"/>
     <use xlink:href="#mb74a709b98" x="425.124943" y="458.70854" style="fill: #1f77b4; stroke: #1f77b4"/>
     <use xlink:href="#mb74a709b98" x="431.413338" y="458.614108" style="fill: #1f77b4; stroke: #1f77b4"/>
     <use xlink:href="#mb74a709b98" x="437.701733" y="458.357416" style="fill: #1f77b4; stroke: #1f77b4"/>
     <use xlink:href="#mb74a709b98" x="443.990128" y="457.659653" style="fill: #1f77b4; stroke: #1f77b4"/>
     <use xlink:href="#mb74a709b98" x="450.278523" y="455.762936" style="fill: #1f77b4; stroke: #1f77b4"/>
     <use xlink:href="#mb74a709b98" x="456.566918" y="450.607125" style="fill: #1f77b4; stroke: #1f77b4"/>
     <use xlink:href="#mb74a709b98" x="462.855312" y="436.592179" style="fill: #1f77b4; stroke: #1f77b4"/>
     <use xlink:href="#mb74a709b98" x="469.143707" y="398.495605" style="fill: #1f77b4; stroke: #1f77b4"/>
     <use xlink:href="#mb74a709b98" x="475.432102" y="294.938381" style="fill: #1f77b4; stroke: #1f77b4"/>
     <use xlink:href="#mb74a709b98" x="481.720497" y="398.495605" style="fill: #1f77b4; stroke: #1f77b4"/>
     <use xlink:href="#mb74a709b98" x="488.008892" y="436.592179" style="fill: #1f77b4; stroke: #1f77b4"/>
     <use xlink:href="#mb74a709b98" x="494.297287" y="450.607125" style="fill: #1f77b4; stroke: #1f77b4"/>
     <use xlink:href="#mb74a709b98" x="500.585682" y="455.762936" style="fill: #1f77b4; stroke: #1f77b4"/>
     <use xlink:href="#mb74a709b98" x="506.874077" y="457.659653" style="fill: #1f77b4; stroke: #1f77b4"/>
     <use xlink:href="#mb74a709b98" x="513.162472" y="458.357416" style="fill: #1f77b4; stroke: #1f77b4"/>
     <use xlink:href="#mb74a709b98" x="519.450866" y="458.614108" style="fill: #1f77b4; stroke: #1f77b4"/>
     <use xlink:href="#mb74a709b98" x="525.739261" y="458.70854" style="fill: #1f77b4; stroke: #1f77b4"/>
     <use xlink:href="#mb74a709b98" x="532.027656" y="458.614108" style="fill: #1f77b4; stroke: #1f77b4"/>
     <use xlink:href="#mb74a709b98" x="538.316051" y="458.357416" style="fill: #1f77b4; stroke: #1f77b4"/>
     <use xlink:href="#mb74a709b98" x="544.604446" y="457.659653" style="fill: #1f77b4; stroke: #1f77b4"/>
     <use xlink:href="#mb74a709b98" x="550.892841" y="455.762936" style="fill: #1f77b4; stroke: #1f77b4"/>
     <use xlink:href="#mb74a709b98" x="557.181236" y="450.607125" style="fill: #1f77b4; stroke: #1f77b4"/>
     <use xlink:href="#mb74a709b98" x="563.469631" y="436.592179" style="fill: #1f77b4; stroke: #1f77b4"/>
     <use xlink:href="#mb74a709b98" x="569.758026" y="398.495605" style="fill: #1f77b4; stroke: #1f77b4"/>
     <use xlink:href="#mb74a709b98" x="576.04642" y="294.938381" style="fill: #1f77b4; stroke: #1f77b4"/>
    </g>
   </g>
   <g id="patch_8">
    <path d="M 47.82125 462.04 
L 47.82125 286.747125 
" style="fill: none; stroke: #000000; stroke-width: 0.8; stroke-linejoin: miter; stroke-linecap: square"/>
   </g>
   <g id="patch_9">
    <path d="M 601.2 462.04 
L 601.2 286.747125 
" style="fill: none; stroke: #000000; stroke-width: 0.8; stroke-linejoin: miter; stroke-linecap: square"/>
   </g>
   <g id="patch_10">
    <path d="M 47.82125 462.04 
L 601.2 462.04 
" style="fill: none; stroke: #000000; stroke-width: 0.8; stroke-linejoin: miter; stroke-linecap: square"/>
   </g>
   <g id="patch_11">
    <path d="M 47.82125 286.747125 
L 601.2 286.747125 
" style="fill: none; stroke: #000000; stroke-width: 0.8; stroke-linejoin: miter; stroke-linecap: square"/>
   </g>
   <g id="text_25">
    <g id="patch_12">
     <path d="M 58.888825 458.906214 
L 200.756481 458.906214 
Q 202.881481 458.906214 202.881481 456.781214 
L 202.881481 428.809307 
Q 202.881481 426.684307 200.756481 426.684307 
L 58.888825 426.684307 
Q 56.763825 426.684307 56.763825 428.809307 
L 56.763825 456.781214 
Q 56.763825 458.906214 58.888825 458.906214 
z
" style="fill: #f7f7f7; opacity: 0.9; stroke: #cccccc; stroke-linejoin: miter"/>
    </g>
    <!-- C_d(n)=exp[-n_fold(n)*ell_d/a] -->
    <g transform="translate(58.888825 435.267979) scale(0.085 -0.085)">
     <defs>
      <path id="DejaVuSans-5b" d="M 550 4863 
L 1875 4863 
L 1875 4416 
L 1125 4416 
L 1125 -397 
L 1875 -397 
L 1875 -844 
L 550 -844 
L 550 4863 
z
" transform="scale(0.015625)"/>
      <path id="DejaVuSans-5d" d="M 1947 4863 
L 1947 -844 
L 622 -844 
L 622 -397 
L 1369 -397 
L 1369 4416 
L 622 4416 
L 622 4863 
L 1947 4863 
z
" transform="scale(0.015625)"/>
     </defs>
     <use xlink:href="#DejaVuSans-43"/>
     <use xlink:href="#DejaVuSans-5f" transform="translate(69.824219 0)"/>
     <use xlink:href="#DejaVuSans-64" transform="translate(119.824219 0)"/>
     <use xlink:href="#DejaVuSans-28" transform="translate(183.300781 0)"/>
     <use xlink:href="#DejaVuSans-6e" transform="translate(222.314453 0)"/>
     <use xlink:href="#DejaVuSans-29" transform="translate(285.693359 0)"/>
     <use xlink:href="#DejaVuSans-3d" transform="translate(324.707031 0)"/>
     <use xlink:href="#DejaVuSans-65" transform="translate(408.496094 0)"/>
     <use xlink:href="#DejaVuSans-78" transform="translate(468.269531 0)"/>
     <use xlink:href="#DejaVuSans-70" transform="translate(527.449219 0)"/>
     <use xlink:href="#DejaVuSans-5b" transform="translate(590.925781 0)"/>
     <use xlink:href="#DejaVuSans-2d" transform="translate(629.939453 0)"/>
     <use xlink:href="#DejaVuSans-6e" transform="translate(666.023438 0)"/>
     <use xlink:href="#DejaVuSans-5f" transform="translate(729.402344 0)"/>
     <use xlink:href="#DejaVuSans-66" transform="translate(779.402344 0)"/>
     <use xlink:href="#DejaVuSans-6f" transform="translate(814.607422 0)"/>
     <use xlink:href="#DejaVuSans-6c" transform="translate(875.789062 0)"/>
     <use xlink:href="#DejaVuSans-64" transform="translate(903.572266 0)"/>
     <use xlink:href="#DejaVuSans-28" transform="translate(967.048828 0)"/>
     <use xlink:href="#DejaVuSans-6e" transform="translate(1006.0625 0)"/>
     <use xlink:href="#DejaVuSans-29" transform="translate(1069.441406 0)"/>
     <use xlink:href="#DejaVuSans-2a" transform="translate(1108.455078 0)"/>
     <use xlink:href="#DejaVuSans-65" transform="translate(1158.455078 0)"/>
     <use xlink:href="#DejaVuSans-6c" transform="translate(1219.978516 0)"/>
     <use xlink:href="#DejaVuSans-6c" transform="translate(1247.761719 0)"/>
     <use xlink:href="#DejaVuSans-5f" transform="translate(1275.544922 0)"/>
     <use xlink:href="#DejaVuSans-64" transform="translate(1325.544922 0)"/>
     <use xlink:href="#DejaVuSans-2f" transform="translate(1389.021484 0)"/>
     <use xlink:href="#DejaVuSans-61" transform="translate(1422.712891 0)"/>
     <use xlink:href="#DejaVuSans-5d" transform="translate(1483.992188 0)"/>
    </g>
    <!-- for this panel: ell_d/a=1, p_d=16 -->
    <g transform="translate(58.888825 445.022526) scale(0.085 -0.085)">
     <defs>
      <path id="DejaVuSans-68" d="M 3513 2113 
L 3513 0 
L 2938 0 
L 2938 2094 
Q 2938 2591 2744 2837 
Q 2550 3084 2163 3084 
Q 1697 3084 1428 2787 
Q 1159 2491 1159 1978 
L 1159 0 
L 581 0 
L 581 4863 
L 1159 4863 
L 1159 2956 
Q 1366 3272 1645 3428 
Q 1925 3584 2291 3584 
Q 2894 3584 3203 3211 
Q 3513 2838 3513 2113 
z
" transform="scale(0.015625)"/>
      <path id="DejaVuSans-3a" d="M 750 794 
L 1409 794 
L 1409 0 
L 750 0 
L 750 794 
z
M 750 3309 
L 1409 3309 
L 1409 2516 
L 750 2516 
L 750 3309 
z
" transform="scale(0.015625)"/>
     </defs>
     <use xlink:href="#DejaVuSans-66"/>
     <use xlink:href="#DejaVuSans-6f" transform="translate(35.205078 0)"/>
     <use xlink:href="#DejaVuSans-72" transform="translate(96.386719 0)"/>
     <use xlink:href="#DejaVuSans-20" transform="translate(137.5 0)"/>
     <use xlink:href="#DejaVuSans-74" transform="translate(169.287109 0)"/>
     <use xlink:href="#DejaVuSans-68" transform="translate(208.496094 0)"/>
     <use xlink:href="#DejaVuSans-69" transform="translate(271.875 0)"/>
     <use xlink:href="#DejaVuSans-73" transform="translate(299.658203 0)"/>
     <use xlink:href="#DejaVuSans-20" transform="translate(351.757812 0)"/>
     <use xlink:href="#DejaVuSans-70" transform="translate(383.544922 0)"/>
     <use xlink:href="#DejaVuSans-61" transform="translate(447.021484 0)"/>
     <use xlink:href="#DejaVuSans-6e" transform="translate(508.300781 0)"/>
     <use xlink:href="#DejaVuSans-65" transform="translate(571.679688 0)"/>
     <use xlink:href="#DejaVuSans-6c" transform="translate(633.203125 0)"/>
     <use xlink:href="#DejaVuSans-3a" transform="translate(660.986328 0)"/>
     <use xlink:href="#DejaVuSans-20" transform="translate(694.677734 0)"/>
     <use xlink:href="#DejaVuSans-65" transform="translate(726.464844 0)"/>
     <use xlink:href="#DejaVuSans-6c" transform="translate(787.988281 0)"/>
     <use xlink:href="#DejaVuSans-6c" transform="translate(815.771484 0)"/>
     <use xlink:href="#DejaVuSans-5f" transform="translate(843.554688 0)"/>
     <use xlink:href="#DejaVuSans-64" transform="translate(893.554688 0)"/>
     <use xlink:href="#DejaVuSans-2f" transform="translate(957.03125 0)"/>
     <use xlink:href="#DejaVuSans-61" transform="translate(990.722656 0)"/>
     <use xlink:href="#DejaVuSans-3d" transform="translate(1052.001953 0)"/>
     <use xlink:href="#DejaVuSans-31" transform="translate(1135.791016 0)"/>
     <use xlink:href="#DejaVuSans-2c" transform="translate(1199.414062 0)"/>
     <use xlink:href="#DejaVuSans-20" transform="translate(1231.201172 0)"/>
     <use xlink:href="#DejaVuSans-70" transform="translate(1262.988281 0)"/>
     <use xlink:href="#DejaVuSans-5f" transform="translate(1326.464844 0)"/>
     <use xlink:href="#DejaVuSans-64" transform="translate(1376.464844 0)"/>
     <use xlink:href="#DejaVuSans-3d" transform="translate(1439.941406 0)"/>
     <use xlink:href="#DejaVuSans-31" transform="translate(1523.730469 0)"/>
     <use xlink:href="#DejaVuSans-36" transform="translate(1587.353516 0)"/>
    </g>
    <!-- n_fold(n)=min(n%16, 16-(n%16)) -->
    <g transform="translate(58.888825 454.777073) scale(0.085 -0.085)">
     <defs>
      <path id="DejaVuSans-6d" d="M 3328 2828 
Q 3544 3216 3844 3400 
Q 4144 3584 4550 3584 
Q 5097 3584 5394 3201 
Q 5691 2819 5691 2113 
L 5691 0 
L 5113 0 
L 5113 2094 
Q 5113 2597 4934 2840 
Q 4756 3084 4391 3084 
Q 3944 3084 3684 2787 
Q 3425 2491 3425 1978 
L 3425 0 
L 2847 0 
L 2847 2094 
Q 2847 2600 2669 2842 
Q 2491 3084 2119 3084 
Q 1678 3084 1418 2786 
Q 1159 2488 1159 1978 
L 1159 0 
L 581 0 
L 581 3500 
L 1159 3500 
L 1159 2956 
Q 1356 3278 1631 3431 
Q 1906 3584 2284 3584 
Q 2666 3584 2933 3390 
Q 3200 3197 3328 2828 
z
" transform="scale(0.015625)"/>
      <path id="DejaVuSans-25" d="M 4653 2053 
Q 4381 2053 4226 1822 
Q 4072 1591 4072 1178 
Q 4072 772 4226 539 
Q 4381 306 4653 306 
Q 4919 306 5073 539 
Q 5228 772 5228 1178 
Q 5228 1588 5073 1820 
Q 4919 2053 4653 2053 
z
M 4653 2450 
Q 5147 2450 5437 2106 
Q 5728 1763 5728 1178 
Q 5728 594 5436 251 
Q 5144 -91 4653 -91 
Q 4153 -91 3862 251 
Q 3572 594 3572 1178 
Q 3572 1766 3864 2108 
Q 4156 2450 4653 2450 
z
M 1428 4353 
Q 1159 4353 1004 4120 
Q 850 3888 850 3481 
Q 850 3069 1003 2837 
Q 1156 2606 1428 2606 
Q 1700 2606 1854 2837 
Q 2009 3069 2009 3481 
Q 2009 3884 1853 4118 
Q 1697 4353 1428 4353 
z
M 4250 4750 
L 4750 4750 
L 1831 -91 
L 1331 -91 
L 4250 4750 
z
M 1428 4750 
Q 1922 4750 2215 4408 
Q 2509 4066 2509 3481 
Q 2509 2891 2217 2550 
Q 1925 2209 1428 2209 
Q 931 2209 642 2551 
Q 353 2894 353 3481 
Q 353 4063 643 4406 
Q 934 4750 1428 4750 
z
" transform="scale(0.015625)"/>
     </defs>
     <use xlink:href="#DejaVuSans-6e"/>
     <use xlink:href="#DejaVuSans-5f" transform="translate(63.378906 0)"/>
     <use xlink:href="#DejaVuSans-66" transform="translate(113.378906 0)"/>
     <use xlink:href="#DejaVuSans-6f" transform="translate(148.583984 0)"/>
     <use xlink:href="#DejaVuSans-6c" transform="translate(209.765625 0)"/>
     <use xlink:href="#DejaVuSans-64" transform="translate(237.548828 0)"/>
     <use xlink:href="#DejaVuSans-28" transform="translate(301.025391 0)"/>
     <use xlink:href="#DejaVuSans-6e" transform="translate(340.039062 0)"/>
     <use xlink:href="#DejaVuSans-29" transform="translate(403.417969 0)"/>
     <use xlink:href="#DejaVuSans-3d" transform="translate(442.431641 0)"/>
     <use xlink:href="#DejaVuSans-6d" transform="translate(526.220703 0)"/>
     <use xlink:href="#DejaVuSans-69" transform="translate(623.632812 0)"/>
     <use xlink:href="#DejaVuSans-6e" transform="translate(651.416016 0)"/>
     <use xlink:href="#DejaVuSans-28" transform="translate(714.794922 0)"/>
     <use xlink:href="#DejaVuSans-6e" transform="translate(753.808594 0)"/>
     <use xlink:href="#DejaVuSans-25" transform="translate(817.1875 0)"/>
     <use xlink:href="#DejaVuSans-31" transform="translate(912.207031 0)"/>
     <use xlink:href="#DejaVuSans-36" transform="translate(975.830078 0)"/>
     <use xlink:href="#DejaVuSans-2c" transform="translate(1039.453125 0)"/>
     <use xlink:href="#DejaVuSans-20" transform="translate(1071.240234 0)"/>
     <use xlink:href="#DejaVuSans-31" transform="translate(1103.027344 0)"/>
     <use xlink:href="#DejaVuSans-36" transform="translate(1166.650391 0)"/>
     <use xlink:href="#DejaVuSans-2d" transform="translate(1230.273438 0)"/>
     <use xlink:href="#DejaVuSans-28" transform="translate(1266.357422 0)"/>
     <use xlink:href="#DejaVuSans-6e" transform="translate(1305.371094 0)"/>
     <use xlink:href="#DejaVuSans-25" transform="translate(1368.75 0)"/>
     <use xlink:href="#DejaVuSans-31" transform="translate(1463.769531 0)"/>
     <use xlink:href="#DejaVuSans-36" transform="translate(1527.392578 0)"/>
     <use xlink:href="#DejaVuSans-29" transform="translate(1591.015625 0)"/>
     <use xlink:href="#DejaVuSans-29" transform="translate(1630.029297 0)"/>
    </g>
   </g>
  </g>
  <g id="text_26">
   <!-- Twisted BC schematic (L=16, shift=8) -->
   <g transform="translate(202.225313 18.438281) scale(0.11 -0.11)">
    <defs>
     <path id="DejaVuSans-54" d="M -19 4666 
L 3928 4666 
L 3928 4134 
L 2272 4134 
L 2272 0 
L 1638 0 
L 1638 4134 
L -19 4134 
L -19 4666 
z
" transform="scale(0.015625)"/>
     <path id="DejaVuSans-77" d="M 269 3500 
L 844 3500 
L 1563 769 
L 2278 3500 
L 2956 3500 
L 3675 769 
L 4391 3500 
L 4966 3500 
L 4050 0 
L 3372 0 
L 2619 2869 
L 1863 0 
L 1184 0 
L 269 3500 
z
" transform="scale(0.015625)"/>
     <path id="DejaVuSans-42" d="M 1259 2228 
L 1259 519 
L 2272 519 
Q 2781 519 3026 730 
Q 3272 941 3272 1375 
Q 3272 1813 3026 2020 
Q 2781 2228 2272 2228 
L 1259 2228 
z
M 1259 4147 
L 1259 2741 
L 2194 2741 
Q 2656 2741 2882 2914 
Q 3109 3088 3109 3444 
Q 3109 3797 2882 3972 
Q 2656 4147 2194 4147 
L 1259 4147 
z
M 628 4666 
L 2241 4666 
Q 2963 4666 3353 4366 
Q 3744 4066 3744 3513 
Q 3744 3084 3544 2831 
Q 3344 2578 2956 2516 
Q 3422 2416 3680 2098 
Q 3938 1781 3938 1306 
Q 3938 681 3513 340 
Q 3088 0 2303 0 
L 628 0 
L 628 4666 
z
" transform="scale(0.015625)"/>
     <path id="DejaVuSans-4c" d="M 628 4666 
L 1259 4666 
L 1259 531 
L 3531 531 
L 3531 0 
L 628 0 
L 628 4666 
z
" transform="scale(0.015625)"/>
    </defs>
    <use xlink:href="#DejaVuSans-54"/>
    <use xlink:href="#DejaVuSans-77" transform="translate(44.583984 0)"/>
    <use xlink:href="#DejaVuSans-69" transform="translate(126.371094 0)"/>
    <use xlink:href="#DejaVuSans-73" transform="translate(154.154297 0)"/>
    <use xlink:href="#DejaVuSans-74" transform="translate(206.253906 0)"/>
    <use xlink:href="#DejaVuSans-65" transform="translate(245.462891 0)"/>
    <use xlink:href="#DejaVuSans-64" transform="translate(306.986328 0)"/>
    <use xlink:href="#DejaVuSans-20" transform="translate(370.462891 0)"/>
    <use xlink:href="#DejaVuSans-42" transform="translate(402.25 0)"/>
    <use xlink:href="#DejaVuSans-43" transform="translate(469.103516 0)"/>
    <use xlink:href="#DejaVuSans-20" transform="translate(538.927734 0)"/>
    <use xlink:href="#DejaVuSans-73" transform="translate(570.714844 0)"/>
    <use xlink:href="#DejaVuSans-63" transform="translate(622.814453 0)"/>
    <use xlink:href="#DejaVuSans-68" transform="translate(677.794922 0)"/>
    <use xlink:href="#DejaVuSans-65" transform="translate(741.173828 0)"/>
    <use xlink:href="#DejaVuSans-6d" transform="translate(802.697266 0)"/>
    <use xlink:href="#DejaVuSans-61" transform="translate(900.109375 0)"/>
    <use xlink:href="#DejaVuSans-74" transform="translate(961.388672 0)"/>
    <use xlink:href="#DejaVuSans-69" transform="translate(1000.597656 0)"/>
    <use xlink:href="#DejaVuSans-63" transform="translate(1028.380859 0)"/>
    <use xlink:href="#DejaVuSans-20" transform="translate(1083.361328 0)"/>
    <use xlink:href="#DejaVuSans-28" transform="translate(1115.148438 0)"/>
    <use xlink:href="#DejaVuSans-4c" transform="translate(1154.162109 0)"/>
    <use xlink:href="#DejaVuSans-3d" transform="translate(1209.875 0)"/>
    <use xlink:href="#DejaVuSans-31" transform="translate(1293.664062 0)"/>
    <use xlink:href="#DejaVuSans-36" transform="translate(1357.287109 0)"/>
    <use xlink:href="#DejaVuSans-2c" transform="translate(1420.910156 0)"/>
    <use xlink:href="#DejaVuSans-20" transform="translate(1452.697266 0)"/>
    <use xlink:href="#DejaVuSans-73" transform="translate(1484.484375 0)"/>
    <use xlink:href="#DejaVuSans-68" transform="translate(1536.583984 0)"/>
    <use xlink:href="#DejaVuSans-69" transform="translate(1599.962891 0)"/>
    <use xlink:href="#DejaVuSans-66" transform="translate(1627.746094 0)"/>
    <use xlink:href="#DejaVuSans-74" transform="translate(1661.201172 0)"/>
    <use xlink:href="#DejaVuSans-3d" transform="translate(1700.410156 0)"/>
    <use xlink:href="#DejaVuSans-38" transform="translate(1784.199219 0)"/>
    <use xlink:href="#DejaVuSans-29" transform="translate(1847.822266 0)"/>
   </g>
   <!-- decay rule: C_d(n)=exp(-n_fold*ell_d/a) with direction-dependent ell_d -->
   <g transform="translate(112.0425 30.755875) scale(0.11 -0.11)">
    <defs>
     <path id="DejaVuSans-75" d="M 544 1381 
L 544 3500 
L 1119 3500 
L 1119 1403 
Q 1119 906 1312 657 
Q 1506 409 1894 409 
Q 2359 409 2629 706 
Q 2900 1003 2900 1516 
L 2900 3500 
L 3475 3500 
L 3475 0 
L 2900 0 
L 2900 538 
Q 2691 219 2414 64 
Q 2138 -91 1772 -91 
Q 1169 -91 856 284 
Q 544 659 544 1381 
z
M 1991 3584 
L 1991 3584 
z
" transform="scale(0.015625)"/>
    </defs>
    <use xlink:href="#DejaVuSans-64"/>
    <use xlink:href="#DejaVuSans-65" transform="translate(63.476562 0)"/>
    <use xlink:href="#DejaVuSans-63" transform="translate(125 0)"/>
    <use xlink:href="#DejaVuSans-61" transform="translate(179.980469 0)"/>
    <use xlink:href="#DejaVuSans-79" transform="translate(241.259766 0)"/>
    <use xlink:href="#DejaVuSans-20" transform="translate(300.439453 0)"/>
    <use xlink:href="#DejaVuSans-72" transform="translate(332.226562 0)"/>
    <use xlink:href="#DejaVuSans-75" transform="translate(373.339844 0)"/>
    <use xlink:href="#DejaVuSans-6c" transform="translate(436.71875 0)"/>
    <use xlink:href="#DejaVuSans-65" transform="translate(464.501953 0)"/>
    <use xlink:href="#DejaVuSans-3a" transform="translate(526.025391 0)"/>
    <use xlink:href="#DejaVuSans-20" transform="translate(559.716797 0)"/>
    <use xlink:href="#DejaVuSans-43" transform="translate(591.503906 0)"/>
    <use xlink:href="#DejaVuSans-5f" transform="translate(661.328125 0)"/>
    <use xlink:href="#DejaVuSans-64" transform="translate(711.328125 0)"/>
    <use xlink:href="#DejaVuSans-28" transform="translate(774.804688 0)"/>
    <use xlink:href="#DejaVuSans-6e" transform="translate(813.818359 0)"/>
    <use xlink:href="#DejaVuSans-29" transform="translate(877.197266 0)"/>
    <use xlink:href="#DejaVuSans-3d" transform="translate(916.210938 0)"/>
    <use xlink:href="#DejaVuSans-65" transform="translate(1000 0)"/>
    <use xlink:href="#DejaVuSans-78" transform="translate(1059.773438 0)"/>
    <use xlink:href="#DejaVuSans-70" transform="translate(1118.953125 0)"/>
    <use xlink:href="#DejaVuSans-28" transform="translate(1182.429688 0)"/>
    <use xlink:href="#DejaVuSans-2d" transform="translate(1221.443359 0)"/>
    <use xlink:href="#DejaVuSans-6e" transform="translate(1257.527344 0)"/>
    <use xlink:href="#DejaVuSans-5f" transform="translate(1320.90625 0)"/>
    <use xlink:href="#DejaVuSans-66" transform="translate(1370.90625 0)"/>
    <use xlink:href="#DejaVuSans-6f" transform="translate(1406.111328 0)"/>
    <use xlink:href="#DejaVuSans-6c" transform="translate(1467.292969 0)"/>
    <use xlink:href="#DejaVuSans-64" transform="translate(1495.076172 0)"/>
    <use xlink:href="#DejaVuSans-2a" transform="translate(1558.552734 0)"/>
    <use xlink:href="#DejaVuSans-65" transform="translate(1608.552734 0)"/>
    <use xlink:href="#DejaVuSans-6c" transform="translate(1670.076172 0)"/>
    <use xlink:href="#DejaVuSans-6c" transform="translate(1697.859375 0)"/>
    <use xlink:href="#DejaVuSans-5f" transform="translate(1725.642578 0)"/>
    <use xlink:href="#DejaVuSans-64" transform="translate(1775.642578 0)"/>
    <use xlink:href="#DejaVuSans-2f" transform="translate(1839.119141 0)"/>
    <use xlink:href="#DejaVuSans-61" transform="translate(1872.810547 0)"/>
    <use xlink:href="#DejaVuSans-29" transform="translate(1934.089844 0)"/>
    <use xlink:href="#DejaVuSans-20" transform="translate(1973.103516 0)"/>
    <use xlink:href="#DejaVuSans-77" transform="translate(2004.890625 0)"/>
    <use xlink:href="#DejaVuSans-69" transform="translate(2086.677734 0)"/>
    <use xlink:href="#DejaVuSans-74" transform="translate(2114.460938 0)"/>
    <use xlink:href="#DejaVuSans-68" transform="translate(2153.669922 0)"/>
    <use xlink:href="#DejaVuSans-20" transform="translate(2217.048828 0)"/>
    <use xlink:href="#DejaVuSans-64" transform="translate(2248.835938 0)"/>
    <use xlink:href="#DejaVuSans-69" transform="translate(2312.3125 0)"/>
    <use xlink:href="#DejaVuSans-72" transform="translate(2340.095703 0)"/>
    <use xlink:href="#DejaVuSans-65" transform="translate(2378.958984 0)"/>
    <use xlink:href="#DejaVuSans-63" transform="translate(2440.482422 0)"/>
    <use xlink:href="#DejaVuSans-74" transform="translate(2495.462891 0)"/>
    <use xlink:href="#DejaVuSans-69" transform="translate(2534.671875 0)"/>
    <use xlink:href="#DejaVuSans-6f" transform="translate(2562.455078 0)"/>
    <use xlink:href="#DejaVuSans-6e" transform="translate(2623.636719 0)"/>
    <use xlink:href="#DejaVuSans-2d" transform="translate(2687.015625 0)"/>
    <use xlink:href="#DejaVuSans-64" transform="translate(2723.099609 0)"/>
    <use xlink:href="#DejaVuSans-65" transform="translate(2786.576172 0)"/>
    <use xlink:href="#DejaVuSans-70" transform="translate(2848.099609 0)"/>
    <use xlink:href="#DejaVuSans-65" transform="translate(2911.576172 0)"/>
    <use xlink:href="#DejaVuSans-6e" transform="translate(2973.099609 0)"/>
    <use xlink:href="#DejaVuSans-64" transform="translate(3036.478516 0)"/>
    <use xlink:href="#DejaVuSans-65" transform="translate(3099.955078 0)"/>
    <use xlink:href="#DejaVuSans-6e" transform="translate(3161.478516 0)"/>
    <use xlink:href="#DejaVuSans-74" transform="translate(3224.857422 0)"/>
    <use xlink:href="#DejaVuSans-20" transform="translate(3264.066406 0)"/>
    <use xlink:href="#DejaVuSans-65" transform="translate(3295.853516 0)"/>
    <use xlink:href="#DejaVuSans-6c" transform="translate(3357.376953 0)"/>
    <use xlink:href="#DejaVuSans-6c" transform="translate(3385.160156 0)"/>
    <use xlink:href="#DejaVuSans-5f" transform="translate(3412.943359 0)"/>
    <use xlink:href="#DejaVuSans-64" transform="translate(3462.943359 0)"/>
   </g>
  </g>
 </g>
 <defs>
  <clipPath id="pcf800eb055">
   <rect x="47.82125" y="97.15425" width="553.37875" height="175.292875"/>
  </clipPath>
  <clipPath id="p8943dc810e">
   <rect x="47.82125" y="286.747125" width="553.37875" height="175.292875"/>
  </clipPath>
 </defs>
</svg>
