<?xml version="1.0" encoding="utf-8" standalone="no"?>
<!DOCTYPE svg PUBLIC "-//W3C//DTD SVG 1.1//EN"
  "http://www.w3.org/Graphics/SVG/1.1/DTD/svg11.dtd">
<svg xmlns:xlink="http://www.w3.org/1999/xlink" width="720pt" height="576pt" viewBox="0 0 720 576" xmlns="http://www.w3.org/2000/svg" version="1.1">
 <metadata>
  <rdf:RDF xmlns:dc="http://purl.org/dc/elements/1.1/" xmlns:cc="http://creativecommons.org/ns#" xmlns:rdf="http://www.w3.org/1999/02/22-rdf-syntax-ns#">
   <cc:Work>
    <dc:type rdf:resource="http://purl.org/dc/dcmitype/StillImage"/>
    <dc:date>2026-03-09T22:13:40.402882</dc:date>
    <dc:format>image/svg+xml</dc:format>
    <dc:creator>
     <cc:Agent>
      <dc:title>Matplotlib v3.10.8, https://matplotlib.org/</dc:title>
     </cc:Agent>
    </dc:creator>
   </cc:Work>
  </rdf:RDF>
 </metadata>
 <defs>
  <style type="text/css">*{stroke-linejoin: round; stroke-linecap: butt}</style>
 </defs>
 <g id="figure_1">
  <g id="patch_1">
   <path d="M 0 576 
L 720 576 
L 720 0 
L 0 0 
z
" style="fill: #ffffff"/>
  </g>
  <g id="axes_1">
   <g id="patch_2">
    <path d="M 44.67125 273.31 
L 709.2 273.31 
L 709.2 26.88 
L 44.67125 26.88 
z
" style="fill: #ffffff"/>
   </g>
   <g id="matplotlib.axis_1">
    <g id="xtick_1">
     <g id="line2d_1">
      <path d="M 74.877102 273.31 
L 74.877102 26.88 
" clip-path="url(#p2382d4a795)" style="fill: none; stroke: #b0b0b0; stroke-opacity: 0.25; stroke-width: 0.8; stroke-linecap: square"/>
     </g>
     <g id="line2d_2">
      <defs>
       <path id="mbda1007c07" d="M 0 0 
L 0 3.5 
" style="stroke: #000000; stroke-width: 0.8"/>
      </defs>
      <g>
       <use xlink:href="#mbda1007c07" x="74.877102" y="273.31" style="stroke: #000000; stroke-width: 0.8"/>
      </g>
     </g>
    </g>
    <g id="xtick_2">
     <g id="line2d_3">
      <path d="M 170.768697 273.31 
L 170.768697 26.88 
" clip-path="url(#p2382d4a795)" style="fill: none; stroke: #b0b0b0; stroke-opacity: 0.25; stroke-width: 0.8; stroke-linecap: square"/>
     </g>
     <g id="line2d_4">
      <g>
       <use xlink:href="#mbda1007c07" x="170.768697" y="273.31" style="stroke: #000000; stroke-width: 0.8"/>
      </g>
     </g>
    </g>
    <g id="xtick_3">
     <g id="line2d_5">
      <path d="M 266.660291 273.31 
L 266.660291 26.88 
" clip-path="url(#p2382d4a795)" style="fill: none; stroke: #b0b0b0; stroke-opacity: 0.25; stroke-width: 0.8; stroke-linecap: square"/>
     </g>
     <g id="line2d_6">
      <g>
       <use xlink:href="#mbda1007c07" x="266.660291" y="273.31" style="stroke: #000000; stroke-width: 0.8"/>
      </g>
     </g>
    </g>
    <g id="xtick_4">
     <g id="line2d_7">
      <path d="M 362.551886 273.31 
L 362.551886 26.88 
" clip-path="url(#p2382d4a795)" style="fill: none; stroke: #b0b0b0; stroke-opacity: 0.25; stroke-width: 0.8; stroke-linecap: square"/>
     </g>
     <g id="line2d_8">
      <g>
       <use xlink:href="#mbda1007c07" x="362.551886" y="273.31" style="stroke: #000000; stroke-width: 0.8"/>
      </g>
     </g>
    </g>
    <g id="xtick_5">
     <g id="line2d_9">
      <path d="M 458.44348 273.31 
L 458.44348 26.88 
" clip-path="url(#p2382d4a795)" style="fill: none; stroke: #b0b0b0; stroke-opacity: 0.25; stroke-width: 0.8; stroke-linecap: square"/>
     </g>
     <g id="line2d_10">
      <g>
       <use xlink:href="#mbda1007c07" x="458.44348" y="273.31" style="stroke: #000000; stroke-width: 0.8"/>
      </g>
     </g>
    </g>
    <g id="xtick_6">
     <g id="line2d_11">
      <path d="M 554.335075 273.31 
L 554.335075 26.88 
" clip-path="url(#p2382d4a795)" style="fill: none; stroke: #b0b0b0; stroke-opacity: 0.25; stroke-width: 0.8; stroke-linecap: square"/>
     </g>
     <g id="line2d_12">
      <g>
       <use xlink:href="#mbda1007c07" x="554.335075" y="273.31" style="stroke: #000000; stroke-width: 0.8"/>
      </g>
     </g>
    </g>
    <g id="xtick_7">
     <g id="line2d_13">
      <path d="M 650.226669 273.31 
L 650.226669 26.88 
" clip-path="url(#p2382d4a795)" style="fill: none; stroke: #b0b0b0; stroke-opacity: 0.25; stroke-width: 0.8; stroke-linecap: square"/>
     </g>
     <g id="line2d_14">
      <g>
       <use xlink:href="#mbda1007c07" x="650.226669" y="273.31" style="stroke: #000000; stroke-width: 0.8"/>
      </g>
     </g>
    </g>
   </g>
   <g id="matplotlib.axis_2">
    <g id="ytick_1">
     <g id="line2d_15">
      <path d="M 44.67125 262.108636 
L 709.2 262.108636 
" clip-path="url(#p2382d4a795)" style="fill: none; stroke: #b0b0b0; stroke-opacity: 0.25; stroke-width: 0.8; stroke-linecap: square"/>
     </g>
     <g id="line2d_16">
      <defs>
       <path id="ma6bee8bf38" d="M 0 0 
L -3.5 0 
" style="stroke: #000000; stroke-width: 0.8"/>
      </defs>
      <g>
       <use xlink:href="#ma6bee8bf38" x="44.67125" y="262.108636" style="stroke: #000000; stroke-width: 0.8"/>
      </g>
     </g>
     <g id="text_1">
      <!-- 0 -->
      <g transform="translate(31.30875 265.907855) scale(0.1 -0.1)">
       <defs>
        <path id="DejaVuSans-30" d="M 2034 4250 
Q 1547 4250 1301 3770 
Q 1056 3291 1056 2328 
Q 1056 1369 1301 889 
Q 1547 409 2034 409 
Q 2525 409 2770 889 
Q 3016 1369 3016 2328 
Q 3016 3291 2770 3770 
Q 2525 4250 2034 4250 
z
M 2034 4750 
Q 2819 4750 3233 4129 
Q 3647 3509 3647 2328 
Q 3647 1150 3233 529 
Q 2819 -91 2034 -91 
Q 1250 -91 836 529 
Q 422 1150 422 2328 
Q 422 3509 836 4129 
Q 1250 4750 2034 4750 
z
" transform="scale(0.015625)"/>
       </defs>
       <use xlink:href="#DejaVuSans-30"/>
      </g>
     </g>
    </g>
    <g id="ytick_2">
     <g id="line2d_17">
      <path d="M 44.67125 212.324798 
L 709.2 212.324798 
" clip-path="url(#p2382d4a795)" style="fill: none; stroke: #b0b0b0; stroke-opacity: 0.25; stroke-width: 0.8; stroke-linecap: square"/>
     </g>
     <g id="line2d_18">
      <g>
       <use xlink:href="#ma6bee8bf38" x="44.67125" y="212.324798" style="stroke: #000000; stroke-width: 0.8"/>
      </g>
     </g>
     <g id="text_2">
      <!-- 20 -->
      <g transform="translate(24.94625 216.124017) scale(0.1 -0.1)">
       <defs>
        <path id="DejaVuSans-32" d="M 1228 531 
L 3431 531 
L 3431 0 
L 469 0 
L 469 531 
Q 828 903 1448 1529 
Q 2069 2156 2228 2338 
Q 2531 2678 2651 2914 
Q 2772 3150 2772 3378 
Q 2772 3750 2511 3984 
Q 2250 4219 1831 4219 
Q 1534 4219 1204 4116 
Q 875 4013 500 3803 
L 500 4441 
Q 881 4594 1212 4672 
Q 1544 4750 1819 4750 
Q 2544 4750 2975 4387 
Q 3406 4025 3406 3419 
Q 3406 3131 3298 2873 
Q 3191 2616 2906 2266 
Q 2828 2175 2409 1742 
Q 1991 1309 1228 531 
z
" transform="scale(0.015625)"/>
       </defs>
       <use xlink:href="#DejaVuSans-32"/>
       <use xlink:href="#DejaVuSans-30" transform="translate(63.623047 0)"/>
      </g>
     </g>
    </g>
    <g id="ytick_3">
     <g id="line2d_19">
      <path d="M 44.67125 162.54096 
L 709.2 162.54096 
" clip-path="url(#p2382d4a795)" style="fill: none; stroke: #b0b0b0; stroke-opacity: 0.25; stroke-width: 0.8; stroke-linecap: square"/>
     </g>
     <g id="line2d_20">
      <g>
       <use xlink:href="#ma6bee8bf38" x="44.67125" y="162.54096" style="stroke: #000000; stroke-width: 0.8"/>
      </g>
     </g>
     <g id="text_3">
      <!-- 40 -->
      <g transform="translate(24.94625 166.340178) scale(0.1 -0.1)">
       <defs>
        <path id="DejaVuSans-34" d="M 2419 4116 
L 825 1625 
L 2419 1625 
L 2419 4116 
z
M 2253 4666 
L 3047 4666 
L 3047 1625 
L 3713 1625 
L 3713 1100 
L 3047 1100 
L 3047 0 
L 2419 0 
L 2419 1100 
L 313 1100 
L 313 1709 
L 2253 4666 
z
" transform="scale(0.015625)"/>
       </defs>
       <use xlink:href="#DejaVuSans-34"/>
       <use xlink:href="#DejaVuSans-30" transform="translate(63.623047 0)"/>
      </g>
     </g>
    </g>
    <g id="ytick_4">
     <g id="line2d_21">
      <path d="M 44.67125 112.757121 
L 709.2 112.757121 
" clip-path="url(#p2382d4a795)" style="fill: none; stroke: #b0b0b0; stroke-opacity: 0.25; stroke-width: 0.8; stroke-linecap: square"/>
     </g>
     <g id="line2d_22">
      <g>
       <use xlink:href="#ma6bee8bf38" x="44.67125" y="112.757121" style="stroke: #000000; stroke-width: 0.8"/>
      </g>
     </g>
     <g id="text_4">
      <!-- 60 -->
      <g transform="translate(24.94625 116.55634) scale(0.1 -0.1)">
       <defs>
        <path id="DejaVuSans-36" d="M 2113 2584 
Q 1688 2584 1439 2293 
Q 1191 2003 1191 1497 
Q 1191 994 1439 701 
Q 1688 409 2113 409 
Q 2538 409 2786 701 
Q 3034 994 3034 1497 
Q 3034 2003 2786 2293 
Q 2538 2584 2113 2584 
z
M 3366 4563 
L 3366 3988 
Q 3128 4100 2886 4159 
Q 2644 4219 2406 4219 
Q 1781 4219 1451 3797 
Q 1122 3375 1075 2522 
Q 1259 2794 1537 2939 
Q 1816 3084 2150 3084 
Q 2853 3084 3261 2657 
Q 3669 2231 3669 1497 
Q 3669 778 3244 343 
Q 2819 -91 2113 -91 
Q 1303 -91 875 529 
Q 447 1150 447 2328 
Q 447 3434 972 4092 
Q 1497 4750 2381 4750 
Q 2619 4750 2861 4703 
Q 3103 4656 3366 4563 
z
" transform="scale(0.015625)"/>
       </defs>
       <use xlink:href="#DejaVuSans-36"/>
       <use xlink:href="#DejaVuSans-30" transform="translate(63.623047 0)"/>
      </g>
     </g>
    </g>
    <g id="ytick_5">
     <g id="line2d_23">
      <path d="M 44.67125 62.973283 
L 709.2 62.973283 
" clip-path="url(#p2382d4a795)" style="fill: none; stroke: #b0b0b0; stroke-opacity: 0.25; stroke-width: 0.8; stroke-linecap: square"/>
     </g>
     <g id="line2d_24">
      <g>
       <use xlink:href="#ma6bee8bf38" x="44.67125" y="62.973283" style="stroke: #000000; stroke-width: 0.8"/>
      </g>
     </g>
     <g id="text_5">
      <!-- 80 -->
      <g transform="translate(24.94625 66.772502) scale(0.1 -0.1)">
       <defs>
        <path id="DejaVuSans-38" d="M 2034 2216 
Q 1584 2216 1326 1975 
Q 1069 1734 1069 1313 
Q 1069 891 1326 650 
Q 1584 409 2034 409 
Q 2484 409 2743 651 
Q 3003 894 3003 1313 
Q 3003 1734 2745 1975 
Q 2488 2216 2034 2216 
z
M 1403 2484 
Q 997 2584 770 2862 
Q 544 3141 544 3541 
Q 544 4100 942 4425 
Q 1341 4750 2034 4750 
Q 2731 4750 3128 4425 
Q 3525 4100 3525 3541 
Q 3525 3141 3298 2862 
Q 3072 2584 2669 2484 
Q 3125 2378 3379 2068 
Q 3634 1759 3634 1313 
Q 3634 634 3220 271 
Q 2806 -91 2034 -91 
Q 1263 -91 848 271 
Q 434 634 434 1313 
Q 434 1759 690 2068 
Q 947 2378 1403 2484 
z
M 1172 3481 
Q 1172 3119 1398 2916 
Q 1625 2713 2034 2713 
Q 2441 2713 2670 2916 
Q 2900 3119 2900 3481 
Q 2900 3844 2670 4047 
Q 2441 4250 2034 4250 
Q 1625 4250 1398 4047 
Q 1172 3844 1172 3481 
z
" transform="scale(0.015625)"/>
       </defs>
       <use xlink:href="#DejaVuSans-38"/>
       <use xlink:href="#DejaVuSans-30" transform="translate(63.623047 0)"/>
      </g>
     </g>
    </g>
    <g id="text_6">
     <!-- triangle angle theta_xy (deg) -->
     <g transform="translate(18.588438 222.987188) rotate(-90) scale(0.1 -0.1)">
      <defs>
       <path id="DejaVuSans-74" d="M 1172 4494 
L 1172 3500 
L 2356 3500 
L 2356 3053 
L 1172 3053 
L 1172 1153 
Q 1172 725 1289 603 
Q 1406 481 1766 481 
L 2356 481 
L 2356 0 
L 1766 0 
Q 1100 0 847 248 
Q 594 497 594 1153 
L 594 3053 
L 172 3053 
L 172 3500 
L 594 3500 
L 594 4494 
L 1172 4494 
z
" transform="scale(0.015625)"/>
       <path id="DejaVuSans-72" d="M 2631 2963 
Q 2534 3019 2420 3045 
Q 2306 3072 2169 3072 
Q 1681 3072 1420 2755 
Q 1159 2438 1159 1844 
L 1159 0 
L 581 0 
L 581 3500 
L 1159 3500 
L 1159 2956 
Q 1341 3275 1631 3429 
Q 1922 3584 2338 3584 
Q 2397 3584 2469 3576 
Q 2541 3569 2628 3553 
L 2631 2963 
z
" transform="scale(0.015625)"/>
       <path id="DejaVuSans-69" d="M 603 3500 
L 1178 3500 
L 1178 0 
L 603 0 
L 603 3500 
z
M 603 4863 
L 1178 4863 
L 1178 4134 
L 603 4134 
L 603 4863 
z
" transform="scale(0.015625)"/>
       <path id="DejaVuSans-61" d="M 2194 1759 
Q 1497 1759 1228 1600 
Q 959 1441 959 1056 
Q 959 750 1161 570 
Q 1363 391 1709 391 
Q 2188 391 2477 730 
Q 2766 1069 2766 1631 
L 2766 1759 
L 2194 1759 
z
M 3341 1997 
L 3341 0 
L 2766 0 
L 2766 531 
Q 2569 213 2275 61 
Q 1981 -91 1556 -91 
Q 1019 -91 701 211 
Q 384 513 384 1019 
Q 384 1609 779 1909 
Q 1175 2209 1959 2209 
L 2766 2209 
L 2766 2266 
Q 2766 2663 2505 2880 
Q 2244 3097 1772 3097 
Q 1472 3097 1187 3025 
Q 903 2953 641 2809 
L 641 3341 
Q 956 3463 1253 3523 
Q 1550 3584 1831 3584 
Q 2591 3584 2966 3190 
Q 3341 2797 3341 1997 
z
" transform="scale(0.015625)"/>
       <path id="DejaVuSans-6e" d="M 3513 2113 
L 3513 0 
L 2938 0 
L 2938 2094 
Q 2938 2591 2744 2837 
Q 2550 3084 2163 3084 
Q 1697 3084 1428 2787 
Q 1159 2491 1159 1978 
L 1159 0 
L 581 0 
L 581 3500 
L 1159 3500 
L 1159 2956 
Q 1366 3272 1645 3428 
Q 1925 3584 2291 3584 
Q 2894 3584 3203 3211 
Q 3513 2838 3513 2113 
z
" transform="scale(0.015625)"/>
       <path id="DejaVuSans-67" d="M 2906 1791 
Q 2906 2416 2648 2759 
Q 2391 3103 1925 3103 
Q 1463 3103 1205 2759 
Q 947 2416 947 1791 
Q 947 1169 1205 825 
Q 1463 481 1925 481 
Q 2391 481 2648 825 
Q 2906 1169 2906 1791 
z
M 3481 434 
Q 3481 -459 3084 -895 
Q 2688 -1331 1869 -1331 
Q 1566 -1331 1297 -1286 
Q 1028 -1241 775 -1147 
L 775 -588 
Q 1028 -725 1275 -790 
Q 1522 -856 1778 -856 
Q 2344 -856 2625 -561 
Q 2906 -266 2906 331 
L 2906 616 
Q 2728 306 2450 153 
Q 2172 0 1784 0 
Q 1141 0 747 490 
Q 353 981 353 1791 
Q 353 2603 747 3093 
Q 1141 3584 1784 3584 
Q 2172 3584 2450 3431 
Q 2728 3278 2906 2969 
L 2906 3500 
L 3481 3500 
L 3481 434 
z
" transform="scale(0.015625)"/>
       <path id="DejaVuSans-6c" d="M 603 4863 
L 1178 4863 
L 1178 0 
L 603 0 
L 603 4863 
z
" transform="scale(0.015625)"/>
       <path id="DejaVuSans-65" d="M 3597 1894 
L 3597 1613 
L 953 1613 
Q 991 1019 1311 708 
Q 1631 397 2203 397 
Q 2534 397 2845 478 
Q 3156 559 3463 722 
L 3463 178 
Q 3153 47 2828 -22 
Q 2503 -91 2169 -91 
Q 1331 -91 842 396 
Q 353 884 353 1716 
Q 353 2575 817 3079 
Q 1281 3584 2069 3584 
Q 2775 3584 3186 3129 
Q 3597 2675 3597 1894 
z
M 3022 2063 
Q 3016 2534 2758 2815 
Q 2500 3097 2075 3097 
Q 1594 3097 1305 2825 
Q 1016 2553 972 2059 
L 3022 2063 
z
" transform="scale(0.015625)"/>
       <path id="DejaVuSans-20" transform="scale(0.015625)"/>
       <path id="DejaVuSans-68" d="M 3513 2113 
L 3513 0 
L 2938 0 
L 2938 2094 
Q 2938 2591 2744 2837 
Q 2550 3084 2163 3084 
Q 1697 3084 1428 2787 
Q 1159 2491 1159 1978 
L 1159 0 
L 581 0 
L 581 4863 
L 1159 4863 
L 1159 2956 
Q 1366 3272 1645 3428 
Q 1925 3584 2291 3584 
Q 2894 3584 3203 3211 
Q 3513 2838 3513 2113 
z
" transform="scale(0.015625)"/>
       <path id="DejaVuSans-5f" d="M 3263 -1063 
L 3263 -1509 
L -63 -1509 
L -63 -1063 
L 3263 -1063 
z
" transform="scale(0.015625)"/>
       <path id="DejaVuSans-78" d="M 3513 3500 
L 2247 1797 
L 3578 0 
L 2900 0 
L 1881 1375 
L 863 0 
L 184 0 
L 1544 1831 
L 300 3500 
L 978 3500 
L 1906 2253 
L 2834 3500 
L 3513 3500 
z
" transform="scale(0.015625)"/>
       <path id="DejaVuSans-79" d="M 2059 -325 
Q 1816 -950 1584 -1140 
Q 1353 -1331 966 -1331 
L 506 -1331 
L 506 -850 
L 844 -850 
Q 1081 -850 1212 -737 
Q 1344 -625 1503 -206 
L 1606 56 
L 191 3500 
L 800 3500 
L 1894 763 
L 2988 3500 
L 3597 3500 
L 2059 -325 
z
" transform="scale(0.015625)"/>
       <path id="DejaVuSans-28" d="M 1984 4856 
Q 1566 4138 1362 3434 
Q 1159 2731 1159 2009 
Q 1159 1288 1364 580 
Q 1569 -128 1984 -844 
L 1484 -844 
Q 1016 -109 783 600 
Q 550 1309 550 2009 
Q 550 2706 781 3412 
Q 1013 4119 1484 4856 
L 1984 4856 
z
" transform="scale(0.015625)"/>
       <path id="DejaVuSans-64" d="M 2906 2969 
L 2906 4863 
L 3481 4863 
L 3481 0 
L 2906 0 
L 2906 525 
Q 2725 213 2448 61 
Q 2172 -91 1784 -91 
Q 1150 -91 751 415 
Q 353 922 353 1747 
Q 353 2572 751 3078 
Q 1150 3584 1784 3584 
Q 2172 3584 2448 3432 
Q 2725 3281 2906 2969 
z
M 947 1747 
Q 947 1113 1208 752 
Q 1469 391 1925 391 
Q 2381 391 2643 752 
Q 2906 1113 2906 1747 
Q 2906 2381 2643 2742 
Q 2381 3103 1925 3103 
Q 1469 3103 1208 2742 
Q 947 2381 947 1747 
z
" transform="scale(0.015625)"/>
       <path id="DejaVuSans-29" d="M 513 4856 
L 1013 4856 
Q 1481 4119 1714 3412 
Q 1947 2706 1947 2009 
Q 1947 1309 1714 600 
Q 1481 -109 1013 -844 
L 513 -844 
Q 928 -128 1133 580 
Q 1338 1288 1338 2009 
Q 1338 2731 1133 3434 
Q 928 4138 513 4856 
z
" transform="scale(0.015625)"/>
      </defs>
      <use xlink:href="#DejaVuSans-74"/>
      <use xlink:href="#DejaVuSans-72" transform="translate(39.208984 0)"/>
      <use xlink:href="#DejaVuSans-69" transform="translate(80.322266 0)"/>
      <use xlink:href="#DejaVuSans-61" transform="translate(108.105469 0)"/>
      <use xlink:href="#DejaVuSans-6e" transform="translate(169.384766 0)"/>
      <use xlink:href="#DejaVuSans-67" transform="translate(232.763672 0)"/>
      <use xlink:href="#DejaVuSans-6c" transform="translate(296.240234 0)"/>
      <use xlink:href="#DejaVuSans-65" transform="translate(324.023438 0)"/>
      <use xlink:href="#DejaVuSans-20" transform="translate(385.546875 0)"/>
      <use xlink:href="#DejaVuSans-61" transform="translate(417.333984 0)"/>
      <use xlink:href="#DejaVuSans-6e" transform="translate(478.613281 0)"/>
      <use xlink:href="#DejaVuSans-67" transform="translate(541.992188 0)"/>
      <use xlink:href="#DejaVuSans-6c" transform="translate(605.46875 0)"/>
      <use xlink:href="#DejaVuSans-65" transform="translate(633.251953 0)"/>
      <use xlink:href="#DejaVuSans-20" transform="translate(694.775391 0)"/>
      <use xlink:href="#DejaVuSans-74" transform="translate(726.5625 0)"/>
      <use xlink:href="#DejaVuSans-68" transform="translate(765.771484 0)"/>
      <use xlink:href="#DejaVuSans-65" transform="translate(829.150391 0)"/>
      <use xlink:href="#DejaVuSans-74" transform="translate(890.673828 0)"/>
      <use xlink:href="#DejaVuSans-61" transform="translate(929.882812 0)"/>
      <use xlink:href="#DejaVuSans-5f" transform="translate(991.162109 0)"/>
      <use xlink:href="#DejaVuSans-78" transform="translate(1041.162109 0)"/>
      <use xlink:href="#DejaVuSans-79" transform="translate(1100.341797 0)"/>
      <use xlink:href="#DejaVuSans-20" transform="translate(1159.521484 0)"/>
      <use xlink:href="#DejaVuSans-28" transform="translate(1191.308594 0)"/>
      <use xlink:href="#DejaVuSans-64" transform="translate(1230.322266 0)"/>
      <use xlink:href="#DejaVuSans-65" transform="translate(1293.798828 0)"/>
      <use xlink:href="#DejaVuSans-67" transform="translate(1355.322266 0)"/>
      <use xlink:href="#DejaVuSans-29" transform="translate(1418.798828 0)"/>
     </g>
    </g>
   </g>
   <g id="line2d_25">
    <path d="M 74.877102 38.081364 
M 381.730205 159.03214 
" clip-path="url(#p2382d4a795)" style="fill: none; stroke: #1f77b4; stroke-width: 1.5; stroke-linecap: square"/>
    <defs>
     <path id="m5a5c1f60f8" d="M 0 3 
C 0.795609 3 1.55874 2.683901 2.12132 2.12132 
C 2.683901 1.55874 3 0.795609 3 0 
C 3 -0.795609 2.683901 -1.55874 2.12132 -2.12132 
C 1.55874 -2.683901 0.795609 -3 0 -3 
C -0.795609 -3 -1.55874 -2.683901 -2.12132 -2.12132 
C -2.683901 -1.55874 -3 -0.795609 -3 0 
C -3 0.795609 -2.683901 1.55874 -2.12132 2.12132 
C -1.55874 2.683901 -0.795609 3 0 3 
z
" style="stroke: #1f77b4"/>
    </defs>
    <g clip-path="url(#p2382d4a795)">
     <use xlink:href="#m5a5c1f60f8" x="74.877102" y="38.081364" style="fill: #1f77b4; stroke: #1f77b4"/>
     <use xlink:href="#m5a5c1f60f8" x="381.730205" y="159.03214" style="fill: #1f77b4; stroke: #1f77b4"/>
    </g>
   </g>
   <g id="line2d_26">
    <path d="M 74.877102 38.081364 
L 84.466262 262.108636 
L 94.055421 262.108636 
L 103.644581 262.108636 
L 113.23374 262.108636 
L 122.8229 262.108636 
L 132.412059 262.108636 
L 142.001218 262.108636 
L 151.590378 262.108636 
L 161.179537 262.108636 
L 170.768697 262.108636 
L 180.357856 262.108636 
L 189.947016 262.108636 
L 199.536175 262.108636 
L 209.125335 262.108636 
L 218.714494 262.108636 
L 228.303653 262.108636 
L 237.892813 262.108636 
L 247.481972 262.108636 
L 257.071132 262.108636 
L 266.660291 262.108636 
L 276.249451 262.108636 
L 285.83861 262.108636 
L 295.42777 262.108636 
L 305.016929 262.108636 
L 314.606089 262.108636 
L 324.195248 262.108636 
L 333.784407 262.108636 
L 343.373567 262.108636 
L 352.962726 262.108636 
L 362.551886 262.108636 
L 372.141045 262.108636 
L 381.730205 159.03214 
L 391.319364 262.108636 
L 400.908524 262.108636 
L 410.497683 262.108636 
L 420.086843 262.108636 
L 429.676002 262.108636 
L 439.265161 262.108636 
L 448.854321 262.108636 
L 458.44348 262.108636 
L 468.03264 262.108636 
L 477.621799 262.108636 
L 487.210959 262.108636 
L 496.800118 262.108636 
L 506.389278 262.108636 
L 515.978437 262.108636 
L 525.567597 262.108636 
L 535.156756 262.108636 
L 544.745915 262.108636 
L 554.335075 262.108636 
L 563.924234 262.108636 
L 573.513394 262.108636 
L 583.102553 262.108636 
L 592.691713 262.108636 
L 602.280872 262.108636 
L 611.870032 262.108636 
L 621.459191 262.108636 
L 631.04835 262.108636 
L 640.63751 262.108636 
L 650.226669 262.108636 
L 659.815829 262.108636 
L 669.404988 262.108636 
L 678.994148 262.108636 
" clip-path="url(#p2382d4a795)" style="fill: none; stroke-dasharray: 5.55,2.4; stroke-dashoffset: 0; stroke: #999999; stroke-opacity: 0.7; stroke-width: 1.5"/>
   </g>
   <g id="patch_3">
    <path d="M 44.67125 273.31 
L 44.67125 26.88 
" style="fill: none; stroke: #000000; stroke-width: 0.8; stroke-linejoin: miter; stroke-linecap: square"/>
   </g>
   <g id="patch_4">
    <path d="M 709.2 273.31 
L 709.2 26.88 
" style="fill: none; stroke: #000000; stroke-width: 0.8; stroke-linejoin: miter; stroke-linecap: square"/>
   </g>
   <g id="patch_5">
    <path d="M 44.67125 273.31 
L 709.2 273.31 
" style="fill: none; stroke: #000000; stroke-width: 0.8; stroke-linejoin: miter; stroke-linecap: square"/>
   </g>
   <g id="patch_6">
    <path d="M 44.67125 26.88 
L 709.2 26.88 
" style="fill: none; stroke: #000000; stroke-width: 0.8; stroke-linejoin: miter; stroke-linecap: square"/>
   </g>
   <g id="text_7">
    <!-- Compensating shape vs twist shift (L=64) -->
    <g transform="translate(251.130625 20.88) scale(0.12 -0.12)">
     <defs>
      <path id="DejaVuSans-43" d="M 4122 4306 
L 4122 3641 
Q 3803 3938 3442 4084 
Q 3081 4231 2675 4231 
Q 1875 4231 1450 3742 
Q 1025 3253 1025 2328 
Q 1025 1406 1450 917 
Q 1875 428 2675 428 
Q 3081 428 3442 575 
Q 3803 722 4122 1019 
L 4122 359 
Q 3791 134 3420 21 
Q 3050 -91 2638 -91 
Q 1578 -91 968 557 
Q 359 1206 359 2328 
Q 359 3453 968 4101 
Q 1578 4750 2638 4750 
Q 3056 4750 3426 4639 
Q 3797 4528 4122 4306 
z
" transform="scale(0.015625)"/>
      <path id="DejaVuSans-6f" d="M 1959 3097 
Q 1497 3097 1228 2736 
Q 959 2375 959 1747 
Q 959 1119 1226 758 
Q 1494 397 1959 397 
Q 2419 397 2687 759 
Q 2956 1122 2956 1747 
Q 2956 2369 2687 2733 
Q 2419 3097 1959 3097 
z
M 1959 3584 
Q 2709 3584 3137 3096 
Q 3566 2609 3566 1747 
Q 3566 888 3137 398 
Q 2709 -91 1959 -91 
Q 1206 -91 779 398 
Q 353 888 353 1747 
Q 353 2609 779 3096 
Q 1206 3584 1959 3584 
z
" transform="scale(0.015625)"/>
      <path id="DejaVuSans-6d" d="M 3328 2828 
Q 3544 3216 3844 3400 
Q 4144 3584 4550 3584 
Q 5097 3584 5394 3201 
Q 5691 2819 5691 2113 
L 5691 0 
L 5113 0 
L 5113 2094 
Q 5113 2597 4934 2840 
Q 4756 3084 4391 3084 
Q 3944 3084 3684 2787 
Q 3425 2491 3425 1978 
L 3425 0 
L 2847 0 
L 2847 2094 
Q 2847 2600 2669 2842 
Q 2491 3084 2119 3084 
Q 1678 3084 1418 2786 
Q 1159 2488 1159 1978 
L 1159 0 
L 581 0 
L 581 3500 
L 1159 3500 
L 1159 2956 
Q 1356 3278 1631 3431 
Q 1906 3584 2284 3584 
Q 2666 3584 2933 3390 
Q 3200 3197 3328 2828 
z
" transform="scale(0.015625)"/>
      <path id="DejaVuSans-70" d="M 1159 525 
L 1159 -1331 
L 581 -1331 
L 581 3500 
L 1159 3500 
L 1159 2969 
Q 1341 3281 1617 3432 
Q 1894 3584 2278 3584 
Q 2916 3584 3314 3078 
Q 3713 2572 3713 1747 
Q 3713 922 3314 415 
Q 2916 -91 2278 -91 
Q 1894 -91 1617 61 
Q 1341 213 1159 525 
z
M 3116 1747 
Q 3116 2381 2855 2742 
Q 2594 3103 2138 3103 
Q 1681 3103 1420 2742 
Q 1159 2381 1159 1747 
Q 1159 1113 1420 752 
Q 1681 391 2138 391 
Q 2594 391 2855 752 
Q 3116 1113 3116 1747 
z
" transform="scale(0.015625)"/>
      <path id="DejaVuSans-73" d="M 2834 3397 
L 2834 2853 
Q 2591 2978 2328 3040 
Q 2066 3103 1784 3103 
Q 1356 3103 1142 2972 
Q 928 2841 928 2578 
Q 928 2378 1081 2264 
Q 1234 2150 1697 2047 
L 1894 2003 
Q 2506 1872 2764 1633 
Q 3022 1394 3022 966 
Q 3022 478 2636 193 
Q 2250 -91 1575 -91 
Q 1294 -91 989 -36 
Q 684 19 347 128 
L 347 722 
Q 666 556 975 473 
Q 1284 391 1588 391 
Q 1994 391 2212 530 
Q 2431 669 2431 922 
Q 2431 1156 2273 1281 
Q 2116 1406 1581 1522 
L 1381 1569 
Q 847 1681 609 1914 
Q 372 2147 372 2553 
Q 372 3047 722 3315 
Q 1072 3584 1716 3584 
Q 2034 3584 2315 3537 
Q 2597 3491 2834 3397 
z
" transform="scale(0.015625)"/>
      <path id="DejaVuSans-76" d="M 191 3500 
L 800 3500 
L 1894 563 
L 2988 3500 
L 3597 3500 
L 2284 0 
L 1503 0 
L 191 3500 
z
" transform="scale(0.015625)"/>
      <path id="DejaVuSans-77" d="M 269 3500 
L 844 3500 
L 1563 769 
L 2278 3500 
L 2956 3500 
L 3675 769 
L 4391 3500 
L 4966 3500 
L 4050 0 
L 3372 0 
L 2619 2869 
L 1863 0 
L 1184 0 
L 269 3500 
z
" transform="scale(0.015625)"/>
      <path id="DejaVuSans-66" d="M 2375 4863 
L 2375 4384 
L 1825 4384 
Q 1516 4384 1395 4259 
Q 1275 4134 1275 3809 
L 1275 3500 
L 2222 3500 
L 2222 3053 
L 1275 3053 
L 1275 0 
L 697 0 
L 697 3053 
L 147 3053 
L 147 3500 
L 697 3500 
L 697 3744 
Q 697 4328 969 4595 
Q 1241 4863 1831 4863 
L 2375 4863 
z
" transform="scale(0.015625)"/>
      <path id="DejaVuSans-4c" d="M 628 4666 
L 1259 4666 
L 1259 531 
L 3531 531 
L 3531 0 
L 628 0 
L 628 4666 
z
" transform="scale(0.015625)"/>
      <path id="DejaVuSans-3d" d="M 678 2906 
L 4684 2906 
L 4684 2381 
L 678 2381 
L 678 2906 
z
M 678 1631 
L 4684 1631 
L 4684 1100 
L 678 1100 
L 678 1631 
z
" transform="scale(0.015625)"/>
     </defs>
     <use xlink:href="#DejaVuSans-43"/>
     <use xlink:href="#DejaVuSans-6f" transform="translate(69.824219 0)"/>
     <use xlink:href="#DejaVuSans-6d" transform="translate(131.005859 0)"/>
     <use xlink:href="#DejaVuSans-70" transform="translate(228.417969 0)"/>
     <use xlink:href="#DejaVuSans-65" transform="translate(291.894531 0)"/>
     <use xlink:href="#DejaVuSans-6e" transform="translate(353.417969 0)"/>
     <use xlink:href="#DejaVuSans-73" transform="translate(416.796875 0)"/>
     <use xlink:href="#DejaVuSans-61" transform="translate(468.896484 0)"/>
     <use xlink:href="#DejaVuSans-74" transform="translate(530.175781 0)"/>
     <use xlink:href="#DejaVuSans-69" transform="translate(569.384766 0)"/>
     <use xlink:href="#DejaVuSans-6e" transform="translate(597.167969 0)"/>
     <use xlink:href="#DejaVuSans-67" transform="translate(660.546875 0)"/>
     <use xlink:href="#DejaVuSans-20" transform="translate(724.023438 0)"/>
     <use xlink:href="#DejaVuSans-73" transform="translate(755.810547 0)"/>
     <use xlink:href="#DejaVuSans-68" transform="translate(807.910156 0)"/>
     <use xlink:href="#DejaVuSans-61" transform="translate(871.289062 0)"/>
     <use xlink:href="#DejaVuSans-70" transform="translate(932.568359 0)"/>
     <use xlink:href="#DejaVuSans-65" transform="translate(996.044922 0)"/>
     <use xlink:href="#DejaVuSans-20" transform="translate(1057.568359 0)"/>
     <use xlink:href="#DejaVuSans-76" transform="translate(1089.355469 0)"/>
     <use xlink:href="#DejaVuSans-73" transform="translate(1148.535156 0)"/>
     <use xlink:href="#DejaVuSans-20" transform="translate(1200.634766 0)"/>
     <use xlink:href="#DejaVuSans-74" transform="translate(1232.421875 0)"/>
     <use xlink:href="#DejaVuSans-77" transform="translate(1271.630859 0)"/>
     <use xlink:href="#DejaVuSans-69" transform="translate(1353.417969 0)"/>
     <use xlink:href="#DejaVuSans-73" transform="translate(1381.201172 0)"/>
     <use xlink:href="#DejaVuSans-74" transform="translate(1433.300781 0)"/>
     <use xlink:href="#DejaVuSans-20" transform="translate(1472.509766 0)"/>
     <use xlink:href="#DejaVuSans-73" transform="translate(1504.296875 0)"/>
     <use xlink:href="#DejaVuSans-68" transform="translate(1556.396484 0)"/>
     <use xlink:href="#DejaVuSans-69" transform="translate(1619.775391 0)"/>
     <use xlink:href="#DejaVuSans-66" transform="translate(1647.558594 0)"/>
     <use xlink:href="#DejaVuSans-74" transform="translate(1681.013672 0)"/>
     <use xlink:href="#DejaVuSans-20" transform="translate(1720.222656 0)"/>
     <use xlink:href="#DejaVuSans-28" transform="translate(1752.009766 0)"/>
     <use xlink:href="#DejaVuSans-4c" transform="translate(1791.023438 0)"/>
     <use xlink:href="#DejaVuSans-3d" transform="translate(1846.736328 0)"/>
     <use xlink:href="#DejaVuSans-36" transform="translate(1930.525391 0)"/>
     <use xlink:href="#DejaVuSans-34" transform="translate(1994.148438 0)"/>
     <use xlink:href="#DejaVuSans-29" transform="translate(2057.771484 0)"/>
    </g>
   </g>
   <g id="legend_1">
    <g id="patch_7">
     <path d="M 554.825 64.514375 
L 702.2 64.514375 
Q 704.2 64.514375 704.2 62.514375 
L 704.2 33.88 
Q 704.2 31.88 702.2 31.88 
L 554.825 31.88 
Q 552.825 31.88 552.825 33.88 
L 552.825 62.514375 
Q 552.825 64.514375 554.825 64.514375 
z
" style="fill: #ffffff; opacity: 0.8; stroke: #cccccc; stroke-linejoin: miter"/>
    </g>
    <g id="line2d_27">
     <path d="M 556.825 39.978437 
L 566.825 39.978437 
L 576.825 39.978437 
" style="fill: none; stroke: #1f77b4; stroke-width: 1.5; stroke-linecap: square"/>
     <g>
      <use xlink:href="#m5a5c1f60f8" x="566.825" y="39.978437" style="fill: #1f77b4; stroke: #1f77b4"/>
     </g>
    </g>
    <g id="text_8">
     <!-- theta_xy feasible (deg) -->
     <g transform="translate(584.825 43.478437) scale(0.1 -0.1)">
      <defs>
       <path id="DejaVuSans-62" d="M 3116 1747 
Q 3116 2381 2855 2742 
Q 2594 3103 2138 3103 
Q 1681 3103 1420 2742 
Q 1159 2381 1159 1747 
Q 1159 1113 1420 752 
Q 1681 391 2138 391 
Q 2594 391 2855 752 
Q 3116 1113 3116 1747 
z
M 1159 2969 
Q 1341 3281 1617 3432 
Q 1894 3584 2278 3584 
Q 2916 3584 3314 3078 
Q 3713 2572 3713 1747 
Q 3713 922 3314 415 
Q 2916 -91 2278 -91 
Q 1894 -91 1617 61 
Q 1341 213 1159 525 
L 1159 0 
L 581 0 
L 581 4863 
L 1159 4863 
L 1159 2969 
z
" transform="scale(0.015625)"/>
      </defs>
      <use xlink:href="#DejaVuSans-74"/>
      <use xlink:href="#DejaVuSans-68" transform="translate(39.208984 0)"/>
      <use xlink:href="#DejaVuSans-65" transform="translate(102.587891 0)"/>
      <use xlink:href="#DejaVuSans-74" transform="translate(164.111328 0)"/>
      <use xlink:href="#DejaVuSans-61" transform="translate(203.320312 0)"/>
      <use xlink:href="#DejaVuSans-5f" transform="translate(264.599609 0)"/>
      <use xlink:href="#DejaVuSans-78" transform="translate(314.599609 0)"/>
      <use xlink:href="#DejaVuSans-79" transform="translate(373.779297 0)"/>
      <use xlink:href="#DejaVuSans-20" transform="translate(432.958984 0)"/>
      <use xlink:href="#DejaVuSans-66" transform="translate(464.746094 0)"/>
      <use xlink:href="#DejaVuSans-65" transform="translate(499.951172 0)"/>
      <use xlink:href="#DejaVuSans-61" transform="translate(561.474609 0)"/>
      <use xlink:href="#DejaVuSans-73" transform="translate(622.753906 0)"/>
      <use xlink:href="#DejaVuSans-69" transform="translate(674.853516 0)"/>
      <use xlink:href="#DejaVuSans-62" transform="translate(702.636719 0)"/>
      <use xlink:href="#DejaVuSans-6c" transform="translate(766.113281 0)"/>
      <use xlink:href="#DejaVuSans-65" transform="translate(793.896484 0)"/>
      <use xlink:href="#DejaVuSans-20" transform="translate(855.419922 0)"/>
      <use xlink:href="#DejaVuSans-28" transform="translate(887.207031 0)"/>
      <use xlink:href="#DejaVuSans-64" transform="translate(926.220703 0)"/>
      <use xlink:href="#DejaVuSans-65" transform="translate(989.697266 0)"/>
      <use xlink:href="#DejaVuSans-67" transform="translate(1051.220703 0)"/>
      <use xlink:href="#DejaVuSans-29" transform="translate(1114.697266 0)"/>
     </g>
    </g>
    <g id="line2d_28">
     <path d="M 556.825 54.934687 
L 566.825 54.934687 
L 576.825 54.934687 
" style="fill: none; stroke-dasharray: 5.55,2.4; stroke-dashoffset: 0; stroke: #999999; stroke-opacity: 0.7; stroke-width: 1.5"/>
    </g>
    <g id="text_9">
     <!-- theta projected (deg) -->
     <g transform="translate(584.825 58.434687) scale(0.1 -0.1)">
      <defs>
       <path id="DejaVuSans-6a" d="M 603 3500 
L 1178 3500 
L 1178 -63 
Q 1178 -731 923 -1031 
Q 669 -1331 103 -1331 
L -116 -1331 
L -116 -844 
L 38 -844 
Q 366 -844 484 -692 
Q 603 -541 603 -63 
L 603 3500 
z
M 603 4863 
L 1178 4863 
L 1178 4134 
L 603 4134 
L 603 4863 
z
" transform="scale(0.015625)"/>
       <path id="DejaVuSans-63" d="M 3122 3366 
L 3122 2828 
Q 2878 2963 2633 3030 
Q 2388 3097 2138 3097 
Q 1578 3097 1268 2742 
Q 959 2388 959 1747 
Q 959 1106 1268 751 
Q 1578 397 2138 397 
Q 2388 397 2633 464 
Q 2878 531 3122 666 
L 3122 134 
Q 2881 22 2623 -34 
Q 2366 -91 2075 -91 
Q 1284 -91 818 406 
Q 353 903 353 1747 
Q 353 2603 823 3093 
Q 1294 3584 2113 3584 
Q 2378 3584 2631 3529 
Q 2884 3475 3122 3366 
z
" transform="scale(0.015625)"/>
      </defs>
      <use xlink:href="#DejaVuSans-74"/>
      <use xlink:href="#DejaVuSans-68" transform="translate(39.208984 0)"/>
      <use xlink:href="#DejaVuSans-65" transform="translate(102.587891 0)"/>
      <use xlink:href="#DejaVuSans-74" transform="translate(164.111328 0)"/>
      <use xlink:href="#DejaVuSans-61" transform="translate(203.320312 0)"/>
      <use xlink:href="#DejaVuSans-20" transform="translate(264.599609 0)"/>
      <use xlink:href="#DejaVuSans-70" transform="translate(296.386719 0)"/>
      <use xlink:href="#DejaVuSans-72" transform="translate(359.863281 0)"/>
      <use xlink:href="#DejaVuSans-6f" transform="translate(398.726562 0)"/>
      <use xlink:href="#DejaVuSans-6a" transform="translate(459.908203 0)"/>
      <use xlink:href="#DejaVuSans-65" transform="translate(487.691406 0)"/>
      <use xlink:href="#DejaVuSans-63" transform="translate(549.214844 0)"/>
      <use xlink:href="#DejaVuSans-74" transform="translate(604.195312 0)"/>
      <use xlink:href="#DejaVuSans-65" transform="translate(643.404297 0)"/>
      <use xlink:href="#DejaVuSans-64" transform="translate(704.927734 0)"/>
      <use xlink:href="#DejaVuSans-20" transform="translate(768.404297 0)"/>
      <use xlink:href="#DejaVuSans-28" transform="translate(800.191406 0)"/>
      <use xlink:href="#DejaVuSans-64" transform="translate(839.205078 0)"/>
      <use xlink:href="#DejaVuSans-65" transform="translate(902.681641 0)"/>
      <use xlink:href="#DejaVuSans-67" transform="translate(964.205078 0)"/>
      <use xlink:href="#DejaVuSans-29" transform="translate(1027.681641 0)"/>
     </g>
    </g>
   </g>
  </g>
  <g id="axes_2">
   <g id="patch_8">
    <path d="M 44.67125 534.04 
L 709.2 534.04 
L 709.2 287.61 
L 44.67125 287.61 
z
" style="fill: #ffffff"/>
   </g>
   <g id="matplotlib.axis_3">
    <g id="xtick_8">
     <g id="line2d_29">
      <path d="M 74.877102 534.04 
L 74.877102 287.61 
" clip-path="url(#pe247384edb)" style="fill: none; stroke: #b0b0b0; stroke-opacity: 0.25; stroke-width: 0.8; stroke-linecap: square"/>
     </g>
     <g id="line2d_30">
      <g>
       <use xlink:href="#mbda1007c07" x="74.877102" y="534.04" style="stroke: #000000; stroke-width: 0.8"/>
      </g>
     </g>
     <g id="text_10">
      <!-- 0 -->
      <g transform="translate(71.695852 548.638438) scale(0.1 -0.1)">
       <use xlink:href="#DejaVuSans-30"/>
      </g>
     </g>
    </g>
    <g id="xtick_9">
     <g id="line2d_31">
      <path d="M 170.768697 534.04 
L 170.768697 287.61 
" clip-path="url(#pe247384edb)" style="fill: none; stroke: #b0b0b0; stroke-opacity: 0.25; stroke-width: 0.8; stroke-linecap: square"/>
     </g>
     <g id="line2d_32">
      <g>
       <use xlink:href="#mbda1007c07" x="170.768697" y="534.04" style="stroke: #000000; stroke-width: 0.8"/>
      </g>
     </g>
     <g id="text_11">
      <!-- 10 -->
      <g transform="translate(164.406197 548.638438) scale(0.1 -0.1)">
       <defs>
        <path id="DejaVuSans-31" d="M 794 531 
L 1825 531 
L 1825 4091 
L 703 3866 
L 703 4441 
L 1819 4666 
L 2450 4666 
L 2450 531 
L 3481 531 
L 3481 0 
L 794 0 
L 794 531 
z
" transform="scale(0.015625)"/>
       </defs>
       <use xlink:href="#DejaVuSans-31"/>
       <use xlink:href="#DejaVuSans-30" transform="translate(63.623047 0)"/>
      </g>
     </g>
    </g>
    <g id="xtick_10">
     <g id="line2d_33">
      <path d="M 266.660291 534.04 
L 266.660291 287.61 
" clip-path="url(#pe247384edb)" style="fill: none; stroke: #b0b0b0; stroke-opacity: 0.25; stroke-width: 0.8; stroke-linecap: square"/>
     </g>
     <g id="line2d_34">
      <g>
       <use xlink:href="#mbda1007c07" x="266.660291" y="534.04" style="stroke: #000000; stroke-width: 0.8"/>
      </g>
     </g>
     <g id="text_12">
      <!-- 20 -->
      <g transform="translate(260.297791 548.638438) scale(0.1 -0.1)">
       <use xlink:href="#DejaVuSans-32"/>
       <use xlink:href="#DejaVuSans-30" transform="translate(63.623047 0)"/>
      </g>
     </g>
    </g>
    <g id="xtick_11">
     <g id="line2d_35">
      <path d="M 362.551886 534.04 
L 362.551886 287.61 
" clip-path="url(#pe247384edb)" style="fill: none; stroke: #b0b0b0; stroke-opacity: 0.25; stroke-width: 0.8; stroke-linecap: square"/>
     </g>
     <g id="line2d_36">
      <g>
       <use xlink:href="#mbda1007c07" x="362.551886" y="534.04" style="stroke: #000000; stroke-width: 0.8"/>
      </g>
     </g>
     <g id="text_13">
      <!-- 30 -->
      <g transform="translate(356.189386 548.638438) scale(0.1 -0.1)">
       <defs>
        <path id="DejaVuSans-33" d="M 2597 2516 
Q 3050 2419 3304 2112 
Q 3559 1806 3559 1356 
Q 3559 666 3084 287 
Q 2609 -91 1734 -91 
Q 1441 -91 1130 -33 
Q 819 25 488 141 
L 488 750 
Q 750 597 1062 519 
Q 1375 441 1716 441 
Q 2309 441 2620 675 
Q 2931 909 2931 1356 
Q 2931 1769 2642 2001 
Q 2353 2234 1838 2234 
L 1294 2234 
L 1294 2753 
L 1863 2753 
Q 2328 2753 2575 2939 
Q 2822 3125 2822 3475 
Q 2822 3834 2567 4026 
Q 2313 4219 1838 4219 
Q 1578 4219 1281 4162 
Q 984 4106 628 3988 
L 628 4550 
Q 988 4650 1302 4700 
Q 1616 4750 1894 4750 
Q 2613 4750 3031 4423 
Q 3450 4097 3450 3541 
Q 3450 3153 3228 2886 
Q 3006 2619 2597 2516 
z
" transform="scale(0.015625)"/>
       </defs>
       <use xlink:href="#DejaVuSans-33"/>
       <use xlink:href="#DejaVuSans-30" transform="translate(63.623047 0)"/>
      </g>
     </g>
    </g>
    <g id="xtick_12">
     <g id="line2d_37">
      <path d="M 458.44348 534.04 
L 458.44348 287.61 
" clip-path="url(#pe247384edb)" style="fill: none; stroke: #b0b0b0; stroke-opacity: 0.25; stroke-width: 0.8; stroke-linecap: square"/>
     </g>
     <g id="line2d_38">
      <g>
       <use xlink:href="#mbda1007c07" x="458.44348" y="534.04" style="stroke: #000000; stroke-width: 0.8"/>
      </g>
     </g>
     <g id="text_14">
      <!-- 40 -->
      <g transform="translate(452.08098 548.638438) scale(0.1 -0.1)">
       <use xlink:href="#DejaVuSans-34"/>
       <use xlink:href="#DejaVuSans-30" transform="translate(63.623047 0)"/>
      </g>
     </g>
    </g>
    <g id="xtick_13">
     <g id="line2d_39">
      <path d="M 554.335075 534.04 
L 554.335075 287.61 
" clip-path="url(#pe247384edb)" style="fill: none; stroke: #b0b0b0; stroke-opacity: 0.25; stroke-width: 0.8; stroke-linecap: square"/>
     </g>
     <g id="line2d_40">
      <g>
       <use xlink:href="#mbda1007c07" x="554.335075" y="534.04" style="stroke: #000000; stroke-width: 0.8"/>
      </g>
     </g>
     <g id="text_15">
      <!-- 50 -->
      <g transform="translate(547.972575 548.638438) scale(0.1 -0.1)">
       <defs>
        <path id="DejaVuSans-35" d="M 691 4666 
L 3169 4666 
L 3169 4134 
L 1269 4134 
L 1269 2991 
Q 1406 3038 1543 3061 
Q 1681 3084 1819 3084 
Q 2600 3084 3056 2656 
Q 3513 2228 3513 1497 
Q 3513 744 3044 326 
Q 2575 -91 1722 -91 
Q 1428 -91 1123 -41 
Q 819 9 494 109 
L 494 744 
Q 775 591 1075 516 
Q 1375 441 1709 441 
Q 2250 441 2565 725 
Q 2881 1009 2881 1497 
Q 2881 1984 2565 2268 
Q 2250 2553 1709 2553 
Q 1456 2553 1204 2497 
Q 953 2441 691 2322 
L 691 4666 
z
" transform="scale(0.015625)"/>
       </defs>
       <use xlink:href="#DejaVuSans-35"/>
       <use xlink:href="#DejaVuSans-30" transform="translate(63.623047 0)"/>
      </g>
     </g>
    </g>
    <g id="xtick_14">
     <g id="line2d_41">
      <path d="M 650.226669 534.04 
L 650.226669 287.61 
" clip-path="url(#pe247384edb)" style="fill: none; stroke: #b0b0b0; stroke-opacity: 0.25; stroke-width: 0.8; stroke-linecap: square"/>
     </g>
     <g id="line2d_42">
      <g>
       <use xlink:href="#mbda1007c07" x="650.226669" y="534.04" style="stroke: #000000; stroke-width: 0.8"/>
      </g>
     </g>
     <g id="text_16">
      <!-- 60 -->
      <g transform="translate(643.864169 548.638438) scale(0.1 -0.1)">
       <use xlink:href="#DejaVuSans-36"/>
       <use xlink:href="#DejaVuSans-30" transform="translate(63.623047 0)"/>
      </g>
     </g>
    </g>
    <g id="text_17">
     <!-- shift -->
     <g transform="translate(366.140312 562.316562) scale(0.1 -0.1)">
      <use xlink:href="#DejaVuSans-73"/>
      <use xlink:href="#DejaVuSans-68" transform="translate(52.099609 0)"/>
      <use xlink:href="#DejaVuSans-69" transform="translate(115.478516 0)"/>
      <use xlink:href="#DejaVuSans-66" transform="translate(143.261719 0)"/>
      <use xlink:href="#DejaVuSans-74" transform="translate(176.716797 0)"/>
     </g>
    </g>
   </g>
   <g id="matplotlib.axis_4">
    <g id="ytick_6">
     <g id="line2d_43">
      <path d="M 44.67125 522.893344 
L 709.2 522.893344 
" clip-path="url(#pe247384edb)" style="fill: none; stroke: #b0b0b0; stroke-opacity: 0.25; stroke-width: 0.8; stroke-linecap: square"/>
     </g>
     <g id="line2d_44">
      <g>
       <use xlink:href="#ma6bee8bf38" x="44.67125" y="522.893344" style="stroke: #000000; stroke-width: 0.8"/>
      </g>
     </g>
     <g id="text_18">
      <!-- 0 -->
      <g transform="translate(31.30875 526.692563) scale(0.1 -0.1)">
       <use xlink:href="#DejaVuSans-30"/>
      </g>
     </g>
    </g>
    <g id="ytick_7">
     <g id="line2d_45">
      <path d="M 44.67125 487.880534 
L 709.2 487.880534 
" clip-path="url(#pe247384edb)" style="fill: none; stroke: #b0b0b0; stroke-opacity: 0.25; stroke-width: 0.8; stroke-linecap: square"/>
     </g>
     <g id="line2d_46">
      <g>
       <use xlink:href="#ma6bee8bf38" x="44.67125" y="487.880534" style="stroke: #000000; stroke-width: 0.8"/>
      </g>
     </g>
     <g id="text_19">
      <!-- 10 -->
      <g transform="translate(24.94625 491.679753) scale(0.1 -0.1)">
       <use xlink:href="#DejaVuSans-31"/>
       <use xlink:href="#DejaVuSans-30" transform="translate(63.623047 0)"/>
      </g>
     </g>
    </g>
    <g id="ytick_8">
     <g id="line2d_47">
      <path d="M 44.67125 452.867725 
L 709.2 452.867725 
" clip-path="url(#pe247384edb)" style="fill: none; stroke: #b0b0b0; stroke-opacity: 0.25; stroke-width: 0.8; stroke-linecap: square"/>
     </g>
     <g id="line2d_48">
      <g>
       <use xlink:href="#ma6bee8bf38" x="44.67125" y="452.867725" style="stroke: #000000; stroke-width: 0.8"/>
      </g>
     </g>
     <g id="text_20">
      <!-- 20 -->
      <g transform="translate(24.94625 456.666944) scale(0.1 -0.1)">
       <use xlink:href="#DejaVuSans-32"/>
       <use xlink:href="#DejaVuSans-30" transform="translate(63.623047 0)"/>
      </g>
     </g>
    </g>
    <g id="ytick_9">
     <g id="line2d_49">
      <path d="M 44.67125 417.854916 
L 709.2 417.854916 
" clip-path="url(#pe247384edb)" style="fill: none; stroke: #b0b0b0; stroke-opacity: 0.25; stroke-width: 0.8; stroke-linecap: square"/>
     </g>
     <g id="line2d_50">
      <g>
       <use xlink:href="#ma6bee8bf38" x="44.67125" y="417.854916" style="stroke: #000000; stroke-width: 0.8"/>
      </g>
     </g>
     <g id="text_21">
      <!-- 30 -->
      <g transform="translate(24.94625 421.654134) scale(0.1 -0.1)">
       <use xlink:href="#DejaVuSans-33"/>
       <use xlink:href="#DejaVuSans-30" transform="translate(63.623047 0)"/>
      </g>
     </g>
    </g>
    <g id="ytick_10">
     <g id="line2d_51">
      <path d="M 44.67125 382.842106 
L 709.2 382.842106 
" clip-path="url(#pe247384edb)" style="fill: none; stroke: #b0b0b0; stroke-opacity: 0.25; stroke-width: 0.8; stroke-linecap: square"/>
     </g>
     <g id="line2d_52">
      <g>
       <use xlink:href="#ma6bee8bf38" x="44.67125" y="382.842106" style="stroke: #000000; stroke-width: 0.8"/>
      </g>
     </g>
     <g id="text_22">
      <!-- 40 -->
      <g transform="translate(24.94625 386.641325) scale(0.1 -0.1)">
       <use xlink:href="#DejaVuSans-34"/>
       <use xlink:href="#DejaVuSans-30" transform="translate(63.623047 0)"/>
      </g>
     </g>
    </g>
    <g id="ytick_11">
     <g id="line2d_53">
      <path d="M 44.67125 347.829297 
L 709.2 347.829297 
" clip-path="url(#pe247384edb)" style="fill: none; stroke: #b0b0b0; stroke-opacity: 0.25; stroke-width: 0.8; stroke-linecap: square"/>
     </g>
     <g id="line2d_54">
      <g>
       <use xlink:href="#ma6bee8bf38" x="44.67125" y="347.829297" style="stroke: #000000; stroke-width: 0.8"/>
      </g>
     </g>
     <g id="text_23">
      <!-- 50 -->
      <g transform="translate(24.94625 351.628516) scale(0.1 -0.1)">
       <use xlink:href="#DejaVuSans-35"/>
       <use xlink:href="#DejaVuSans-30" transform="translate(63.623047 0)"/>
      </g>
     </g>
    </g>
    <g id="ytick_12">
     <g id="line2d_55">
      <path d="M 44.67125 312.816487 
L 709.2 312.816487 
" clip-path="url(#pe247384edb)" style="fill: none; stroke: #b0b0b0; stroke-opacity: 0.25; stroke-width: 0.8; stroke-linecap: square"/>
     </g>
     <g id="line2d_56">
      <g>
       <use xlink:href="#ma6bee8bf38" x="44.67125" y="312.816487" style="stroke: #000000; stroke-width: 0.8"/>
      </g>
     </g>
     <g id="text_24">
      <!-- 60 -->
      <g transform="translate(24.94625 316.615706) scale(0.1 -0.1)">
       <use xlink:href="#DejaVuSans-36"/>
       <use xlink:href="#DejaVuSans-30" transform="translate(63.623047 0)"/>
      </g>
     </g>
    </g>
    <g id="text_25">
     <!-- relative length -->
     <g transform="translate(18.866563 447.209375) rotate(-90) scale(0.1 -0.1)">
      <use xlink:href="#DejaVuSans-72"/>
      <use xlink:href="#DejaVuSans-65" transform="translate(38.863281 0)"/>
      <use xlink:href="#DejaVuSans-6c" transform="translate(100.386719 0)"/>
      <use xlink:href="#DejaVuSans-61" transform="translate(128.169922 0)"/>
      <use xlink:href="#DejaVuSans-74" transform="translate(189.449219 0)"/>
      <use xlink:href="#DejaVuSans-69" transform="translate(228.658203 0)"/>
      <use xlink:href="#DejaVuSans-76" transform="translate(256.441406 0)"/>
      <use xlink:href="#DejaVuSans-65" transform="translate(315.621094 0)"/>
      <use xlink:href="#DejaVuSans-20" transform="translate(377.144531 0)"/>
      <use xlink:href="#DejaVuSans-6c" transform="translate(408.931641 0)"/>
      <use xlink:href="#DejaVuSans-65" transform="translate(436.714844 0)"/>
      <use xlink:href="#DejaVuSans-6e" transform="translate(498.238281 0)"/>
      <use xlink:href="#DejaVuSans-67" transform="translate(561.617188 0)"/>
      <use xlink:href="#DejaVuSans-74" transform="translate(625.09375 0)"/>
      <use xlink:href="#DejaVuSans-68" transform="translate(664.302734 0)"/>
     </g>
    </g>
   </g>
   <g id="line2d_57">
    <path d="M 74.877102 519.392063 
L 84.466262 522.838636 
L 94.055421 522.783929 
L 103.644581 522.838636 
L 113.23374 522.674514 
L 122.8229 522.838636 
L 132.412059 522.783929 
L 142.001218 522.838636 
L 151.590378 522.455684 
L 161.179537 522.838636 
L 170.768697 522.783929 
L 180.357856 522.838636 
L 189.947016 522.674514 
L 199.536175 522.838636 
L 209.125335 522.783929 
L 218.714494 522.838636 
L 228.303653 522.018024 
L 237.892813 522.838636 
L 247.481972 522.783929 
L 257.071132 522.838636 
L 266.660291 522.674514 
L 276.249451 522.838636 
L 285.83861 522.783929 
L 295.42777 522.838636 
L 305.016929 522.455684 
L 314.606089 522.838636 
L 324.195248 522.783929 
L 333.784407 522.838636 
L 343.373567 522.674514 
L 352.962726 522.838636 
L 362.551886 522.783929 
L 372.141045 522.838636 
L 381.730205 521.142703 
L 391.319364 522.838636 
L 400.908524 522.783929 
L 410.497683 522.838636 
L 420.086843 522.674514 
L 429.676002 522.838636 
L 439.265161 522.783929 
L 448.854321 522.838636 
L 458.44348 522.455684 
L 468.03264 522.838636 
L 477.621799 522.783929 
L 487.210959 522.838636 
L 496.800118 522.674514 
L 506.389278 522.838636 
L 515.978437 522.783929 
L 525.567597 522.838636 
L 535.156756 522.018024 
L 544.745915 522.838636 
L 554.335075 522.783929 
L 563.924234 522.838636 
L 573.513394 522.674514 
L 583.102553 522.838636 
L 592.691713 522.783929 
L 602.280872 522.838636 
L 611.870032 522.455684 
L 621.459191 522.838636 
L 631.04835 522.783929 
L 640.63751 522.838636 
L 650.226669 522.674514 
L 659.815829 522.838636 
L 669.404988 522.783929 
L 678.994148 522.838636 
" clip-path="url(#pe247384edb)" style="fill: none; stroke: #d62728; stroke-width: 1.5; stroke-linecap: square"/>
    <defs>
     <path id="m74a5edcc34" d="M 0 3 
C 0.795609 3 1.55874 2.683901 2.12132 2.12132 
C 2.683901 1.55874 3 0.795609 3 0 
C 3 -0.795609 2.683901 -1.55874 2.12132 -2.12132 
C 1.55874 -2.683901 0.795609 -3 0 -3 
C -0.795609 -3 -1.55874 -2.683901 -2.12132 -2.12132 
C -2.683901 -1.55874 -3 -0.795609 -3 0 
C -3 0.795609 -2.683901 1.55874 -2.12132 2.12132 
C -1.55874 2.683901 -0.795609 3 0 3 
z
" style="stroke: #d62728"/>
    </defs>
    <g clip-path="url(#pe247384edb)">
     <use xlink:href="#m74a5edcc34" x="74.877102" y="519.392063" style="fill: #d62728; stroke: #d62728"/>
     <use xlink:href="#m74a5edcc34" x="84.466262" y="522.838636" style="fill: #d62728; stroke: #d62728"/>
     <use xlink:href="#m74a5edcc34" x="94.055421" y="522.783929" style="fill: #d62728; stroke: #d62728"/>
     <use xlink:href="#m74a5edcc34" x="103.644581" y="522.838636" style="fill: #d62728; stroke: #d62728"/>
     <use xlink:href="#m74a5edcc34" x="113.23374" y="522.674514" style="fill: #d62728; stroke: #d62728"/>
     <use xlink:href="#m74a5edcc34" x="122.8229" y="522.838636" style="fill: #d62728; stroke: #d62728"/>
     <use xlink:href="#m74a5edcc34" x="132.412059" y="522.783929" style="fill: #d62728; stroke: #d62728"/>
     <use xlink:href="#m74a5edcc34" x="142.001218" y="522.838636" style="fill: #d62728; stroke: #d62728"/>
     <use xlink:href="#m74a5edcc34" x="151.590378" y="522.455684" style="fill: #d62728; stroke: #d62728"/>
     <use xlink:href="#m74a5edcc34" x="161.179537" y="522.838636" style="fill: #d62728; stroke: #d62728"/>
     <use xlink:href="#m74a5edcc34" x="170.768697" y="522.783929" style="fill: #d62728; stroke: #d62728"/>
     <use xlink:href="#m74a5edcc34" x="180.357856" y="522.838636" style="fill: #d62728; stroke: #d62728"/>
     <use xlink:href="#m74a5edcc34" x="189.947016" y="522.674514" style="fill: #d62728; stroke: #d62728"/>
     <use xlink:href="#m74a5edcc34" x="199.536175" y="522.838636" style="fill: #d62728; stroke: #d62728"/>
     <use xlink:href="#m74a5edcc34" x="209.125335" y="522.783929" style="fill: #d62728; stroke: #d62728"/>
     <use xlink:href="#m74a5edcc34" x="218.714494" y="522.838636" style="fill: #d62728; stroke: #d62728"/>
     <use xlink:href="#m74a5edcc34" x="228.303653" y="522.018024" style="fill: #d62728; stroke: #d62728"/>
     <use xlink:href="#m74a5edcc34" x="237.892813" y="522.838636" style="fill: #d62728; stroke: #d62728"/>
     <use xlink:href="#m74a5edcc34" x="247.481972" y="522.783929" style="fill: #d62728; stroke: #d62728"/>
     <use xlink:href="#m74a5edcc34" x="257.071132" y="522.838636" style="fill: #d62728; stroke: #d62728"/>
     <use xlink:href="#m74a5edcc34" x="266.660291" y="522.674514" style="fill: #d62728; stroke: #d62728"/>
     <use xlink:href="#m74a5edcc34" x="276.249451" y="522.838636" style="fill: #d62728; stroke: #d62728"/>
     <use xlink:href="#m74a5edcc34" x="285.83861" y="522.783929" style="fill: #d62728; stroke: #d62728"/>
     <use xlink:href="#m74a5edcc34" x="295.42777" y="522.838636" style="fill: #d62728; stroke: #d62728"/>
     <use xlink:href="#m74a5edcc34" x="305.016929" y="522.455684" style="fill: #d62728; stroke: #d62728"/>
     <use xlink:href="#m74a5edcc34" x="314.606089" y="522.838636" style="fill: #d62728; stroke: #d62728"/>
     <use xlink:href="#m74a5edcc34" x="324.195248" y="522.783929" style="fill: #d62728; stroke: #d62728"/>
     <use xlink:href="#m74a5edcc34" x="333.784407" y="522.838636" style="fill: #d62728; stroke: #d62728"/>
     <use xlink:href="#m74a5edcc34" x="343.373567" y="522.674514" style="fill: #d62728; stroke: #d62728"/>
     <use xlink:href="#m74a5edcc34" x="352.962726" y="522.838636" style="fill: #d62728; stroke: #d62728"/>
     <use xlink:href="#m74a5edcc34" x="362.551886" y="522.783929" style="fill: #d62728; stroke: #d62728"/>
     <use xlink:href="#m74a5edcc34" x="372.141045" y="522.838636" style="fill: #d62728; stroke: #d62728"/>
     <use xlink:href="#m74a5edcc34" x="381.730205" y="521.142703" style="fill: #d62728; stroke: #d62728"/>
     <use xlink:href="#m74a5edcc34" x="391.319364" y="522.838636" style="fill: #d62728; stroke: #d62728"/>
     <use xlink:href="#m74a5edcc34" x="400.908524" y="522.783929" style="fill: #d62728; stroke: #d62728"/>
     <use xlink:href="#m74a5edcc34" x="410.497683" y="522.838636" style="fill: #d62728; stroke: #d62728"/>
     <use xlink:href="#m74a5edcc34" x="420.086843" y="522.674514" style="fill: #d62728; stroke: #d62728"/>
     <use xlink:href="#m74a5edcc34" x="429.676002" y="522.838636" style="fill: #d62728; stroke: #d62728"/>
     <use xlink:href="#m74a5edcc34" x="439.265161" y="522.783929" style="fill: #d62728; stroke: #d62728"/>
     <use xlink:href="#m74a5edcc34" x="448.854321" y="522.838636" style="fill: #d62728; stroke: #d62728"/>
     <use xlink:href="#m74a5edcc34" x="458.44348" y="522.455684" style="fill: #d62728; stroke: #d62728"/>
     <use xlink:href="#m74a5edcc34" x="468.03264" y="522.838636" style="fill: #d62728; stroke: #d62728"/>
     <use xlink:href="#m74a5edcc34" x="477.621799" y="522.783929" style="fill: #d62728; stroke: #d62728"/>
     <use xlink:href="#m74a5edcc34" x="487.210959" y="522.838636" style="fill: #d62728; stroke: #d62728"/>
     <use xlink:href="#m74a5edcc34" x="496.800118" y="522.674514" style="fill: #d62728; stroke: #d62728"/>
     <use xlink:href="#m74a5edcc34" x="506.389278" y="522.838636" style="fill: #d62728; stroke: #d62728"/>
     <use xlink:href="#m74a5edcc34" x="515.978437" y="522.783929" style="fill: #d62728; stroke: #d62728"/>
     <use xlink:href="#m74a5edcc34" x="525.567597" y="522.838636" style="fill: #d62728; stroke: #d62728"/>
     <use xlink:href="#m74a5edcc34" x="535.156756" y="522.018024" style="fill: #d62728; stroke: #d62728"/>
     <use xlink:href="#m74a5edcc34" x="544.745915" y="522.838636" style="fill: #d62728; stroke: #d62728"/>
     <use xlink:href="#m74a5edcc34" x="554.335075" y="522.783929" style="fill: #d62728; stroke: #d62728"/>
     <use xlink:href="#m74a5edcc34" x="563.924234" y="522.838636" style="fill: #d62728; stroke: #d62728"/>
     <use xlink:href="#m74a5edcc34" x="573.513394" y="522.674514" style="fill: #d62728; stroke: #d62728"/>
     <use xlink:href="#m74a5edcc34" x="583.102553" y="522.838636" style="fill: #d62728; stroke: #d62728"/>
     <use xlink:href="#m74a5edcc34" x="592.691713" y="522.783929" style="fill: #d62728; stroke: #d62728"/>
     <use xlink:href="#m74a5edcc34" x="602.280872" y="522.838636" style="fill: #d62728; stroke: #d62728"/>
     <use xlink:href="#m74a5edcc34" x="611.870032" y="522.455684" style="fill: #d62728; stroke: #d62728"/>
     <use xlink:href="#m74a5edcc34" x="621.459191" y="522.838636" style="fill: #d62728; stroke: #d62728"/>
     <use xlink:href="#m74a5edcc34" x="631.04835" y="522.783929" style="fill: #d62728; stroke: #d62728"/>
     <use xlink:href="#m74a5edcc34" x="640.63751" y="522.838636" style="fill: #d62728; stroke: #d62728"/>
     <use xlink:href="#m74a5edcc34" x="650.226669" y="522.674514" style="fill: #d62728; stroke: #d62728"/>
     <use xlink:href="#m74a5edcc34" x="659.815829" y="522.838636" style="fill: #d62728; stroke: #d62728"/>
     <use xlink:href="#m74a5edcc34" x="669.404988" y="522.783929" style="fill: #d62728; stroke: #d62728"/>
     <use xlink:href="#m74a5edcc34" x="678.994148" y="522.838636" style="fill: #d62728; stroke: #d62728"/>
    </g>
   </g>
   <g id="line2d_58">
    <path d="M 74.877102 517.941785 
L 84.466262 522.815976 
L 94.055421 522.738608 
L 103.644581 522.815976 
L 113.23374 522.583871 
L 122.8229 522.815976 
L 132.412059 522.738608 
L 142.001218 522.815976 
L 151.590378 522.274399 
L 161.179537 522.815976 
L 170.768697 522.738608 
L 180.357856 522.815976 
L 189.947016 522.583871 
L 199.536175 522.815976 
L 209.125335 522.738608 
L 218.714494 522.815976 
L 228.303653 521.655454 
L 237.892813 522.815976 
L 247.481972 522.738608 
L 257.071132 522.815976 
L 266.660291 522.583871 
L 276.249451 522.815976 
L 285.83861 522.738608 
L 295.42777 522.815976 
L 305.016929 522.274399 
L 314.606089 522.815976 
L 324.195248 522.738608 
L 333.784407 522.815976 
L 343.373567 522.583871 
L 352.962726 522.815976 
L 362.551886 522.738608 
L 372.141045 522.815976 
L 381.730205 520.417564 
L 391.319364 522.815976 
L 400.908524 522.738608 
L 410.497683 522.815976 
L 420.086843 522.583871 
L 429.676002 522.815976 
L 439.265161 522.738608 
L 448.854321 522.815976 
L 458.44348 522.274399 
L 468.03264 522.815976 
L 477.621799 522.738608 
L 487.210959 522.815976 
L 496.800118 522.583871 
L 506.389278 522.815976 
L 515.978437 522.738608 
L 525.567597 522.815976 
L 535.156756 521.655454 
L 544.745915 522.815976 
L 554.335075 522.738608 
L 563.924234 522.815976 
L 573.513394 522.583871 
L 583.102553 522.815976 
L 592.691713 522.738608 
L 602.280872 522.815976 
L 611.870032 522.274399 
L 621.459191 522.815976 
L 631.04835 522.738608 
L 640.63751 522.815976 
L 650.226669 522.583871 
L 659.815829 522.815976 
L 669.404988 522.738608 
L 678.994148 522.815976 
" clip-path="url(#pe247384edb)" style="fill: none; stroke: #2ca02c; stroke-width: 1.5; stroke-linecap: square"/>
    <defs>
     <path id="m52e54cb06d" d="M 0 3 
C 0.795609 3 1.55874 2.683901 2.12132 2.12132 
C 2.683901 1.55874 3 0.795609 3 0 
C 3 -0.795609 2.683901 -1.55874 2.12132 -2.12132 
C 1.55874 -2.683901 0.795609 -3 0 -3 
C -0.795609 -3 -1.55874 -2.683901 -2.12132 -2.12132 
C -2.683901 -1.55874 -3 -0.795609 -3 0 
C -3 0.795609 -2.683901 1.55874 -2.12132 2.12132 
C -1.55874 2.683901 -0.795609 3 0 3 
z
" style="stroke: #2ca02c"/>
    </defs>
    <g clip-path="url(#pe247384edb)">
     <use xlink:href="#m52e54cb06d" x="74.877102" y="517.941785" style="fill: #2ca02c; stroke: #2ca02c"/>
     <use xlink:href="#m52e54cb06d" x="84.466262" y="522.815976" style="fill: #2ca02c; stroke: #2ca02c"/>
     <use xlink:href="#m52e54cb06d" x="94.055421" y="522.738608" style="fill: #2ca02c; stroke: #2ca02c"/>
     <use xlink:href="#m52e54cb06d" x="103.644581" y="522.815976" style="fill: #2ca02c; stroke: #2ca02c"/>
     <use xlink:href="#m52e54cb06d" x="113.23374" y="522.583871" style="fill: #2ca02c; stroke: #2ca02c"/>
     <use xlink:href="#m52e54cb06d" x="122.8229" y="522.815976" style="fill: #2ca02c; stroke: #2ca02c"/>
     <use xlink:href="#m52e54cb06d" x="132.412059" y="522.738608" style="fill: #2ca02c; stroke: #2ca02c"/>
     <use xlink:href="#m52e54cb06d" x="142.001218" y="522.815976" style="fill: #2ca02c; stroke: #2ca02c"/>
     <use xlink:href="#m52e54cb06d" x="151.590378" y="522.274399" style="fill: #2ca02c; stroke: #2ca02c"/>
     <use xlink:href="#m52e54cb06d" x="161.179537" y="522.815976" style="fill: #2ca02c; stroke: #2ca02c"/>
     <use xlink:href="#m52e54cb06d" x="170.768697" y="522.738608" style="fill: #2ca02c; stroke: #2ca02c"/>
     <use xlink:href="#m52e54cb06d" x="180.357856" y="522.815976" style="fill: #2ca02c; stroke: #2ca02c"/>
     <use xlink:href="#m52e54cb06d" x="189.947016" y="522.583871" style="fill: #2ca02c; stroke: #2ca02c"/>
     <use xlink:href="#m52e54cb06d" x="199.536175" y="522.815976" style="fill: #2ca02c; stroke: #2ca02c"/>
     <use xlink:href="#m52e54cb06d" x="209.125335" y="522.738608" style="fill: #2ca02c; stroke: #2ca02c"/>
     <use xlink:href="#m52e54cb06d" x="218.714494" y="522.815976" style="fill: #2ca02c; stroke: #2ca02c"/>
     <use xlink:href="#m52e54cb06d" x="228.303653" y="521.655454" style="fill: #2ca02c; stroke: #2ca02c"/>
     <use xlink:href="#m52e54cb06d" x="237.892813" y="522.815976" style="fill: #2ca02c; stroke: #2ca02c"/>
     <use xlink:href="#m52e54cb06d" x="247.481972" y="522.738608" style="fill: #2ca02c; stroke: #2ca02c"/>
     <use xlink:href="#m52e54cb06d" x="257.071132" y="522.815976" style="fill: #2ca02c; stroke: #2ca02c"/>
     <use xlink:href="#m52e54cb06d" x="266.660291" y="522.583871" style="fill: #2ca02c; stroke: #2ca02c"/>
     <use xlink:href="#m52e54cb06d" x="276.249451" y="522.815976" style="fill: #2ca02c; stroke: #2ca02c"/>
     <use xlink:href="#m52e54cb06d" x="285.83861" y="522.738608" style="fill: #2ca02c; stroke: #2ca02c"/>
     <use xlink:href="#m52e54cb06d" x="295.42777" y="522.815976" style="fill: #2ca02c; stroke: #2ca02c"/>
     <use xlink:href="#m52e54cb06d" x="305.016929" y="522.274399" style="fill: #2ca02c; stroke: #2ca02c"/>
     <use xlink:href="#m52e54cb06d" x="314.606089" y="522.815976" style="fill: #2ca02c; stroke: #2ca02c"/>
     <use xlink:href="#m52e54cb06d" x="324.195248" y="522.738608" style="fill: #2ca02c; stroke: #2ca02c"/>
     <use xlink:href="#m52e54cb06d" x="333.784407" y="522.815976" style="fill: #2ca02c; stroke: #2ca02c"/>
     <use xlink:href="#m52e54cb06d" x="343.373567" y="522.583871" style="fill: #2ca02c; stroke: #2ca02c"/>
     <use xlink:href="#m52e54cb06d" x="352.962726" y="522.815976" style="fill: #2ca02c; stroke: #2ca02c"/>
     <use xlink:href="#m52e54cb06d" x="362.551886" y="522.738608" style="fill: #2ca02c; stroke: #2ca02c"/>
     <use xlink:href="#m52e54cb06d" x="372.141045" y="522.815976" style="fill: #2ca02c; stroke: #2ca02c"/>
     <use xlink:href="#m52e54cb06d" x="381.730205" y="520.417564" style="fill: #2ca02c; stroke: #2ca02c"/>
     <use xlink:href="#m52e54cb06d" x="391.319364" y="522.815976" style="fill: #2ca02c; stroke: #2ca02c"/>
     <use xlink:href="#m52e54cb06d" x="400.908524" y="522.738608" style="fill: #2ca02c; stroke: #2ca02c"/>
     <use xlink:href="#m52e54cb06d" x="410.497683" y="522.815976" style="fill: #2ca02c; stroke: #2ca02c"/>
     <use xlink:href="#m52e54cb06d" x="420.086843" y="522.583871" style="fill: #2ca02c; stroke: #2ca02c"/>
     <use xlink:href="#m52e54cb06d" x="429.676002" y="522.815976" style="fill: #2ca02c; stroke: #2ca02c"/>
     <use xlink:href="#m52e54cb06d" x="439.265161" y="522.738608" style="fill: #2ca02c; stroke: #2ca02c"/>
     <use xlink:href="#m52e54cb06d" x="448.854321" y="522.815976" style="fill: #2ca02c; stroke: #2ca02c"/>
     <use xlink:href="#m52e54cb06d" x="458.44348" y="522.274399" style="fill: #2ca02c; stroke: #2ca02c"/>
     <use xlink:href="#m52e54cb06d" x="468.03264" y="522.815976" style="fill: #2ca02c; stroke: #2ca02c"/>
     <use xlink:href="#m52e54cb06d" x="477.621799" y="522.738608" style="fill: #2ca02c; stroke: #2ca02c"/>
     <use xlink:href="#m52e54cb06d" x="487.210959" y="522.815976" style="fill: #2ca02c; stroke: #2ca02c"/>
     <use xlink:href="#m52e54cb06d" x="496.800118" y="522.583871" style="fill: #2ca02c; stroke: #2ca02c"/>
     <use xlink:href="#m52e54cb06d" x="506.389278" y="522.815976" style="fill: #2ca02c; stroke: #2ca02c"/>
     <use xlink:href="#m52e54cb06d" x="515.978437" y="522.738608" style="fill: #2ca02c; stroke: #2ca02c"/>
     <use xlink:href="#m52e54cb06d" x="525.567597" y="522.815976" style="fill: #2ca02c; stroke: #2ca02c"/>
     <use xlink:href="#m52e54cb06d" x="535.156756" y="521.655454" style="fill: #2ca02c; stroke: #2ca02c"/>
     <use xlink:href="#m52e54cb06d" x="544.745915" y="522.815976" style="fill: #2ca02c; stroke: #2ca02c"/>
     <use xlink:href="#m52e54cb06d" x="554.335075" y="522.738608" style="fill: #2ca02c; stroke: #2ca02c"/>
     <use xlink:href="#m52e54cb06d" x="563.924234" y="522.815976" style="fill: #2ca02c; stroke: #2ca02c"/>
     <use xlink:href="#m52e54cb06d" x="573.513394" y="522.583871" style="fill: #2ca02c; stroke: #2ca02c"/>
     <use xlink:href="#m52e54cb06d" x="583.102553" y="522.815976" style="fill: #2ca02c; stroke: #2ca02c"/>
     <use xlink:href="#m52e54cb06d" x="592.691713" y="522.738608" style="fill: #2ca02c; stroke: #2ca02c"/>
     <use xlink:href="#m52e54cb06d" x="602.280872" y="522.815976" style="fill: #2ca02c; stroke: #2ca02c"/>
     <use xlink:href="#m52e54cb06d" x="611.870032" y="522.274399" style="fill: #2ca02c; stroke: #2ca02c"/>
     <use xlink:href="#m52e54cb06d" x="621.459191" y="522.815976" style="fill: #2ca02c; stroke: #2ca02c"/>
     <use xlink:href="#m52e54cb06d" x="631.04835" y="522.738608" style="fill: #2ca02c; stroke: #2ca02c"/>
     <use xlink:href="#m52e54cb06d" x="640.63751" y="522.815976" style="fill: #2ca02c; stroke: #2ca02c"/>
     <use xlink:href="#m52e54cb06d" x="650.226669" y="522.583871" style="fill: #2ca02c; stroke: #2ca02c"/>
     <use xlink:href="#m52e54cb06d" x="659.815829" y="522.815976" style="fill: #2ca02c; stroke: #2ca02c"/>
     <use xlink:href="#m52e54cb06d" x="669.404988" y="522.738608" style="fill: #2ca02c; stroke: #2ca02c"/>
     <use xlink:href="#m52e54cb06d" x="678.994148" y="522.815976" style="fill: #2ca02c; stroke: #2ca02c"/>
    </g>
   </g>
   <g id="line2d_59">
    <path d="M 74.877102 519.392063 
L 84.466262 298.811364 
L 94.055421 410.852354 
L 103.644581 298.811364 
L 113.23374 466.872849 
L 122.8229 298.811364 
L 132.412059 410.852354 
L 142.001218 298.811364 
L 151.590378 494.883096 
L 161.179537 298.811364 
L 170.768697 410.852354 
L 180.357856 298.811364 
L 189.947016 466.872849 
L 199.536175 298.811364 
L 209.125335 410.852354 
L 218.714494 298.811364 
L 228.303653 508.88822 
L 237.892813 298.811364 
L 247.481972 410.852354 
L 257.071132 298.811364 
L 266.660291 466.872849 
L 276.249451 298.811364 
L 285.83861 410.852354 
L 295.42777 298.811364 
L 305.016929 494.883096 
L 314.606089 298.811364 
L 324.195248 410.852354 
L 333.784407 298.811364 
L 343.373567 466.872849 
L 352.962726 298.811364 
L 362.551886 410.852354 
L 372.141045 298.811364 
L 381.730205 515.890782 
L 391.319364 298.811364 
L 400.908524 410.852354 
L 410.497683 298.811364 
L 420.086843 466.872849 
L 429.676002 298.811364 
L 439.265161 410.852354 
L 448.854321 298.811364 
L 458.44348 494.883096 
L 468.03264 298.811364 
L 477.621799 410.852354 
L 487.210959 298.811364 
L 496.800118 466.872849 
L 506.389278 298.811364 
L 515.978437 410.852354 
L 525.567597 298.811364 
L 535.156756 508.88822 
L 544.745915 298.811364 
L 554.335075 410.852354 
L 563.924234 298.811364 
L 573.513394 466.872849 
L 583.102553 298.811364 
L 592.691713 410.852354 
L 602.280872 298.811364 
L 611.870032 494.883096 
L 621.459191 298.811364 
L 631.04835 410.852354 
L 640.63751 298.811364 
L 650.226669 466.872849 
L 659.815829 298.811364 
L 669.404988 410.852354 
L 678.994148 298.811364 
" clip-path="url(#pe247384edb)" style="fill: none; stroke-dasharray: 5.55,2.4; stroke-dashoffset: 0; stroke: #d62728; stroke-opacity: 0.35; stroke-width: 1.5"/>
   </g>
   <g id="line2d_60">
    <path d="M 74.877102 519.392063 
L 84.466262 298.811364 
L 94.055421 410.852354 
L 103.644581 298.811364 
L 113.23374 466.872849 
L 122.8229 298.811364 
L 132.412059 410.852354 
L 142.001218 298.811364 
L 151.590378 494.883096 
L 161.179537 298.811364 
L 170.768697 410.852354 
L 180.357856 298.811364 
L 189.947016 466.872849 
L 199.536175 298.811364 
L 209.125335 410.852354 
L 218.714494 298.811364 
L 228.303653 508.88822 
L 237.892813 298.811364 
L 247.481972 410.852354 
L 257.071132 298.811364 
L 266.660291 466.872849 
L 276.249451 298.811364 
L 285.83861 410.852354 
L 295.42777 298.811364 
L 305.016929 494.883096 
L 314.606089 298.811364 
L 324.195248 410.852354 
L 333.784407 298.811364 
L 343.373567 466.872849 
L 352.962726 298.811364 
L 362.551886 410.852354 
L 372.141045 298.811364 
L 381.730205 515.890782 
L 391.319364 298.811364 
L 400.908524 410.852354 
L 410.497683 298.811364 
L 420.086843 466.872849 
L 429.676002 298.811364 
L 439.265161 410.852354 
L 448.854321 298.811364 
L 458.44348 494.883096 
L 468.03264 298.811364 
L 477.621799 410.852354 
L 487.210959 298.811364 
L 496.800118 466.872849 
L 506.389278 298.811364 
L 515.978437 410.852354 
L 525.567597 298.811364 
L 535.156756 508.88822 
L 544.745915 298.811364 
L 554.335075 410.852354 
L 563.924234 298.811364 
L 573.513394 466.872849 
L 583.102553 298.811364 
L 592.691713 410.852354 
L 602.280872 298.811364 
L 611.870032 494.883096 
L 621.459191 298.811364 
L 631.04835 410.852354 
L 640.63751 298.811364 
L 650.226669 466.872849 
L 659.815829 298.811364 
L 669.404988 410.852354 
L 678.994148 298.811364 
" clip-path="url(#pe247384edb)" style="fill: none; stroke-dasharray: 5.55,2.4; stroke-dashoffset: 0; stroke: #2ca02c; stroke-opacity: 0.35; stroke-width: 1.5"/>
   </g>
   <g id="patch_9">
    <path d="M 44.67125 534.04 
L 44.67125 287.61 
" style="fill: none; stroke: #000000; stroke-width: 0.8; stroke-linejoin: miter; stroke-linecap: square"/>
   </g>
   <g id="patch_10">
    <path d="M 709.2 534.04 
L 709.2 287.61 
" style="fill: none; stroke: #000000; stroke-width: 0.8; stroke-linejoin: miter; stroke-linecap: square"/>
   </g>
   <g id="patch_11">
    <path d="M 44.67125 534.04 
L 709.2 534.04 
" style="fill: none; stroke: #000000; stroke-width: 0.8; stroke-linejoin: miter; stroke-linecap: square"/>
   </g>
   <g id="patch_12">
    <path d="M 44.67125 287.61 
L 709.2 287.61 
" style="fill: none; stroke: #000000; stroke-width: 0.8; stroke-linejoin: miter; stroke-linecap: square"/>
   </g>
   <g id="legend_2">
    <g id="patch_13">
     <path d="M 546.202969 425.675 
L 702.9 425.675 
Q 704.7 425.675 704.7 423.875 
L 704.7 397.775 
Q 704.7 395.975 702.9 395.975 
L 546.202969 395.975 
Q 544.402969 395.975 544.402969 397.775 
L 544.402969 423.875 
Q 544.402969 425.675 546.202969 425.675 
z
" style="fill: #ffffff; opacity: 0.8; stroke: #cccccc; stroke-linejoin: miter"/>
    </g>
    <g id="line2d_61">
     <path d="M 548.002969 403.302969 
L 557.002969 403.302969 
L 566.002969 403.302969 
" style="fill: none; stroke: #d62728; stroke-width: 1.5; stroke-linecap: square"/>
     <g>
      <use xlink:href="#m74a5edcc34" x="557.002969" y="403.302969" style="fill: #d62728; stroke: #d62728"/>
     </g>
    </g>
    <g id="text_26">
     <!-- |y| / |x| -->
     <g transform="translate(573.202969 406.452969) scale(0.09 -0.09)">
      <defs>
       <path id="DejaVuSans-7c" d="M 1344 4891 
L 1344 -1509 
L 813 -1509 
L 813 4891 
L 1344 4891 
z
" transform="scale(0.015625)"/>
       <path id="DejaVuSans-2f" d="M 1625 4666 
L 2156 4666 
L 531 -594 
L 0 -594 
L 1625 4666 
z
" transform="scale(0.015625)"/>
      </defs>
      <use xlink:href="#DejaVuSans-7c"/>
      <use xlink:href="#DejaVuSans-79" transform="translate(33.691406 0)"/>
      <use xlink:href="#DejaVuSans-7c" transform="translate(92.871094 0)"/>
      <use xlink:href="#DejaVuSans-20" transform="translate(126.5625 0)"/>
      <use xlink:href="#DejaVuSans-2f" transform="translate(158.349609 0)"/>
      <use xlink:href="#DejaVuSans-20" transform="translate(192.041016 0)"/>
      <use xlink:href="#DejaVuSans-7c" transform="translate(223.828125 0)"/>
      <use xlink:href="#DejaVuSans-78" transform="translate(257.519531 0)"/>
      <use xlink:href="#DejaVuSans-7c" transform="translate(316.699219 0)"/>
     </g>
    </g>
    <g id="line2d_62">
     <path d="M 548.002969 416.802969 
L 557.002969 416.802969 
L 566.002969 416.802969 
" style="fill: none; stroke: #2ca02c; stroke-width: 1.5; stroke-linecap: square"/>
     <g>
      <use xlink:href="#m52e54cb06d" x="557.002969" y="416.802969" style="fill: #2ca02c; stroke: #2ca02c"/>
     </g>
    </g>
    <g id="text_27">
     <!-- |y-x| / |x| -->
     <g transform="translate(573.202969 419.952969) scale(0.09 -0.09)">
      <defs>
       <path id="DejaVuSans-2d" d="M 313 2009 
L 1997 2009 
L 1997 1497 
L 313 1497 
L 313 2009 
z
" transform="scale(0.015625)"/>
      </defs>
      <use xlink:href="#DejaVuSans-7c"/>
      <use xlink:href="#DejaVuSans-79" transform="translate(33.691406 0)"/>
      <use xlink:href="#DejaVuSans-2d" transform="translate(91.121094 0)"/>
      <use xlink:href="#DejaVuSans-78" transform="translate(127.205078 0)"/>
      <use xlink:href="#DejaVuSans-7c" transform="translate(186.384766 0)"/>
      <use xlink:href="#DejaVuSans-20" transform="translate(220.076172 0)"/>
      <use xlink:href="#DejaVuSans-2f" transform="translate(251.863281 0)"/>
      <use xlink:href="#DejaVuSans-20" transform="translate(285.554688 0)"/>
      <use xlink:href="#DejaVuSans-7c" transform="translate(317.341797 0)"/>
      <use xlink:href="#DejaVuSans-78" transform="translate(351.033203 0)"/>
      <use xlink:href="#DejaVuSans-7c" transform="translate(410.212891 0)"/>
     </g>
    </g>
    <g id="line2d_63">
     <path d="M 631.153125 403.302969 
L 640.153125 403.302969 
L 649.153125 403.302969 
" style="fill: none; stroke-dasharray: 5.55,2.4; stroke-dashoffset: 0; stroke: #d62728; stroke-opacity: 0.35; stroke-width: 1.5"/>
    </g>
    <g id="text_28">
     <!-- p_y / L -->
     <g transform="translate(656.353125 406.452969) scale(0.09 -0.09)">
      <use xlink:href="#DejaVuSans-70"/>
      <use xlink:href="#DejaVuSans-5f" transform="translate(63.476562 0)"/>
      <use xlink:href="#DejaVuSans-79" transform="translate(113.476562 0)"/>
      <use xlink:href="#DejaVuSans-20" transform="translate(172.65625 0)"/>
      <use xlink:href="#DejaVuSans-2f" transform="translate(204.443359 0)"/>
      <use xlink:href="#DejaVuSans-20" transform="translate(238.134766 0)"/>
      <use xlink:href="#DejaVuSans-4c" transform="translate(269.921875 0)"/>
     </g>
    </g>
    <g id="line2d_64">
     <path d="M 631.153125 416.763594 
L 640.153125 416.763594 
L 649.153125 416.763594 
" style="fill: none; stroke-dasharray: 5.55,2.4; stroke-dashoffset: 0; stroke: #2ca02c; stroke-opacity: 0.35; stroke-width: 1.5"/>
    </g>
    <g id="text_29">
     <!-- p_(y-x) / L -->
     <g transform="translate(656.353125 419.913594) scale(0.09 -0.09)">
      <use xlink:href="#DejaVuSans-70"/>
      <use xlink:href="#DejaVuSans-5f" transform="translate(63.476562 0)"/>
      <use xlink:href="#DejaVuSans-28" transform="translate(113.476562 0)"/>
      <use xlink:href="#DejaVuSans-79" transform="translate(152.490234 0)"/>
      <use xlink:href="#DejaVuSans-2d" transform="translate(209.919922 0)"/>
      <use xlink:href="#DejaVuSans-78" transform="translate(246.003906 0)"/>
      <use xlink:href="#DejaVuSans-29" transform="translate(305.183594 0)"/>
      <use xlink:href="#DejaVuSans-20" transform="translate(344.197266 0)"/>
      <use xlink:href="#DejaVuSans-2f" transform="translate(375.984375 0)"/>
      <use xlink:href="#DejaVuSans-20" transform="translate(409.675781 0)"/>
      <use xlink:href="#DejaVuSans-4c" transform="translate(441.462891 0)"/>
     </g>
    </g>
   </g>
  </g>
 </g>
 <defs>
  <clipPath id="p2382d4a795">
   <rect x="44.67125" y="26.88" width="664.52875" height="246.43"/>
  </clipPath>
  <clipPath id="pe247384edb">
   <rect x="44.67125" y="287.61" width="664.52875" height="246.43"/>
  </clipPath>
 </defs>
</svg>
